<svg width="228" height="95" viewBox="0 0 228 95" fill="none" xmlns="http://www.w3.org/2000/svg">
<path d="M112.994 46.5433H116.601V35.1221H125.895C132.461 35.1221 137.594 30.9143 137.594 24.9494C137.594 18.9845 132.461 14.7767 125.895 14.7767H112.994V46.5433ZM116.601 31.7004V18.1984H125.248C130.426 18.1984 133.941 20.6953 133.941 24.9494C133.941 29.2034 130.426 31.7004 125.248 31.7004H116.601Z" fill="white"/>
<path d="M161.696 46.5433H165.627L151.616 14.7767H147.686L133.675 46.5433H137.606L140.796 39.3299H158.506L161.696 46.5433ZM142.276 35.9081L149.674 19.2157L157.026 35.9081H142.276Z" fill="white"/>
<path d="M195.24 46.5433H199.17L185.16 14.7767H181.23L167.219 46.5433H171.149L174.34 39.3299H192.05L195.24 46.5433ZM175.82 35.9081L183.218 19.2157L190.57 35.9081H175.82Z" fill="white"/>
<path d="M201.089 46.5433H204.696V20.6953L224.395 46.5433H228.001V14.7767H224.395V40.6246L204.696 14.7767H201.089V46.5433Z" fill="white"/>
<path d="M112.985 62.1349H114.098V58.6125H116.964C118.989 58.6125 120.572 57.3148 120.572 55.4752C120.572 53.6356 118.989 52.3379 116.964 52.3379H112.985V62.1349ZM114.098 57.5573V53.3932H116.764C118.362 53.3932 119.445 54.1632 119.445 55.4752C119.445 56.7872 118.362 57.5573 116.764 57.5573H114.098Z" fill="white"/>
<path d="M125.121 54.591C124.408 54.591 123.524 54.7764 122.468 55.3041L122.896 56.174C123.566 55.8317 124.308 55.5037 125.05 55.5037C126.647 55.5037 127.046 56.6446 127.046 57.6428V57.9137C126.29 57.6713 125.449 57.5002 124.65 57.5002C123.067 57.5002 121.755 58.4842 121.755 59.953C121.755 61.4076 122.896 62.306 124.451 62.306C125.42 62.306 126.518 61.8497 127.046 60.9798V62.1349H128.116V57.6428C128.116 55.8602 127.132 54.591 125.121 54.591ZM124.636 61.3648C123.595 61.3648 122.796 60.8229 122.796 59.9102C122.796 59.0261 123.723 58.3986 124.821 58.3986C125.62 58.3986 126.376 58.5127 127.046 58.6981V59.8247C126.761 60.8657 125.606 61.3648 124.636 61.3648Z" fill="white"/>
<path d="M133.805 54.591C132.764 54.591 131.809 55.1615 131.381 55.9458V54.7622H130.312V62.1349H131.381V57.4432C131.381 56.4164 132.422 55.5465 133.663 55.5465C134.747 55.5465 135.502 56.3879 135.502 57.5858V62.1349H136.572V57.4432C136.572 55.7747 135.431 54.591 133.805 54.591Z" fill="white"/>
<path d="M142.148 57.7426H138.455V58.7837H142.148V57.7426Z" fill="white"/>
<path d="M152.045 62.1349H153.257L148.936 52.3379H147.724L143.403 62.1349H144.615L145.599 59.9102H151.061L152.045 62.1349ZM146.055 58.855L148.337 53.7069L150.604 58.855H146.055Z" fill="white"/>
<path d="M156.465 53.7496C156.465 53.2077 156.836 52.8227 157.264 52.8227C157.592 52.8227 157.877 52.951 158.034 53.1221L158.562 52.3378C158.177 52.0383 157.692 51.8672 157.193 51.8672C156.137 51.8672 155.396 52.6516 155.396 53.7496V54.7621H154.241V55.7176H155.396V62.1349H156.465V55.7176H158.276V54.7621H156.465V53.7496Z" fill="white"/>
<path d="M160.972 56.2025V54.7622H159.902V62.1349H160.972V58.0136C160.972 56.5733 162.156 55.5465 163.824 55.5465V54.591C162.469 54.591 161.414 55.2185 160.972 56.2025Z" fill="white"/>
<path d="M165.836 53.4216C166.221 53.4216 166.534 53.0936 166.534 52.7086C166.534 52.3378 166.221 52.0098 165.836 52.0098C165.436 52.0098 165.123 52.3378 165.123 52.7086C165.123 53.0936 165.436 53.4216 165.836 53.4216ZM165.294 62.1349H166.363V54.7621H165.294V62.1349Z" fill="white"/>
<path d="M171.94 62.306C172.966 62.306 173.908 61.8782 174.606 61.1794L173.865 60.4521C173.365 61.0083 172.681 61.3506 171.94 61.3506C170.47 61.3506 169.244 60.0243 169.244 58.4414C169.244 56.8727 170.47 55.5465 171.94 55.5465C172.667 55.5465 173.337 55.8745 173.822 56.4021L174.563 55.6748C173.865 55.0046 172.938 54.591 171.94 54.591C169.872 54.591 168.118 56.3451 168.118 58.4414C168.118 60.5377 169.872 62.306 171.94 62.306Z" fill="white"/>
<path d="M179.24 54.591C178.527 54.591 177.643 54.7764 176.587 55.3041L177.015 56.174C177.686 55.8317 178.427 55.5037 179.169 55.5037C180.766 55.5037 181.165 56.6446 181.165 57.6428V57.9137C180.409 57.6713 179.568 57.5002 178.769 57.5002C177.187 57.5002 175.875 58.4842 175.875 59.953C175.875 61.4076 177.015 62.306 178.57 62.306C179.539 62.306 180.638 61.8497 181.165 60.9798V62.1349H182.235V57.6428C182.235 55.8602 181.251 54.591 179.24 54.591ZM178.755 61.3648C177.715 61.3648 176.916 60.8229 176.916 59.9102C176.916 59.0261 177.842 58.3986 178.941 58.3986C179.739 58.3986 180.495 58.5127 181.165 58.6981V59.8247C180.88 60.8657 179.725 61.3648 178.755 61.3648Z" fill="white"/>
<path d="M187.925 54.591C186.884 54.591 185.928 55.1615 185.5 55.9458V54.7622H184.431V62.1349H185.5V57.4432C185.5 56.4164 186.541 55.5465 187.782 55.5465C188.866 55.5465 189.622 56.3879 189.622 57.5858V62.1349H190.691V57.4432C190.691 55.7747 189.55 54.591 187.925 54.591Z" fill="white"/>
<path d="M121.628 77.4718H122.84L118.519 67.6748H117.307L112.986 77.4718H114.198L115.182 75.2472H120.644L121.628 77.4718ZM115.638 74.1919L117.92 69.0438L120.187 74.1919H115.638Z" fill="white"/>
<path d="M130.112 70.0991V71.3683C129.542 70.4699 128.601 69.928 127.431 69.928C125.449 69.928 124.037 71.3683 124.037 73.4219C124.037 75.4754 125.449 76.93 127.431 76.93C128.601 76.93 129.542 76.3881 130.112 75.4897V76.6876C130.112 78.1277 129.114 78.9694 127.417 78.9694C126.504 78.9694 125.62 78.6411 125.05 78.0992L124.579 78.9409C125.249 79.5113 126.362 79.9247 127.559 79.9247C129.684 79.9247 131.182 78.5841 131.182 76.6876V70.0991H130.112ZM127.631 75.9745C126.19 75.9745 125.164 74.9192 125.164 73.4219C125.164 71.9388 126.19 70.8835 127.631 70.8835C129.085 70.8835 130.112 71.9388 130.112 73.4219C130.112 74.9192 129.085 75.9745 127.631 75.9745Z" fill="white"/>
<path d="M136.772 76.6876C135.317 76.6876 134.305 75.6323 134.148 74.192H140.18C140.18 71.6108 138.911 69.928 136.686 69.928C134.704 69.928 133.05 71.568 133.05 73.7641C133.05 76.0316 134.818 77.6428 136.786 77.6428C137.813 77.6428 139.111 77.2009 139.752 76.5022L139.096 75.8034C138.64 76.3025 137.642 76.6876 136.772 76.6876ZM136.729 70.8835C138.198 70.8835 138.982 71.9102 139.125 73.2365H134.162C134.362 71.8104 135.417 70.8835 136.729 70.8835Z" fill="white"/>
<path d="M145.443 69.928C144.402 69.928 143.446 70.4984 143.018 71.2828V70.0991H141.949V77.4718H143.018V72.7801C143.018 71.7534 144.059 70.8835 145.3 70.8835C146.384 70.8835 147.14 71.7248 147.14 72.9228V77.4718H148.209V72.7801C148.209 71.1116 147.068 69.928 145.443 69.928Z" fill="white"/>
<path d="M153.799 77.6428C154.826 77.6428 155.767 77.2153 156.466 76.5164L155.725 75.7892C155.225 76.3453 154.541 76.6876 153.799 76.6876C152.331 76.6876 151.104 75.3613 151.104 73.7784C151.104 72.2097 152.331 70.8835 153.799 70.8835C154.527 70.8835 155.197 71.2115 155.682 71.7391L156.423 71.0118C155.725 70.3416 154.798 69.928 153.799 69.928C151.732 69.928 149.978 71.6821 149.978 73.7784C149.978 75.8747 151.732 77.6428 153.799 77.6428Z" fill="white"/>
<path d="M159.204 80.0387C160.217 80.0247 160.93 79.5538 161.443 78.2991L164.809 70.0991H163.654L161.215 76.2312L158.634 70.0991H157.45L160.659 77.5003L160.231 78.4131C159.946 78.9124 159.632 79.069 159.161 79.069C158.848 79.069 158.548 79.012 158.292 78.8839L158.035 79.7963C158.377 79.9532 158.776 80.0387 159.204 80.0387Z" fill="white"/>
<path d="M170.955 77.4718H172.067V69.5002L178.142 77.4718H179.254V67.6748H178.142V75.6465L172.067 67.6748H170.955V77.4718Z" fill="white"/>
<path d="M185.002 76.6876C183.548 76.6876 182.534 75.6323 182.378 74.192H188.41C188.41 71.6108 187.141 69.928 184.916 69.928C182.934 69.928 181.28 71.568 181.28 73.7641C181.28 76.0316 183.048 77.6428 185.016 77.6428C186.043 77.6428 187.341 77.2009 187.982 76.5022L187.326 75.8034C186.87 76.3025 185.872 76.6876 185.002 76.6876ZM184.959 70.8835C186.428 70.8835 187.212 71.9102 187.355 73.2365H182.392C182.592 71.8104 183.647 70.8835 184.959 70.8835Z" fill="white"/>
<path d="M193.401 76.3881C193.243 76.5592 192.959 76.6875 192.63 76.6875C192.203 76.6875 191.831 76.3025 191.831 75.7606V71.0546H193.642V70.0991H191.831V68.0741H190.762V70.0991H189.607V71.0546H190.762V75.7606C190.762 76.8587 191.504 77.6428 192.559 77.6428C193.058 77.6428 193.543 77.4718 193.929 77.1724L193.401 76.3881Z" fill="white"/>
<path d="M197.323 77.4718H198.336L200.318 71.5823L202.271 77.4718H203.285L205.766 70.0991H204.625L202.785 76.0458L200.774 70.0991H199.847L197.837 76.0458L195.997 70.0991H194.856L197.323 77.4718Z" fill="white"/>
<path d="M210.456 77.6428C212.524 77.6428 214.264 75.8747 214.264 73.7784C214.264 71.6821 212.524 69.928 210.456 69.928C208.388 69.928 206.634 71.6821 206.634 73.7784C206.634 75.8747 208.388 77.6428 210.456 77.6428ZM210.456 76.6876C208.988 76.6876 207.761 75.3613 207.761 73.7784C207.761 72.2097 208.988 70.8835 210.456 70.8835C211.911 70.8835 213.138 72.2097 213.138 73.7784C213.138 75.3613 211.911 76.6876 210.456 76.6876Z" fill="white"/>
<path d="M217.202 71.5395V70.0991H216.133V77.4718H217.202V73.3506C217.202 71.9102 218.386 70.8835 220.055 70.8835V69.928C218.699 69.928 217.644 70.5555 217.202 71.5395Z" fill="white"/>
<path d="M227.998 70.0991H226.629L222.593 74.1777V67.5037H221.523V77.4718H222.593V75.5182L223.919 74.2062L226.471 77.4718H227.812L224.675 73.4789L227.998 70.0991Z" fill="white"/>
<path d="M51.495 68.5638L51.4889 68.5699L48.1121 68.2378L47.1341 68.1455L47.1279 68.1209C47.1771 68.1332 47.2263 68.1455 47.2756 68.1517L48.1121 68.2316L51.495 68.5638Z" fill="white"/>
<path d="M30.09 39.3471C30.0777 39.3717 30.0716 39.3963 30.0716 39.4209L30.0654 39.3717L30.09 39.3471Z" fill="white"/>
<path fill-rule="evenodd" clip-rule="evenodd" d="M12.1234 76.9106L12.0803 77.0828L12.2095 77.009C12.1788 76.9783 12.148 76.9414 12.1234 76.9106ZM11.3053 75.908L11.1024 76.0249C11.0962 76.031 11.0901 76.031 11.0839 76.0433C11.1639 75.988 11.25 75.9572 11.3422 75.9449C11.3238 75.9326 11.3176 75.9203 11.3053 75.908ZM10.8133 76.3509C10.8133 76.3509 10.8133 76.357 10.8071 76.3632C10.7887 76.4062 10.7764 76.4431 10.7641 76.4862V76.5108C10.7579 76.5477 10.7518 76.5785 10.7518 76.6154L10.8256 76.3324L10.8317 76.2955C10.8194 76.314 10.8133 76.3324 10.8133 76.3509ZM10.7518 76.6461V76.6154C10.7456 76.6215 10.7456 76.6277 10.7456 76.6338V76.64C10.7456 76.6892 10.7518 76.7384 10.7702 76.7876C10.7579 76.7445 10.7518 76.6953 10.7518 76.6461ZM83.7318 17.8807C83.7442 17.8991 83.7442 17.9114 83.7503 17.9299C83.7565 17.9176 83.7565 17.9053 83.7565 17.8868C83.7503 17.8868 83.7442 17.8807 83.7318 17.8807ZM68.1148 4.76703C68.0902 4.74858 68.0594 4.73013 68.0287 4.71783C68.0348 4.72398 68.0348 4.72398 68.041 4.73013C68.0717 4.74243 68.0963 4.76088 68.1271 4.77934C68.1271 4.77318 68.1209 4.77318 68.1148 4.76703Z" fill="white"/>
<path fill-rule="evenodd" clip-rule="evenodd" d="M91.4881 60.6045L83.2029 59.1099C83.2152 59.1775 83.2152 59.2514 83.2152 59.319C83.2152 59.7373 83.1475 60.1309 83.0183 60.5061L91.0575 61.9577C89.4337 66.8354 87.0102 71.3563 83.941 75.3543L80.7794 62.7943C80.3858 62.9357 79.9675 63.0157 79.5246 63.0157C79.4754 63.0157 79.4262 63.0157 79.3832 63.0095L82.5939 75.7726L71.2025 69.1973C70.9811 69.6217 70.6735 69.9969 70.3045 70.3045L80.9824 76.4676L65.3653 75.9387C65.5376 76.3631 65.6298 76.8244 65.6298 77.3042V77.3595L81.8435 77.9008C78.5282 81.6405 74.6101 84.839 70.2491 87.3424L64.4919 79.9736C64.1536 80.2996 63.7476 80.558 63.2986 80.7363L69.0005 88.0313C62.8804 91.2912 55.936 93.2103 48.5673 93.3948L59.1776 79.7522C58.8393 79.3709 58.5809 78.9218 58.4271 78.4298L48.1121 91.6972V79.5308C47.8599 79.58 47.6016 79.6107 47.3371 79.6107C47.1218 79.6107 46.9066 79.5923 46.7036 79.5554V91.7157L37.059 79.1556C36.7392 79.5 36.3517 79.783 35.9211 79.9798L46.2238 93.3948C38.935 93.2042 32.0645 91.322 25.9936 88.1174L32.4889 79.8014C32.0768 79.5615 31.7201 79.2417 31.4371 78.8665L24.745 87.4346C20.0888 84.7898 15.9308 81.3576 12.4678 77.3165L30.699 77.0274C30.6867 76.8982 30.6806 76.769 30.6806 76.6337C30.6806 76.2831 30.7298 75.9387 30.822 75.6188L14.1716 75.8895L24.3452 70.0769C24.0499 69.7078 23.8346 69.2773 23.7116 68.816L12.5478 75.1944L15.5863 63.0095C15.1004 62.9849 14.6391 62.8681 14.2208 62.6774L11.0224 75.5389C8.05149 71.7007 5.67111 67.3828 4.02268 62.7204L12.3264 60.6414C12.1664 60.2293 12.0803 59.7865 12.0803 59.319V59.2575L3.57366 61.3795C2.29428 57.363 1.55002 53.1066 1.42701 48.6965L12.64 57.3815C12.8861 56.9755 13.2121 56.6188 13.5934 56.342L2.97703 48.1183L15.1496 48.1859C15.1004 47.9337 15.0696 47.6754 15.0696 47.4048C15.0696 47.1895 15.0881 46.9804 15.125 46.7774L2.97703 46.7159L13.5442 38.6336C13.169 38.3507 12.843 37.9939 12.6031 37.5818L1.42701 46.1254C1.56233 41.2231 2.46651 36.5054 4.02268 32.1014L12.1295 35.1276C12.1972 34.6479 12.3633 34.1988 12.6031 33.8052L4.50859 30.7851C6.07091 26.7501 8.19297 22.9858 10.7702 19.5967L14.1101 32.4028C14.5161 32.1875 14.9712 32.0583 15.4571 32.0153L12.1849 19.4491L23.8162 26.1351C23.9823 25.686 24.2344 25.2801 24.5604 24.9418L13.3597 18.5018L30.1331 18.8647C30.0655 18.5879 30.0286 18.2988 30.0286 18.0036C30.0286 17.8191 30.0409 17.6407 30.0716 17.4623L12.8184 17.0871C16.3921 13.0152 20.6731 9.58306 25.4646 6.96894L30.9696 15.5494C31.2772 15.1927 31.6585 14.9036 32.0891 14.6944L26.7132 6.3231C32.4951 3.39528 38.9719 1.66073 45.824 1.43315L35.7304 14.9097C36.1302 15.1681 36.4808 15.5063 36.7453 15.9L46.7036 2.60182V15.1188C46.9312 15.0758 47.171 15.0512 47.4109 15.0512C47.6508 15.0512 47.8845 15.0758 48.1121 15.1188V2.41114L58.1319 15.531C58.3964 15.1373 58.747 14.8051 59.1468 14.5468L49.1393 1.4393C55.4132 1.66689 61.3734 3.1554 66.7616 5.66495L62.4375 14.2024C62.8865 14.3623 63.2925 14.6206 63.6369 14.9405L68.0287 6.28004C73.3615 8.95567 78.1038 12.6462 82.0096 17.0933L64.8179 17.4623C64.8302 17.5238 64.8302 17.5915 64.8302 17.653C64.8302 18.0774 64.7564 18.4895 64.6211 18.8709L80.9516 18.5203L70.3783 24.6281C70.7473 24.9356 71.0487 25.3108 71.2702 25.7352L82.5939 19.1969L79.3278 32.1199C79.5246 32.0829 79.7276 32.0645 79.9367 32.0645C80.2197 32.0645 80.4965 32.0952 80.761 32.1568L83.9656 19.486C86.7273 23.0904 88.9662 27.1192 90.5655 31.4556L83.0552 33.7929C83.3074 34.1865 83.4858 34.6294 83.5658 35.103L91.0391 32.778C92.4292 36.9298 93.2472 41.34 93.3887 45.9224L82.9507 37.8832C82.6739 38.2769 82.3233 38.609 81.9235 38.8612L92.1032 46.7036H79.9982C80.0413 46.9312 80.0659 47.1649 80.0659 47.4048C80.0659 47.6447 80.0413 47.8784 79.9982 48.106H92.0847L81.4806 56.1944C81.8927 56.4466 82.2433 56.7787 82.5201 57.1724L93.3887 48.8871C93.2595 52.9467 92.6075 56.8771 91.4881 60.6045ZM12.0803 77.0827L12.1234 76.9105C12.148 76.9413 12.1787 76.9782 12.2095 77.0089L12.0803 77.0827ZM11.0839 76.0432C11.09 76.0309 11.0962 76.0309 11.1023 76.0248L11.3053 75.9079C11.3176 75.9202 11.3238 75.9325 11.3422 75.9448C11.2499 75.9571 11.1638 75.9879 11.0839 76.0432ZM10.8255 76.3323L10.7517 76.6153V76.646C10.7517 76.6952 10.7579 76.7444 10.7702 76.7875C10.7517 76.7383 10.7456 76.6891 10.7456 76.6399V76.6337C10.7456 76.6276 10.7456 76.6214 10.7517 76.6153C10.7517 76.5784 10.7579 76.5476 10.764 76.5107V76.4861C10.7702 76.443 10.7825 76.4 10.8071 76.3631C10.8132 76.3569 10.8132 76.3508 10.8132 76.3508C10.8132 76.3323 10.8194 76.3139 10.8317 76.2954L10.8255 76.3323ZM83.7564 17.8867C83.7564 17.9052 83.7564 17.9175 83.7503 17.9298C83.7441 17.9113 83.7441 17.899 83.7318 17.8806C83.7441 17.8806 83.7503 17.8867 83.7564 17.8867ZM92.177 31.8C92.177 31.7877 92.177 31.7816 92.1708 31.7693C92.1524 31.7016 92.1278 31.6339 92.097 31.5724C87.9329 19.8058 79.2355 10.1797 68.1148 4.76693C68.1209 4.77308 68.1271 4.77308 68.1271 4.77923C68.0963 4.76078 68.0717 4.74232 68.041 4.73002C68.0348 4.72387 68.0348 4.72387 68.0287 4.71772H68.0225C68.0163 4.71157 68.0041 4.70542 67.9979 4.70542C61.7732 1.69764 54.7858 0 47.4109 0C21.2451 0 0.00615087 21.2328 0 47.3986V47.4048C0 65.1562 9.77989 80.6379 24.2344 88.7632H24.2406C24.4559 88.8863 24.6773 89.0093 24.8926 89.1261C31.5909 92.7551 39.261 94.8157 47.4109 94.8157C68.613 94.8157 86.5797 80.8655 92.6321 61.6502C92.6506 61.6133 92.6629 61.5702 92.6691 61.5272C94.0653 57.0678 94.8157 52.3193 94.8157 47.4048C94.8157 41.9366 93.8869 36.6838 92.177 31.8Z" fill="white"/>
<path fill-rule="evenodd" clip-rule="evenodd" d="M61.8532 50.3141L60.8075 51.8826C60.6537 51.8333 60.5 51.8026 60.3401 51.7841C60.1678 51.7534 59.9895 51.7411 59.8111 51.7411C59.5896 51.7411 59.3744 51.7595 59.1714 51.7964L60.8998 49.2008C61.072 49.5022 61.275 49.7728 61.521 50.0127V50.0188C61.6256 50.1234 61.7363 50.2218 61.8532 50.3141Z" fill="white"/>
<path fill-rule="evenodd" clip-rule="evenodd" d="M44.5873 53.4881C44.2121 53.525 43.8615 53.6173 43.5355 53.7587C43.4371 53.8018 43.3387 53.851 43.2464 53.9002L41.5488 48.5121L39.3652 48.4259C39.4206 48.2414 39.4636 48.0507 39.4883 47.8539C39.519 47.6817 39.5313 47.5033 39.5313 47.3249C39.5313 47.2265 39.5252 47.1281 39.519 47.0297L42.1024 47.1281C42.3976 47.1404 42.656 47.3372 42.7421 47.6202L44.5873 53.4881Z" fill="white"/>
<path fill-rule="evenodd" clip-rule="evenodd" d="M68.1268 4.77897C68.0962 4.76059 68.0717 4.7422 68.041 4.72995C68.0655 4.7422 68.09 4.75446 68.1145 4.76671C68.1207 4.77284 68.1268 4.77284 68.1268 4.77897Z" fill="white"/>
<path fill-rule="evenodd" clip-rule="evenodd" d="M69.2031 65.5617C69.2338 65.5801 69.2644 65.5985 69.2889 65.623L69.3686 65.433L69.2031 65.5617Z" fill="white"/>
<path fill-rule="evenodd" clip-rule="evenodd" d="M75.367 43.8558C74.9054 43.985 74.4811 44.2065 74.1122 44.5016L68.5581 31.0922C69.0379 31.0244 69.4869 30.8651 69.8868 30.6189L75.367 43.8558Z" fill="white"/>
<path fill-rule="evenodd" clip-rule="evenodd" d="M65.0212 25.2737C64.744 25.6489 64.5353 26.0794 64.4244 26.5473L50.4927 20.7703C50.7511 20.3829 50.9354 19.9461 51.028 19.479L65.0212 25.2737Z" fill="white"/>
<path fill-rule="evenodd" clip-rule="evenodd" d="M44.3289 20.7713L30.7968 26.3814C30.6615 25.9202 30.4343 25.4957 30.1387 25.1328L43.7937 19.4737C43.8862 19.9474 44.0706 20.3843 44.3289 20.7713Z" fill="white"/>
<path fill-rule="evenodd" clip-rule="evenodd" d="M26.2948 31.0127L20.784 44.3237C20.3963 44.0653 19.9596 43.8804 19.4863 43.7823L25.0336 30.3913C25.4029 30.6747 25.8332 30.8895 26.2948 31.0127Z" fill="white"/>
<path fill-rule="evenodd" clip-rule="evenodd" d="M76.1477 57.8367C75.957 58.2611 75.8463 58.7225 75.8401 59.2145L72.2173 58.5564L69.8369 64.3013C69.4371 64.0553 68.9942 63.8892 68.5144 63.8215L70.7964 58.3042L63.1816 56.9325C63.3723 56.5143 63.483 56.0468 63.4953 55.5609L71.35 56.9756L74.1056 50.3142C74.4746 50.6095 74.9052 50.8309 75.3665 50.9601L72.7709 57.2278L76.1477 57.8367Z" fill="white"/>
<path fill-rule="evenodd" clip-rule="evenodd" d="M64.9221 69.5788L50.9781 75.3488C50.9105 74.8749 50.7446 74.4256 50.5047 74.0323L64.3502 68.2931C64.4544 68.7606 64.6518 69.1974 64.9221 69.5788Z" fill="white"/>
<path fill-rule="evenodd" clip-rule="evenodd" d="M44.2 73.9827C43.9542 74.3766 43.7816 74.8191 43.7018 75.2931L30.3915 69.7808C30.6373 69.3933 30.8157 68.9506 30.896 68.471L44.2 73.9827Z" fill="white"/>
<path fill-rule="evenodd" clip-rule="evenodd" d="M26.4671 64.2154C25.9999 64.3138 25.5628 64.5042 25.1814 64.775L19.4862 51.0277C19.9601 50.9355 20.3969 50.7509 20.784 50.4923L26.4671 64.2154Z" fill="white"/>
<path fill-rule="evenodd" clip-rule="evenodd" d="M48.1122 22.3647V30.4838C47.8846 30.4407 47.6508 30.4161 47.411 30.4161C47.1711 30.4161 46.9312 30.4407 46.7036 30.4838V22.3647C46.9312 22.4077 47.1711 22.4323 47.411 22.4323C47.6508 22.4323 47.8846 22.4077 48.1122 22.3647Z" fill="white"/>
<path fill-rule="evenodd" clip-rule="evenodd" d="M72.685 47.4049C72.685 47.6448 72.7096 47.8785 72.7526 48.1061H67.752C67.795 47.8785 67.8196 47.6448 67.8196 47.4049C67.8196 47.165 67.795 46.9313 67.752 46.7037H72.7526C72.7096 46.9313 72.685 47.165 72.685 47.4049Z" fill="white"/>
<path fill-rule="evenodd" clip-rule="evenodd" d="M22.3584 48.2229C22.4199 47.9584 22.4507 47.6877 22.4507 47.4048C22.4507 47.2018 22.4322 47.0111 22.4015 46.8205L32.1752 46.8697C32.1567 47.0173 32.1444 47.1711 32.1444 47.3248C32.1444 47.6508 32.1875 47.9707 32.2736 48.2721L22.3584 48.2229Z" fill="white"/>
<path fill-rule="evenodd" clip-rule="evenodd" d="M24.8927 89.1262C24.7266 89.1447 24.5606 89.0955 24.4252 88.9848C24.3453 88.9233 24.2838 88.8494 24.2407 88.7633C24.456 88.8864 24.6774 89.0094 24.8927 89.1262Z" fill="white"/>
<path fill-rule="evenodd" clip-rule="evenodd" d="M77.2445 59.4298V59.4687L77.2056 59.4623L77.2445 59.4298Z" fill="white"/>
<path fill-rule="evenodd" clip-rule="evenodd" d="M92.1702 31.7685C92.1518 31.7011 92.1273 31.6337 92.0967 31.5725C92.1212 31.6092 92.1396 31.6521 92.1518 31.695C92.158 31.7195 92.1641 31.744 92.1702 31.7685Z" fill="white"/>
<path fill-rule="evenodd" clip-rule="evenodd" d="M68.1269 4.77915C68.0965 4.76084 68.0718 4.74252 68.0413 4.72999C68.035 4.72388 68.035 4.72388 68.0293 4.7181C68.0601 4.73012 68.0905 4.74843 68.1149 4.76727C68.1212 4.77337 68.1269 4.77337 68.1269 4.77915Z" fill="white"/>
<path fill-rule="evenodd" clip-rule="evenodd" d="M10.7701 76.787C10.7517 76.738 10.7456 76.689 10.7456 76.64V76.6338C10.7456 76.6277 10.7456 76.6216 10.7517 76.6154V76.6461C10.7517 76.6951 10.7579 76.7441 10.7701 76.787Z" fill="white"/>
<path fill-rule="evenodd" clip-rule="evenodd" d="M10.8319 76.2956L10.8258 76.3325L10.752 76.6155C10.752 76.5786 10.7581 76.5478 10.7643 76.5109V76.4863C10.7766 76.4432 10.7889 76.4063 10.8073 76.3633C10.8135 76.3571 10.8135 76.351 10.8135 76.351C10.8135 76.3325 10.8196 76.3141 10.8319 76.2956Z" fill="white"/>
<path fill-rule="evenodd" clip-rule="evenodd" d="M11.342 75.9448C11.2496 75.9574 11.1638 75.988 11.0837 76.0432C11.0899 76.0308 11.0958 76.0308 11.1022 76.0247L11.3051 75.9078C11.3175 75.9199 11.3237 75.9327 11.342 75.9448Z" fill="white"/>
<path fill-rule="evenodd" clip-rule="evenodd" d="M12.2087 77.0087L12.0801 77.0823L12.123 76.9107C12.1475 76.9413 12.1781 76.9781 12.2087 77.0087Z" fill="white"/>
<path fill-rule="evenodd" clip-rule="evenodd" d="M42.3916 59.7558L30.6927 66.448H30.6865C30.5143 66.0051 30.2498 65.6053 29.9238 65.267L41.5982 58.5871C41.7889 59.03 42.0595 59.4237 42.3916 59.7558Z" fill="white"/>
<path fill-rule="evenodd" clip-rule="evenodd" d="M36.432 31.7633L35.5034 32.8517L30.1395 29.77C30.4349 29.4076 30.6622 28.983 30.7976 28.5276L36.432 31.7633Z" fill="white"/>
<path fill-rule="evenodd" clip-rule="evenodd" d="M44.2797 32.1568C44.1382 32.3721 44.0275 32.6058 43.9414 32.8518C43.843 33.1163 43.7753 33.3869 43.7445 33.676L42.1515 31.8677L37.6798 32.4643L31.5166 39.71L32.5069 45.0059L32.8144 45.2089C32.5992 45.5103 32.4331 45.8425 32.3224 46.1992C32.2855 46.2976 32.2609 46.4022 32.2363 46.5068L31.4859 46.0147C31.3259 45.9101 31.2152 45.7441 31.1783 45.5534L30.0773 39.6362C30.065 39.5624 30.0589 39.4886 30.0712 39.421C30.0712 39.3963 30.0773 39.3717 30.0896 39.3471C30.1081 39.2364 30.1573 39.138 30.2311 39.0519L35.5024 32.8518L36.4312 31.7631L36.7879 31.3449C36.8986 31.2095 37.0585 31.1234 37.2308 31.105L42.3421 30.4222C42.5697 30.3915 42.8035 30.4776 42.9634 30.656L44.2797 32.1568Z" fill="white"/>
<path fill-rule="evenodd" clip-rule="evenodd" d="M64.8176 65.5132C64.5598 65.913 64.3874 66.3621 64.3074 66.8414L57.025 62.6341L57.9597 61.5572L64.8176 65.5132Z" fill="white"/>
<path fill-rule="evenodd" clip-rule="evenodd" d="M58.6729 58.9439L58.144 61.2197C58.1194 61.3304 58.064 61.435 57.9902 61.5211L57.9594 61.558L57.0245 62.6344L52.1038 68.324C51.9562 68.5023 51.7286 68.5885 51.501 68.5639H51.4949L48.1119 68.2317L47.2754 68.1517C47.2262 68.1456 47.1769 68.1333 47.1277 68.121C46.9494 68.0595 46.7956 67.9365 46.7156 67.7642V67.7581C46.691 67.7089 46.6726 67.6597 46.6603 67.6105L45.1226 60.8199C45.2394 60.8199 45.3563 60.8076 45.467 60.7892C45.8299 60.7461 46.1682 60.6477 46.4881 60.5062L47.9151 66.8047L51.2796 67.1307L56.8154 60.7338L57.3997 58.2242C57.6396 58.4334 57.9102 58.6117 58.1993 58.7532C58.3531 58.827 58.5069 58.8885 58.6729 58.9439Z" fill="white"/>
<path fill-rule="evenodd" clip-rule="evenodd" d="M64.879 29.4194L55.3881 34.9L54.6686 33.6946L64.3685 28.0976C64.4486 28.577 64.6269 29.0259 64.879 29.4194Z" fill="white"/>
<path fill-rule="evenodd" clip-rule="evenodd" d="M64.6086 43.7512C64.4486 43.7266 64.2887 43.7143 64.1288 43.7143C63.8335 43.7143 63.5445 43.7512 63.2677 43.8188H63.2615C62.6772 43.9542 62.1482 44.2371 61.7115 44.6184L60.0815 44.723C59.8232 44.7415 59.571 44.6061 59.4357 44.3847L53.5985 34.6356L50.9844 35.0108C51.0643 34.7217 51.1012 34.4203 51.1012 34.1066C51.1012 34.0636 51.1012 34.0205 51.0951 33.9836C51.0951 33.8483 51.0828 33.713 51.0582 33.5838L53.8568 33.1778C54.1398 33.1409 54.4166 33.2701 54.558 33.5161L54.6687 33.6945L55.3884 34.9001L60.4198 43.2899L63.8274 43.0746C64.1411 43.0561 64.4302 43.2468 64.5347 43.542L64.6086 43.7512Z" fill="white"/>
<path fill-rule="evenodd" clip-rule="evenodd" d="M66.4479 24.1057C66.0114 24.302 65.6298 24.5854 65.3102 24.9298L62.4003 21.1223C62.8498 20.9623 63.2617 20.7104 63.6061 20.3903L66.4479 24.1057Z" fill="white"/>
<path fill-rule="evenodd" clip-rule="evenodd" d="M78.9589 39.3102L77.7721 43.9912C77.3477 43.8131 76.8863 43.7208 76.4006 43.7143L77.6733 38.6643C78.0487 38.9657 78.4849 39.1874 78.9589 39.3102Z" fill="white"/>
<path fill-rule="evenodd" clip-rule="evenodd" d="M83.7562 17.8868C83.7562 17.9054 83.7562 17.9177 83.75 17.9301C83.7438 17.9116 83.7438 17.8992 83.7314 17.8807C83.7438 17.8807 83.75 17.8868 83.7562 17.8868Z" fill="white"/>
<path fill-rule="evenodd" clip-rule="evenodd" d="M69.3686 65.4331L69.2889 65.623C69.2644 65.5985 69.2338 65.5801 69.2031 65.5617L69.3686 65.4331Z" fill="white"/>
<path fill-rule="evenodd" clip-rule="evenodd" d="M76.6588 61.6504L71.2333 65.784C71.0182 65.3595 70.7164 64.9777 70.36 64.6763L75.9878 60.383C76.1291 60.8507 76.3571 61.2809 76.6588 61.6504Z" fill="white"/>
<path fill-rule="evenodd" clip-rule="evenodd" d="M77.2445 59.4298V59.4687L77.2056 59.4623L77.2445 59.4298Z" fill="white"/>
<path fill-rule="evenodd" clip-rule="evenodd" d="M58.6118 75.7112C58.4088 76.1356 58.2797 76.6092 58.2612 77.1074L50.9048 76.8614C50.9847 76.56 51.0278 76.2463 51.0278 75.9203C51.0278 75.7665 51.0155 75.6128 50.997 75.459L58.6118 75.7112Z" fill="white"/>
<path fill-rule="evenodd" clip-rule="evenodd" d="M32.6243 73.3798C32.2058 73.6075 31.8371 73.9088 31.5354 74.2716L29.0566 71.0484C29.4685 70.815 29.8377 70.5074 30.1327 70.1447L32.6243 73.3798Z" fill="white"/>
<path fill-rule="evenodd" clip-rule="evenodd" d="M10.7701 76.7869C10.7517 76.7379 10.7456 76.6888 10.7456 76.6398V76.6337H10.7517V76.646C10.7517 76.695 10.7579 76.744 10.7701 76.7869Z" fill="white"/>
<path fill-rule="evenodd" clip-rule="evenodd" d="M11.342 75.9448C11.2496 75.9574 11.1638 75.988 11.0837 76.0432C11.0899 76.0308 11.0958 76.0308 11.1022 76.0247L11.3051 75.9078C11.3175 75.9199 11.3237 75.9327 11.342 75.9448Z" fill="white"/>
<path fill-rule="evenodd" clip-rule="evenodd" d="M18.551 51.0892L17.3335 55.9793C16.921 55.7827 16.4598 55.6596 15.9737 55.6412L17.1913 50.7511C17.6038 50.9477 18.065 51.0708 18.551 51.0892Z" fill="white"/>
<path fill-rule="evenodd" clip-rule="evenodd" d="M24.7013 30.1024L19.1965 34.3156C19.018 33.8728 18.7539 33.4731 18.4215 33.135L23.8898 28.9521C24.0801 29.3889 24.3573 29.7825 24.7013 30.1024Z" fill="white"/>
<path fill-rule="evenodd" clip-rule="evenodd" d="M43.7198 18.7418C43.7198 18.8832 43.726 19.0247 43.7444 19.16L37.2676 19.0186C37.3598 18.6987 37.409 18.3543 37.409 18.0037C37.409 17.8745 37.4029 17.7453 37.3906 17.6223L43.8552 17.7576C43.7629 18.0713 43.7198 18.4035 43.7198 18.7418Z" fill="white"/>
<path fill-rule="evenodd" clip-rule="evenodd" d="M51.0765 19.1599C51.095 19.0246 51.1011 18.8831 51.1011 18.7416C51.1011 18.4033 51.0581 18.0712 50.9658 17.7575L57.4488 17.6222V17.6529C57.4488 18.1327 57.5411 18.594 57.7133 19.0184L51.0765 19.1599Z" fill="white"/>
<path fill-rule="evenodd" clip-rule="evenodd" d="M83.7562 17.8868C83.7562 17.9054 83.7562 17.9177 83.75 17.9301C83.7438 17.9116 83.7438 17.8992 83.7314 17.8807C83.7438 17.8807 83.75 17.8868 83.7562 17.8868Z" fill="white"/>
<path fill-rule="evenodd" clip-rule="evenodd" d="M44.4583 19.2031L44.5137 19.1785H44.4583C44.4521 19.1847 44.4583 19.197 44.4583 19.2031ZM50.3016 19.1785L50.3631 19.2031C50.3631 19.197 50.3693 19.1847 50.3693 19.1785H50.3016Z" fill="white"/>
<path fill-rule="evenodd" clip-rule="evenodd" d="M44.4583 19.2031L44.5137 19.1785H44.4583C44.4521 19.1847 44.4583 19.197 44.4583 19.2031ZM50.3016 19.1785L50.3631 19.2031C50.3631 19.197 50.3693 19.1847 50.3693 19.1785H50.3016Z" fill="white"/>
<path fill-rule="evenodd" clip-rule="evenodd" d="M50.3632 19.203L50.3016 19.1784H50.3693C50.3693 19.1845 50.3632 19.1969 50.3632 19.203ZM49.6804 18.9201C49.6804 19.0123 49.6681 19.0984 49.6497 19.1907C49.5697 19.5721 49.3975 19.9288 49.1453 20.2179C48.8808 20.5377 48.524 20.7838 48.1119 20.9129C47.8905 20.9868 47.6568 21.0237 47.4107 21.0237C47.1647 21.0237 46.9248 20.9868 46.7034 20.9068C46.2974 20.7776 45.9407 20.5377 45.67 20.2179C45.424 19.9288 45.2456 19.5721 45.1718 19.1907C45.1472 19.0984 45.1349 19.0123 45.1349 18.9201C45.1226 18.8586 45.1226 18.8032 45.1226 18.7417C45.1226 18.4034 45.1964 18.0835 45.3317 17.7945C45.5901 17.2163 46.0883 16.7673 46.7034 16.5704C46.9248 16.4905 47.1647 16.4536 47.4107 16.4536C47.6568 16.4536 47.8905 16.4905 48.1119 16.5643C48.727 16.7611 49.2252 17.2163 49.4836 17.7945C49.6189 18.0835 49.6927 18.4034 49.6927 18.7417C49.6927 18.8032 49.6927 18.8586 49.6804 18.9201ZM44.4583 19.203C44.4583 19.1969 44.4522 19.1845 44.4583 19.1784H44.5137L44.4583 19.203ZM50.9659 17.7575C50.5969 16.4167 49.4897 15.3833 48.1119 15.1188C47.8844 15.0758 47.6506 15.0512 47.4107 15.0512C47.1709 15.0512 46.931 15.0758 46.7034 15.1188C45.3256 15.3895 44.2246 16.4228 43.8555 17.7575C43.7633 18.0712 43.7202 18.4034 43.7202 18.7417C43.7202 18.8832 43.7264 19.0246 43.7448 19.1599C43.7571 19.2645 43.7694 19.3691 43.794 19.4736C43.8863 19.9473 44.0708 20.384 44.3292 20.7715C44.8643 21.5834 45.7131 22.1739 46.7034 22.3646C46.931 22.4076 47.1709 22.4322 47.4107 22.4322C47.6506 22.4322 47.8844 22.4076 48.1119 22.3646C49.1022 22.1739 49.9572 21.5834 50.4923 20.7715C50.7507 20.384 50.9352 19.9473 51.0275 19.4798C51.0459 19.3752 51.0644 19.2707 51.0767 19.1599C51.0951 19.0246 51.1013 18.8832 51.1013 18.7417C51.1013 18.4034 51.0582 18.0712 50.9659 17.7575Z" fill="white"/>
<path fill-rule="evenodd" clip-rule="evenodd" d="M77.108 33.3806C76.8 33.7438 76.5664 34.162 76.4186 34.6231L70.5574 30.1079C70.9013 29.7881 71.1784 29.3944 71.3692 28.9643L77.108 33.3806Z" fill="white"/>
<path fill-rule="evenodd" clip-rule="evenodd" d="M78.9897 55.6716C78.5095 55.7328 78.0608 55.8993 77.6609 56.1392L76.3941 51.1013C76.8795 51.1014 77.347 51.0029 77.7719 50.8244L78.9897 55.6716Z" fill="white"/>
<path fill-rule="evenodd" clip-rule="evenodd" d="M66.2014 70.7166L63.6303 74.0258C63.1876 73.7924 62.6894 73.6507 62.1603 73.626L65.1128 69.8249C65.4143 70.1877 65.7835 70.4955 66.2014 70.7166Z" fill="white"/>
<path fill-rule="evenodd" clip-rule="evenodd" d="M10.8253 76.3325L10.7515 76.6155C10.7515 76.5786 10.7576 76.5478 10.7638 76.5109V76.4863C10.7761 76.4432 10.7884 76.4063 10.8068 76.3633C10.813 76.3571 10.813 76.351 10.813 76.351C10.813 76.3448 10.8191 76.3387 10.8253 76.3325Z" fill="white"/>
<path fill-rule="evenodd" clip-rule="evenodd" d="M12.2087 77.0087L12.0801 77.0823L12.123 76.9107C12.1475 76.9413 12.1781 76.9781 12.2087 77.0087Z" fill="white"/>
<path fill-rule="evenodd" clip-rule="evenodd" d="M38.0491 76.9106C38.0552 76.8184 38.0614 76.7261 38.0614 76.6339C38.0614 76.2402 37.9999 75.865 37.8892 75.5082L43.6833 75.416C43.6587 75.5821 43.6464 75.7481 43.6464 75.9204C43.6464 76.2279 43.6833 76.5293 43.7571 76.8184L38.0491 76.9106Z" fill="white"/>
<path fill-rule="evenodd" clip-rule="evenodd" d="M24.8309 65.0457C24.474 65.3527 24.1789 65.7343 23.9698 66.1586L18.434 61.8714C18.76 61.5326 19.0245 61.1269 19.1966 60.6843L24.8309 65.0457Z" fill="white"/>
<path fill-rule="evenodd" clip-rule="evenodd" d="M18.5081 43.7266C18.0224 43.7568 17.5669 43.8801 17.1552 44.0831L15.9247 39.3775C16.4167 39.3592 16.8784 39.2487 17.2964 39.0576L18.5081 43.7266Z" fill="white"/>
<path fill-rule="evenodd" clip-rule="evenodd" d="M32.5502 21.5033L29.973 24.9478C29.6531 24.6032 29.2718 24.3141 28.8348 24.1177L31.3199 20.8025C31.6767 21.1163 32.0952 21.3557 32.5502 21.5033Z" fill="white"/>
<path fill-rule="evenodd" clip-rule="evenodd" d="M48.1122 68.2379V72.3098C47.86 72.2606 47.6016 72.2298 47.3372 72.2298C47.1219 72.2298 46.9066 72.2483 46.7036 72.2852V67.8689C46.7036 67.832 46.7036 67.8012 46.7159 67.7643C46.7959 67.9365 46.9496 68.0596 47.128 68.1211L47.1342 68.1457L48.1122 68.2379Z" fill="white"/>
<path fill-rule="evenodd" clip-rule="evenodd" d="M48.1121 68.2316V68.2378L47.1341 68.1455L47.1279 68.1209C47.1771 68.1332 47.2263 68.1455 47.2756 68.1517L48.1121 68.2316Z" fill="white"/>
<path fill-rule="evenodd" clip-rule="evenodd" d="M35.7794 18.9877C35.4103 19.7566 34.6292 20.2856 33.7188 20.2856C33.6389 20.2856 33.5528 20.2794 33.4728 20.2733C32.9746 20.2179 32.5194 20.0026 32.1688 19.6705C31.9351 19.4614 31.7444 19.1969 31.6214 18.8955H31.6152C31.4984 18.6187 31.4369 18.3173 31.4369 18.0036C31.4369 17.8314 31.4553 17.6592 31.4922 17.4931C31.5476 17.247 31.646 17.0195 31.7752 16.8103C32.0212 16.3982 32.4026 16.0722 32.8516 15.8877C33.1161 15.777 33.4113 15.7155 33.7188 15.7155C34.1433 15.7155 34.5492 15.8323 34.8875 16.0415C35.3058 16.2875 35.6441 16.6689 35.8347 17.124C35.8901 17.2716 35.9393 17.4316 35.9639 17.5915C35.9947 17.7268 36.007 17.8621 36.007 18.0036C36.007 18.3542 35.927 18.6925 35.7794 18.9877ZM37.3909 17.6222C37.3233 16.9826 37.0957 16.3982 36.7451 15.9C36.4806 15.5063 36.13 15.1681 35.7302 14.9097C35.152 14.5284 34.4631 14.3131 33.7188 14.3131C33.1345 14.3131 32.5809 14.4484 32.0889 14.6944C31.6583 14.9036 31.2769 15.1927 30.9694 15.5494C30.4958 16.0722 30.1759 16.7304 30.0714 17.4623C30.0406 17.6407 30.0283 17.8191 30.0283 18.0036C30.0283 18.2988 30.0652 18.5879 30.1329 18.8647C30.3113 19.6336 30.7418 20.3102 31.32 20.8023C31.6768 21.1159 32.095 21.3558 32.5502 21.5035C32.9192 21.6265 33.3129 21.6941 33.7188 21.6941C35.4103 21.6941 36.8312 20.5624 37.2679 19.0185C37.3602 18.6987 37.4094 18.3542 37.4094 18.0036C37.4094 17.8744 37.4032 17.7453 37.3909 17.6222Z" fill="white"/>
<path fill-rule="evenodd" clip-rule="evenodd" d="M18.9076 49.6439L18.9263 49.6875H18.9014L18.9076 49.6439Z" fill="white"/>
<path fill-rule="evenodd" clip-rule="evenodd" d="M18.9262 45.129L18.8954 45.2028L18.877 45.129H18.9262Z" fill="white"/>
<path fill-rule="evenodd" clip-rule="evenodd" d="M20.8942 48.2105C20.7589 48.5796 20.5252 48.9056 20.2299 49.1516C19.8732 49.453 19.418 49.6498 18.9259 49.6867H18.9013C18.8521 49.6929 18.8091 49.6929 18.7599 49.6929C18.317 49.6929 17.8926 49.5637 17.542 49.3361C17.1176 49.0717 16.7854 48.6719 16.6132 48.1921C16.5209 47.946 16.4717 47.6816 16.4717 47.4048C16.4717 47.1895 16.5025 46.9865 16.5578 46.7897C16.7116 46.2484 17.0561 45.7871 17.5174 45.4857C17.8741 45.2581 18.3047 45.1228 18.7599 45.1228C18.7968 45.1228 18.8398 45.1228 18.8767 45.1289H18.9259C19.418 45.1659 19.8732 45.3565 20.2299 45.6579C20.5805 45.9532 20.845 46.353 20.9619 46.8143C21.0172 47.005 21.0418 47.2018 21.0418 47.4048C21.0418 47.6877 20.9926 47.9584 20.8942 48.2105ZM22.4012 46.8204C22.2351 45.7748 21.6323 44.8768 20.7835 44.3232C20.396 44.0648 19.9593 43.8803 19.4857 43.7819C19.2519 43.7389 19.0059 43.7142 18.7599 43.7142C18.6737 43.7142 18.5876 43.7142 18.5077 43.7266C18.0218 43.7573 17.5666 43.8803 17.1545 44.0833C16.1027 44.5938 15.3277 45.5903 15.1247 46.7774C15.0878 46.9804 15.0693 47.1895 15.0693 47.4048C15.0693 47.6754 15.1001 47.9337 15.1493 48.1859H15.1554C15.3953 49.3238 16.1642 50.2711 17.1914 50.7508C17.6035 50.9477 18.0648 51.0707 18.5507 51.0891C18.6184 51.1014 18.686 51.1014 18.7599 51.1014C19.0059 51.1014 19.2519 51.0768 19.4857 51.0276C19.9593 50.9354 20.396 50.7508 20.7835 50.4925C21.5647 49.982 22.1428 49.1701 22.3581 48.2228C22.4196 47.9584 22.4504 47.6877 22.4504 47.4048C22.4504 47.2018 22.4319 47.0111 22.4012 46.8204Z" fill="white"/>
<path fill-rule="evenodd" clip-rule="evenodd" d="M29.727 69.5048C29.7209 69.5232 29.7087 69.5416 29.6903 69.56L29.6045 69.4558L29.727 69.5048Z" fill="white"/>
<path fill-rule="evenodd" clip-rule="evenodd" d="M29.604 69.4557L29.6898 69.5599C29.7082 69.5415 29.7204 69.5231 29.7265 69.5047L29.604 69.4557Z" fill="white"/>
<path fill-rule="evenodd" clip-rule="evenodd" d="M29.6904 69.5602L29.6043 69.4556L29.7273 69.5048C29.7212 69.5233 29.7089 69.5417 29.6904 69.5602ZM29.5428 67.9118C29.5305 68.2993 29.4198 68.656 29.2353 68.9697C29.1861 69.062 29.1245 69.1481 29.0569 69.228C28.8293 69.5233 28.5279 69.7632 28.1835 69.9169C27.9005 70.04 27.5868 70.1076 27.2608 70.1076C26.5965 70.1076 25.9938 69.8185 25.5816 69.3634C25.2618 69.0189 25.0527 68.576 24.9973 68.084C24.985 67.9979 24.9789 67.9118 24.9789 67.8195C24.9789 67.5427 25.0281 67.2844 25.1142 67.0445C25.2433 66.6877 25.4586 66.3679 25.7416 66.128C25.8154 66.0542 25.8953 65.9927 25.9753 65.9373C26.2767 65.7282 26.6396 65.5929 27.021 65.5498C27.1009 65.5437 27.1809 65.5375 27.2608 65.5375C27.7775 65.5375 28.2573 65.7097 28.6386 65.9988C29.02 66.2879 29.3091 66.6877 29.4505 67.1552C29.5121 67.3643 29.549 67.5858 29.549 67.8195C29.549 67.8502 29.549 67.881 29.5428 67.9118ZM30.693 66.4478H30.6869C30.5146 66.005 30.2502 65.6052 29.9242 65.2669C29.2537 64.5657 28.3065 64.129 27.2608 64.129C26.9902 64.129 26.7196 64.1597 26.4674 64.2151C25.9999 64.3135 25.5632 64.5042 25.1818 64.7748C25.0588 64.8548 24.942 64.947 24.8312 65.0454C24.4745 65.353 24.1792 65.7343 23.9701 66.1588C23.7118 66.657 23.5703 67.2229 23.5703 67.8195C23.5703 68.1639 23.6195 68.5022 23.7118 68.8159C23.8348 69.2772 24.0501 69.7078 24.3453 70.0769C25.0158 70.9503 26.0737 71.51 27.2608 71.51C27.9128 71.51 28.5279 71.3439 29.0569 71.0487C29.469 70.815 29.8381 70.5074 30.1333 70.1445C30.2256 70.0338 30.3117 69.9108 30.3916 69.7816C30.6377 69.3941 30.816 68.9513 30.896 68.4715C30.9391 68.2624 30.9575 68.0409 30.9575 67.8195C30.9575 67.3336 30.8652 66.8723 30.693 66.4478Z" fill="white"/>
<path fill-rule="evenodd" clip-rule="evenodd" d="M49.6251 75.9204C49.6251 76.2341 49.5636 76.5355 49.4468 76.8123C49.1946 77.3966 48.7148 77.8579 48.112 78.0732C47.8721 78.1593 47.6076 78.2085 47.337 78.2085C47.1156 78.2085 46.9064 78.1778 46.7035 78.1162C46.033 77.9256 45.4917 77.4273 45.2273 76.7938C45.1165 76.5232 45.055 76.2279 45.055 75.9204C45.055 75.9019 45.055 75.8773 45.0612 75.8589C45.0612 75.699 45.0796 75.5452 45.1165 75.3914C45.1904 75.0716 45.3318 74.7825 45.5287 74.5303C45.8177 74.1489 46.2299 73.8598 46.7035 73.7245C46.9064 73.663 47.1156 73.6323 47.337 73.6323C47.6076 73.6323 47.8721 73.6815 48.112 73.7676C48.5487 73.9275 48.9239 74.2104 49.1823 74.5795C49.3668 74.8255 49.496 75.1085 49.5636 75.4099C49.6067 75.5698 49.6251 75.742 49.6251 75.9142V75.9204ZM50.9968 75.4591C50.9968 75.4222 50.9906 75.3914 50.9783 75.3545V75.3484C50.9107 74.8747 50.7446 74.4257 50.5047 74.0321C49.9942 73.1648 49.1331 72.5313 48.112 72.3098C47.8598 72.2606 47.6015 72.2299 47.337 72.2299C47.1217 72.2299 46.9064 72.2483 46.7035 72.2852C45.6455 72.4697 44.7413 73.1033 44.2001 73.9829C43.954 74.3765 43.7818 74.8194 43.7018 75.293C43.6957 75.3299 43.6834 75.373 43.6834 75.416C43.6588 75.5821 43.6465 75.7482 43.6465 75.9204C43.6465 76.2279 43.6834 76.5293 43.7572 76.8184C44.1078 78.2208 45.2642 79.3034 46.7035 79.5555C46.9064 79.5925 47.1217 79.6109 47.337 79.6109C47.6015 79.6109 47.8598 79.5802 48.112 79.5309C49.4775 79.2357 50.5539 78.1962 50.9045 76.8615C50.9845 76.5601 51.0275 76.2464 51.0275 75.9204C51.0275 75.7666 51.0152 75.6128 50.9968 75.4591Z" fill="white"/>
<path fill-rule="evenodd" clip-rule="evenodd" d="M65.6665 67.6288L65.789 67.6962L65.6788 67.7452C65.6726 67.7084 65.6665 67.6717 65.6665 67.6288Z" fill="white"/>
<path fill-rule="evenodd" clip-rule="evenodd" d="M69.3686 65.4331L69.2889 65.623C69.2644 65.5985 69.2338 65.5801 69.2031 65.5617L69.3686 65.4331Z" fill="white"/>
<path fill-rule="evenodd" clip-rule="evenodd" d="M69.2031 65.5617C69.2338 65.5801 69.2644 65.5985 69.2889 65.623L69.3686 65.433L69.2031 65.5617Z" fill="white"/>
<path fill-rule="evenodd" clip-rule="evenodd" d="M69.9846 68.4961C69.757 68.939 69.3941 69.3019 68.9451 69.5172C68.6437 69.6648 68.3054 69.7509 67.9425 69.7509C67.6411 69.7509 67.352 69.6894 67.0875 69.5848C66.7738 69.4557 66.497 69.265 66.2756 69.0189C66.171 68.9144 66.0849 68.7975 66.0111 68.6745C65.8327 68.3977 65.722 68.084 65.679 67.7457C65.6728 67.7088 65.6667 67.6719 65.6667 67.6288C65.6605 67.5735 65.6605 67.5181 65.6605 67.4628C65.6605 66.9953 65.7958 66.5709 66.0357 66.2141C66.4417 65.5929 67.1429 65.1808 67.9425 65.1808H67.9548C68.4161 65.1808 68.8467 65.3223 69.2034 65.5622L69.3695 65.433L69.2895 65.6237C69.6524 65.882 69.9292 66.2387 70.083 66.6632C70.1814 66.9092 70.2306 67.1798 70.2306 67.4628C70.2306 67.838 70.1383 68.1886 69.9846 68.4961ZM71.2332 65.7836C71.0179 65.3592 70.7165 64.9778 70.3598 64.6764C70.1998 64.5288 70.0215 64.4058 69.8369 64.3012C69.4371 64.0552 68.9943 63.8891 68.5145 63.8215C68.33 63.7845 68.1393 63.7722 67.9425 63.7722C66.6262 63.7722 65.4637 64.4673 64.8178 65.5129C64.5595 65.9128 64.3873 66.3618 64.3073 66.8415C64.2704 67.0445 64.252 67.2536 64.252 67.4628C64.252 67.7457 64.2827 68.0225 64.3504 68.2931C64.4549 68.7606 64.6518 69.1973 64.9224 69.5787C64.9839 69.6648 65.0454 69.7447 65.1131 69.8247C65.4145 70.1876 65.7835 70.4952 66.2018 70.7166C66.7185 70.9934 67.3089 71.1533 67.9425 71.1533C68.8405 71.1533 69.6586 70.8334 70.2983 70.3045H70.3044C70.6735 69.9969 70.981 69.6217 71.2024 69.1973C71.4854 68.6806 71.6392 68.0902 71.6392 67.4628C71.6392 66.86 71.4915 66.288 71.2332 65.7836Z" fill="white"/>
<path fill-rule="evenodd" clip-rule="evenodd" d="M70.1997 28.0604C70.0705 28.534 69.7937 28.9461 69.4247 29.2352C69.3939 29.2598 69.3693 29.2844 69.3385 29.3029C68.9633 29.5797 68.502 29.7396 67.9977 29.7396C67.2042 29.7396 66.5091 29.3336 66.1032 28.7185C65.8571 28.3556 65.7157 27.9189 65.7157 27.4515C65.7157 27.4084 65.7157 27.3592 65.7218 27.3161C65.7218 27.2423 65.7341 27.1685 65.7464 27.0947C65.8018 26.7195 65.9556 26.3689 66.1831 26.0737C66.2385 25.9937 66.3062 25.9137 66.38 25.8399C66.6383 25.5754 66.9643 25.3786 67.3272 25.2679C67.5363 25.2002 67.7639 25.1633 67.9977 25.1633C68.3667 25.1633 68.7173 25.2494 69.0248 25.4094C69.4677 25.6308 69.8306 25.9937 70.0459 26.4427C70.1997 26.7441 70.2858 27.0886 70.2858 27.4515C70.2858 27.6606 70.255 27.8697 70.1997 28.0604ZM71.2699 25.7354C71.0485 25.311 70.7471 24.9357 70.378 24.6282C69.7383 24.0869 68.908 23.7609 67.9977 23.7609C67.4441 23.7609 66.9151 23.884 66.4476 24.1054C66.0109 24.3022 65.6296 24.5852 65.3097 24.9296C65.2052 25.0342 65.1067 25.151 65.0206 25.274C64.7438 25.6493 64.5347 26.0798 64.424 26.5473C64.344 26.8364 64.3071 27.1378 64.3071 27.4515C64.3071 27.6729 64.3256 27.8882 64.3686 28.0973C64.4486 28.5771 64.627 29.0261 64.8792 29.4197C65.5312 30.4531 66.6875 31.142 67.9977 31.142C68.1883 31.142 68.3729 31.1297 68.5574 31.0928C69.0371 31.0251 69.4862 30.8652 69.886 30.6192C70.132 30.4777 70.3534 30.3055 70.5564 30.1086C70.9009 29.7888 71.1777 29.3951 71.3683 28.9646C71.5775 28.5033 71.6943 27.9927 71.6943 27.4515C71.6943 26.8302 71.5406 26.2459 71.2699 25.7354Z" fill="white"/>
<path fill-rule="evenodd" clip-rule="evenodd" d="M81.837 37.0221C81.5664 37.4342 81.1604 37.7479 80.6868 37.9139C80.4531 38 80.2009 38.0431 79.9364 38.0431C79.715 38.0431 79.5059 38.0123 79.3029 37.9508C78.7985 37.8094 78.3679 37.4957 78.0727 37.0774C77.8082 36.7022 77.6483 36.247 77.6483 35.755C77.6483 35.6935 77.6483 35.6381 77.6606 35.5766C77.6975 35.0661 77.9066 34.6048 78.2265 34.2419C78.4233 34.0204 78.6632 33.8359 78.9277 33.7129V33.7067C79.2291 33.5591 79.5735 33.473 79.9364 33.473C80.1025 33.473 80.2624 33.4915 80.4162 33.5222C80.896 33.6268 81.3204 33.879 81.6341 34.2357C81.9539 34.5863 82.1569 35.0353 82.2061 35.5274C82.2122 35.6012 82.2184 35.6812 82.2184 35.755C82.2184 36.2224 82.0769 36.6592 81.837 37.0221ZM83.5654 35.103C83.4855 34.6294 83.3071 34.1865 83.0549 33.7928C82.5505 32.9809 81.7263 32.3781 80.7606 32.1567C80.4962 32.0952 80.2194 32.0645 79.9364 32.0645C79.7273 32.0645 79.5243 32.0829 79.3275 32.1198C78.4356 32.2613 77.6606 32.7226 77.107 33.3807C76.7995 33.7436 76.5657 34.1619 76.4181 34.6232C76.3013 34.98 76.2397 35.3613 76.2397 35.755C76.2397 36.9421 76.7995 38 77.6729 38.6643C78.0481 38.9657 78.4848 39.1872 78.9584 39.3102C79.2721 39.4024 79.5981 39.4455 79.9364 39.4455C80.6684 39.4455 81.3511 39.2364 81.9232 38.8612C82.323 38.609 82.6736 38.2768 82.9503 37.8832C83.3809 37.2804 83.6269 36.5484 83.6269 35.755C83.6269 35.5335 83.6085 35.3121 83.5654 35.103Z" fill="white"/>
<path fill-rule="evenodd" clip-rule="evenodd" d="M77.2056 59.4622L77.2445 59.4687V59.4298L77.2056 59.4622Z" fill="white"/>
<path fill-rule="evenodd" clip-rule="evenodd" d="M77.2056 59.4622L77.2445 59.4687V59.4298L77.2056 59.4622Z" fill="white"/>
<path fill-rule="evenodd" clip-rule="evenodd" d="M81.6097 60.254C81.3759 60.7706 80.9515 61.1889 80.4348 61.4226C80.158 61.5395 79.8505 61.6072 79.5245 61.6072C79.3523 61.6072 79.1801 61.5887 79.0201 61.5456C78.5219 61.4411 78.0914 61.1643 77.7777 60.7891C77.464 60.4262 77.2733 59.971 77.2425 59.4667L77.2056 59.4605L77.2425 59.4297C77.2364 59.3928 77.2364 59.3559 77.2364 59.319C77.2364 58.87 77.3656 58.4518 77.5931 58.1012C77.71 57.9105 77.8576 57.7383 78.0237 57.5968C78.3804 57.2892 78.8356 57.0863 79.3338 57.0494C79.3953 57.0371 79.4568 57.0371 79.5245 57.0371C79.7705 57.0371 80.0104 57.074 80.2257 57.1539C80.7116 57.3015 81.1237 57.6152 81.4005 58.0273C81.5727 58.2672 81.6958 58.5502 81.7573 58.8516C81.788 58.9992 81.8065 59.1591 81.8065 59.319C81.8065 59.6512 81.7327 59.971 81.6097 60.254ZM83.2027 59.1099C83.1658 58.3903 82.9198 57.726 82.52 57.1724C82.2432 56.7787 81.8926 56.4466 81.4805 56.1944C80.9146 55.8376 80.2442 55.6285 79.5245 55.6285C79.34 55.6285 79.1616 55.6408 78.9894 55.6716C78.5096 55.7331 78.0606 55.8991 77.6608 56.139C76.9903 56.5204 76.4614 57.117 76.1477 57.8367C75.957 58.2611 75.8463 58.7224 75.8401 59.2145C75.834 59.2514 75.834 59.2821 75.834 59.319C75.834 59.6881 75.8893 60.0448 75.9878 60.3831C76.1292 60.8506 76.3568 61.2812 76.6582 61.6502C77.3102 62.4498 78.282 62.9727 79.383 63.0096C79.4261 63.0157 79.4753 63.0157 79.5245 63.0157C79.9674 63.0157 80.3856 62.9357 80.7793 62.7943C81.8311 62.4129 82.6615 61.5703 83.0182 60.5062C83.1474 60.1309 83.215 59.7373 83.215 59.319C83.215 59.2514 83.215 59.1776 83.2027 59.1099Z" fill="white"/>
<path fill-rule="evenodd" clip-rule="evenodd" d="M64.2277 77.3104C64.2277 77.907 63.9939 78.4483 63.6187 78.8543C63.2927 79.2049 62.8622 79.4571 62.3763 79.5493C62.2348 79.5801 62.0872 79.5924 61.9395 79.5924C61.1645 79.5924 60.4756 79.2049 60.0635 78.6082C59.8052 78.2392 59.6576 77.7902 59.6576 77.3043C59.6576 77.2551 59.6576 77.2058 59.6637 77.1566C59.6699 77.0213 59.6883 76.886 59.7252 76.763C59.8113 76.3816 60.002 76.0433 60.2604 75.7665C60.4264 75.5759 60.6356 75.4159 60.8631 75.2929C61.183 75.1207 61.552 75.0223 61.9395 75.0223C62.2225 75.0223 62.487 75.0715 62.7392 75.1699C63.1328 75.3114 63.4773 75.5636 63.7295 75.8896C64.0431 76.2771 64.2277 76.7691 64.2277 77.3043V77.3104ZM65.3656 75.9388C65.0334 75.1084 64.4183 74.4318 63.631 74.0258C63.1882 73.7921 62.69 73.6506 62.161 73.626C62.0872 73.6137 62.0134 73.6137 61.9395 73.6137C60.4756 73.6137 59.2086 74.4687 58.6119 75.7112C58.4089 76.1356 58.2798 76.6092 58.2613 77.1074C58.249 77.1689 58.249 77.2366 58.249 77.3043C58.249 77.6979 58.3105 78.0731 58.4274 78.4299C58.5812 78.9219 58.8395 79.371 59.1778 79.7523C59.8544 80.515 60.8385 80.9948 61.9395 80.9948C62.4193 80.9948 62.8806 80.9025 63.2989 80.7364C63.7479 80.5581 64.1539 80.2997 64.4922 79.9737C65.1811 79.3094 65.6116 78.3868 65.6301 77.3596V77.3043C65.6301 76.8245 65.5378 76.3632 65.3656 75.9388Z" fill="white"/>
<path fill-rule="evenodd" clip-rule="evenodd" d="M46.1619 59.0854C45.8605 59.2699 45.5161 59.3868 45.147 59.4114C45.0917 59.4175 45.0425 59.4175 44.9871 59.4175C44.9256 59.4175 44.8641 59.4175 44.8026 59.4052C44.3905 59.3745 44.0091 59.233 43.6893 59.0116C43.2956 58.7348 42.9942 58.3411 42.8405 57.8798C42.7543 57.6461 42.7113 57.4001 42.7113 57.1417C42.7113 56.3729 43.0926 55.6963 43.677 55.278C43.7631 55.2165 43.8615 55.1611 43.9599 55.1119C44.2675 54.952 44.6181 54.8659 44.9871 54.8659H45.0179C46.2603 54.8844 47.2568 55.8992 47.2568 57.1417C47.2568 57.9659 46.8201 58.6856 46.1619 59.0854ZM44.9871 53.4635C44.8518 53.4635 44.7165 53.4697 44.5873 53.4881C44.2121 53.525 43.8615 53.6173 43.5355 53.7587C43.4371 53.8018 43.3387 53.851 43.2464 53.9002C42.09 54.5215 41.3027 55.7393 41.3027 57.1417C41.3027 57.6522 41.4073 58.1443 41.598 58.5872C41.7887 59.03 42.0593 59.4237 42.3914 59.7558C43.0619 60.4201 43.9722 60.8261 44.9871 60.8261C45.0302 60.8261 45.0794 60.8261 45.1224 60.8199C45.2393 60.8199 45.3562 60.8076 45.4669 60.7892C45.8298 60.7461 46.1681 60.6477 46.4879 60.5062V60.5001C47.7735 59.9281 48.6653 58.6364 48.6653 57.1417C48.6653 55.1119 47.0169 53.4635 44.9871 53.4635Z" fill="white"/>
<path fill-rule="evenodd" clip-rule="evenodd" d="M38.074 47.7985C38.0309 48.0014 37.9633 48.1921 37.871 48.3705C37.4896 49.1086 36.7208 49.613 35.8351 49.613C34.9186 49.613 34.1251 49.0655 33.7684 48.2844H33.7622C33.633 48.0076 33.5592 47.7062 33.5531 47.3802V47.3248C33.5531 47.2264 33.5592 47.128 33.5715 47.0296C33.5777 46.9742 33.5838 46.925 33.5961 46.8758C33.6638 46.5437 33.7991 46.2423 33.9898 45.984C34.4081 45.4119 35.0785 45.0429 35.8351 45.0429C36.9853 45.0429 37.9264 45.8794 38.0924 46.9742C38.1109 47.085 38.1232 47.208 38.1232 47.3248C38.1232 47.4848 38.1047 47.6447 38.074 47.7985ZM39.5194 47.0296C39.3657 45.129 37.7787 43.6343 35.8351 43.6343C34.5864 43.6343 33.4854 44.2556 32.815 45.2089C32.5997 45.5103 32.4336 45.8425 32.3229 46.1992C32.286 46.2977 32.2614 46.4022 32.2368 46.5068C32.206 46.6236 32.1876 46.7467 32.1753 46.8697C32.1568 47.0173 32.1445 47.1711 32.1445 47.3248C32.1445 47.6508 32.1876 47.9707 32.2737 48.2721C32.6858 49.8529 34.1251 51.0154 35.8351 51.0154C37.4958 51.0154 38.8982 49.9267 39.3657 48.4259C39.421 48.2413 39.4641 48.0506 39.4887 47.8538C39.5194 47.6816 39.5317 47.5032 39.5317 47.3248C39.5317 47.2264 39.5256 47.128 39.5194 47.0296Z" fill="white"/>
<path fill-rule="evenodd" clip-rule="evenodd" d="M49.687 34.1867C49.6809 34.568 49.5702 34.9309 49.3857 35.2446C48.9982 35.9335 48.26 36.3948 47.4112 36.3948C46.7838 36.3948 46.2118 36.1365 45.7997 35.7306C45.406 35.3369 45.1477 34.8018 45.1293 34.2051C45.1231 34.1744 45.1231 34.1375 45.1231 34.1067C45.1231 33.8176 45.1785 33.5408 45.2769 33.2825C45.5229 32.6428 46.0457 32.1446 46.7039 31.9355C46.9253 31.8555 47.1652 31.8186 47.4112 31.8186C47.6573 31.8186 47.891 31.8555 48.1124 31.9293C48.9305 32.1938 49.5456 32.9135 49.6686 33.7869C49.687 33.8914 49.6932 33.996 49.6932 34.1067C49.6932 34.1313 49.6932 34.1621 49.687 34.1867ZM51.0956 33.9837C51.0956 33.8484 51.0833 33.7131 51.0587 33.5839C50.8434 32.0277 49.644 30.7791 48.1124 30.4839C47.8848 30.4408 47.6511 30.4162 47.4112 30.4162C47.1713 30.4162 46.9315 30.4408 46.7039 30.4839C45.6828 30.6807 44.8094 31.3019 44.2804 32.1569C44.139 32.3722 44.0282 32.6059 43.9421 32.8519C43.8437 33.1164 43.7761 33.3871 43.7453 33.6762C43.7269 33.8176 43.7207 33.9591 43.7207 34.1067C43.7207 36.1427 45.3753 37.7972 47.4112 37.7972C49.1335 37.7972 50.5851 36.6101 50.9849 35.0109C51.0648 34.7218 51.1018 34.4204 51.1018 34.1067C51.1018 34.0637 51.1018 34.0206 51.0956 33.9837Z" fill="white"/>
<path fill-rule="evenodd" clip-rule="evenodd" d="M61.7302 56.6679C61.3242 57.3015 60.6169 57.7197 59.8111 57.7197C59.522 57.7197 59.2452 57.6644 58.9931 57.566C58.827 57.5044 58.6732 57.4245 58.5317 57.3261C58.2242 57.1169 57.972 56.8401 57.7936 56.508C57.6214 56.1882 57.523 55.8253 57.523 55.4316C57.523 54.6689 57.8982 53.9923 58.4702 53.5802C58.7655 53.3649 59.1161 53.2173 59.4913 53.1681C59.5958 53.1496 59.7004 53.1435 59.8111 53.1435C59.8788 53.1435 59.9464 53.1435 60.0141 53.1558C61.1397 53.2542 62.0254 54.1707 62.087 55.3024C62.0931 55.3455 62.0931 55.3885 62.0931 55.4316C62.0931 55.8868 61.9639 56.3112 61.7302 56.6679ZM60.8076 51.8825C60.6538 51.8333 60.5 51.8026 60.3401 51.7841C60.1679 51.7534 59.9895 51.7411 59.8111 51.7411C59.5897 51.7411 59.3744 51.7595 59.1714 51.7964V51.8026C57.4369 52.0978 56.1206 53.6171 56.1206 55.4316C56.1206 56.5449 56.6188 57.5475 57.4 58.2179V58.2241C57.6399 58.4332 57.9105 58.6116 58.1996 58.7531C58.3534 58.8269 58.5071 58.8884 58.6732 58.9437C59.03 59.0606 59.4113 59.1221 59.8111 59.1221C61.3119 59.1221 62.6036 58.2241 63.1818 56.9324C63.3725 56.5142 63.4832 56.0467 63.4955 55.5608C63.5017 55.5177 63.5017 55.4747 63.5017 55.4316C63.5017 53.7401 62.3576 52.3131 60.8076 51.8825Z" fill="white"/>
<path fill-rule="evenodd" clip-rule="evenodd" d="M66.3003 48.106C66.005 49.0287 65.1439 49.693 64.129 49.693C63.5631 49.693 63.0341 49.4838 62.6343 49.1332C62.5236 49.0348 62.4129 48.9241 62.3206 48.8072C62.0869 48.5058 61.927 48.1368 61.8716 47.7431C61.847 47.6324 61.8409 47.5217 61.8409 47.4048C61.8409 46.3346 62.579 45.4427 63.5693 45.1967V45.1905C63.7476 45.1475 63.9383 45.1229 64.129 45.1229C64.3074 45.1229 64.4796 45.1413 64.6457 45.1844C64.7933 45.2151 64.9409 45.2643 65.0762 45.332C65.6544 45.5965 66.1034 46.0885 66.3003 46.7036C66.3741 46.9251 66.411 47.1588 66.411 47.4048C66.411 47.6509 66.3741 47.8846 66.3003 48.106ZM67.7519 46.7036C67.4566 45.1536 66.1834 43.948 64.6088 43.7512C64.4488 43.7266 64.2889 43.7143 64.129 43.7143C63.8338 43.7143 63.5447 43.7512 63.2679 43.8189H63.2617C62.6774 43.9542 62.1484 44.2371 61.7117 44.6185C60.9305 45.2951 60.4385 46.2915 60.4385 47.4048C60.4385 48.0568 60.6046 48.6658 60.8998 49.1947V49.2009C61.072 49.5023 61.275 49.7729 61.521 50.0128V50.019C61.6256 50.1235 61.7363 50.2219 61.8532 50.3142C62.4806 50.8063 63.2679 51.1015 64.129 51.1015C65.9251 51.1015 67.4259 49.816 67.7519 48.106C67.7949 47.8784 67.8195 47.6447 67.8195 47.4048C67.8195 47.1649 67.7949 46.9312 67.7519 46.7036Z" fill="white"/>
<path fill-rule="evenodd" clip-rule="evenodd" d="M49.6927 18.7417C49.6927 18.8033 49.6927 18.8586 49.6804 18.9201C49.6804 19.0124 49.6681 19.0985 49.6496 19.1908C49.5696 19.5721 49.3974 19.9289 49.1452 20.218C48.8807 20.5378 48.524 20.7838 48.1119 20.913C47.8905 20.9868 47.6567 21.0237 47.4107 21.0237C47.1646 21.0237 46.9248 20.9868 46.7033 20.9069C46.2974 20.7777 45.9406 20.5378 45.67 20.218C45.424 19.9289 45.2456 19.5721 45.1718 19.1908C45.1472 19.0985 45.1349 19.0124 45.1349 18.9201C45.1226 18.8586 45.1226 18.8033 45.1226 18.7417C45.1226 18.4034 45.1964 18.0836 45.3317 17.7945C45.59 17.2163 46.0882 16.7673 46.7033 16.5705C46.9248 16.4905 47.1646 16.4536 47.4107 16.4536C47.6567 16.4536 47.8905 16.4905 48.1119 16.5643C48.727 16.7612 49.2252 17.2163 49.4835 17.7945C49.6188 18.0836 49.6927 18.4034 49.6927 18.7417Z" fill="white"/>
<path fill-rule="evenodd" clip-rule="evenodd" d="M36.0071 18.0037C36.0071 18.3543 35.9271 18.6926 35.7795 18.9878C35.4105 19.7567 34.6293 20.2857 33.719 20.2857C33.639 20.2857 33.5529 20.2795 33.473 20.2734C32.9747 20.218 32.5196 20.0027 32.169 19.6706C31.9352 19.4614 31.7446 19.197 31.6215 18.8956H31.6154C31.4985 18.6188 31.437 18.3174 31.437 18.0037C31.437 17.8315 31.4555 17.6592 31.4924 17.4932C31.5477 17.2471 31.6461 17.0196 31.7753 16.8104C32.0213 16.3983 32.4027 16.0723 32.8517 15.8878C33.1162 15.7771 33.4114 15.7156 33.719 15.7156C34.1434 15.7156 34.5494 15.8324 34.8877 16.0416C35.3059 16.2876 35.6442 16.669 35.8349 17.1241C35.8902 17.2717 35.9394 17.4317 35.9641 17.5916C35.9948 17.7269 36.0071 17.8622 36.0071 18.0037Z" fill="white"/>
<path fill-rule="evenodd" clip-rule="evenodd" d="M18.0095 59.768C17.9173 60.2539 17.6651 60.6845 17.3145 61.0043C16.9454 61.3426 16.4657 61.564 15.9367 61.6009C15.8813 61.6071 15.826 61.6071 15.7706 61.6071C15.3339 61.6071 14.9218 61.4841 14.5712 61.2626C14.196 61.0351 13.8946 60.6968 13.7039 60.297C13.5624 60.0017 13.4825 59.6696 13.4825 59.319C13.4825 59.1775 13.4948 59.036 13.5255 58.9007C13.5624 58.667 13.6424 58.4455 13.7531 58.2426C13.9807 57.8182 14.3436 57.4737 14.7803 57.2646C15.0386 57.1416 15.3216 57.0616 15.623 57.0431C15.6722 57.037 15.7214 57.037 15.7706 57.037C16.2135 57.037 16.6317 57.1662 16.9823 57.3876C17.6282 57.7874 18.0587 58.5009 18.0587 59.319C18.0587 59.4727 18.0464 59.6204 18.0095 59.768ZM17.3329 55.979C16.9208 55.7822 16.4595 55.6592 15.9736 55.6408C15.9059 55.6284 15.8383 55.6284 15.7706 55.6284C14.9525 55.6284 14.2021 55.8929 13.5932 56.3419C13.2118 56.6187 12.8858 56.9755 12.6398 57.3814C12.2892 57.9289 12.0924 58.5686 12.0801 59.2575V59.319C12.0801 59.7864 12.1662 60.2293 12.3261 60.6414C12.6706 61.5394 13.3533 62.2714 14.2206 62.6773C14.6388 62.868 15.1002 62.9849 15.5861 63.0095C15.6476 63.0156 15.7091 63.0156 15.7706 63.0156C16.8163 63.0156 17.7635 62.5789 18.4339 61.8716C18.7599 61.5333 19.0244 61.1273 19.1966 60.6845C19.3689 60.2601 19.4611 59.7987 19.4611 59.319C19.4611 57.8428 18.5877 56.5634 17.3329 55.979Z" fill="white"/>
<path fill-rule="evenodd" clip-rule="evenodd" d="M18.0587 59.319C18.0587 59.4727 18.0464 59.6204 18.0095 59.768C17.9172 60.2539 17.665 60.6845 17.3144 61.0043C16.9454 61.3426 16.4656 61.564 15.9366 61.6009C15.8813 61.6071 15.8259 61.6071 15.7705 61.6071C15.3338 61.6071 14.9217 61.4841 14.5711 61.2626C14.1959 61.0351 13.8945 60.6968 13.7039 60.2969C13.5624 60.0017 13.4824 59.6696 13.4824 59.319C13.4824 59.1775 13.4947 59.036 13.5255 58.9007C13.5624 58.667 13.6423 58.4455 13.7531 58.2426C13.9806 57.8181 14.3435 57.4737 14.7803 57.2646C15.0386 57.1416 15.3215 57.0616 15.6229 57.0431C15.6721 57.037 15.7213 57.037 15.7705 57.037C16.2134 57.037 16.6317 57.1662 16.9823 57.3876C17.6281 57.7874 18.0587 58.5009 18.0587 59.319Z" fill="white"/>
<path fill-rule="evenodd" clip-rule="evenodd" d="M70.2307 67.4628C70.2307 67.838 70.1385 68.1886 69.9847 68.4961C69.7571 68.939 69.3942 69.3019 68.9452 69.5172C68.6438 69.6648 68.3055 69.7509 67.9426 69.7509C67.6412 69.7509 67.3521 69.6894 67.0876 69.5848C66.774 69.4557 66.4972 69.265 66.2757 69.019C66.1712 68.9144 66.0851 68.7975 66.0112 68.6745C65.8329 68.3977 65.7222 68.084 65.6791 67.7457L65.7898 67.6965L65.6668 67.6289C65.6606 67.5735 65.6606 67.5181 65.6606 67.4628C65.6606 66.9953 65.796 66.5709 66.0358 66.2142C66.4418 65.5929 67.143 65.1808 67.9426 65.1808H67.9549C68.4162 65.1808 68.8468 65.3223 69.2035 65.5622C69.2343 65.5806 69.2651 65.5991 69.2897 65.6237C69.6526 65.882 69.9293 66.2388 70.0831 66.6632C70.1815 66.9092 70.2307 67.1798 70.2307 67.4628Z" fill="white"/>
<path fill-rule="evenodd" clip-rule="evenodd" d="M64.2273 77.3041V77.3102C64.2273 77.9069 63.9936 78.4482 63.6184 78.8541C63.2924 79.2047 62.8618 79.4569 62.3759 79.5492C62.2344 79.5799 62.0868 79.5922 61.9392 79.5922C61.1642 79.5922 60.4753 79.2047 60.0632 78.6081C59.8048 78.239 59.6572 77.79 59.6572 77.3041C59.6572 77.2549 59.6572 77.2057 59.6634 77.1565C59.6695 77.0212 59.688 76.8858 59.7249 76.7628C59.811 76.3815 60.0017 76.0432 60.26 75.7664C60.4261 75.5757 60.6352 75.4158 60.8628 75.2928C61.1826 75.1205 61.5517 75.0221 61.9392 75.0221C62.2221 75.0221 62.4866 75.0713 62.7388 75.1697C63.1325 75.3112 63.4769 75.5634 63.7291 75.8894C64.0428 76.2769 64.2273 76.769 64.2273 77.3041Z" fill="white"/>
<path fill-rule="evenodd" clip-rule="evenodd" d="M36.6342 76.9289C36.585 77.3349 36.4251 77.7101 36.1852 78.0238C35.8961 78.399 35.4963 78.6819 35.0288 78.8234C34.8197 78.8849 34.5983 78.9218 34.3707 78.9218C34.0078 78.9218 33.6695 78.8357 33.362 78.6819C32.9252 78.4728 32.5685 78.1222 32.3532 77.6916C32.2363 77.4825 32.1564 77.2488 32.1195 77.0027C32.101 76.8797 32.0887 76.7567 32.0887 76.6337C32.0887 76.2585 32.181 75.9079 32.3409 75.5942C32.3655 75.545 32.3963 75.4896 32.427 75.4404C32.6792 75.0345 33.0483 74.7085 33.4973 74.5239C33.7679 74.4132 34.0632 74.3517 34.3707 74.3517C35.2318 74.3517 35.9822 74.8315 36.3759 75.5327C36.5543 75.8587 36.6588 76.2339 36.6588 76.6337C36.6588 76.7321 36.6527 76.8305 36.6342 76.9289ZM37.889 75.5081H37.8828C37.4092 74.0257 36.013 72.9432 34.3707 72.9432C33.7372 72.9432 33.1405 73.1031 32.6239 73.3799C32.2056 73.6075 31.8365 73.9088 31.5351 74.2717C31.2092 74.6593 30.9631 75.1206 30.8216 75.6188C30.7294 75.9386 30.6802 76.2831 30.6802 76.6337C30.6802 76.769 30.6863 76.8982 30.6986 77.0273C30.7724 77.7162 31.0369 78.3498 31.4367 78.8665C31.7197 79.2417 32.0764 79.5615 32.4885 79.8014C33.036 80.1335 33.6818 80.3242 34.3707 80.3242C34.9243 80.3242 35.4471 80.2012 35.9146 79.9798H35.9207C36.3513 79.7829 36.7388 79.5 37.0586 79.1555C37.6245 78.5651 37.9874 77.7839 38.0489 76.9105C38.0551 76.8182 38.0612 76.7259 38.0612 76.6337C38.0612 76.24 37.9997 75.8648 37.889 75.5081Z" fill="white"/>
<path fill-rule="evenodd" clip-rule="evenodd" d="M36.659 76.6338C36.659 76.7322 36.6528 76.8307 36.6344 76.9291C36.5852 77.335 36.4252 77.7102 36.1853 78.0239C35.8963 78.3991 35.4965 78.6821 35.029 78.8235C34.8199 78.885 34.5984 78.922 34.3708 78.922C34.0079 78.922 33.6696 78.8358 33.3621 78.6821C32.9254 78.4729 32.5686 78.1223 32.3534 77.6918C32.2365 77.4826 32.1565 77.2489 32.1196 77.0029C32.1012 76.8799 32.0889 76.7568 32.0889 76.6338C32.0889 76.2586 32.1811 75.908 32.3411 75.5943C32.3657 75.5451 32.3964 75.4898 32.4272 75.4406C32.6794 75.0346 33.0484 74.7086 33.4974 74.5241C33.7681 74.4134 34.0633 74.3519 34.3708 74.3519C35.232 74.3519 35.9824 74.8316 36.376 75.5328C36.5544 75.8588 36.659 76.234 36.659 76.6338Z" fill="white"/>
<path fill-rule="evenodd" clip-rule="evenodd" d="M49.6927 34.1066C49.6927 34.1312 49.6927 34.162 49.6865 34.1866C49.6804 34.5679 49.5696 34.9308 49.3851 35.2445C48.9976 35.9334 48.2595 36.3947 47.4107 36.3947C46.7833 36.3947 46.2113 36.1364 45.7992 35.7304C45.4055 35.3368 45.1472 34.8017 45.1287 34.205C45.1226 34.1743 45.1226 34.1374 45.1226 34.1066C45.1226 33.8175 45.1779 33.5407 45.2763 33.2824C45.5224 32.6427 46.0452 32.1445 46.7033 31.9354C46.9248 31.8554 47.1646 31.8185 47.4107 31.8185C47.6567 31.8185 47.8905 31.8554 48.1119 31.9292C48.9299 32.1937 49.545 32.9133 49.6681 33.7868C49.6865 33.8913 49.6927 33.9959 49.6927 34.1066Z" fill="white"/>
<path fill-rule="evenodd" clip-rule="evenodd" d="M62.0926 55.4316C62.0926 55.8868 61.9634 56.3112 61.7297 56.6679C61.3237 57.3015 60.6163 57.7197 59.8106 57.7197C59.5215 57.7197 59.2447 57.6644 58.9925 57.5659C58.8264 57.5044 58.6727 57.4245 58.5312 57.3261C58.2237 57.1169 57.9715 56.8401 57.7931 56.508C57.6209 56.1881 57.5225 55.8252 57.5225 55.4316C57.5225 54.6689 57.8977 53.9923 58.4697 53.5802C58.7649 53.3649 59.1155 53.2173 59.4907 53.1681C59.5953 53.1496 59.6999 53.1435 59.8106 53.1435C59.8782 53.1435 59.9459 53.1435 60.0136 53.1558C61.1392 53.2542 62.0249 54.1707 62.0864 55.3024C62.0926 55.3455 62.0926 55.3885 62.0926 55.4316Z" fill="white"/>
<path fill-rule="evenodd" clip-rule="evenodd" d="M66.4109 47.4048C66.4109 47.6508 66.374 47.8845 66.3002 48.106C66.005 49.0286 65.1438 49.6929 64.1289 49.6929C63.5631 49.6929 63.0341 49.4838 62.6343 49.1332C62.5236 49.0348 62.4129 48.924 62.3206 48.8072C62.0869 48.5058 61.9269 48.1367 61.8716 47.7431C61.847 47.6324 61.8408 47.5216 61.8408 47.4048C61.8408 46.3345 62.5789 45.4426 63.5692 45.1966V45.1905C63.7476 45.1474 63.9383 45.1228 64.1289 45.1228C64.3073 45.1228 64.4795 45.1413 64.6456 45.1843C64.7932 45.2151 64.9409 45.2643 65.0762 45.3319C65.6544 45.5964 66.1034 46.0885 66.3002 46.7036C66.374 46.925 66.4109 47.1587 66.4109 47.4048Z" fill="white"/>
<path fill-rule="evenodd" clip-rule="evenodd" d="M29.5177 27.7898C29.4501 28.2758 29.2225 28.7186 28.8965 29.0508C28.4844 29.4752 27.9 29.7397 27.2603 29.7397C27.1189 29.7397 26.9774 29.7274 26.8421 29.6966C26.4669 29.6289 26.1286 29.469 25.8395 29.2353C25.7534 29.1738 25.6734 29.1 25.5996 29.02C25.3474 28.7555 25.1567 28.4234 25.0645 28.0543C25.0091 27.8636 24.9784 27.6607 24.9784 27.4515C24.9784 27.2424 25.0091 27.0394 25.0645 26.8488C25.1875 26.3751 25.4643 25.963 25.8333 25.6678C26.227 25.3541 26.7252 25.1634 27.2603 25.1634C27.5064 25.1634 27.7463 25.2003 27.9677 25.2741C28.2568 25.3664 28.5151 25.5202 28.7427 25.7108C28.878 25.8277 29.001 25.9569 29.1056 26.1045C29.284 26.3444 29.4132 26.6212 29.4808 26.9226V26.9287C29.5239 27.1009 29.5485 27.267 29.5485 27.4515C29.5485 27.5684 29.5423 27.6791 29.5177 27.7898ZM30.7971 26.3813C30.6618 25.92 30.4342 25.4956 30.139 25.1327C30.0836 25.0712 30.0282 25.0096 29.9729 24.9481C29.653 24.6037 29.2717 24.3146 28.835 24.1178C28.3614 23.884 27.8262 23.761 27.2603 23.761C26.1962 23.761 25.2306 24.2162 24.5601 24.942C24.2341 25.2803 23.9819 25.6862 23.8159 26.1353C23.6559 26.5412 23.5698 26.9902 23.5698 27.4515C23.5698 27.9867 23.6805 28.4972 23.8897 28.9524C24.0803 29.3891 24.3571 29.7827 24.7016 30.1026C24.8061 30.2071 24.9169 30.3055 25.0337 30.3917C25.4028 30.6746 25.8333 30.8899 26.2947 31.0129C26.6022 31.099 26.9282 31.1421 27.2603 31.1421C28.4229 31.1421 29.4624 30.6069 30.139 29.7704C30.4342 29.4075 30.6618 28.9831 30.7971 28.5279C30.9017 28.1835 30.957 27.8267 30.957 27.4515C30.957 27.0825 30.9017 26.7196 30.7971 26.3813Z" fill="white"/>
<path fill-rule="evenodd" clip-rule="evenodd" d="M29.5481 27.4514C29.5481 27.5683 29.542 27.679 29.5174 27.7897C29.4497 28.2756 29.2221 28.7185 28.8961 29.0506C28.484 29.475 27.8997 29.7395 27.26 29.7395C27.1185 29.7395 26.9771 29.7272 26.8417 29.6965C26.4665 29.6288 26.1282 29.4689 25.8391 29.2352C25.753 29.1737 25.6731 29.0998 25.5993 29.0199C25.3471 28.7554 25.1564 28.4232 25.0641 28.0542C25.0088 27.8635 24.978 27.6605 24.978 27.4514C24.978 27.2423 25.0088 27.0393 25.0641 26.8486C25.1872 26.375 25.4639 25.9629 25.833 25.6677C26.2267 25.354 26.7249 25.1633 27.26 25.1633C27.506 25.1633 27.7459 25.2002 27.9674 25.274C28.2564 25.3663 28.5148 25.52 28.7424 25.7107C28.8777 25.8276 29.0007 25.9567 29.1053 26.1044C29.2836 26.3443 29.4128 26.621 29.4805 26.9224V26.9286C29.5235 27.1008 29.5481 27.2669 29.5481 27.4514Z" fill="white"/>
<path fill-rule="evenodd" clip-rule="evenodd" d="M82.2185 35.7551C82.2185 36.2225 82.0771 36.6593 81.8372 37.0222C81.5665 37.4343 81.1606 37.748 80.687 37.914C80.4532 38.0001 80.201 38.0432 79.9366 38.0432C79.7151 38.0432 79.506 38.0124 79.303 37.9509C78.7987 37.8095 78.3681 37.4958 78.0728 37.0775C77.8084 36.7023 77.6484 36.2471 77.6484 35.7551C77.6484 35.6936 77.6484 35.6382 77.6607 35.5767C77.6976 35.0662 77.9068 34.6049 78.2266 34.242C78.4234 34.0205 78.6633 33.836 78.9278 33.713V33.7068C79.2292 33.5592 79.5737 33.4731 79.9366 33.4731C80.1026 33.4731 80.2626 33.4916 80.4163 33.5223C80.8961 33.6269 81.3205 33.8791 81.6342 34.2358C81.954 34.5864 82.157 35.0354 82.2062 35.5275C82.2124 35.6013 82.2185 35.6813 82.2185 35.7551Z" fill="white"/>
<path fill-rule="evenodd" clip-rule="evenodd" d="M81.8064 59.319C81.8064 59.6512 81.7326 59.971 81.6096 60.254C81.3759 60.7706 80.9515 61.1889 80.4348 61.4226C80.158 61.5395 79.8504 61.6071 79.5245 61.6071C79.3522 61.6071 79.18 61.5887 79.0201 61.5456C78.5219 61.4411 78.0913 61.1643 77.7776 60.7891C77.4639 60.4262 77.2732 59.971 77.2425 59.4666V59.4297C77.2363 59.3928 77.2363 59.3559 77.2363 59.319C77.2363 58.87 77.3655 58.4517 77.5931 58.1011C77.7099 57.9105 77.8576 57.7382 78.0236 57.5968C78.3804 57.2892 78.8356 57.0863 79.3338 57.0494C79.3953 57.037 79.4568 57.037 79.5245 57.037C79.7705 57.037 80.0104 57.074 80.2257 57.1539C80.7116 57.3015 81.1237 57.6152 81.4005 58.0273C81.5727 58.2672 81.6957 58.5502 81.7572 58.8516C81.788 58.9992 81.8064 59.1591 81.8064 59.319Z" fill="white"/>
<path fill-rule="evenodd" clip-rule="evenodd" d="M19.4611 35.6937C19.4611 37.1883 18.5692 38.4739 17.296 39.0582C16.8778 39.2489 16.4164 39.3596 15.9244 39.378C15.8752 39.3842 15.826 39.3842 15.7706 39.3842C14.9341 39.3842 14.1591 39.1074 13.544 38.6338C13.1688 38.3508 12.8428 37.9941 12.6029 37.582C12.2708 37.0345 12.0801 36.3826 12.0801 35.6937C12.0801 35.503 12.0924 35.3123 12.1293 35.1278C12.1969 34.648 12.363 34.199 12.6029 33.8053C12.9597 33.2026 13.4825 32.7166 14.1099 32.4029C14.5158 32.1877 14.971 32.0585 15.4569 32.0154C15.5553 32.0093 15.666 32.0031 15.7706 32.0031C16.8101 32.0031 17.7573 32.4337 18.4216 33.1349C18.7538 33.4732 19.0183 33.873 19.1966 34.3159C19.3689 34.7403 19.4611 35.2077 19.4611 35.6937Z" fill="white"/>
<path fill-rule="evenodd" clip-rule="evenodd" d="M38.1228 47.3249C38.1228 47.4848 38.1044 47.6448 38.0736 47.7985C38.0306 48.0015 37.9629 48.1922 37.8706 48.3706C37.4893 49.1087 36.7204 49.613 35.8347 49.613C34.9182 49.613 34.1248 49.0656 33.768 48.2844H33.7619C33.6327 48.0077 33.5589 47.7063 33.5527 47.3803V47.3249C33.5527 47.2265 33.5589 47.1281 33.5712 47.0297C33.5773 46.9743 33.5835 46.9251 33.5958 46.8759C33.6634 46.5438 33.7988 46.2424 33.9894 45.984C34.4077 45.412 35.0782 45.0429 35.8347 45.0429C36.9849 45.0429 37.926 45.8795 38.0921 46.9743C38.1105 47.085 38.1228 47.208 38.1228 47.3249Z" fill="white"/>
<path fill-rule="evenodd" clip-rule="evenodd" d="M21.0423 47.4048C21.0423 47.6877 20.9931 47.9584 20.8946 48.2105C20.7593 48.5796 20.5256 48.9056 20.2304 49.1516C19.8736 49.453 19.4184 49.6498 18.9264 49.6867L18.9079 49.6437L18.9018 49.6867C18.8526 49.6929 18.8095 49.6929 18.7603 49.6929C18.3174 49.6929 17.893 49.5637 17.5424 49.3362C17.118 49.0717 16.7859 48.6719 16.6136 48.1921C16.5214 47.9461 16.4722 47.6816 16.4722 47.4048C16.4722 47.1895 16.5029 46.9865 16.5583 46.7897C16.7121 46.2484 17.0565 45.7871 17.5178 45.4857C17.8746 45.2581 18.3051 45.1228 18.7603 45.1228C18.7972 45.1228 18.8403 45.1228 18.8772 45.129L18.8956 45.2028L18.9264 45.129C19.4184 45.1659 19.8736 45.3565 20.2304 45.6579C20.581 45.9532 20.8454 46.353 20.9623 46.8143C21.0177 47.005 21.0423 47.2018 21.0423 47.4048Z" fill="white"/>
<path fill-rule="evenodd" clip-rule="evenodd" d="M29.5486 67.8197C29.5486 67.8505 29.5486 67.8812 29.5425 67.912C29.5302 68.2995 29.4194 68.6562 29.2349 68.9699C29.1857 69.0622 29.1242 69.1483 29.0565 69.2283C28.829 69.5235 28.5276 69.7634 28.1831 69.9172C27.9002 70.0402 27.5865 70.1078 27.2605 70.1078C26.5962 70.1078 25.9934 69.8187 25.5813 69.3636C25.2615 69.0191 25.0523 68.5763 24.997 68.0842C24.9847 67.9981 24.9785 67.912 24.9785 67.8197C24.9785 67.5429 25.0277 67.2846 25.1138 67.0447C25.243 66.6879 25.4583 66.3681 25.7412 66.1282C25.815 66.0544 25.895 65.9929 25.975 65.9375C26.2763 65.7284 26.6393 65.5931 27.0206 65.55C27.1006 65.5439 27.1805 65.5377 27.2605 65.5377C27.7772 65.5377 28.2569 65.71 28.6383 65.9991C29.0196 66.2881 29.3087 66.6879 29.4502 67.1554C29.5117 67.3645 29.5486 67.586 29.5486 67.8197Z" fill="white"/>
<path fill-rule="evenodd" clip-rule="evenodd" d="M49.6253 75.9141V75.9203C49.6253 76.234 49.5638 76.5354 49.4469 76.8122C49.1947 77.3965 48.7149 77.8578 48.1122 78.0731C47.8723 78.1592 47.6078 78.2084 47.3371 78.2084C47.1157 78.2084 46.9066 78.1777 46.7036 78.1161C46.0332 77.9255 45.4919 77.4272 45.2274 76.7937C45.1167 76.5231 45.0552 76.2278 45.0552 75.9203C45.0552 75.9018 45.0552 75.8772 45.0613 75.8588C45.0613 75.6988 45.0798 75.5451 45.1167 75.3913C45.1905 75.0715 45.332 74.7824 45.5288 74.5302C45.8179 74.1488 46.23 73.8597 46.7036 73.7244C46.9066 73.6629 47.1157 73.6322 47.3371 73.6322C47.6078 73.6322 47.8723 73.6814 48.1122 73.7675C48.5489 73.9274 48.9241 74.2103 49.1824 74.5794C49.3669 74.8254 49.4961 75.1084 49.5638 75.4098C49.6068 75.5697 49.6253 75.7419 49.6253 75.9141Z" fill="white"/>
<path fill-rule="evenodd" clip-rule="evenodd" d="M78.5525 48.106C78.368 48.6842 77.9559 49.164 77.4207 49.4408C77.107 49.6007 76.7564 49.6929 76.3751 49.6929C76.2582 49.6929 76.1414 49.6868 76.0306 49.6622C75.9876 49.6622 75.9507 49.656 75.9138 49.6437H75.9076C75.4217 49.5453 74.9911 49.287 74.6775 48.9302C74.4683 48.6965 74.3022 48.4136 74.2038 48.106C74.13 47.8846 74.0931 47.6509 74.0931 47.4048C74.0931 47.1588 74.13 46.9251 74.2038 46.7036C74.3022 46.3961 74.4683 46.1193 74.6836 45.8856C74.9911 45.5288 75.4217 45.2705 75.9076 45.1659H75.9138C75.9568 45.1598 75.9937 45.1536 76.0368 45.1475C76.1475 45.129 76.2582 45.1229 76.3751 45.1229C76.7564 45.1229 77.107 45.2151 77.4207 45.3812C77.9559 45.6518 78.3618 46.1254 78.5525 46.7036C78.6263 46.9251 78.6632 47.1588 78.6632 47.4048C78.6632 47.6509 78.6263 47.8846 78.5525 48.106ZM79.998 46.7036C79.7642 45.4735 78.9093 44.4586 77.7713 43.9911C77.3469 43.8127 76.8856 43.7205 76.3997 43.7143H76.3751C76.0245 43.7143 75.6862 43.7635 75.3664 43.8558C74.905 43.9849 74.4806 44.2064 74.1116 44.5016C73.4165 45.0306 72.9245 45.8117 72.7522 46.7036C72.7092 46.9312 72.6846 47.1649 72.6846 47.4048C72.6846 47.6447 72.7092 47.8784 72.7522 48.106C72.9245 48.9979 73.4165 49.7791 74.1054 50.3142C74.4745 50.6094 74.905 50.8309 75.3664 50.96C75.6862 51.0523 76.0245 51.1015 76.3751 51.1015H76.3935C76.8795 51.1015 77.3469 51.0031 77.7713 50.8247C78.9093 50.3572 79.7642 49.3424 79.998 48.106C80.041 47.8784 80.0656 47.6447 80.0656 47.4048C80.0656 47.1649 80.041 46.9312 79.998 46.7036Z" fill="white"/>
<path fill-rule="evenodd" clip-rule="evenodd" d="M78.6638 47.4048C78.6638 47.6508 78.6269 47.8845 78.5531 48.106C78.3686 48.6842 77.9565 49.1639 77.4214 49.4407C77.1077 49.6006 76.7571 49.6929 76.3757 49.6929C76.2589 49.6929 76.142 49.6867 76.0313 49.6621C75.9882 49.6621 75.9513 49.656 75.9144 49.6437H75.9083C75.4223 49.5453 74.9918 49.2869 74.6781 48.9302C74.469 48.6965 74.3029 48.4135 74.2045 48.106C74.1307 47.8845 74.0938 47.6508 74.0938 47.4048C74.0938 47.1587 74.1307 46.925 74.2045 46.7036C74.3029 46.396 74.469 46.1192 74.6842 45.8855C74.9918 45.5288 75.4223 45.2704 75.9083 45.1659H75.9144C75.9575 45.1597 75.9944 45.1536 76.0374 45.1474C76.1481 45.129 76.2589 45.1228 76.3757 45.1228C76.7571 45.1228 77.1077 45.2151 77.4214 45.3811C77.9565 45.6518 78.3625 46.1254 78.5531 46.7036C78.6269 46.925 78.6638 47.1587 78.6638 47.4048Z" fill="white"/>
<path fill-rule="evenodd" clip-rule="evenodd" d="M70.2864 27.4513C70.2864 27.6605 70.2557 27.8696 70.2003 28.0603C70.0711 28.5339 69.7943 28.946 69.4253 29.2351C69.3945 29.2597 69.3699 29.2843 69.3392 29.3028C68.964 29.5795 68.5027 29.7395 67.9983 29.7395C67.2048 29.7395 66.5098 29.3335 66.1038 28.7184C65.8578 28.3555 65.7163 27.9188 65.7163 27.4513C65.7163 27.4083 65.7163 27.3591 65.7225 27.316C65.7225 27.2422 65.7348 27.1684 65.7471 27.0946C65.8024 26.7194 65.9562 26.3688 66.1838 26.0736C66.2391 25.9936 66.3068 25.9136 66.3806 25.8398C66.6389 25.5753 66.9649 25.3785 67.3278 25.2678C67.537 25.2001 67.7645 25.1632 67.9983 25.1632C68.3673 25.1632 68.7179 25.2493 69.0255 25.4093C69.4683 25.6307 69.8312 25.9936 70.0465 26.4426C70.2003 26.744 70.2864 27.0884 70.2864 27.4513Z" fill="white"/>
<path fill-rule="evenodd" clip-rule="evenodd" d="M63.0527 18.9078H63.0465C62.9604 19.0369 62.862 19.16 62.7513 19.2707C62.413 19.609 61.9701 19.8427 61.478 19.9104C61.3673 19.935 61.2566 19.9411 61.1397 19.9411C60.377 19.9411 59.7004 19.5659 59.2883 18.9877C59.0115 18.6125 58.8516 18.1512 58.8516 17.653C58.8516 17.6345 58.8516 17.6099 58.8578 17.5915C58.8578 17.2839 58.9316 16.9948 59.0484 16.7304C59.2453 16.2875 59.5774 15.9123 60.0018 15.6724C60.334 15.4756 60.7276 15.3649 61.1397 15.3649C61.3673 15.3649 61.5888 15.4018 61.7979 15.4633C62.2715 15.6047 62.6775 15.8938 62.9604 16.2813C63.2249 16.6258 63.3848 17.0379 63.4156 17.4931C63.4217 17.5423 63.4217 17.5976 63.4217 17.653C63.4217 18.1205 63.2864 18.5449 63.0527 18.9078ZM64.818 17.4623C64.7749 16.4659 64.3259 15.574 63.637 14.9405C63.2925 14.6206 62.8866 14.3623 62.4376 14.2023C62.0316 14.0424 61.5949 13.9625 61.1397 13.9625C60.4016 13.9625 59.7189 14.1777 59.1469 14.5468C58.7471 14.8051 58.3965 15.1373 58.132 15.5309C57.7014 16.1214 57.4554 16.8472 57.4492 17.6222V17.653C57.4492 18.1328 57.5415 18.5941 57.7137 19.0185C58.255 20.384 59.5897 21.3435 61.1397 21.3435C61.5826 21.3435 62.007 21.2635 62.4007 21.1221C62.8497 20.9622 63.2618 20.71 63.6062 20.3901C64.0614 19.9842 64.4182 19.4613 64.6211 18.8709C64.7565 18.4895 64.8303 18.0774 64.8303 17.653C64.8303 17.5915 64.8303 17.5238 64.818 17.4623Z" fill="white"/>
<path fill-rule="evenodd" clip-rule="evenodd" d="M63.4217 17.6531C63.4217 18.1205 63.2863 18.5449 63.0526 18.9078H63.0465C62.9603 19.037 62.8619 19.16 62.7512 19.2707C62.4129 19.609 61.9701 19.8428 61.478 19.9104C61.3673 19.935 61.2566 19.9412 61.1397 19.9412C60.377 19.9412 59.7004 19.566 59.2883 18.9878C59.0115 18.6126 58.8516 18.1513 58.8516 17.6531C58.8516 17.6346 58.8516 17.61 58.8577 17.5915C58.8577 17.284 58.9315 16.9949 59.0484 16.7304C59.2452 16.2876 59.5774 15.9124 60.0018 15.6725C60.3339 15.4756 60.7276 15.3649 61.1397 15.3649C61.3673 15.3649 61.5887 15.4018 61.7978 15.4633C62.2714 15.6048 62.6774 15.8939 62.9603 16.2814C63.2248 16.6259 63.3848 17.038 63.4155 17.4931C63.4217 17.5423 63.4217 17.5977 63.4217 17.6531Z" fill="white"/>
<path fill-rule="evenodd" clip-rule="evenodd" d="M47.2569 57.1418C47.2569 57.966 46.8202 58.6856 46.1621 59.0854C45.8607 59.27 45.5162 59.3868 45.1472 59.4114C45.0918 59.4176 45.0426 59.4176 44.9872 59.4176C44.9257 59.4176 44.8642 59.4176 44.8027 59.4053C44.3906 59.3745 44.0093 59.2331 43.6894 59.0116C43.2958 58.7348 42.9944 58.3412 42.8406 57.8799C42.7545 57.6461 42.7114 57.4001 42.7114 57.1418C42.7114 56.3729 43.0928 55.6963 43.6771 55.278C43.7632 55.2165 43.8616 55.1612 43.9601 55.112C44.2676 54.952 44.6182 54.8659 44.9872 54.8659H45.018C46.2605 54.8844 47.2569 55.8993 47.2569 57.1418Z" fill="white"/>
</svg>
