<svg width="240" height="100" viewBox="0 0 240 100" fill="none" xmlns="http://www.w3.org/2000/svg">
<path d="M118.94 48.9929H122.737V36.9706H132.52C139.432 36.9706 144.835 32.5414 144.835 26.2625C144.835 19.9836 139.432 15.5544 132.52 15.5544H118.94V48.9929ZM122.737 33.3688V19.1562H131.839C137.29 19.1562 140.99 21.7846 140.99 26.2625C140.99 30.7404 137.29 33.3688 131.839 33.3688H122.737Z" fill="#172840"/>
<path d="M170.206 48.9929H174.343L159.595 15.5544H155.458L140.71 48.9929H144.847L148.206 41.3999H166.848L170.206 48.9929ZM149.763 37.798L157.551 20.227L165.29 37.798H149.763Z" fill="#172840"/>
<path d="M205.515 48.9929H209.652L194.904 15.5544H190.767L176.019 48.9929H180.156L183.515 41.3999H202.157L205.515 48.9929ZM185.072 37.798L192.86 20.227L200.599 37.798H185.072Z" fill="#172840"/>
<path d="M211.672 48.9929H215.469V21.7846L236.204 48.9929H240V15.5544H236.204V42.7627L215.469 15.5544H211.672V48.9929Z" fill="#172840"/>
<path d="M118.932 65.4051H120.103V61.6974H123.12C125.252 61.6974 126.918 60.3314 126.918 58.3949C126.918 56.4585 125.252 55.0925 123.12 55.0925H118.932V65.4051ZM120.103 60.5866V56.2033H122.91C124.591 56.2033 125.732 57.0139 125.732 58.3949C125.732 59.776 124.591 60.5866 122.91 60.5866H120.103Z" fill="#F25849"/>
<path d="M131.706 57.4642C130.956 57.4642 130.025 57.6593 128.914 58.2148L129.364 59.1304C130.07 58.7702 130.851 58.4249 131.631 58.4249C133.312 58.4249 133.733 59.6258 133.733 60.6766V60.9618C132.937 60.7066 132.051 60.5265 131.211 60.5265C129.545 60.5265 128.164 61.5622 128.164 63.1084C128.164 64.6395 129.364 65.5853 131.001 65.5853C132.021 65.5853 133.177 65.1049 133.733 64.1892V65.4051H134.859V60.6766C134.859 58.8002 133.823 57.4642 131.706 57.4642ZM131.196 64.5945C130.1 64.5945 129.259 64.0241 129.259 63.0633C129.259 62.1327 130.235 61.4722 131.391 61.4722C132.232 61.4722 133.027 61.5923 133.733 61.7874V62.9733C133.433 64.0691 132.217 64.5945 131.196 64.5945Z" fill="#F25849"/>
<path d="M140.848 57.4642C139.752 57.4642 138.746 58.0647 138.296 58.8902V57.6443H137.17V65.4051H138.296V60.4664C138.296 59.3856 139.392 58.4699 140.698 58.4699C141.838 58.4699 142.634 59.3556 142.634 60.6166V65.4051H143.76V60.4664C143.76 58.7101 142.559 57.4642 140.848 57.4642Z" fill="#F25849"/>
<path d="M149.629 60.7817H145.741V61.8775H149.629V60.7817Z" fill="#F25849"/>
<path d="M160.047 65.4051H161.323L156.775 55.0925H155.499L150.95 65.4051H152.226L153.262 63.0634H159.011L160.047 65.4051ZM153.742 61.9526L156.144 56.5335L158.531 61.9526H153.742Z" fill="#F25849"/>
<path d="M164.7 56.5785C164.7 56.0081 165.091 55.6028 165.541 55.6028C165.886 55.6028 166.186 55.7379 166.352 55.918L166.907 55.0924C166.502 54.7772 165.991 54.5971 165.466 54.5971C164.355 54.5971 163.574 55.4227 163.574 56.5785V57.6443H162.359V58.6501H163.574V65.4051H164.7V58.6501H166.607V57.6443H164.7V56.5785Z" fill="#F25849"/>
<path d="M169.444 59.1604V57.6443H168.318V65.4051H169.444V61.0669C169.444 59.5508 170.69 58.4699 172.446 58.4699V57.4642C171.02 57.4642 169.91 58.1247 169.444 59.1604Z" fill="#F25849"/>
<path d="M174.563 56.2333C174.969 56.2333 175.299 55.888 175.299 55.4827C175.299 55.0924 174.969 54.7472 174.563 54.7472C174.143 54.7472 173.813 55.0924 173.813 55.4827C173.813 55.888 174.143 56.2333 174.563 56.2333ZM173.993 65.4051H175.119V57.6443H173.993V65.4051Z" fill="#F25849"/>
<path d="M180.989 65.5853C182.069 65.5853 183.06 65.1349 183.795 64.3993L183.015 63.6338C182.489 64.2192 181.769 64.5795 180.989 64.5795C179.442 64.5795 178.151 63.1835 178.151 61.5172C178.151 59.866 179.442 58.4699 180.989 58.4699C181.754 58.4699 182.46 58.8152 182.97 59.3706L183.75 58.605C183.015 57.8995 182.039 57.4642 180.989 57.4642C178.812 57.4642 176.966 59.3106 176.966 61.5172C176.966 63.7239 178.812 65.5853 180.989 65.5853Z" fill="#F25849"/>
<path d="M188.674 57.4642C187.923 57.4642 186.993 57.6593 185.881 58.2148L186.332 59.1304C187.037 58.7702 187.818 58.4249 188.599 58.4249C190.28 58.4249 190.7 59.6258 190.7 60.6766V60.9618C189.905 60.7066 189.019 60.5265 188.178 60.5265C186.512 60.5265 185.131 61.5622 185.131 63.1084C185.131 64.6395 186.332 65.5853 187.969 65.5853C188.989 65.5853 190.145 65.1049 190.7 64.1892V65.4051H191.826V60.6766C191.826 58.8002 190.79 57.4642 188.674 57.4642ZM188.163 64.5945C187.068 64.5945 186.227 64.0241 186.227 63.0633C186.227 62.1327 187.202 61.4722 188.359 61.4722C189.199 61.4722 189.995 61.5923 190.7 61.7874V62.9733C190.4 64.0691 189.184 64.5945 188.163 64.5945Z" fill="#F25849"/>
<path d="M197.816 57.4642C196.72 57.4642 195.714 58.0647 195.263 58.8902V57.6443H194.138V65.4051H195.263V60.4664C195.263 59.3856 196.359 58.4699 197.665 58.4699C198.806 58.4699 199.602 59.3556 199.602 60.6166V65.4051H200.728V60.4664C200.728 58.7101 199.527 57.4642 197.816 57.4642Z" fill="#F25849"/>
<path d="M128.029 81.5493H129.305L124.757 71.2367H123.481L118.932 81.5493H120.208L121.244 79.2076H126.993L128.029 81.5493ZM121.724 78.0968L124.126 72.6777L126.513 78.0968H121.724Z" fill="#F25849"/>
<path d="M136.96 73.7885V75.1245C136.36 74.1789 135.369 73.6084 134.138 73.6084C132.051 73.6084 130.565 75.1245 130.565 77.2862C130.565 79.4478 132.051 80.9789 134.138 80.9789C135.369 80.9789 136.36 80.4085 136.96 79.4628V80.7237C136.96 82.2397 135.909 83.1257 134.123 83.1257C133.162 83.1257 132.231 82.7801 131.631 82.2097L131.136 83.0957C131.841 83.6961 133.012 84.1313 134.273 84.1313C136.51 84.1313 138.086 82.7201 138.086 80.7237V73.7885H136.96ZM134.348 79.9732C132.832 79.9732 131.751 78.8623 131.751 77.2862C131.751 75.725 132.832 74.6142 134.348 74.6142C135.879 74.6142 136.96 75.725 136.96 77.2862C136.96 78.8623 135.879 79.9732 134.348 79.9732Z" fill="#F25849"/>
<path d="M143.97 80.7237C142.439 80.7237 141.373 79.6129 141.208 78.0968H147.558C147.558 75.3797 146.222 73.6084 143.88 73.6084C141.794 73.6084 140.052 75.3347 140.052 77.6465C140.052 80.0332 141.914 81.7293 143.985 81.7293C145.066 81.7293 146.432 81.2641 147.108 80.5286L146.417 79.793C145.937 80.3184 144.886 80.7237 143.97 80.7237ZM143.925 74.6142C145.471 74.6142 146.297 75.695 146.447 77.091H141.223C141.433 75.5899 142.544 74.6142 143.925 74.6142Z" fill="#F25849"/>
<path d="M153.097 73.6084C152.001 73.6084 150.995 74.2089 150.545 75.0345V73.7885H149.419V81.5493H150.545V76.6107C150.545 75.5299 151.641 74.6142 152.947 74.6142C154.088 74.6142 154.883 75.4998 154.883 76.7608V81.5493H156.009V76.6107C156.009 74.8543 154.808 73.6084 153.097 73.6084Z" fill="#F25849"/>
<path d="M161.894 81.7293C162.975 81.7293 163.965 81.2793 164.701 80.5436L163.92 79.778C163.395 80.3635 162.674 80.7237 161.894 80.7237C160.348 80.7237 159.057 79.3277 159.057 77.6615C159.057 76.0102 160.348 74.6142 161.894 74.6142C162.66 74.6142 163.365 74.9594 163.875 75.5149L164.656 74.7493C163.92 74.0437 162.945 73.6084 161.894 73.6084C159.717 73.6084 157.871 75.4548 157.871 77.6615C157.871 79.8681 159.717 81.7293 161.894 81.7293Z" fill="#F25849"/>
<path d="M167.583 84.2513C168.649 84.2365 169.4 83.7409 169.94 82.4201L173.483 73.7886H172.267L169.7 80.2434L166.983 73.7886H165.737L169.114 81.5793L168.664 82.5401C168.364 83.0657 168.034 83.2305 167.538 83.2305C167.208 83.2305 166.893 83.1705 166.623 83.0357L166.352 83.9961C166.713 84.1613 167.133 84.2513 167.583 84.2513Z" fill="#F25849"/>
<path d="M179.952 81.5493H181.123V73.1581L187.518 81.5493H188.688V71.2367H187.518V79.628L181.123 71.2367H179.952V81.5493Z" fill="#F25849"/>
<path d="M194.739 80.7237C193.208 80.7237 192.141 79.6129 191.976 78.0968H198.326C198.326 75.3797 196.99 73.6084 194.648 73.6084C192.562 73.6084 190.821 75.3347 190.821 77.6465C190.821 80.0332 192.682 81.7293 194.754 81.7293C195.835 81.7293 197.201 81.2641 197.876 80.5286L197.185 79.793C196.705 80.3184 195.655 80.7237 194.739 80.7237ZM194.694 74.6142C196.24 74.6142 197.065 75.695 197.215 77.091H191.992C192.201 75.5899 193.313 74.6142 194.694 74.6142Z" fill="#F25849"/>
<path d="M203.58 80.4085C203.414 80.5886 203.115 80.7237 202.769 80.7237C202.319 80.7237 201.928 80.3184 201.928 79.748V74.7943H203.834V73.7885H201.928V71.657H200.802V73.7885H199.587V74.7943H200.802V79.748C200.802 80.9039 201.583 81.7293 202.694 81.7293C203.22 81.7293 203.73 81.5493 204.136 81.2341L203.58 80.4085Z" fill="#F25849"/>
<path d="M207.708 81.5493H208.774L210.861 75.3498L212.917 81.5493H213.983L216.595 73.7886H215.394L213.457 80.0483L211.341 73.7886H210.365L208.249 80.0483L206.312 73.7886H205.111L207.708 81.5493Z" fill="#F25849"/>
<path d="M221.533 81.7293C223.709 81.7293 225.541 79.8681 225.541 77.6615C225.541 75.4548 223.709 73.6084 221.533 73.6084C219.356 73.6084 217.51 75.4548 217.51 77.6615C217.51 79.8681 219.356 81.7293 221.533 81.7293ZM221.533 80.7237C219.987 80.7237 218.696 79.3277 218.696 77.6615C218.696 76.0102 219.987 74.6142 221.533 74.6142C223.064 74.6142 224.356 76.0102 224.356 77.6615C224.356 79.3277 223.064 80.7237 221.533 80.7237Z" fill="#F25849"/>
<path d="M228.634 75.3047V73.7885H227.508V81.5493H228.634V77.2111C228.634 75.695 229.879 74.6142 231.636 74.6142V73.6084C230.209 73.6084 229.099 74.2689 228.634 75.3047Z" fill="#F25849"/>
<path d="M239.998 73.7885H238.557L234.308 78.0817V71.0565H233.182V81.5492H234.308V79.4928L235.704 78.1117L238.391 81.5492H239.802L236.5 77.3462L239.998 73.7885Z" fill="#F25849"/>
<path d="M54.2051 72.1724L54.1986 72.1789L50.644 71.8293L49.6146 71.7321L49.6081 71.7062C49.6599 71.7192 49.7117 71.7321 49.7635 71.7386L50.644 71.8228L54.2051 72.1724Z" fill="#172840"/>
<path d="M31.6738 41.4181C31.6606 41.4443 31.6541 41.4706 31.6541 41.4968L31.6475 41.4443L31.6738 41.4181Z" fill="#172840"/>
<path fill-rule="evenodd" clip-rule="evenodd" d="M12.7613 80.9585L12.716 81.1398L12.8519 81.0621C12.8196 81.0298 12.7872 80.9909 12.7613 80.9585ZM11.9002 79.9032L11.6865 80.0262C11.68 80.0327 11.6736 80.0327 11.6671 80.0456C11.7512 79.9874 11.8419 79.955 11.939 79.942C11.9196 79.9291 11.9131 79.9161 11.9002 79.9032ZM11.3822 80.3694C11.3822 80.3694 11.3822 80.3758 11.3757 80.3823C11.3563 80.4276 11.3433 80.4665 11.3304 80.5118V80.5377C11.3239 80.5766 11.3174 80.6089 11.3174 80.6478L11.3951 80.3499L11.4016 80.3111C11.3887 80.3305 11.3822 80.3499 11.3822 80.3694ZM11.3174 80.6801V80.6478C11.311 80.6543 11.311 80.6607 11.311 80.6672V80.6737C11.311 80.7255 11.3174 80.7773 11.3369 80.8291C11.3239 80.7837 11.3174 80.7319 11.3174 80.6801ZM88.1386 18.8218C88.1516 18.8412 88.1516 18.8542 88.158 18.8736C88.1645 18.8607 88.1645 18.8477 88.1645 18.8283C88.158 18.8283 88.1516 18.8218 88.1386 18.8218ZM71.6996 5.01795C71.6737 4.99853 71.6413 4.97911 71.6089 4.96616C71.6154 4.97263 71.6154 4.97263 71.6219 4.97911C71.6543 4.99205 71.6802 5.01148 71.7125 5.0309C71.7125 5.02443 71.7061 5.02443 71.6996 5.01795Z" fill="#172840"/>
<path fill-rule="evenodd" clip-rule="evenodd" d="M96.3032 63.7943L87.5819 62.2209C87.5949 62.2921 87.5949 62.3698 87.5949 62.4411C87.5949 62.8813 87.5237 63.2957 87.3877 63.6907L95.85 65.2187C94.1407 70.353 91.5897 75.1119 88.3589 79.3204L85.031 66.0992C84.6166 66.2481 84.1763 66.3323 83.7101 66.3323C83.6583 66.3323 83.6065 66.3323 83.5612 66.3258L86.941 79.7606L74.95 72.8393C74.7169 73.286 74.3932 73.681 74.0047 74.0047L85.2446 80.4922L68.8056 79.9354C68.9869 80.3822 69.084 80.8678 69.084 81.3728V81.4311L86.1511 82.0008C82.6612 85.9374 78.5369 89.3042 73.9464 91.9394L67.8862 84.1828C67.5301 84.5259 67.1028 84.7979 66.6301 84.9856L72.6321 92.6645C66.1899 96.096 58.88 98.1161 51.1235 98.3104L62.2922 83.9497C61.9361 83.5483 61.6641 83.0756 61.5023 82.5576L50.6443 96.5234V83.7166C50.3789 83.7684 50.107 83.8008 49.8285 83.8008C49.6019 83.8008 49.3753 83.7813 49.1617 83.7425V96.5428L39.0095 83.3217C38.6728 83.6842 38.2649 83.9821 37.8117 84.1893L48.6566 98.3104C40.9842 98.1096 33.7521 96.1284 27.3617 92.7551L34.1989 84.0015C33.7651 83.749 33.3895 83.4123 33.0917 83.0173L26.0473 92.0365C21.1461 89.2524 16.7692 85.6396 13.124 81.3857L32.3147 81.0814C32.3018 80.9455 32.2953 80.8095 32.2953 80.6671C32.2953 80.298 32.3471 79.9354 32.4442 79.5988L14.9175 79.8836L25.6265 73.7651C25.3157 73.3767 25.0891 72.9234 24.9596 72.4379L13.2082 79.152L16.4066 66.3258C15.8952 66.2999 15.4096 66.1769 14.9693 65.9762L11.6025 79.5146C8.47525 75.4744 5.96959 70.9293 4.2344 66.0215L12.9751 63.8331C12.8068 63.3993 12.7161 62.9331 12.7161 62.4411V62.3763L3.76175 64.6101C2.41504 60.3821 1.6316 55.9017 1.50211 51.2594L13.3053 60.4016C13.5643 59.9742 13.9074 59.5987 14.3089 59.3074L3.13371 50.6508L15.9469 50.722C15.8952 50.4566 15.8628 50.1846 15.8628 49.8998C15.8628 49.6731 15.8822 49.453 15.921 49.2394L3.13371 49.1746L14.2571 40.667C13.8621 40.3691 13.519 39.9936 13.2665 39.5598L1.50211 48.553C1.64455 43.3928 2.59632 38.4268 4.2344 33.7909L12.7679 36.9765C12.8391 36.4714 13.014 35.9988 13.2665 35.5844L4.74588 32.4054C6.39043 28.158 8.62418 24.1956 11.337 20.6281L14.8527 34.1082C15.2801 33.8816 15.7592 33.7456 16.2707 33.7003L12.8262 20.4727L25.0697 27.5106C25.2445 27.0379 25.5099 26.6106 25.8531 26.2545L14.0628 19.4756L31.7191 19.8576C31.6479 19.5662 31.609 19.2619 31.609 18.9512C31.609 18.7569 31.622 18.5692 31.6543 18.3814L13.4931 17.9864C17.2548 13.7003 21.7611 10.0874 26.8049 7.33572L32.5996 16.3678C32.9234 15.9923 33.3248 15.688 33.778 15.4678L28.1192 6.65589C34.2053 3.57398 41.0231 1.74814 48.2358 1.50858L37.611 15.6944C38.0318 15.9664 38.4009 16.3225 38.6793 16.7368L49.1617 2.73876V15.9146C49.4012 15.8692 49.6537 15.8434 49.9062 15.8434C50.1587 15.8434 50.4048 15.8692 50.6443 15.9146V2.53804L61.1915 16.3484C61.4699 15.934 61.8389 15.5844 62.2598 15.3124L51.7256 1.51506C58.3297 1.75462 64.6036 3.32147 70.2753 5.96311L65.7237 14.9499C66.1963 15.1182 66.6237 15.3901 66.9862 15.7268L71.6091 6.61057C77.2226 9.42702 82.2145 13.3118 86.3259 17.9929L68.2294 18.3814C68.2423 18.4461 68.2423 18.5174 68.2423 18.5821C68.2423 19.0289 68.1646 19.4627 68.0222 19.8641L85.2122 19.495L74.0824 25.9243C74.4709 26.248 74.7881 26.643 75.0212 27.0897L86.941 20.2072L83.5029 33.8104C83.7101 33.7715 83.9238 33.7521 84.1439 33.7521C84.4418 33.7521 84.7331 33.7845 85.0115 33.8492L88.3848 20.5115C91.2919 24.3057 93.6487 28.5465 95.332 33.1111L87.4266 35.5715C87.692 35.9858 87.8798 36.452 87.9639 36.9506L95.8306 34.5032C97.2939 38.8735 98.155 43.5158 98.3039 48.3394L87.3165 39.8771C87.0251 40.2915 86.6561 40.6411 86.2352 40.9065L96.9507 49.1617H84.2087C84.254 49.4012 84.2799 49.6473 84.2799 49.8998C84.2799 50.1523 84.254 50.3983 84.2087 50.6379H96.9313L85.7691 59.152C86.2029 59.4174 86.5719 59.7671 86.8633 60.1814L98.3039 51.4601C98.1679 55.7334 97.4816 59.8706 96.3032 63.7943ZM12.7161 81.1397L12.7614 80.9584C12.7873 80.9908 12.8197 81.0296 12.8521 81.062L12.7161 81.1397ZM11.6672 80.0455C11.6737 80.0326 11.6802 80.0326 11.6867 80.0261L11.9003 79.9031C11.9133 79.916 11.9197 79.929 11.9392 79.9419C11.842 79.9549 11.7514 79.9872 11.6672 80.0455ZM11.3953 80.3498L11.3176 80.6476V80.68C11.3176 80.7318 11.3241 80.7836 11.337 80.8289C11.3176 80.7771 11.3111 80.7253 11.3111 80.6735V80.6671C11.3111 80.6606 11.3111 80.6541 11.3176 80.6476C11.3176 80.6088 11.3241 80.5764 11.3306 80.5376V80.5117C11.337 80.4664 11.35 80.421 11.3759 80.3822C11.3824 80.3757 11.3824 80.3692 11.3824 80.3692C11.3824 80.3498 11.3888 80.3304 11.4018 80.311L11.3953 80.3498ZM88.1647 18.8281C88.1647 18.8476 88.1647 18.8605 88.1582 18.8735C88.1517 18.854 88.1517 18.8411 88.1388 18.8217C88.1517 18.8217 88.1582 18.8281 88.1647 18.8281ZM97.0284 33.4737C97.0284 33.4607 97.0284 33.4543 97.0219 33.4413C97.0025 33.3701 96.9766 33.2989 96.9442 33.2341C92.5609 20.8482 83.4058 10.7155 71.6997 5.01782C71.7062 5.02429 71.7127 5.02429 71.7127 5.03077C71.6803 5.01134 71.6544 4.99192 71.6221 4.97897C71.6156 4.97249 71.6156 4.97249 71.6091 4.96602H71.6026C71.5962 4.95954 71.5832 4.95307 71.5767 4.95307C65.0244 1.78699 57.6693 0 49.9062 0C22.3633 0 0.0064746 22.3503 0 49.8933V49.8998C0 68.5855 10.2946 84.882 25.5099 93.435H25.5164C25.743 93.5645 25.9761 93.694 26.2027 93.817C33.2536 97.637 41.3274 99.806 49.9062 99.806C72.2242 99.806 91.1365 85.1216 97.5075 64.8949C97.5269 64.8561 97.5399 64.8108 97.5464 64.7654C99.0161 60.0714 99.806 55.073 99.806 49.8998C99.806 44.1438 98.8283 38.6145 97.0284 33.4737Z" fill="#172840"/>
<path fill-rule="evenodd" clip-rule="evenodd" d="M65.1086 52.9622L64.0079 54.6132C63.8461 54.5614 63.6842 54.529 63.5159 54.5096C63.3346 54.4772 63.1468 54.4643 62.9591 54.4643C62.726 54.4643 62.4994 54.4837 62.2857 54.5226L64.1051 51.7903C64.2864 52.1075 64.5 52.3924 64.759 52.6449V52.6514C64.8691 52.7615 64.9856 52.8651 65.1086 52.9622Z" fill="#172840"/>
<path fill-rule="evenodd" clip-rule="evenodd" d="M46.9342 56.3033C46.5392 56.3422 46.1702 56.4393 45.827 56.5882C45.7234 56.6335 45.6198 56.6853 45.5227 56.7371L43.7357 51.0654L41.4373 50.9747C41.4955 50.7805 41.5408 50.5798 41.5667 50.3726C41.5991 50.1913 41.6121 50.0035 41.6121 49.8158C41.6121 49.7122 41.6056 49.6086 41.5991 49.505L44.3185 49.6086C44.6292 49.6215 44.9012 49.8287 44.9918 50.1265L46.9342 56.3033Z" fill="#172840"/>
<path fill-rule="evenodd" clip-rule="evenodd" d="M71.7123 5.03051C71.6801 5.01116 71.6543 4.99181 71.622 4.97891C71.6478 4.99181 71.6736 5.00471 71.6994 5.01761C71.7059 5.02406 71.7123 5.02406 71.7123 5.03051Z" fill="#172840"/>
<path fill-rule="evenodd" clip-rule="evenodd" d="M72.8456 69.0123C72.8778 69.0317 72.9101 69.051 72.9359 69.0768L73.0197 68.8769L72.8456 69.0123Z" fill="#172840"/>
<path fill-rule="evenodd" clip-rule="evenodd" d="M79.3334 46.164C78.8475 46.3 78.401 46.5331 78.0126 46.8438L72.1663 32.7286C72.6712 32.6573 73.1439 32.4895 73.5648 32.2304L79.3334 46.164Z" fill="#172840"/>
<path fill-rule="evenodd" clip-rule="evenodd" d="M68.4432 26.6039C68.1514 26.9988 67.9317 27.452 67.815 27.9445L53.15 21.8635C53.4221 21.4557 53.6161 20.9959 53.7135 20.5041L68.4432 26.6039Z" fill="#172840"/>
<path fill-rule="evenodd" clip-rule="evenodd" d="M46.6621 21.8646L32.4178 27.77C32.2754 27.2844 32.0362 26.8376 31.7251 26.4556L46.0987 20.4987C46.1961 20.9973 46.3902 21.4572 46.6621 21.8646Z" fill="#172840"/>
<path fill-rule="evenodd" clip-rule="evenodd" d="M27.6789 32.645L21.878 46.6565C21.4699 46.3845 21.0102 46.1899 20.5119 46.0867L26.3513 31.9909C26.74 32.2892 27.193 32.5153 27.6789 32.645Z" fill="#172840"/>
<path fill-rule="evenodd" clip-rule="evenodd" d="M80.1556 60.8808C79.9549 61.3275 79.8383 61.8131 79.8319 62.3311L76.0183 61.6383L73.5127 67.6856C73.0918 67.4266 72.6256 67.2518 72.1206 67.1806L74.5227 61.3728L66.5071 59.929C66.7079 59.4887 66.8244 58.9967 66.8373 58.4852L75.1054 59.9743L78.006 52.9623C78.3945 53.2731 78.8477 53.5062 79.3333 53.6422L76.601 60.2398L80.1556 60.8808Z" fill="#172840"/>
<path fill-rule="evenodd" clip-rule="evenodd" d="M68.3392 73.2409L53.6614 79.3145C53.5902 78.8156 53.4156 78.3427 53.163 77.9287L67.7372 71.8875C67.8469 72.3795 68.0546 72.8394 68.3392 73.2409Z" fill="#172840"/>
<path fill-rule="evenodd" clip-rule="evenodd" d="M46.5264 77.8765C46.2677 78.2912 46.086 78.757 46.002 79.2559L31.9912 73.4535C32.2499 73.0456 32.4377 72.5796 32.5222 72.0747L46.5264 77.8765Z" fill="#172840"/>
<path fill-rule="evenodd" clip-rule="evenodd" d="M27.86 67.5952C27.3683 67.6987 26.9081 67.8991 26.5066 68.1842L20.5117 53.7134C21.0105 53.6163 21.4703 53.422 21.8778 53.1498L27.86 67.5952Z" fill="#172840"/>
<path fill-rule="evenodd" clip-rule="evenodd" d="M50.6441 23.5418V32.0883C50.4045 32.0429 50.1585 32.017 49.906 32.017C49.6534 32.017 49.4009 32.0429 49.1614 32.0883V23.5418C49.4009 23.5871 49.6534 23.613 49.906 23.613C50.1585 23.613 50.4045 23.5871 50.6441 23.5418Z" fill="#172840"/>
<path fill-rule="evenodd" clip-rule="evenodd" d="M76.5103 49.8999C76.5103 50.1524 76.5362 50.3984 76.5815 50.638H71.3177C71.363 50.3984 71.3889 50.1524 71.3889 49.8999C71.3889 49.6474 71.363 49.4013 71.3177 49.1618H76.5815C76.5362 49.4013 76.5103 49.6474 76.5103 49.8999Z" fill="#172840"/>
<path fill-rule="evenodd" clip-rule="evenodd" d="M23.5352 50.7609C23.5999 50.4825 23.6323 50.1976 23.6323 49.8998C23.6323 49.6861 23.6129 49.4854 23.5805 49.2847L33.8686 49.3365C33.8492 49.4919 33.8362 49.6538 33.8362 49.8156C33.8362 50.1588 33.8816 50.4954 33.9722 50.8127L23.5352 50.7609Z" fill="#172840"/>
<path fill-rule="evenodd" clip-rule="evenodd" d="M26.2028 93.8171C26.028 93.8365 25.8532 93.7847 25.7107 93.6682C25.6265 93.6034 25.5618 93.5257 25.5165 93.4351C25.7431 93.5646 25.9762 93.6941 26.2028 93.8171Z" fill="#172840"/>
<path fill-rule="evenodd" clip-rule="evenodd" d="M81.3089 62.5577V62.5976L81.269 62.591L81.3089 62.5577Z" fill="#172840"/>
<path fill-rule="evenodd" clip-rule="evenodd" d="M97.0214 33.4406C97.002 33.3696 96.9762 33.2987 96.944 33.2342C96.9698 33.2729 96.9891 33.318 97.002 33.3632C97.0085 33.389 97.0149 33.4148 97.0214 33.4406Z" fill="#172840"/>
<path fill-rule="evenodd" clip-rule="evenodd" d="M71.7124 5.03071C71.6803 5.01144 71.6543 4.99216 71.6223 4.97896C71.6156 4.97253 71.6156 4.97253 71.6096 4.96645C71.642 4.9791 71.674 4.99838 71.6997 5.0182C71.7063 5.02463 71.7124 5.02463 71.7124 5.03071Z" fill="#172840"/>
<path fill-rule="evenodd" clip-rule="evenodd" d="M11.337 80.8285C11.3176 80.7769 11.3112 80.7253 11.3112 80.6737V80.6672C11.3112 80.6608 11.3112 80.6543 11.3176 80.6479V80.6801C11.3176 80.7317 11.3241 80.7833 11.337 80.8285Z" fill="#172840"/>
<path fill-rule="evenodd" clip-rule="evenodd" d="M11.4019 80.3112L11.3954 80.3501L11.3177 80.6479C11.3177 80.609 11.3242 80.5767 11.3306 80.5378V80.5119C11.3436 80.4666 11.3565 80.4278 11.376 80.3824C11.3824 80.376 11.3824 80.3695 11.3824 80.3695C11.3824 80.3501 11.3889 80.3306 11.4019 80.3112Z" fill="#172840"/>
<path fill-rule="evenodd" clip-rule="evenodd" d="M11.939 79.9419C11.8418 79.9552 11.7515 79.9874 11.6671 80.0455C11.6737 80.0324 11.6798 80.0324 11.6866 80.0261L11.9001 79.903C11.9132 79.9157 11.9198 79.9292 11.939 79.9419Z" fill="#172840"/>
<path fill-rule="evenodd" clip-rule="evenodd" d="M12.8512 81.0618L12.7158 81.1392L12.7609 80.9586C12.7867 80.9909 12.819 81.0296 12.8512 81.0618Z" fill="#172840"/>
<path fill-rule="evenodd" clip-rule="evenodd" d="M44.6229 62.9009L32.3082 69.9452H32.3018C32.1205 69.4791 31.8421 69.0582 31.4989 68.7021L43.7877 61.6707C43.9884 62.1369 44.2733 62.5512 44.6229 62.9009Z" fill="#172840"/>
<path fill-rule="evenodd" clip-rule="evenodd" d="M38.3492 33.435L37.3717 34.5807L31.7255 31.3369C32.0365 30.9554 32.2757 30.5084 32.4182 30.0291L38.3492 33.435Z" fill="#172840"/>
<path fill-rule="evenodd" clip-rule="evenodd" d="M46.6104 33.8493C46.4615 34.0759 46.345 34.3219 46.2543 34.5809C46.1507 34.8593 46.0795 35.1442 46.0471 35.4485L44.3702 33.5449L39.6632 34.173L33.1756 41.8001L34.218 47.3747L34.5418 47.5884C34.3152 47.9056 34.1403 48.2552 34.0238 48.6308C33.9849 48.7344 33.9591 48.8444 33.9332 48.9545L33.1433 48.4365C32.9749 48.3265 32.8584 48.1517 32.8195 47.9509L31.6606 41.7224C31.6476 41.6447 31.6411 41.567 31.6541 41.4958C31.6541 41.4699 31.6606 41.444 31.6735 41.4181C31.6929 41.3015 31.7447 41.1979 31.8224 41.1073L37.3712 34.5809L38.3488 33.4349L38.7244 32.9946C38.8409 32.8522 39.0092 32.7615 39.1905 32.7421L44.5709 32.0234C44.8105 31.991 45.0565 32.0817 45.2249 32.2695L46.6104 33.8493Z" fill="#172840"/>
<path fill-rule="evenodd" clip-rule="evenodd" d="M68.2289 68.9612C67.9576 69.3821 67.7761 69.8548 67.6919 70.3594L60.0263 65.9307L61.0102 64.7971L68.2289 68.9612Z" fill="#172840"/>
<path fill-rule="evenodd" clip-rule="evenodd" d="M61.7614 62.0462L61.2045 64.4418C61.1786 64.5583 61.1204 64.6684 61.0427 64.7591L61.0103 64.7979L60.0262 65.931L54.8465 71.92C54.6911 72.1077 54.4515 72.1984 54.212 72.1725H54.2055L50.6445 71.8228L49.7639 71.7387C49.7121 71.7322 49.6603 71.7192 49.6085 71.7063C49.4208 71.6416 49.2589 71.5121 49.1747 71.3308V71.3243C49.1488 71.2725 49.1294 71.2207 49.1165 71.1689L47.4978 64.0209C47.6208 64.0209 47.7438 64.008 47.8604 63.9886C48.2424 63.9433 48.5985 63.8397 48.9352 63.6907L50.4373 70.3207L53.9789 70.6639L59.806 63.9303L60.4211 61.2887C60.6736 61.5088 60.9585 61.6966 61.2628 61.8455C61.4247 61.9232 61.5865 61.9879 61.7614 62.0462Z" fill="#172840"/>
<path fill-rule="evenodd" clip-rule="evenodd" d="M68.2936 30.9678L58.3032 36.7368L57.5458 35.468L67.7563 29.5764C67.8406 30.081 68.0283 30.5536 68.2936 30.9678Z" fill="#172840"/>
<path fill-rule="evenodd" clip-rule="evenodd" d="M68.0088 46.0539C67.8405 46.028 67.6722 46.015 67.5038 46.015C67.193 46.015 66.8887 46.0539 66.5974 46.1251H66.5909C65.9758 46.2676 65.419 46.5654 64.9593 46.9668L63.2435 47.0769C62.9716 47.0963 62.7061 46.9539 62.5637 46.7208L56.4193 36.4585L53.6676 36.8535C53.7518 36.5492 53.7906 36.2319 53.7906 35.9017C53.7906 35.8564 53.7906 35.8111 53.7841 35.7722C53.7841 35.6298 53.7712 35.4873 53.7453 35.3514L56.6912 34.9241C56.9891 34.8852 57.2804 35.0212 57.4293 35.2802L57.5459 35.4679L58.3034 36.7369L63.5996 45.5683L67.1866 45.3417C67.5168 45.3223 67.8211 45.523 67.9311 45.8338L68.0088 46.0539Z" fill="#172840"/>
<path fill-rule="evenodd" clip-rule="evenodd" d="M69.9451 25.3744C69.4856 25.581 69.0839 25.8794 68.7475 26.2419L65.6844 22.234C66.1576 22.0656 66.5912 21.8004 66.9537 21.4635L69.9451 25.3744Z" fill="#172840"/>
<path fill-rule="evenodd" clip-rule="evenodd" d="M83.1144 41.3792L81.8652 46.3065C81.4184 46.1191 80.9328 46.0219 80.4215 46.0151L81.7612 40.6992C82.1564 41.0166 82.6155 41.25 83.1144 41.3792Z" fill="#172840"/>
<path fill-rule="evenodd" clip-rule="evenodd" d="M88.165 18.8284C88.165 18.8483 88.165 18.8615 88.1584 18.8748C88.1517 18.8549 88.1517 18.8417 88.1385 18.8218C88.1517 18.8218 88.1584 18.8284 88.165 18.8284Z" fill="#172840"/>
<path fill-rule="evenodd" clip-rule="evenodd" d="M73.0197 68.8769L72.9359 69.0769C72.9101 69.0511 72.8778 69.0317 72.8456 69.0124L73.0197 68.8769Z" fill="#172840"/>
<path fill-rule="evenodd" clip-rule="evenodd" d="M80.6932 64.8951L74.9823 69.2463C74.7557 68.7995 74.4382 68.3976 74.0629 68.0803L79.9869 63.5611C80.1357 64.0533 80.3757 64.5062 80.6932 64.8951Z" fill="#172840"/>
<path fill-rule="evenodd" clip-rule="evenodd" d="M81.3089 62.5577V62.5976L81.269 62.591L81.3089 62.5577Z" fill="#172840"/>
<path fill-rule="evenodd" clip-rule="evenodd" d="M61.6965 79.696C61.4828 80.1427 61.3468 80.6413 61.3274 81.1657L53.5838 80.9068C53.668 80.5895 53.7133 80.2593 53.7133 79.9161C53.7133 79.7543 53.7003 79.5924 53.6809 79.4305L61.6965 79.696Z" fill="#172840"/>
<path fill-rule="evenodd" clip-rule="evenodd" d="M34.3414 77.242C33.901 77.4816 33.5128 77.7988 33.1952 78.1806L30.586 74.7878C31.0195 74.5421 31.4082 74.2183 31.7188 73.8365L34.3414 77.242Z" fill="#172840"/>
<path fill-rule="evenodd" clip-rule="evenodd" d="M11.337 80.8283C11.3176 80.7767 11.3112 80.7251 11.3112 80.6735V80.6671H11.3176V80.68C11.3176 80.7316 11.3241 80.7832 11.337 80.8283Z" fill="#172840"/>
<path fill-rule="evenodd" clip-rule="evenodd" d="M11.939 79.9419C11.8418 79.9552 11.7515 79.9874 11.6671 80.0455C11.6737 80.0324 11.6798 80.0324 11.6866 80.0261L11.9001 79.903C11.9132 79.9157 11.9198 79.9292 11.939 79.9419Z" fill="#172840"/>
<path fill-rule="evenodd" clip-rule="evenodd" d="M19.5275 53.7781L18.2459 58.9256C17.8117 58.7187 17.3262 58.5891 16.8146 58.5697L18.0962 53.4222C18.5304 53.6291 19.0159 53.7588 19.5275 53.7781Z" fill="#172840"/>
<path fill-rule="evenodd" clip-rule="evenodd" d="M26.0016 31.6868L20.2071 36.1217C20.0191 35.6556 19.7411 35.2349 19.3913 34.8789L25.1474 30.4759C25.3476 30.9357 25.6394 31.35 26.0016 31.6868Z" fill="#172840"/>
<path fill-rule="evenodd" clip-rule="evenodd" d="M46.0212 19.7282C46.0212 19.8771 46.0276 20.026 46.0471 20.1685L39.2293 20.0195C39.3264 19.6829 39.3782 19.3203 39.3782 18.9512C39.3782 18.8153 39.3718 18.6793 39.3588 18.5498L46.1636 18.6922C46.0665 19.0225 46.0212 19.3721 46.0212 19.7282Z" fill="#172840"/>
<path fill-rule="evenodd" clip-rule="evenodd" d="M53.765 20.1683C53.7844 20.0259 53.7909 19.877 53.7909 19.7281C53.7909 19.372 53.7456 19.0223 53.6484 18.6921L60.4727 18.5497V18.5821C60.4727 19.0871 60.5698 19.5727 60.7511 20.0194L53.765 20.1683Z" fill="#172840"/>
<path fill-rule="evenodd" clip-rule="evenodd" d="M88.165 18.8284C88.165 18.8483 88.165 18.8615 88.1584 18.8748C88.1517 18.8549 88.1517 18.8417 88.1385 18.8218C88.1517 18.8218 88.1584 18.8284 88.165 18.8284Z" fill="#172840"/>
<path fill-rule="evenodd" clip-rule="evenodd" d="M46.7983 20.2138L46.8566 20.1879H46.7983C46.7918 20.1944 46.7983 20.2074 46.7983 20.2138ZM52.9492 20.1879L53.0139 20.2138C53.0139 20.2074 53.0204 20.1944 53.0204 20.1879H52.9492Z" fill="#172840"/>
<path fill-rule="evenodd" clip-rule="evenodd" d="M46.7983 20.2138L46.8566 20.1879H46.7983C46.7918 20.1944 46.7983 20.2074 46.7983 20.2138ZM52.9492 20.1879L53.0139 20.2138C53.0139 20.2074 53.0204 20.1944 53.0204 20.1879H52.9492Z" fill="#172840"/>
<path fill-rule="evenodd" clip-rule="evenodd" d="M53.0138 20.2137L52.9491 20.1878H53.0203C53.0203 20.1943 53.0138 20.2072 53.0138 20.2137ZM52.2951 19.9158C52.2951 20.013 52.2822 20.1036 52.2628 20.2007C52.1786 20.6022 51.9973 20.9777 51.7318 21.282C51.4534 21.6187 51.0779 21.8777 50.6441 22.0136C50.411 22.0913 50.165 22.1302 49.906 22.1302C49.647 22.1302 49.3945 22.0913 49.1614 22.0071C48.7341 21.8712 48.3586 21.6187 48.0737 21.282C47.8147 20.9777 47.6269 20.6022 47.5492 20.2007C47.5233 20.1036 47.5104 20.013 47.5104 19.9158C47.4974 19.8511 47.4974 19.7928 47.4974 19.7281C47.4974 19.372 47.5751 19.0353 47.7176 18.731C47.9895 18.1224 48.514 17.6497 49.1614 17.4425C49.3945 17.3584 49.647 17.3195 49.906 17.3195C50.165 17.3195 50.411 17.3584 50.6441 17.4361C51.2916 17.6433 51.816 18.1224 52.0879 18.731C52.2304 19.0353 52.3081 19.372 52.3081 19.7281C52.3081 19.7928 52.3081 19.8511 52.2951 19.9158ZM46.7982 20.2137C46.7982 20.2072 46.7917 20.1943 46.7982 20.1878H46.8565L46.7982 20.2137ZM53.6483 18.6921C53.2598 17.2807 52.0944 16.193 50.6441 15.9145C50.4045 15.8692 50.1585 15.8433 49.906 15.8433C49.6535 15.8433 49.401 15.8692 49.1614 15.9145C47.7111 16.1994 46.5522 17.2872 46.1637 18.6921C46.0666 19.0224 46.0212 19.372 46.0212 19.7281C46.0212 19.877 46.0277 20.0259 46.0471 20.1684C46.0601 20.2784 46.073 20.3885 46.0989 20.4986C46.1961 20.9971 46.3903 21.4568 46.6622 21.8647C47.2255 22.7194 48.119 23.3409 49.1614 23.5416C49.401 23.5869 49.6535 23.6128 49.906 23.6128C50.1585 23.6128 50.4045 23.5869 50.6441 23.5416C51.6865 23.3409 52.5865 22.7194 53.1498 21.8647C53.4217 21.4568 53.6159 20.9971 53.7131 20.505C53.7325 20.395 53.7519 20.2849 53.7649 20.1684C53.7843 20.0259 53.7908 19.877 53.7908 19.7281C53.7908 19.372 53.7454 19.0224 53.6483 18.6921Z" fill="#172840"/>
<path fill-rule="evenodd" clip-rule="evenodd" d="M81.166 35.1374C80.8419 35.5198 80.5959 35.96 80.4404 36.4454L74.2706 31.6925C74.6327 31.3559 74.9244 30.9415 75.1252 30.4888L81.166 35.1374Z" fill="#172840"/>
<path fill-rule="evenodd" clip-rule="evenodd" d="M83.1471 58.6017C82.6417 58.6661 82.1693 58.8413 81.7484 59.0939L80.415 53.7908C80.9259 53.791 81.4179 53.6872 81.8653 53.4994L83.1471 58.6017Z" fill="#172840"/>
<path fill-rule="evenodd" clip-rule="evenodd" d="M69.6857 74.4385L66.9793 77.9219C66.5133 77.6763 65.9889 77.5271 65.4319 77.501L68.5398 73.4999C68.8572 73.8818 69.2458 74.2058 69.6857 74.4385Z" fill="#172840"/>
<path fill-rule="evenodd" clip-rule="evenodd" d="M11.3951 80.35L11.3174 80.6479C11.3174 80.609 11.3239 80.5766 11.3303 80.5378V80.5119C11.3433 80.4666 11.3562 80.4277 11.3757 80.3824C11.3821 80.3759 11.3821 80.3695 11.3821 80.3695C11.3821 80.363 11.3886 80.3565 11.3951 80.35Z" fill="#172840"/>
<path fill-rule="evenodd" clip-rule="evenodd" d="M12.8512 81.0618L12.7158 81.1392L12.7609 80.9586C12.7867 80.9909 12.819 81.0296 12.8512 81.0618Z" fill="#172840"/>
<path fill-rule="evenodd" clip-rule="evenodd" d="M40.0519 80.9586C40.0584 80.8615 40.0648 80.7643 40.0648 80.6672C40.0648 80.2529 40.0001 79.8579 39.8835 79.4824L45.9826 79.3853C45.9567 79.5601 45.9438 79.7349 45.9438 79.9162C45.9438 80.2399 45.9826 80.5572 46.0603 80.8615L40.0519 80.9586Z" fill="#172840"/>
<path fill-rule="evenodd" clip-rule="evenodd" d="M26.1378 68.4692C25.7621 68.7924 25.4516 69.1941 25.2314 69.6407L19.4043 65.1279C19.7474 64.7712 20.0258 64.3441 20.207 63.8782L26.1378 68.4692Z" fill="#172840"/>
<path fill-rule="evenodd" clip-rule="evenodd" d="M19.4819 46.028C18.9706 46.0598 18.4912 46.1896 18.0579 46.4033L16.7625 41.45C17.2805 41.4307 17.7665 41.3145 18.2065 41.1133L19.4819 46.028Z" fill="#172840"/>
<path fill-rule="evenodd" clip-rule="evenodd" d="M34.2635 22.6351L31.5507 26.2609C31.214 25.8982 30.8126 25.5938 30.3526 25.3871L32.9685 21.8974C33.344 22.2277 33.7846 22.4797 34.2635 22.6351Z" fill="#172840"/>
<path fill-rule="evenodd" clip-rule="evenodd" d="M50.6441 71.8294V76.1156C50.3786 76.0638 50.1067 76.0314 49.8283 76.0314C49.6016 76.0314 49.375 76.0509 49.1614 76.0897V71.4409C49.1614 71.4021 49.1614 71.3697 49.1743 71.3309C49.2585 71.5122 49.4204 71.6417 49.6081 71.7064L49.6146 71.7323L50.6441 71.8294Z" fill="#172840"/>
<path fill-rule="evenodd" clip-rule="evenodd" d="M50.644 71.8228V71.8293L49.6146 71.7321L49.6081 71.7062C49.6599 71.7192 49.7117 71.7321 49.7635 71.7386L50.644 71.8228Z" fill="#172840"/>
<path fill-rule="evenodd" clip-rule="evenodd" d="M37.6624 19.9871C37.2739 20.7965 36.4516 21.3533 35.4934 21.3533C35.4092 21.3533 35.3186 21.3468 35.2344 21.3403C34.71 21.2821 34.2309 21.0554 33.8618 20.7058C33.6158 20.4857 33.4151 20.2073 33.2856 19.89H33.2791C33.1561 19.5987 33.0913 19.2814 33.0913 18.9512C33.0913 18.7699 33.1108 18.5886 33.1496 18.4138C33.2079 18.1548 33.3115 17.9153 33.4474 17.6951C33.7064 17.2613 34.1078 16.9182 34.5805 16.7239C34.8589 16.6074 35.1697 16.5426 35.4934 16.5426C35.9402 16.5426 36.3675 16.6657 36.7236 16.8858C37.1639 17.1448 37.52 17.5462 37.7207 18.0253C37.7789 18.1807 37.8307 18.3491 37.8566 18.5174C37.889 18.6598 37.902 18.8023 37.902 18.9512C37.902 19.3203 37.8178 19.6764 37.6624 19.9871ZM39.3587 18.5498C39.2875 17.8764 39.048 17.2613 38.6789 16.7369C38.4005 16.3225 38.0314 15.9664 37.6106 15.6945C37.002 15.293 36.2768 15.0664 35.4934 15.0664C34.8783 15.0664 34.2956 15.2089 33.7776 15.4679C33.3244 15.688 32.923 15.9923 32.5993 16.3678C32.1007 16.9182 31.764 17.611 31.654 18.3814C31.6216 18.5692 31.6086 18.757 31.6086 18.9512C31.6086 19.262 31.6475 19.5663 31.7187 19.8576C31.9065 20.667 32.3597 21.3792 32.9683 21.8971C33.3438 22.2273 33.7841 22.4799 34.2632 22.6352C34.6517 22.7647 35.0661 22.836 35.4934 22.836C37.2739 22.836 38.7696 21.6446 39.2293 20.0195C39.3264 19.6828 39.3782 19.3203 39.3782 18.9512C39.3782 18.8152 39.3717 18.6793 39.3587 18.5498Z" fill="#172840"/>
<path fill-rule="evenodd" clip-rule="evenodd" d="M19.903 52.2567L19.923 52.3032H19.8964L19.903 52.2567Z" fill="#172840"/>
<path fill-rule="evenodd" clip-rule="evenodd" d="M19.9231 47.5042L19.8902 47.5829L19.8705 47.5042H19.9231Z" fill="#172840"/>
<path fill-rule="evenodd" clip-rule="evenodd" d="M21.9942 50.7479C21.8518 51.1364 21.6058 51.4796 21.295 51.7386C20.9195 52.0558 20.4403 52.263 19.9224 52.3019H19.8965C19.8447 52.3083 19.7994 52.3083 19.7476 52.3083C19.2814 52.3083 18.8346 52.1724 18.4656 51.9328C18.0188 51.6544 17.6692 51.2335 17.4879 50.7285C17.3908 50.4695 17.339 50.1911 17.339 49.8998C17.339 49.6732 17.3714 49.4595 17.4296 49.2523C17.5915 48.6826 17.9541 48.197 18.4397 47.8797C18.8152 47.6401 19.2684 47.4977 19.7476 47.4977C19.7864 47.4977 19.8317 47.4977 19.8706 47.5042H19.9224C20.4403 47.543 20.9195 47.7437 21.295 48.061C21.664 48.3718 21.9424 48.7926 22.0655 49.2782C22.1237 49.4789 22.1496 49.6861 22.1496 49.8998C22.1496 50.1976 22.0978 50.4825 21.9942 50.7479ZM23.5805 49.2847C23.4057 48.184 22.7712 47.2387 21.8777 46.656C21.4698 46.3841 21.0101 46.1898 20.5116 46.0862C20.2655 46.0409 20.0065 46.015 19.7476 46.015C19.6569 46.015 19.5663 46.015 19.4821 46.028C18.9706 46.0603 18.4915 46.1898 18.0577 46.4035C16.9505 46.9409 16.1347 47.9898 15.9211 49.2394C15.8822 49.453 15.8628 49.6732 15.8628 49.8998C15.8628 50.1847 15.8952 50.4566 15.947 50.7221H15.9534C16.2059 51.9199 17.0153 52.9169 18.0965 53.422C18.5303 53.6291 19.0159 53.7586 19.5274 53.7781C19.5986 53.791 19.6699 53.791 19.7476 53.791C20.0065 53.791 20.2655 53.7651 20.5116 53.7133C21.0101 53.6162 21.4698 53.422 21.8777 53.15C22.7 52.6126 23.3086 51.758 23.5352 50.7609C23.5999 50.4825 23.6323 50.1976 23.6323 49.8998C23.6323 49.6861 23.6129 49.4854 23.5805 49.2847Z" fill="#172840"/>
<path fill-rule="evenodd" clip-rule="evenodd" d="M31.2914 73.163C31.285 73.1823 31.2721 73.2017 31.2527 73.221L31.1624 73.1114L31.2914 73.163Z" fill="#172840"/>
<path fill-rule="evenodd" clip-rule="evenodd" d="M31.162 73.1113L31.2523 73.2209C31.2716 73.2016 31.2845 73.1822 31.291 73.1629L31.162 73.1113Z" fill="#172840"/>
<path fill-rule="evenodd" clip-rule="evenodd" d="M31.2528 73.2213L31.1621 73.1112L31.2916 73.163C31.2851 73.1824 31.2722 73.2018 31.2528 73.2213ZM31.0974 71.4861C31.0844 71.894 30.9679 72.2695 30.7737 72.5997C30.7219 72.6968 30.6571 72.7875 30.5859 72.8716C30.3463 73.1824 30.0291 73.4349 29.6665 73.5968C29.3687 73.7263 29.0385 73.7975 28.6953 73.7975C27.9961 73.7975 27.3615 73.4932 26.9277 73.0141C26.5911 72.6515 26.3709 72.1853 26.3127 71.6674C26.2997 71.5767 26.2932 71.4861 26.2932 71.3889C26.2932 71.0976 26.345 70.8257 26.4357 70.5731C26.5716 70.1976 26.7982 69.8609 27.0961 69.6084C27.1738 69.5307 27.2579 69.466 27.3421 69.4077C27.6594 69.1876 28.0414 69.0451 28.4428 68.9998C28.527 68.9933 28.6111 68.9869 28.6953 68.9869C29.2392 68.9869 29.7442 69.1682 30.1456 69.4725C30.547 69.7768 30.8514 70.1976 31.0003 70.6897C31.065 70.9098 31.1039 71.1429 31.1039 71.3889C31.1039 71.4213 31.1039 71.4537 31.0974 71.4861ZM32.3081 69.9451H32.3017C32.1204 69.4789 31.842 69.0581 31.4988 68.702C30.7931 67.9639 29.796 67.5042 28.6953 67.5042C28.4104 67.5042 28.1255 67.5366 27.8601 67.5948C27.368 67.6984 26.9083 67.8991 26.5069 68.184C26.3774 68.2682 26.2544 68.3653 26.1378 68.4689C25.7623 68.7926 25.4515 69.1941 25.2314 69.6408C24.9595 70.1652 24.8105 70.7609 24.8105 71.3889C24.8105 71.7515 24.8623 72.1076 24.9595 72.4378C25.089 72.9234 25.3156 73.3766 25.6263 73.7651C26.3321 74.6845 27.4457 75.2737 28.6953 75.2737C29.3816 75.2737 30.0291 75.0989 30.5859 74.7881C31.0197 74.5421 31.4082 74.2183 31.7189 73.8363C31.8161 73.7198 31.9067 73.5903 31.9909 73.4543C32.2499 73.0464 32.4376 72.5803 32.5218 72.0753C32.5671 71.8551 32.5865 71.622 32.5865 71.3889C32.5865 70.8774 32.4894 70.3919 32.3081 69.9451Z" fill="#172840"/>
<path fill-rule="evenodd" clip-rule="evenodd" d="M52.2368 79.9162C52.2368 80.2464 52.172 80.5637 52.049 80.855C51.7836 81.4701 51.2786 81.9557 50.644 82.1823C50.3915 82.273 50.1131 82.3247 49.8282 82.3247C49.5952 82.3247 49.375 82.2924 49.1614 82.2276C48.4556 82.0269 47.8859 81.5025 47.6075 80.8356C47.4909 80.5507 47.4262 80.2399 47.4262 79.9162C47.4262 79.8968 47.4262 79.8709 47.4326 79.8514C47.4326 79.6831 47.4521 79.5212 47.4909 79.3594C47.5686 79.0227 47.7175 78.7184 47.9247 78.4529C48.229 78.0515 48.6628 77.7472 49.1614 77.6048C49.375 77.54 49.5952 77.5076 49.8282 77.5076C50.1131 77.5076 50.3915 77.5594 50.644 77.6501C51.1037 77.8184 51.4987 78.1163 51.7706 78.5047C51.9649 78.7637 52.1008 79.0615 52.172 79.3788C52.2174 79.5471 52.2368 79.7284 52.2368 79.9097V79.9162ZM53.6806 79.4306C53.6806 79.3918 53.6742 79.3594 53.6612 79.3205V79.3141C53.59 78.8155 53.4152 78.3429 53.1627 77.9285C52.6253 77.0156 51.7188 76.3487 50.644 76.1156C50.3786 76.0638 50.1067 76.0314 49.8282 76.0314C49.6016 76.0314 49.375 76.0509 49.1614 76.0897C48.0477 76.2839 47.096 76.9508 46.5262 77.8767C46.2672 78.2911 46.0859 78.7572 46.0018 79.2558C45.9953 79.2946 45.9823 79.34 45.9823 79.3853C45.9564 79.5601 45.9435 79.7349 45.9435 79.9162C45.9435 80.2399 45.9823 80.5572 46.06 80.8615C46.4291 82.3377 47.6463 83.4772 49.1614 83.7427C49.375 83.7815 49.6016 83.801 49.8282 83.801C50.1067 83.801 50.3786 83.7686 50.644 83.7168C52.0814 83.406 53.2145 82.3118 53.5835 80.9068C53.6677 80.5896 53.713 80.2593 53.713 79.9162C53.713 79.7543 53.7001 79.5925 53.6806 79.4306Z" fill="#172840"/>
<path fill-rule="evenodd" clip-rule="evenodd" d="M69.1226 71.1882L69.2516 71.2591L69.1355 71.3107C69.129 71.272 69.1226 71.2333 69.1226 71.1882Z" fill="#172840"/>
<path fill-rule="evenodd" clip-rule="evenodd" d="M73.0197 68.8769L72.9359 69.0769C72.9101 69.0511 72.8778 69.0317 72.8456 69.0124L73.0197 68.8769Z" fill="#172840"/>
<path fill-rule="evenodd" clip-rule="evenodd" d="M72.8456 69.0123C72.8778 69.0317 72.9101 69.051 72.9359 69.0768L73.0197 68.8769L72.8456 69.0123Z" fill="#172840"/>
<path fill-rule="evenodd" clip-rule="evenodd" d="M73.6678 72.1012C73.4282 72.5674 73.0462 72.9494 72.5735 73.176C72.2563 73.3314 71.9002 73.422 71.5182 73.422C71.2009 73.422 70.8966 73.3573 70.6182 73.2472C70.288 73.1113 69.9967 72.9105 69.7636 72.6516C69.6535 72.5415 69.5629 72.4185 69.4852 72.289C69.2974 71.9976 69.1809 71.6674 69.1355 71.3113C69.1291 71.2725 69.1226 71.2336 69.1226 71.1883C69.1161 71.13 69.1161 71.0718 69.1161 71.0135C69.1161 70.5214 69.2585 70.0747 69.5111 69.6991C69.9384 69.0452 70.6765 68.6114 71.5182 68.6114H71.5311C72.0167 68.6114 72.47 68.7603 72.8455 69.0128L73.0203 68.8769L72.9361 69.0776C73.3181 69.3495 73.6095 69.725 73.7713 70.1718C73.8749 70.4308 73.9267 70.7157 73.9267 71.0135C73.9267 71.4084 73.8296 71.7775 73.6678 72.1012ZM74.9821 69.2459C74.7555 68.7992 74.4382 68.3977 74.0627 68.0805C73.8944 67.9251 73.7066 67.7956 73.5124 67.6855C73.0915 67.4266 72.6253 67.2517 72.1203 67.1805C71.9261 67.1417 71.7254 67.1287 71.5182 67.1287C70.1326 67.1287 68.9089 67.8604 68.2291 68.961C67.9572 69.3819 67.7759 69.8545 67.6917 70.3595C67.6528 70.5732 67.6334 70.7933 67.6334 71.0135C67.6334 71.3113 67.6658 71.6027 67.737 71.8876C67.8471 72.3796 68.0543 72.8393 68.3392 73.2407C68.4039 73.3314 68.4686 73.4156 68.5399 73.4997C68.8571 73.8817 69.2456 74.2055 69.6859 74.4385C70.2297 74.7299 70.8513 74.8982 71.5182 74.8982C72.4635 74.8982 73.3246 74.5616 73.998 74.0048H74.0044C74.3929 73.681 74.7166 73.2861 74.9497 72.8393C75.2476 72.2955 75.4094 71.6739 75.4094 71.0135C75.4094 70.379 75.254 69.7768 74.9821 69.2459Z" fill="#172840"/>
<path fill-rule="evenodd" clip-rule="evenodd" d="M73.8946 29.5373C73.7586 30.0358 73.4672 30.4696 73.0788 30.7739C73.0464 30.7998 73.0205 30.8257 72.9881 30.8451C72.5932 31.1365 72.1076 31.3048 71.5767 31.3048C70.7414 31.3048 70.0098 30.8775 69.5825 30.23C69.3235 29.848 69.1746 29.3883 69.1746 28.8963C69.1746 28.8509 69.1746 28.7991 69.1811 28.7538C69.1811 28.6761 69.194 28.5984 69.207 28.5207C69.2652 28.1258 69.4271 27.7567 69.6666 27.446C69.7249 27.3618 69.7961 27.2776 69.8738 27.1999C70.1458 26.9215 70.4889 26.7143 70.8709 26.5978C71.0911 26.5266 71.3306 26.4877 71.5767 26.4877C71.9651 26.4877 72.3342 26.5784 72.6579 26.7467C73.1241 26.9798 73.5061 27.3618 73.7327 27.8344C73.8946 28.1517 73.9852 28.5143 73.9852 28.8963C73.9852 29.1164 73.9528 29.3365 73.8946 29.5373ZM75.0211 27.0899C74.7881 26.6431 74.4708 26.2482 74.0823 25.9244C73.409 25.3547 72.5349 25.0115 71.5767 25.0115C70.9939 25.0115 70.4371 25.141 69.9451 25.3741C69.4854 25.5813 69.0839 25.8791 68.7473 26.2417C68.6372 26.3517 68.5336 26.4748 68.4429 26.6043C68.1516 26.9992 67.9315 27.4524 67.8149 27.9445C67.7307 28.2488 67.6919 28.5661 67.6919 28.8963C67.6919 29.1294 67.7113 29.356 67.7566 29.5761C67.8408 30.0811 68.0286 30.5538 68.294 30.9681C68.9803 32.0559 70.1976 32.781 71.5767 32.781C71.7774 32.781 71.9716 32.7681 72.1658 32.7292C72.6709 32.658 73.1435 32.4897 73.5644 32.2307C73.8233 32.0818 74.0564 31.9005 74.2701 31.6933C74.6327 31.3566 74.924 30.9422 75.1247 30.489C75.3449 30.0034 75.4679 29.466 75.4679 28.8963C75.4679 28.2423 75.306 27.6272 75.0211 27.0899Z" fill="#172840"/>
<path fill-rule="evenodd" clip-rule="evenodd" d="M86.1444 38.9706C85.8595 39.4044 85.4322 39.7346 84.9336 39.9094C84.6876 40.0001 84.4221 40.0454 84.1437 40.0454C83.9107 40.0454 83.6905 40.013 83.4769 39.9483C82.9459 39.7994 82.4927 39.4691 82.1819 39.0289C81.9035 38.6339 81.7352 38.1548 81.7352 37.6368C81.7352 37.5721 81.7352 37.5138 81.7481 37.4491C81.787 36.9117 82.0071 36.4261 82.3438 36.0441C82.551 35.811 82.8035 35.6168 83.0819 35.4873V35.4808C83.3992 35.3254 83.7617 35.2348 84.1437 35.2348C84.3186 35.2348 84.4869 35.2542 84.6488 35.2866C85.1538 35.3966 85.6005 35.6621 85.9307 36.0376C86.2674 36.4067 86.4811 36.8793 86.5329 37.3973C86.5393 37.475 86.5458 37.5591 86.5458 37.6368C86.5458 38.1289 86.3969 38.5886 86.1444 38.9706ZM87.9638 36.9505C87.8796 36.452 87.6918 35.9858 87.4264 35.5714C86.8954 34.7168 86.0278 34.0823 85.0113 33.8492C84.7329 33.7844 84.4416 33.7521 84.1437 33.7521C83.9236 33.7521 83.7099 33.7715 83.5028 33.8103C82.5639 33.9593 81.7481 34.4449 81.1654 35.1376C80.8417 35.5196 80.5957 35.9599 80.4403 36.4455C80.3172 36.821 80.2525 37.2225 80.2525 37.6368C80.2525 38.8864 80.8417 40.0001 81.7611 40.6993C82.156 41.0166 82.6157 41.2497 83.1143 41.3792C83.4445 41.4763 83.7876 41.5216 84.1437 41.5216C84.9142 41.5216 85.6329 41.3015 86.235 40.9065C86.6559 40.6411 87.0249 40.2914 87.3163 39.877C87.7695 39.2425 88.0285 38.4721 88.0285 37.6368C88.0285 37.4038 88.0091 37.1707 87.9638 36.9505Z" fill="#172840"/>
<path fill-rule="evenodd" clip-rule="evenodd" d="M81.269 62.591L81.3089 62.5976V62.5577L81.269 62.591Z" fill="#172840"/>
<path fill-rule="evenodd" clip-rule="evenodd" d="M81.269 62.591L81.3089 62.5976V62.5577L81.269 62.591Z" fill="#172840"/>
<path fill-rule="evenodd" clip-rule="evenodd" d="M85.9051 63.4252C85.6591 63.9691 85.2123 64.4094 84.6684 64.6554C84.3771 64.7784 84.0534 64.8496 83.7102 64.8496C83.5289 64.8496 83.3476 64.8302 83.1793 64.7849C82.6548 64.6748 82.2016 64.3835 81.8714 63.9885C81.5412 63.6065 81.3405 63.1274 81.3081 62.5965L81.2693 62.59L81.3081 62.5576C81.3016 62.5188 81.3016 62.4799 81.3016 62.4411C81.3016 61.9685 81.4376 61.5282 81.6772 61.1591C81.8002 60.9584 81.9556 60.7771 82.1304 60.6282C82.5059 60.3045 82.985 60.0908 83.5095 60.052C83.5742 60.039 83.639 60.039 83.7102 60.039C83.9692 60.039 84.2217 60.0779 84.4483 60.162C84.9598 60.3174 85.3936 60.6476 85.685 61.0814C85.8662 61.3339 85.9957 61.6318 86.0605 61.949C86.0929 62.1044 86.1123 62.2728 86.1123 62.4411C86.1123 62.7907 86.0346 63.1274 85.9051 63.4252ZM87.582 62.221C87.5432 61.4634 87.2842 60.7642 86.8633 60.1815C86.572 59.7671 86.2029 59.4175 85.7691 59.152C85.1735 58.7765 84.4677 58.5563 83.7102 58.5563C83.516 58.5563 83.3282 58.5693 83.1469 58.6017C82.6419 58.6664 82.1692 58.8412 81.7484 59.0937C81.0427 59.4952 80.4858 60.1232 80.1556 60.8807C79.9549 61.3275 79.8384 61.8131 79.8319 62.331C79.8254 62.3699 79.8254 62.4022 79.8254 62.4411C79.8254 62.8296 79.8837 63.2051 79.9873 63.5612C80.1362 64.0533 80.3758 64.5065 80.693 64.895C81.3793 65.7367 82.4023 66.287 83.5613 66.3259C83.6066 66.3323 83.6584 66.3323 83.7102 66.3323C84.1764 66.3323 84.6166 66.2482 85.031 66.0992C86.1382 65.6978 87.0122 64.8108 87.3878 63.6907C87.5237 63.2957 87.595 62.8814 87.595 62.4411C87.595 62.3699 87.595 62.2922 87.582 62.221Z" fill="#172840"/>
<path fill-rule="evenodd" clip-rule="evenodd" d="M67.608 81.3794C67.608 82.0074 67.3619 82.5772 66.967 83.0045C66.6238 83.3736 66.1706 83.639 65.6591 83.7362C65.5102 83.7685 65.3548 83.7815 65.1994 83.7815C64.3836 83.7815 63.6584 83.3736 63.2246 82.7455C62.9527 82.3571 62.7973 81.8844 62.7973 81.3729C62.7973 81.3211 62.7973 81.2693 62.8038 81.2175C62.8103 81.0751 62.8297 80.9326 62.8685 80.8032C62.9592 80.4017 63.1599 80.0456 63.4318 79.7543C63.6066 79.5536 63.8268 79.3852 64.0663 79.2557C64.403 79.0744 64.7915 78.9708 65.1994 78.9708C65.4972 78.9708 65.7756 79.0226 66.0411 79.1262C66.4555 79.2751 66.818 79.5406 67.0835 79.8838C67.4137 80.2917 67.608 80.8096 67.608 81.3729V81.3794ZM68.8058 79.9356C68.4561 79.0615 67.8087 78.3493 66.9799 77.922C66.5137 77.6759 65.9893 77.527 65.4325 77.5011C65.3548 77.4882 65.2771 77.4882 65.1994 77.4882C63.6584 77.4882 62.3247 78.3881 61.6966 79.696C61.483 80.1427 61.347 80.6413 61.3276 81.1657C61.3146 81.2305 61.3146 81.3017 61.3146 81.3729C61.3146 81.7873 61.3794 82.1822 61.5024 82.5578C61.6643 83.0757 61.9362 83.5484 62.2923 83.9498C63.0045 84.7527 64.0404 85.2577 65.1994 85.2577C65.7044 85.2577 66.19 85.1606 66.6303 84.9857C67.1029 84.798 67.5303 84.5261 67.8864 84.1829C68.6115 83.4836 69.0647 82.5125 69.0842 81.4312V81.3729C69.0842 80.8679 68.987 80.3823 68.8058 79.9356Z" fill="#172840"/>
<path fill-rule="evenodd" clip-rule="evenodd" d="M48.5916 62.1952C48.2744 62.3894 47.9118 62.5124 47.5233 62.5383C47.465 62.5448 47.4132 62.5448 47.355 62.5448C47.2902 62.5448 47.2255 62.5448 47.1607 62.5319C46.7269 62.4995 46.3255 62.3506 45.9888 62.1175C45.5745 61.8261 45.2572 61.4118 45.0953 60.9262C45.0047 60.6801 44.9594 60.4211 44.9594 60.1492C44.9594 59.3399 45.3608 58.6277 45.9759 58.1874C46.0665 58.1227 46.1701 58.0644 46.2737 58.0126C46.5974 57.8443 46.9665 57.7536 47.355 57.7536H47.3873C48.6952 57.773 49.7441 58.8413 49.7441 60.1492C49.7441 61.0168 49.2844 61.7743 48.5916 62.1952ZM47.355 56.2774C47.2125 56.2774 47.0701 56.2839 46.9341 56.3033C46.5392 56.3422 46.1701 56.4393 45.827 56.5882C45.7234 56.6335 45.6198 56.6853 45.5227 56.7371C44.3054 57.391 43.4767 58.673 43.4767 60.1492C43.4767 60.6866 43.5868 61.2046 43.7875 61.6707C43.9882 62.1369 44.2731 62.5513 44.6227 62.9009C45.3284 63.6002 46.2867 64.0275 47.355 64.0275C47.4003 64.0275 47.4521 64.0275 47.4974 64.021C47.6204 64.021 47.7434 64.0081 47.86 63.9887C48.242 63.9433 48.5981 63.8397 48.9348 63.6908V63.6843C50.288 63.0822 51.2268 61.7225 51.2268 60.1492C51.2268 58.0126 49.4916 56.2774 47.355 56.2774Z" fill="#172840"/>
<path fill-rule="evenodd" clip-rule="evenodd" d="M40.0779 50.3142C40.0326 50.5278 39.9613 50.7286 39.8642 50.9163C39.4628 51.6933 38.6535 52.2242 37.7211 52.2242C36.7564 52.2242 35.9212 51.648 35.5457 50.8257H35.5392C35.4032 50.5343 35.3255 50.2171 35.319 49.8739V49.8156C35.319 49.712 35.3255 49.6085 35.3385 49.5049C35.3449 49.4466 35.3514 49.3948 35.3644 49.343C35.4356 48.9934 35.578 48.6761 35.7787 48.4042C36.219 47.802 36.9248 47.4136 37.7211 47.4136C38.9319 47.4136 39.9225 48.2941 40.0973 49.4466C40.1167 49.5631 40.1297 49.6926 40.1297 49.8156C40.1297 49.984 40.1103 50.1523 40.0779 50.3142ZM41.5994 49.5049C41.4375 47.5042 39.7671 45.9309 37.7211 45.9309C36.4068 45.9309 35.2478 46.5848 34.5421 47.5884C34.3155 47.9056 34.1407 48.2553 34.0241 48.6308C33.9853 48.7344 33.9594 48.8444 33.9335 48.9545C33.9011 49.0775 33.8817 49.207 33.8687 49.3365C33.8493 49.4919 33.8364 49.6538 33.8364 49.8156C33.8364 50.1588 33.8817 50.4955 33.9723 50.8127C34.4061 52.4767 35.9212 53.7004 37.7211 53.7004C39.4693 53.7004 40.9455 52.5544 41.4375 50.9746C41.4958 50.7804 41.5411 50.5796 41.567 50.3725C41.5994 50.1912 41.6124 50.0034 41.6124 49.8156C41.6124 49.712 41.6059 49.6085 41.5994 49.5049Z" fill="#172840"/>
<path fill-rule="evenodd" clip-rule="evenodd" d="M52.302 35.986C52.2956 36.3874 52.179 36.7694 51.9848 37.0997C51.5769 37.8248 50.7999 38.3104 49.9064 38.3104C49.246 38.3104 48.6439 38.0385 48.2101 37.6111C47.7957 37.1968 47.5238 36.6335 47.5044 36.0054C47.4979 35.9731 47.4979 35.9342 47.4979 35.9019C47.4979 35.5975 47.5561 35.3062 47.6597 35.0343C47.9187 34.3609 48.4691 33.8365 49.1618 33.6163C49.3949 33.5321 49.6474 33.4933 49.9064 33.4933C50.1654 33.4933 50.4114 33.5321 50.6445 33.6098C51.5057 33.8882 52.1531 34.6458 52.2826 35.5652C52.302 35.6752 52.3085 35.7853 52.3085 35.9019C52.3085 35.9277 52.3085 35.9601 52.302 35.986ZM53.7847 35.7724C53.7847 35.6299 53.7718 35.4875 53.7459 35.3515C53.5193 33.7134 52.2567 32.3991 50.6445 32.0883C50.405 32.043 50.1589 32.0171 49.9064 32.0171C49.6539 32.0171 49.4014 32.043 49.1618 32.0883C48.0871 32.2955 47.1677 32.9494 46.6109 33.8494C46.4619 34.076 46.3454 34.322 46.2548 34.581C46.1512 34.8594 46.0799 35.1443 46.0476 35.4486C46.0281 35.5975 46.0217 35.7465 46.0217 35.9019C46.0217 38.0449 47.7633 39.7866 49.9064 39.7866C51.7193 39.7866 53.2473 38.537 53.6682 36.8536C53.7523 36.5493 53.7912 36.2321 53.7912 35.9019C53.7912 35.8565 53.7912 35.8112 53.7847 35.7724Z" fill="#172840"/>
<path fill-rule="evenodd" clip-rule="evenodd" d="M64.9792 59.6505C64.5519 60.3173 63.8073 60.7576 62.9591 60.7576C62.6548 60.7576 62.3634 60.6993 62.098 60.5957C61.9232 60.531 61.7613 60.4468 61.6124 60.3432C61.2887 60.1231 61.0232 59.8317 60.8354 59.4821C60.6541 59.1454 60.5506 58.7634 60.5506 58.3491C60.5506 57.5462 60.9455 56.834 61.5476 56.4002C61.8584 56.1736 62.2275 56.0182 62.6224 55.9664C62.7325 55.947 62.8426 55.9405 62.9591 55.9405C63.0303 55.9405 63.1015 55.9405 63.1728 55.9535C64.3576 56.057 65.29 57.0218 65.3547 58.2131C65.3612 58.2584 65.3612 58.3037 65.3612 58.3491C65.3612 58.8282 65.2252 59.2749 64.9792 59.6505ZM64.008 54.6132C63.8461 54.5614 63.6843 54.529 63.5159 54.5096C63.3346 54.4772 63.1469 54.4643 62.9591 54.4643C62.726 54.4643 62.4994 54.4837 62.2857 54.5226V54.529C60.4599 54.8398 59.0743 56.439 59.0743 58.3491C59.0743 59.521 59.5988 60.5763 60.4211 61.2821V61.2885C60.6736 61.5087 60.9585 61.6964 61.2628 61.8453C61.4246 61.923 61.5865 61.9878 61.7613 62.0461C62.1368 62.1691 62.5383 62.2338 62.9591 62.2338C64.5389 62.2338 65.8986 61.2885 66.5072 59.9289C66.7079 59.4886 66.8244 58.9965 66.8374 58.485C66.8439 58.4397 66.8439 58.3944 66.8439 58.3491C66.8439 56.5685 65.6396 55.0664 64.008 54.6132Z" fill="#172840"/>
<path fill-rule="evenodd" clip-rule="evenodd" d="M69.7897 50.6379C69.479 51.6091 68.5725 52.3084 67.5042 52.3084C66.9085 52.3084 66.3517 52.0883 65.9309 51.7192C65.8143 51.6156 65.6978 51.4991 65.6007 51.376C65.3546 51.0588 65.1863 50.6703 65.128 50.2559C65.1021 50.1394 65.0957 50.0229 65.0957 49.8998C65.0957 48.7733 65.8726 47.8344 66.915 47.5755V47.569C67.1028 47.5237 67.3035 47.4978 67.5042 47.4978C67.692 47.4978 67.8733 47.5172 68.0481 47.5625C68.2035 47.5949 68.3589 47.6467 68.5013 47.7179C69.1099 47.9963 69.5826 48.5143 69.7897 49.1617C69.8674 49.3948 69.9063 49.6409 69.9063 49.8998C69.9063 50.1588 69.8674 50.4049 69.7897 50.6379ZM71.3177 49.1617C71.007 47.5301 69.6667 46.2611 68.0092 46.0539C67.8409 46.028 67.6725 46.0151 67.5042 46.0151C67.1934 46.0151 66.8891 46.0539 66.5978 46.1251H66.5913C65.9762 46.2676 65.4194 46.5654 64.9597 46.9668C64.1374 47.679 63.6194 48.7279 63.6194 49.8998C63.6194 50.5861 63.7943 51.2271 64.105 51.7839V51.7904C64.2863 52.1077 64.5 52.3926 64.759 52.6451V52.6515C64.869 52.7616 64.9856 52.8652 65.1086 52.9623C65.769 53.4803 66.5978 53.7911 67.5042 53.7911C69.3948 53.7911 70.9746 52.4379 71.3177 50.6379C71.3631 50.3984 71.389 50.1523 71.389 49.8998C71.389 49.6473 71.3631 49.4013 71.3177 49.1617Z" fill="#172840"/>
<path d="M63.6195 49.8997C63.6195 50.586 63.7943 51.227 64.1051 51.7838V51.7903L62.2857 54.5226V54.5291C60.4599 54.8399 59.0743 56.4391 59.0743 58.3491C59.0743 59.521 59.5988 60.5764 60.421 61.2821V61.2886L59.8059 63.9302L53.9788 70.6638L50.4372 70.3206L48.9351 63.6906V63.6842C50.2883 63.082 51.2271 61.7224 51.2271 60.149C51.2271 58.0124 49.4919 56.2772 47.3553 56.2772C47.2128 56.2772 47.0704 56.2837 46.9344 56.3031L44.9921 50.1263C44.9014 49.8285 44.6295 49.6213 44.3187 49.6084L41.5994 49.5048C41.4375 47.5041 39.767 45.9308 37.7211 45.9308C36.4067 45.9308 35.2478 46.5847 34.542 47.5883L34.2183 47.3746L33.1759 41.8L39.6635 34.1729L44.3705 33.5449L46.0474 35.4484C46.028 35.5973 46.0215 35.7463 46.0215 35.9016C46.0215 38.0447 47.7632 39.7864 49.9063 39.7864C51.7192 39.7864 53.2472 38.5368 53.668 36.8534L56.4197 36.4585L62.5641 46.7207C62.7066 46.9538 62.972 47.0962 63.244 47.0768L64.9597 46.9667C64.1375 47.6789 63.6195 48.7278 63.6195 49.8997Z" fill="white"/>
<path fill-rule="evenodd" clip-rule="evenodd" d="M52.3084 19.7282C52.3084 19.7929 52.3084 19.8512 52.2955 19.9159C52.2955 20.013 52.2825 20.1037 52.2631 20.2008C52.1789 20.6022 51.9977 20.9778 51.7322 21.2821C51.4538 21.6187 51.0783 21.8777 50.6445 22.0137C50.4114 22.0914 50.1653 22.1302 49.9064 22.1302C49.6474 22.1302 49.3949 22.0914 49.1618 22.0072C48.7345 21.8713 48.3589 21.6187 48.074 21.2821C47.8151 20.9778 47.6273 20.6022 47.5496 20.2008C47.5237 20.1037 47.5108 20.013 47.5108 19.9159C47.4978 19.8512 47.4978 19.7929 47.4978 19.7282C47.4978 19.3721 47.5755 19.0354 47.7179 18.7311C47.9899 18.1225 48.5143 17.6498 49.1618 17.4426C49.3949 17.3585 49.6474 17.3196 49.9064 17.3196C50.1653 17.3196 50.4114 17.3585 50.6445 17.4362C51.2919 17.6433 51.8164 18.1225 52.0883 18.7311C52.2307 19.0354 52.3084 19.3721 52.3084 19.7282Z" fill="#F2B706"/>
<path fill-rule="evenodd" clip-rule="evenodd" d="M37.9021 18.9513C37.9021 19.3203 37.818 19.6764 37.6626 19.9872C37.2741 20.7965 36.4518 21.3534 35.4936 21.3534C35.4094 21.3534 35.3188 21.3469 35.2346 21.3404C34.7101 21.2821 34.231 21.0555 33.862 20.7059C33.6159 20.4858 33.4152 20.2073 33.2857 19.8901H33.2793C33.1562 19.5987 33.0915 19.2815 33.0915 18.9513C33.0915 18.77 33.1109 18.5887 33.1498 18.4139C33.208 18.1549 33.3116 17.9153 33.4476 17.6952C33.7066 17.2614 34.108 16.9183 34.5806 16.724C34.8591 16.6075 35.1698 16.5427 35.4936 16.5427C35.9403 16.5427 36.3676 16.6657 36.7237 16.8859C37.164 17.1449 37.5201 17.5463 37.7208 18.0254C37.7791 18.1808 37.8309 18.3491 37.8568 18.5175C37.8892 18.6599 37.9021 18.8024 37.9021 18.9513Z" fill="#F2B706"/>
<path fill-rule="evenodd" clip-rule="evenodd" d="M18.9573 62.9137C18.8602 63.4252 18.5947 63.8784 18.2256 64.2151C17.8372 64.5712 17.3322 64.8043 16.7753 64.8431C16.7171 64.8496 16.6588 64.8496 16.6005 64.8496C16.1408 64.8496 15.707 64.7201 15.338 64.487C14.943 64.2475 14.6258 63.8914 14.4251 63.4705C14.2761 63.1597 14.192 62.8101 14.192 62.4411C14.192 62.2922 14.2049 62.1432 14.2373 62.0008C14.2761 61.7548 14.3603 61.5217 14.4769 61.308C14.7164 60.8613 15.0984 60.4987 15.5581 60.2785C15.83 60.1491 16.1279 60.0649 16.4451 60.0455C16.4969 60.039 16.5487 60.039 16.6005 60.039C17.0667 60.039 17.507 60.175 17.876 60.408C18.5559 60.8289 19.0091 61.5799 19.0091 62.4411C19.0091 62.6029 18.9961 62.7583 18.9573 62.9137ZM18.2451 58.9254C17.8113 58.7182 17.3257 58.5887 16.8142 58.5693C16.743 58.5563 16.6717 58.5563 16.6005 58.5563C15.7394 58.5563 14.9495 58.8347 14.3085 59.3074C13.9071 59.5987 13.5639 59.9742 13.3049 60.4016C12.9359 60.9778 12.7287 61.6512 12.7158 62.3763V62.4411C12.7158 62.9331 12.8064 63.3993 12.9747 63.8331C13.3373 64.7784 14.056 65.5489 14.9689 65.9762C15.4092 66.1769 15.8948 66.2999 16.4063 66.3258C16.471 66.3323 16.5358 66.3323 16.6005 66.3323C17.7012 66.3323 18.6983 65.8726 19.404 65.128C19.7472 64.7719 20.0256 64.3446 20.2069 63.8784C20.3882 63.4317 20.4853 62.9461 20.4853 62.4411C20.4853 60.8872 19.5659 59.5404 18.2451 58.9254Z" fill="#F2B706"/>
<path fill-rule="evenodd" clip-rule="evenodd" d="M19.0091 62.441C19.0091 62.6029 18.9962 62.7583 18.9573 62.9137C18.8602 63.4252 18.5947 63.8784 18.2257 64.2151C17.8372 64.5712 17.3322 64.8043 16.7754 64.8431C16.7171 64.8496 16.6588 64.8496 16.6006 64.8496C16.1409 64.8496 15.7071 64.7201 15.338 64.487C14.9431 64.2475 14.6258 63.8914 14.4251 63.4705C14.2762 63.1597 14.192 62.8101 14.192 62.441C14.192 62.2921 14.205 62.1432 14.2373 62.0008C14.2762 61.7547 14.3604 61.5217 14.4769 61.308C14.7165 60.8612 15.0985 60.4987 15.5582 60.2785C15.8301 60.149 16.1279 60.0649 16.4452 60.0454C16.497 60.039 16.5488 60.039 16.6006 60.039C17.0667 60.039 17.507 60.1749 17.8761 60.408C18.5559 60.8289 19.0091 61.5799 19.0091 62.441Z" fill="#F2B706"/>
<path fill-rule="evenodd" clip-rule="evenodd" d="M73.9269 71.0135C73.9269 71.4084 73.8298 71.7775 73.6679 72.1012C73.4284 72.5674 73.0464 72.9494 72.5737 73.176C72.2565 73.3314 71.9004 73.422 71.5183 73.422C71.2011 73.422 70.8968 73.3573 70.6184 73.2472C70.2882 73.1113 69.9968 72.9106 69.7637 72.6516C69.6537 72.5415 69.563 72.4185 69.4853 72.289C69.2976 71.9976 69.181 71.6674 69.1357 71.3113L69.2522 71.2595L69.1227 71.1883C69.1163 71.13 69.1163 71.0718 69.1163 71.0135C69.1163 70.5214 69.2587 70.0747 69.5112 69.6992C69.9385 69.0452 70.6767 68.6114 71.5183 68.6114H71.5313C72.0169 68.6114 72.4701 68.7603 72.8456 69.0128C72.878 69.0323 72.9104 69.0517 72.9363 69.0776C73.3183 69.3495 73.6096 69.7251 73.7715 70.1718C73.8751 70.4308 73.9269 70.7157 73.9269 71.0135Z" fill="#F2B706"/>
<path fill-rule="evenodd" clip-rule="evenodd" d="M67.6076 81.3727V81.3792C67.6076 82.0073 67.3616 82.577 66.9666 83.0043C66.6235 83.3734 66.1703 83.6389 65.6588 83.736C65.5099 83.7684 65.3545 83.7813 65.1991 83.7813C64.3833 83.7813 63.6581 83.3734 63.2243 82.7454C62.9524 82.3569 62.797 81.8842 62.797 81.3727C62.797 81.321 62.797 81.2692 62.8035 81.2174C62.8099 81.0749 62.8294 80.9325 62.8682 80.803C62.9589 80.4016 63.1596 80.0455 63.4315 79.7541C63.6063 79.5534 63.8265 79.385 64.066 79.2556C64.4027 79.0743 64.7912 78.9707 65.1991 78.9707C65.4969 78.9707 65.7753 79.0225 66.0408 79.1261C66.4551 79.275 66.8177 79.5404 67.0832 79.8836C67.4134 80.2915 67.6076 80.8095 67.6076 81.3727Z" fill="#F2B706"/>
<path fill-rule="evenodd" clip-rule="evenodd" d="M38.5624 80.9778C38.5106 81.4052 38.3423 81.8001 38.0898 82.1303C37.7854 82.5253 37.3646 82.8231 36.8725 82.972C36.6524 83.0368 36.4193 83.0756 36.1797 83.0756C35.7977 83.0756 35.4416 82.985 35.1179 82.8231C34.6582 82.603 34.2827 82.2339 34.0561 81.7807C33.9331 81.5605 33.8489 81.3145 33.81 81.0555C33.7906 80.926 33.7777 80.7965 33.7777 80.667C33.7777 80.2721 33.8748 79.903 34.0431 79.5728C34.069 79.521 34.1014 79.4628 34.1338 79.411C34.3992 78.9837 34.7877 78.6405 35.2604 78.4463C35.5452 78.3297 35.856 78.265 36.1797 78.265C37.0862 78.265 37.8761 78.77 38.2905 79.5081C38.4782 79.8512 38.5883 80.2462 38.5883 80.667C38.5883 80.7706 38.5818 80.8742 38.5624 80.9778ZM39.8832 79.4822H39.8767C39.3782 77.9218 37.9085 76.7823 36.1797 76.7823C35.5129 76.7823 34.8848 76.9506 34.341 77.242C33.9007 77.4815 33.5122 77.7988 33.195 78.1808C32.8518 78.5887 32.5928 79.0743 32.4439 79.5987C32.3468 79.9354 32.295 80.298 32.295 80.667C32.295 80.8095 32.3015 80.9455 32.3144 81.0814C32.3921 81.8066 32.6705 82.4735 33.0914 83.0173C33.3892 83.4123 33.7647 83.749 34.1985 84.0015C34.7748 84.3511 35.4546 84.5518 36.1797 84.5518C36.7625 84.5518 37.3128 84.4223 37.8049 84.1892H37.8113C38.2646 83.982 38.6725 83.6842 39.0091 83.3216C39.6048 82.7001 39.9868 81.8778 40.0516 80.9584C40.058 80.8613 40.0645 80.7642 40.0645 80.667C40.0645 80.2527 39.9998 79.8577 39.8832 79.4822Z" fill="#F2B706"/>
<path fill-rule="evenodd" clip-rule="evenodd" d="M38.5885 80.6672C38.5885 80.7708 38.582 80.8744 38.5626 80.978C38.5108 81.4053 38.3425 81.8003 38.09 82.1305C37.7857 82.5254 37.3648 82.8233 36.8728 82.9722C36.6526 83.0369 36.4195 83.0758 36.18 83.0758C35.798 83.0758 35.4419 82.9851 35.1181 82.8233C34.6584 82.6031 34.2829 82.2341 34.0563 81.7808C33.9333 81.5607 33.8491 81.3147 33.8103 81.0557C33.7908 80.9262 33.7779 80.7967 33.7779 80.6672C33.7779 80.2723 33.875 79.9032 34.0434 79.573C34.0693 79.5212 34.1016 79.4629 34.134 79.4111C34.3995 78.9838 34.7879 78.6407 35.2606 78.4464C35.5455 78.3299 35.8562 78.2651 36.18 78.2651C37.0864 78.2651 37.8763 78.7702 38.2907 79.5083C38.4785 79.8514 38.5885 80.2464 38.5885 80.6672Z" fill="#F2B706"/>
<path fill-rule="evenodd" clip-rule="evenodd" d="M52.3084 35.9017C52.3084 35.9276 52.3084 35.96 52.302 35.9859C52.2955 36.3873 52.1789 36.7693 51.9847 37.0995C51.5768 37.8247 50.7998 38.3103 49.9064 38.3103C49.2459 38.3103 48.6438 38.0384 48.21 37.611C47.7956 37.1967 47.5237 36.6334 47.5043 36.0053C47.4978 35.973 47.4978 35.9341 47.4978 35.9017C47.4978 35.5974 47.5561 35.3061 47.6597 35.0342C47.9187 34.3608 48.469 33.8363 49.1618 33.6162C49.3949 33.532 49.6474 33.4932 49.9064 33.4932C50.1653 33.4932 50.4114 33.532 50.6445 33.6097C51.5056 33.8881 52.153 34.6457 52.2825 35.5651C52.302 35.6751 52.3084 35.7852 52.3084 35.9017Z" fill="#F2B706"/>
<path fill-rule="evenodd" clip-rule="evenodd" d="M65.3608 58.3491C65.3608 58.8282 65.2248 59.2749 64.9788 59.6505C64.5515 60.3174 63.8069 60.7576 62.9587 60.7576C62.6544 60.7576 62.3631 60.6994 62.0976 60.5958C61.9228 60.531 61.7609 60.4468 61.612 60.3433C61.2883 60.1231 61.0228 59.8318 60.8351 59.4821C60.6538 59.1455 60.5502 58.7634 60.5502 58.3491C60.5502 57.5462 60.9451 56.834 61.5473 56.4002C61.858 56.1736 62.2271 56.0182 62.622 55.9664C62.7321 55.947 62.8422 55.9405 62.9587 55.9405C63.0299 55.9405 63.1012 55.9405 63.1724 55.9535C64.3572 56.0571 65.2896 57.0218 65.3543 58.2131C65.3608 58.2584 65.3608 58.3038 65.3608 58.3491Z" fill="#F2B706"/>
<path fill-rule="evenodd" clip-rule="evenodd" d="M69.9063 49.8998C69.9063 50.1588 69.8674 50.4048 69.7897 50.6379C69.4789 51.6091 68.5725 52.3084 67.5042 52.3084C66.9085 52.3084 66.3517 52.0882 65.9309 51.7192C65.8143 51.6156 65.6978 51.499 65.6007 51.376C65.3546 51.0588 65.1863 50.6703 65.128 50.2559C65.1021 50.1394 65.0956 50.0228 65.0956 49.8998C65.0956 48.7732 65.8726 47.8344 66.915 47.5754V47.569C67.1028 47.5236 67.3035 47.4977 67.5042 47.4977C67.692 47.4977 67.8732 47.5172 68.0481 47.5625C68.2035 47.5949 68.3588 47.6467 68.5013 47.7179C69.1099 47.9963 69.5825 48.5143 69.7897 49.1617C69.8674 49.3948 69.9063 49.6408 69.9063 49.8998Z" fill="#F2B706"/>
<path fill-rule="evenodd" clip-rule="evenodd" d="M31.0715 29.2525C31.0003 29.764 30.7607 30.2301 30.4176 30.5798C29.9838 31.0265 29.3687 31.3049 28.6953 31.3049C28.5464 31.3049 28.3975 31.292 28.255 31.2596C27.8601 31.1884 27.504 31.02 27.1997 30.774C27.109 30.7092 27.0249 30.6316 26.9472 30.5474C26.6817 30.269 26.481 29.9193 26.3839 29.5309C26.3256 29.3302 26.2932 29.1165 26.2932 28.8964C26.2932 28.6762 26.3256 28.4626 26.3839 28.2618C26.5134 27.7633 26.8047 27.3295 27.1932 27.0187C27.6076 26.6885 28.132 26.4878 28.6953 26.4878C28.9543 26.4878 29.2068 26.5267 29.4399 26.6043C29.7442 26.7015 30.0161 26.8633 30.2557 27.064C30.3981 27.1871 30.5276 27.323 30.6377 27.4784C30.8255 27.7309 30.9614 28.0223 31.0326 28.3395V28.346C31.078 28.5273 31.1039 28.7021 31.1039 28.8964C31.1039 29.0194 31.0974 29.1359 31.0715 29.2525ZM32.4182 27.7698C32.2758 27.2842 32.0362 26.8374 31.7254 26.4554C31.6672 26.3907 31.6089 26.3259 31.5506 26.2612C31.2139 25.8986 30.8125 25.5943 30.3528 25.3871C29.8543 25.1411 29.291 25.0116 28.6953 25.0116C27.5752 25.0116 26.5587 25.4907 25.853 26.2547C25.5098 26.6108 25.2443 27.0381 25.0695 27.5108C24.9012 27.9381 24.8105 28.4108 24.8105 28.8964C24.8105 29.4596 24.9271 29.997 25.1472 30.4762C25.3479 30.9359 25.6393 31.3502 26.0019 31.6869C26.1119 31.797 26.2285 31.9006 26.3515 31.9912C26.74 32.2891 27.1932 32.5157 27.6788 32.6452C28.0025 32.7358 28.3457 32.7811 28.6953 32.7811C29.919 32.7811 31.0132 32.2178 31.7254 31.3373C32.0362 30.9553 32.2758 30.5085 32.4182 30.0294C32.5283 29.6668 32.5865 29.2913 32.5865 28.8964C32.5865 28.5079 32.5283 28.1259 32.4182 27.7698Z" fill="#84C1D9"/>
<path fill-rule="evenodd" clip-rule="evenodd" d="M31.1037 28.8962C31.1037 29.0192 31.0972 29.1358 31.0713 29.2523C31.0001 29.7638 30.7605 30.23 30.4174 30.5796C29.9836 31.0264 29.3685 31.3048 28.6951 31.3048C28.5462 31.3048 28.3973 31.2918 28.2548 31.2595C27.8599 31.1882 27.5038 31.0199 27.1995 30.7739C27.1088 30.7091 27.0247 30.6314 26.947 30.5472C26.6815 30.2688 26.4808 29.9192 26.3837 29.5307C26.3254 29.33 26.293 29.1164 26.293 28.8962C26.293 28.6761 26.3254 28.4624 26.3837 28.2617C26.5132 27.7632 26.8045 27.3294 27.193 27.0186C27.6074 26.6884 28.1318 26.4877 28.6951 26.4877C28.9541 26.4877 29.2066 26.5265 29.4397 26.6042C29.744 26.7013 30.0159 26.8632 30.2555 27.0639C30.3979 27.1869 30.5274 27.3229 30.6375 27.4783C30.8253 27.7308 30.9612 28.0222 31.0324 28.3394V28.3459C31.0778 28.5272 31.1037 28.702 31.1037 28.8962Z" fill="#84C1D9"/>
<path fill-rule="evenodd" clip-rule="evenodd" d="M86.546 37.6369C86.546 38.129 86.3971 38.5887 86.1446 38.9707C85.8597 39.4045 85.4323 39.7347 84.9338 39.9095C84.6878 40.0001 84.4223 40.0455 84.1439 40.0455C83.9108 40.0455 83.6907 40.0131 83.477 39.9483C82.9461 39.7994 82.4929 39.4692 82.1821 39.0289C81.9037 38.634 81.7354 38.1549 81.7354 37.6369C81.7354 37.5722 81.7354 37.5139 81.7483 37.4491C81.7871 36.9118 82.0073 36.4262 82.344 36.0442C82.5512 35.8111 82.8037 35.6168 83.0821 35.4873V35.4809C83.3993 35.3255 83.7619 35.2348 84.1439 35.2348C84.3187 35.2348 84.4871 35.2543 84.6489 35.2866C85.1539 35.3967 85.6007 35.6622 85.9309 36.0377C86.2676 36.4067 86.4812 36.8794 86.533 37.3973C86.5395 37.475 86.546 37.5592 86.546 37.6369Z" fill="#84C1D9"/>
<path fill-rule="evenodd" clip-rule="evenodd" d="M86.1121 62.4411C86.1121 62.7907 86.0344 63.1274 85.905 63.4252C85.6589 63.9691 85.2122 64.4094 84.6683 64.6554C84.3769 64.7784 84.0532 64.8496 83.7101 64.8496C83.5288 64.8496 83.3475 64.8302 83.1791 64.7849C82.6547 64.6748 82.2015 64.3835 81.8713 63.9885C81.5411 63.6065 81.3404 63.1274 81.308 62.5965V62.5576C81.3015 62.5188 81.3015 62.4799 81.3015 62.4411C81.3015 61.9684 81.4375 61.5282 81.677 61.1591C81.8001 60.9584 81.9554 60.7771 82.1303 60.6282C82.5058 60.3045 82.9849 60.0908 83.5094 60.052C83.5741 60.039 83.6388 60.039 83.7101 60.039C83.969 60.039 84.2216 60.0778 84.4482 60.162C84.9597 60.3174 85.3935 60.6476 85.6848 61.0814C85.8661 61.3339 85.9956 61.6318 86.0603 61.949C86.0927 62.1044 86.1121 62.2727 86.1121 62.4411Z" fill="#84C1D9"/>
<path fill-rule="evenodd" clip-rule="evenodd" d="M20.4853 37.5723C20.4853 39.1456 19.5465 40.4988 18.2062 41.1139C17.7659 41.3146 17.2804 41.4311 16.7624 41.4505C16.7106 41.457 16.6588 41.457 16.6005 41.457C15.72 41.457 14.9042 41.1657 14.2567 40.6671C13.8618 40.3693 13.5186 39.9938 13.2661 39.56C12.9165 38.9837 12.7158 38.2974 12.7158 37.5723C12.7158 37.3715 12.7287 37.1708 12.7676 36.9766C12.8388 36.4716 13.0136 35.9989 13.2661 35.5846C13.6416 34.95 14.192 34.4386 14.8524 34.1083C15.2797 33.8817 15.7588 33.7458 16.2703 33.7004C16.3739 33.694 16.4905 33.6875 16.6005 33.6875C17.6947 33.6875 18.6918 34.1407 19.3911 34.8788C19.7407 35.2349 20.0191 35.6558 20.2069 36.122C20.3882 36.5687 20.4853 37.0608 20.4853 37.5723Z" fill="#84C1D9"/>
<path fill-rule="evenodd" clip-rule="evenodd" d="M40.1294 49.8157C40.1294 49.984 40.11 50.1524 40.0776 50.3142C40.0323 50.5279 39.9611 50.7286 39.864 50.9164C39.4625 51.6933 38.6532 52.2242 37.7209 52.2242C36.7561 52.2242 35.9209 51.648 35.5454 50.8257H35.5389C35.403 50.5344 35.3253 50.2171 35.3188 49.874V49.8157C35.3188 49.7121 35.3253 49.6085 35.3382 49.5049C35.3447 49.4466 35.3512 49.3948 35.3641 49.343C35.4353 48.9934 35.5778 48.6762 35.7785 48.4042C36.2188 47.8021 36.9245 47.4136 37.7209 47.4136C38.9316 47.4136 39.9222 48.2942 40.097 49.4466C40.1165 49.5632 40.1294 49.6927 40.1294 49.8157Z" fill="#84C1D9"/>
<path fill-rule="evenodd" clip-rule="evenodd" d="M22.1496 49.8998C22.1496 50.1977 22.0978 50.4825 21.9942 50.748C21.8518 51.1365 21.6058 51.4796 21.295 51.7386C20.9194 52.0559 20.4403 52.263 19.9224 52.3019L19.9029 52.2566L19.8965 52.3019C19.8447 52.3084 19.7993 52.3084 19.7475 52.3084C19.2814 52.3084 18.8346 52.1724 18.4656 51.9328C18.0188 51.6544 17.6692 51.2336 17.4879 50.7286C17.3908 50.4696 17.339 50.1912 17.339 49.8998C17.339 49.6732 17.3714 49.4595 17.4296 49.2524C17.5915 48.6826 17.9541 48.197 18.4397 47.8797C18.8152 47.6402 19.2684 47.4977 19.7475 47.4977C19.7864 47.4977 19.8317 47.4977 19.8706 47.5042L19.89 47.5819L19.9224 47.5042C20.4403 47.5431 20.9194 47.7438 21.295 48.061C21.664 48.3718 21.9424 48.7927 22.0654 49.2783C22.1237 49.479 22.1496 49.6862 22.1496 49.8998Z" fill="#F25849"/>
<path fill-rule="evenodd" clip-rule="evenodd" d="M31.1037 71.3892C31.1037 71.4216 31.1037 71.4539 31.0972 71.4863C31.0842 71.8942 30.9677 72.2697 30.7735 72.5999C30.7217 72.6971 30.6569 72.7877 30.5857 72.8719C30.3461 73.1827 30.0289 73.4352 29.6663 73.597C29.3685 73.7265 29.0383 73.7978 28.6951 73.7978C27.9958 73.7978 27.3613 73.4934 26.9275 73.0143C26.5909 72.6517 26.3707 72.1856 26.3125 71.6676C26.2995 71.577 26.293 71.4863 26.293 71.3892C26.293 71.0978 26.3448 70.8259 26.4355 70.5734C26.5714 70.1979 26.798 69.8612 27.0959 69.6087C27.1736 69.531 27.2577 69.4662 27.3419 69.408C27.6592 69.1878 28.0412 69.0454 28.4426 69.0001C28.5268 68.9936 28.6109 68.9871 28.6951 68.9871C29.239 68.9871 29.744 69.1684 30.1454 69.4727C30.5468 69.777 30.8511 70.1979 31.0001 70.6899C31.0648 70.9101 31.1037 71.1432 31.1037 71.3892Z" fill="#F25849"/>
<path fill-rule="evenodd" clip-rule="evenodd" d="M52.2371 79.9096V79.9161C52.2371 80.2463 52.1723 80.5636 52.0493 80.8549C51.7839 81.47 51.2788 81.9556 50.6443 82.1822C50.3918 82.2729 50.1134 82.3247 49.8285 82.3247C49.5954 82.3247 49.3753 82.2923 49.1616 82.2276C48.4559 82.0268 47.8861 81.5024 47.6077 80.8355C47.4912 80.5506 47.4265 80.2399 47.4265 79.9161C47.4265 79.8967 47.4265 79.8708 47.4329 79.8514C47.4329 79.683 47.4524 79.5212 47.4912 79.3593C47.5689 79.0226 47.7178 78.7183 47.925 78.4529C48.2293 78.0514 48.6631 77.7471 49.1616 77.6047C49.3753 77.5399 49.5954 77.5076 49.8285 77.5076C50.1134 77.5076 50.3918 77.5594 50.6443 77.65C51.104 77.8183 51.499 78.1162 51.7709 78.5047C51.9651 78.7636 52.1011 79.0615 52.1723 79.3787C52.2177 79.5471 52.2371 79.7284 52.2371 79.9096Z" fill="#F25849"/>
<path fill-rule="evenodd" clip-rule="evenodd" d="M82.687 50.6379C82.4928 51.2466 82.059 51.7516 81.4957 52.0429C81.1655 52.2113 80.7964 52.3084 80.395 52.3084C80.272 52.3084 80.149 52.3019 80.0324 52.276C79.9871 52.276 79.9483 52.2695 79.9094 52.2566H79.9029C79.3915 52.153 78.9382 51.8811 78.608 51.5055C78.3879 51.2595 78.2131 50.9617 78.1095 50.6379C78.0318 50.4049 77.9929 50.1588 77.9929 49.8998C77.9929 49.6409 78.0318 49.3948 78.1095 49.1617C78.2131 48.838 78.3879 48.5466 78.6145 48.3006C78.9382 47.9251 79.3915 47.6531 79.9029 47.5431H79.9094C79.9547 47.5366 79.9936 47.5301 80.0389 47.5237C80.1555 47.5042 80.272 47.4978 80.395 47.4978C80.7964 47.4978 81.1655 47.5949 81.4957 47.7697C82.059 48.0546 82.4863 48.5531 82.687 49.1617C82.7647 49.3948 82.8036 49.6409 82.8036 49.8998C82.8036 50.1588 82.7647 50.4049 82.687 50.6379ZM84.2086 49.1617C83.9625 47.8668 83.0626 46.7985 81.8648 46.3064C81.418 46.1187 80.9324 46.0216 80.4209 46.0151H80.395C80.026 46.0151 79.6699 46.0669 79.3332 46.164C78.8476 46.3 78.4008 46.533 78.0124 46.8438C77.2807 47.4006 76.7628 48.2229 76.5815 49.1617C76.5362 49.4013 76.5103 49.6473 76.5103 49.8998C76.5103 50.1523 76.5362 50.3984 76.5815 50.6379C76.7628 51.5768 77.2807 52.399 78.0059 52.9623C78.3944 53.2731 78.8476 53.5062 79.3332 53.6422C79.6699 53.7393 80.026 53.7911 80.395 53.7911H80.4144C80.9259 53.7911 81.418 53.6875 81.8648 53.4997C83.0626 53.0076 83.9625 51.9393 84.2086 50.6379C84.2539 50.3984 84.2798 50.1523 84.2798 49.8998C84.2798 49.6473 84.2539 49.4013 84.2086 49.1617Z" fill="#F25849"/>
<path fill-rule="evenodd" clip-rule="evenodd" d="M82.8038 49.8998C82.8038 50.1588 82.7649 50.4048 82.6873 50.6379C82.493 51.2465 82.0592 51.7516 81.4959 52.0429C81.1657 52.2113 80.7967 52.3084 80.3952 52.3084C80.2722 52.3084 80.1492 52.3019 80.0327 52.276C79.9873 52.276 79.9485 52.2695 79.9096 52.2566H79.9032C79.3917 52.153 78.9385 51.881 78.6083 51.5055C78.3881 51.2595 78.2133 50.9617 78.1097 50.6379C78.032 50.4048 77.9932 50.1588 77.9932 49.8998C77.9932 49.6408 78.032 49.3948 78.1097 49.1617C78.2133 48.838 78.3881 48.5466 78.6147 48.3006C78.9385 47.9251 79.3917 47.6531 79.9032 47.5431H79.9096C79.955 47.5366 79.9938 47.5301 80.0391 47.5236C80.1557 47.5042 80.2722 47.4977 80.3952 47.4977C80.7967 47.4977 81.1657 47.5949 81.4959 47.7697C82.0592 48.0546 82.4865 48.5531 82.6873 49.1617C82.7649 49.3948 82.8038 49.6408 82.8038 49.8998Z" fill="#F25849"/>
<path fill-rule="evenodd" clip-rule="evenodd" d="M73.9854 28.8962C73.9854 29.1163 73.9531 29.3364 73.8948 29.5371C73.7588 30.0357 73.4675 30.4695 73.079 30.7738C73.0466 30.7997 73.0207 30.8256 72.9883 30.845C72.5934 31.1364 72.1078 31.3047 71.5769 31.3047C70.7417 31.3047 70.01 30.8774 69.5827 30.2299C69.3237 29.8479 69.1748 29.3882 69.1748 28.8962C69.1748 28.8508 69.1748 28.799 69.1813 28.7537C69.1813 28.676 69.1942 28.5983 69.2072 28.5206C69.2654 28.1257 69.4273 27.7566 69.6669 27.4459C69.7251 27.3617 69.7964 27.2775 69.8741 27.1998C70.146 26.9214 70.4891 26.7142 70.8712 26.5977C71.0913 26.5265 71.3308 26.4876 71.5769 26.4876C71.9654 26.4876 72.3344 26.5783 72.6581 26.7466C73.1243 26.9797 73.5063 27.3617 73.7329 27.8343C73.8948 28.1516 73.9854 28.5142 73.9854 28.8962Z" fill="#F25849"/>
<path fill-rule="evenodd" clip-rule="evenodd" d="M66.3713 19.9029H66.3648C66.2741 20.0389 66.1706 20.1684 66.054 20.2849C65.6979 20.641 65.2317 20.8871 64.7138 20.9583C64.5972 20.9842 64.4807 20.9907 64.3577 20.9907C63.5548 20.9907 62.8426 20.5957 62.4088 19.9871C62.1174 19.5922 61.9491 19.1066 61.9491 18.5821C61.9491 18.5627 61.9491 18.5368 61.9556 18.5174C61.9556 18.1936 62.0333 17.8893 62.1563 17.6109C62.3635 17.1448 62.7131 16.7498 63.1599 16.4973C63.5095 16.2901 63.9239 16.1736 64.3577 16.1736C64.5972 16.1736 64.8303 16.2124 65.0504 16.2772C65.549 16.4261 65.9763 16.7304 66.2741 17.1383C66.5526 17.5009 66.7209 17.9347 66.7533 18.4138C66.7597 18.4656 66.7597 18.5238 66.7597 18.5821C66.7597 19.0742 66.6173 19.5209 66.3713 19.9029ZM68.2295 18.3814C68.1842 17.3325 67.7115 16.3937 66.9864 15.7268C66.6238 15.3901 66.1964 15.1182 65.7238 14.9499C65.2965 14.7815 64.8368 14.6974 64.3577 14.6974C63.5807 14.6974 62.862 14.924 62.2599 15.3124C61.839 15.5844 61.47 15.934 61.1916 16.3484C60.7384 16.9699 60.4794 17.7339 60.4729 18.5497V18.5821C60.4729 19.0871 60.57 19.5727 60.7513 20.0195C61.3211 21.4568 62.7261 22.4669 64.3577 22.4669C64.8238 22.4669 65.2706 22.3827 65.685 22.2338C66.1576 22.0655 66.5914 21.8 66.954 21.4633C67.4331 21.036 67.8086 20.4857 68.0223 19.8641C68.1647 19.4627 68.2424 19.0289 68.2424 18.5821C68.2424 18.5174 68.2424 18.4462 68.2295 18.3814Z" fill="#F25849"/>
<path fill-rule="evenodd" clip-rule="evenodd" d="M66.7597 18.5822C66.7597 19.0743 66.6173 19.521 66.3712 19.903H66.3648C66.2741 20.039 66.1705 20.1685 66.054 20.285C65.6979 20.6411 65.2317 20.8872 64.7138 20.9584C64.5972 20.9843 64.4807 20.9907 64.3576 20.9907C63.5548 20.9907 62.8426 20.5958 62.4088 19.9872C62.1174 19.5922 61.9491 19.1066 61.9491 18.5822C61.9491 18.5628 61.9491 18.5369 61.9556 18.5175C61.9556 18.1937 62.0333 17.8894 62.1563 17.611C62.3635 17.1448 62.7131 16.7499 63.1598 16.4974C63.5095 16.2902 63.9239 16.1736 64.3576 16.1736C64.5972 16.1736 64.8303 16.2125 65.0504 16.2772C65.549 16.4262 65.9763 16.7305 66.2741 17.1384C66.5525 17.5009 66.7209 17.9347 66.7533 18.4139C66.7597 18.4657 66.7597 18.5239 66.7597 18.5822Z" fill="#F25849"/>
<path fill-rule="evenodd" clip-rule="evenodd" d="M49.7443 60.1492C49.7443 61.0168 49.2846 61.7744 48.5918 62.1952C48.2745 62.3894 47.912 62.5125 47.5235 62.5384C47.4652 62.5448 47.4134 62.5448 47.3551 62.5448C47.2904 62.5448 47.2256 62.5448 47.1609 62.5319C46.7271 62.4995 46.3257 62.3506 45.989 62.1175C45.5746 61.8262 45.2574 61.4118 45.0955 60.9262C45.0049 60.6802 44.9595 60.4212 44.9595 60.1492C44.9595 59.3399 45.361 58.6277 45.976 58.1874C46.0667 58.1227 46.1703 58.0644 46.2739 58.0126C46.5976 57.8443 46.9667 57.7536 47.3551 57.7536H47.3875C48.6954 57.7731 49.7443 58.8414 49.7443 60.1492Z" fill="#F25849"/>
</svg>
