<?xml version="1.0" encoding="UTF-8"?>
<svg version="1.1" xmlns="http://www.w3.org/2000/svg" width="192" height="192">
<path d="M0 0 C2.65117584 2.4460805 5.2060233 4.9778767 7.73828125 7.54614258 C8.48722656 8.28477539 9.23617187 9.0234082 10.0078125 9.78442383 C26.82863265 27.40149582 34.29579128 51.91334751 34.09423828 75.87231445 C33.29366638 102.77620536 21.47818132 127.26160803 2.0234375 145.65942383 C-17.6649701 163.43310257 -43.11626531 170.68835874 -69.26171875 169.54614258 C-96.33903151 167.48142374 -119.76900443 154.40688478 -137.390625 133.91333008 C-152.88927092 114.30543983 -160.89757886 88.42260537 -158.02294922 63.47387695 C-154.42091415 37.19741688 -142.40824141 13.89259204 -121.53466797 -2.83813477 C-108.7083063 -12.55571628 -94.09341591 -18.65871315 -78.26171875 -21.45385742 C-77.00359375 -21.68073242 -75.74546875 -21.90760742 -74.44921875 -22.14135742 C-47.83836252 -24.75790605 -20.25576209 -17.96260266 0 0 Z M-57.26171875 -18.45385742 C-51.75778419 -9.76343443 -45.47181497 -1.64354742 -39.26171875 6.54614258 C-35.90674084 6.68879715 -35.90674084 6.68879715 -32.26171875 5.54614258 C-30.22216251 3.11502755 -29.0660116 0.38611648 -27.82421875 -2.51635742 C-27.47423828 -3.2749707 -27.12425781 -4.03358398 -26.76367188 -4.81518555 C-25.90570144 -6.68391567 -25.08044261 -8.56760272 -24.26171875 -10.45385742 C-35.25698395 -15.15977173 -45.33266652 -17.59756407 -57.26171875 -18.45385742 Z M-103.26171875 -9.45385742 C-102.18360769 -7.55504946 -101.09898556 -5.65993764 -100.01171875 -3.76635742 C-99.4084375 -2.71061523 -98.80515625 -1.65487305 -98.18359375 -0.56713867 C-94.82258636 5.46711499 -94.82258636 5.46711499 -88.92578125 8.39379883 C-83.37572813 7.10983131 -81.6418413 3.59557108 -78.63671875 -1.01635742 C-78.09015625 -1.8162207 -77.54359375 -2.61608398 -76.98046875 -3.44018555 C-75.90452247 -5.01678148 -74.83753514 -6.59953449 -73.78027344 -8.1887207 C-71.67571034 -11.32797093 -69.47426562 -14.39001464 -67.26171875 -17.45385742 C-78.49503404 -20.72437442 -92.92817769 -13.69995342 -103.26171875 -9.45385742 Z M-65.26171875 -14.45385742 C-66.30388391 -13.16682442 -67.30179445 -11.8439209 -68.28125 -10.50854492 C-69.19680664 -9.26331055 -69.19680664 -9.26331055 -70.13085938 -7.99291992 C-70.77216797 -7.1137793 -71.41347656 -6.23463867 -72.07421875 -5.32885742 C-72.70392578 -4.47291992 -73.33363281 -3.61698242 -73.98242188 -2.73510742 C-75.75504058 -0.31705462 -77.50999576 2.11293168 -79.26171875 4.54614258 C-79.71595215 5.15683594 -80.17018555 5.7675293 -80.63818359 6.39672852 C-81.8999712 8.09724985 -81.8999712 8.09724985 -83.26171875 10.54614258 C-82.93171875 11.53614258 -82.60171875 12.52614258 -82.26171875 13.54614258 C-77.97171875 13.54614258 -73.68171875 13.54614258 -69.26171875 13.54614258 C-68.93171875 12.22614258 -68.60171875 10.90614258 -68.26171875 9.54614258 C-66.94171875 9.21614258 -65.62171875 8.88614258 -64.26171875 8.54614258 C-64.26171875 0.95614258 -64.26171875 -6.63385742 -64.26171875 -14.45385742 C-64.59171875 -14.45385742 -64.92171875 -14.45385742 -65.26171875 -14.45385742 Z M-60.26171875 -14.45385742 C-60.26171875 -6.86385742 -60.26171875 0.72614258 -60.26171875 8.54614258 C-58.94171875 8.87614258 -57.62171875 9.20614258 -56.26171875 9.54614258 C-55.93171875 10.86614258 -55.60171875 12.18614258 -55.26171875 13.54614258 C-50.97171875 13.54614258 -46.68171875 13.54614258 -42.26171875 13.54614258 C-40.71389741 8.78823982 -40.71389741 8.78823982 -42.81640625 6.07348633 C-43.58210938 5.21883789 -44.3478125 4.36418945 -45.13671875 3.48364258 C-45.95914063 2.5374707 -46.7815625 1.59129883 -47.62890625 0.61645508 C-48.27811035 -0.12749512 -48.27811035 -0.12749512 -48.94042969 -0.88647461 C-51.17760596 -3.54033116 -53.21292953 -6.34112221 -55.26171875 -9.14135742 C-56.57090151 -10.93011928 -57.89638826 -12.70757534 -59.26171875 -14.45385742 C-59.59171875 -14.45385742 -59.92171875 -14.45385742 -60.26171875 -14.45385742 Z M-20.26171875 -8.45385742 C-21.57753938 -6.1848911 -22.88947111 -3.91382555 -24.19921875 -1.64135742 C-24.57240234 -0.99875977 -24.94558594 -0.35616211 -25.33007812 0.3059082 C-26.8963851 3.02930682 -28.26541249 5.5572238 -29.26171875 8.54614258 C-28.60171875 9.86614258 -27.94171875 11.18614258 -27.26171875 12.54614258 C-16.37171875 12.54614258 -5.48171875 12.54614258 5.73828125 12.54614258 C-2.24622547 3.23088474 -9.52129366 -2.56452433 -20.26171875 -8.45385742 Z M-108.26171875 -6.45385742 C-110.45028403 -5.24741839 -112.36970884 -4.02991859 -114.38671875 -2.57885742 C-114.96059326 -2.1740918 -115.53446777 -1.76932617 -116.12573242 -1.35229492 C-121.34050369 2.42068125 -126.04758017 6.66775993 -130.26171875 11.54614258 C-130.26171875 11.87614258 -130.26171875 12.20614258 -130.26171875 12.54614258 C-119.37171875 12.54614258 -108.48171875 12.54614258 -97.26171875 12.54614258 C-95.79082473 8.53464436 -95.79082473 8.53464436 -98.02734375 5.12817383 C-98.84238357 3.86313646 -99.67108437 2.60681856 -100.51171875 1.35864258 C-100.92035156 0.71733398 -101.32898438 0.07602539 -101.75 -0.5847168 C-104.22843583 -4.45880914 -104.22843583 -4.45880914 -108.26171875 -6.45385742 Z M-128.26171875 15.54614258 C-118.27845788 23.80591101 -118.27845788 23.80591101 -106.265625 27.82739258 C-102.76617146 27.28661521 -100.29733128 26.58175511 -97.76171875 24.04614258 C-96.47650722 22.2816035 -96.47650722 22.2816035 -95.26171875 19.54614258 C-95.92171875 18.55614258 -96.58171875 17.56614258 -97.26171875 16.54614258 C-100.46182935 16.0336013 -100.46182935 16.0336013 -104.23828125 16.03442383 C-105.2661525 16.00749702 -105.2661525 16.00749702 -106.31478882 15.98002625 C-108.50536934 15.9258055 -110.69573065 15.89199205 -112.88671875 15.85864258 C-114.37112434 15.82547964 -115.85550096 15.79099093 -117.33984375 15.75512695 C-120.98025787 15.67007443 -124.62074819 15.60331902 -128.26171875 15.54614258 Z M-82.26171875 16.54614258 C-82.73609375 17.18551758 -83.21046875 17.82489258 -83.69921875 18.48364258 C-86.01238039 21.53701595 -88.58836841 21.02137824 -92.26171875 21.54614258 C-94.22459699 23.46353112 -94.22459699 23.46353112 -95.26171875 25.54614258 C-94.93171875 26.20614258 -94.60171875 26.86614258 -94.26171875 27.54614258 C-87.33171875 24.57614258 -80.40171875 21.60614258 -73.26171875 18.54614258 C-76.73214578 16.23252456 -78.18006048 16.03593529 -82.26171875 16.54614258 Z M-51.26171875 18.54614258 C-47.80885212 20.07961373 -44.34864039 21.59573786 -40.88671875 23.10864258 C-39.901875 23.5462793 -38.91703125 23.98391602 -37.90234375 24.43481445 C-36.96132812 24.8440918 -36.0203125 25.25336914 -35.05078125 25.67504883 C-34.18146973 26.05733643 -33.3121582 26.43962402 -32.41650391 26.83349609 C-30.24621777 27.83232756 -30.24621777 27.83232756 -28.26171875 26.54614258 C-31.38108555 21.80470504 -33.86693933 20.91935916 -39.26171875 19.54614258 C-39.77734375 19.00989258 -40.29296875 18.47364258 -40.82421875 17.92114258 C-42.29524075 16.23301062 -42.29524075 16.23301062 -45.26171875 16.23364258 C-48.44113389 16.32955133 -48.44113389 16.32955133 -51.26171875 18.54614258 Z M-14.38671875 15.79614258 C-15.59199219 15.82321289 -16.79726562 15.8502832 -18.0390625 15.87817383 C-19.18761719 15.91813477 -20.33617187 15.9580957 -21.51953125 15.99926758 C-23.09951904 16.04809082 -23.09951904 16.04809082 -24.71142578 16.09790039 C-25.55302246 16.24582031 -26.39461914 16.39374023 -27.26171875 16.54614258 C-28.25171875 18.03114258 -28.25171875 18.03114258 -29.26171875 19.54614258 C-26.72723737 23.51683008 -24.70982194 25.96381505 -20.01171875 27.04614258 C-11.67615771 27.54019559 -3.90254339 20.9698894 2.73828125 16.54614258 C-2.81556474 14.8334146 -8.65172635 15.5924238 -14.38671875 15.79614258 Z M-132.26171875 18.54614258 C-131.6657231 21.2356864 -131.06021047 23.92250081 -130.44921875 26.60864258 C-130.28357422 27.36081055 -130.11792969 28.11297852 -129.94726562 28.88793945 C-128.83819515 33.72181264 -127.50090473 38.10785835 -125.26171875 42.54614258 C-122.62623764 44.23829332 -122.62623764 44.23829332 -119.26171875 43.54614258 C-115.80370719 41.65327678 -112.76348601 39.6094176 -110.26171875 36.54614258 C-110.11508721 33.45634099 -110.11508721 33.45634099 -110.26171875 30.54614258 C-113.73890597 28.54268596 -117.21878842 26.54395908 -120.69921875 24.54614258 C-122.18905273 23.68762695 -122.18905273 23.68762695 -123.70898438 22.81176758 C-124.65322266 22.27036133 -125.59746094 21.72895508 -126.5703125 21.17114258 C-127.44486084 20.6684082 -128.31940918 20.16567383 -129.22045898 19.64770508 C-131.02180424 18.46699103 -131.02180424 18.46699103 -132.26171875 18.54614258 Z M-3.88671875 23.60864258 C-4.78390625 24.07463867 -5.68109375 24.54063477 -6.60546875 25.02075195 C-9.04742923 26.38461286 -11.18219567 27.67474405 -13.26171875 29.54614258 C-14.46001387 33.11251119 -14.46001387 33.11251119 -13.26171875 36.54614258 C-11.13361652 39.09132149 -11.13361652 39.09132149 -8.26171875 40.98364258 C-7.33359375 41.66297852 -6.40546875 42.34231445 -5.44921875 43.04223633 C-4.36640625 43.78666992 -4.36640625 43.78666992 -3.26171875 44.54614258 C-0.76985908 43.94457693 -0.76985908 43.94457693 1.73828125 42.54614258 C2.97367437 40.08278839 2.97367437 40.08278839 3.5390625 37.10083008 C3.92094727 35.4862793 3.92094727 35.4862793 4.31054688 33.83911133 C4.55482422 32.71118164 4.79910156 31.58325195 5.05078125 30.42114258 C5.31439453 29.28547852 5.57800781 28.14981445 5.84960938 26.97973633 C6.49837945 24.17233129 7.12694593 21.36189419 7.73828125 18.54614258 C3.57335429 18.54614258 -0.32301195 21.63310946 -3.88671875 23.60864258 Z M-137.26171875 19.54614258 C-138.55472935 21.79537962 -139.84616852 24.04549443 -141.13671875 26.29614258 C-141.68392578 27.2474707 -141.68392578 27.2474707 -142.2421875 28.21801758 C-145.93511574 34.03917743 -145.93511574 34.03917743 -147.26171875 40.54614258 C-142.31171875 42.19614258 -137.36171875 43.84614258 -132.26171875 45.54614258 C-131.60171875 44.88614258 -130.94171875 44.22614258 -130.26171875 43.54614258 C-130.68973931 38.3177068 -131.94056084 33.25256447 -133.19921875 28.17114258 C-133.36873047 27.44797852 -133.53824219 26.72481445 -133.71289062 25.97973633 C-134.16401567 24.15122189 -134.7059388 22.34561125 -135.26171875 20.54614258 C-135.92171875 20.21614258 -136.58171875 19.88614258 -137.26171875 19.54614258 Z M10.73828125 19.54614258 C9.86864095 22.79220354 9.02031212 26.04346665 8.17578125 29.29614258 C7.80549805 30.67672852 7.80549805 30.67672852 7.42773438 32.08520508 C7.19892578 32.9746582 6.97011719 33.86411133 6.734375 34.78051758 C6.51966553 35.59746094 6.30495605 36.4144043 6.08374023 37.25610352 C5.71162648 39.72283637 5.87282999 41.21899087 6.73828125 43.54614258 C8.34788524 45.08175953 8.34788524 45.08175953 10.73828125 45.54614258 C14.05678928 44.91649659 14.05678928 44.91649659 17.48828125 43.67114258 C18.65875 43.2818457 19.82921875 42.89254883 21.03515625 42.49145508 C21.9271875 42.17950195 22.81921875 41.86754883 23.73828125 41.54614258 C22.14251164 35.66174214 19.85273434 30.68183939 16.67578125 25.48364258 C16.14694336 24.60736206 16.14694336 24.60736206 15.60742188 23.71337891 C14.71085928 22.28496074 13.7308454 20.90960118 12.73828125 19.54614258 C12.07828125 19.54614258 11.41828125 19.54614258 10.73828125 19.54614258 Z M-58.30859375 21.53442383 C-60.6565257 23.53724999 -60.6565257 23.53724999 -60.65234375 27.33911133 C-60.62582151 28.80446489 -60.57820992 30.26955809 -60.51171875 31.73364258 C-60.49367188 32.48323242 -60.475625 33.23282227 -60.45703125 34.00512695 C-60.40995984 35.85267968 -60.33821641 37.69957417 -60.26171875 39.54614258 C-58.94171875 39.87614258 -57.62171875 40.20614258 -56.26171875 40.54614258 C-55.93171875 41.86614258 -55.60171875 43.18614258 -55.26171875 44.54614258 C-47.43321109 45.78876284 -42.7546819 43.6405248 -36.13671875 39.73364258 C-34.98055054 39.05712646 -34.98055054 39.05712646 -33.80102539 38.36694336 C-30.90877434 36.6211176 -30.90877434 36.6211176 -28.26171875 34.54614258 C-28.26171875 33.55614258 -28.26171875 32.56614258 -28.26171875 31.54614258 C-32.08771873 29.97735742 -35.91463612 28.41083473 -39.74243164 26.84643555 C-41.04542272 26.31353414 -42.34815801 25.78000685 -43.65063477 25.24584961 C-45.51902539 24.47973128 -47.38840394 23.71602366 -49.2578125 22.95239258 C-50.94668579 22.26113281 -50.94668579 22.26113281 -52.66967773 21.5559082 C-55.6088946 20.26095063 -55.6088946 20.26095063 -58.30859375 21.53442383 Z M-72.21606445 21.21533203 C-73.27913818 21.69188232 -74.34221191 22.16843262 -75.4375 22.65942383 C-76.59443359 23.16538086 -77.75136719 23.67133789 -78.94335938 24.19262695 C-80.74063477 25.01730469 -80.74063477 25.01730469 -82.57421875 25.85864258 C-83.80315838 26.40424451 -85.03296942 26.94788812 -86.26367188 27.48950195 C-89.27216021 28.82267522 -92.27026118 30.17528206 -95.26171875 31.54614258 C-95.26171875 32.86614258 -95.26171875 34.18614258 -95.26171875 35.54614258 C-89.79446702 39.82808228 -85.32341021 40.94752982 -78.44921875 40.23364258 C-77.18464844 40.07250977 -75.92007813 39.91137695 -74.6171875 39.74536133 C-71.30570789 39.54875427 -69.9617231 39.73027064 -67.26171875 41.54614258 C-66.27171875 40.88614258 -65.28171875 40.22614258 -64.26171875 39.54614258 C-63.90298144 36.79881271 -63.75205331 34.35604523 -63.76171875 31.60864258 C-63.71917969 30.51519531 -63.71917969 30.51519531 -63.67578125 29.3996582 C-63.60972785 26.99123089 -63.60972785 26.99123089 -64.26171875 23.54614258 C-67.17113259 21.02405622 -68.40732322 20.35261327 -72.21606445 21.21533203 Z M-103.27563477 40.85717773 C-107.42599303 44.38664036 -109.01861534 49.52049318 -110.94921875 54.48364258 C-111.41521484 55.56838867 -111.88121094 56.65313477 -112.36132812 57.77075195 C-115.03379124 63.47792145 -115.03379124 63.47792145 -114.11328125 69.36547852 C-112.50454534 71.66180659 -112.50454534 71.66180659 -110.3605957 72.11376953 C-109.66409912 72.08758545 -108.96760254 72.06140137 -108.25 72.03442383 C-107.49267578 72.01831055 -106.73535156 72.00219727 -105.95507812 71.9855957 C-105.16939453 71.94370117 -104.38371094 71.90180664 -103.57421875 71.85864258 C-102.77693359 71.83608398 -101.97964844 71.81352539 -101.15820312 71.7902832 C-99.19190541 71.73141201 -97.22657384 71.64173012 -95.26171875 71.54614258 C-95.42671875 70.49555664 -95.59171875 69.4449707 -95.76171875 68.36254883 C-97.19820809 57.11183569 -97.19820809 57.11183569 -94.51171875 52.62036133 C-92.26171875 50.29614258 -92.26171875 50.29614258 -89.94921875 48.34301758 C-88.01918805 46.70445219 -88.01918805 46.70445219 -88.2890625 44.46801758 C-89.48723295 42.10054825 -90.50473613 41.31709196 -92.82421875 40.04614258 C-93.46488281 39.66458008 -94.10554688 39.28301758 -94.765625 38.88989258 C-98.21509558 38.41484812 -100.24831119 39.19177882 -103.27563477 40.85717773 Z M-36.32421875 42.92114258 C-37.06994141 43.33364258 -37.81566406 43.74614258 -38.58398438 44.17114258 C-39.64842773 44.77055664 -39.64842773 44.77055664 -40.734375 45.38208008 C-41.38672119 45.74865723 -42.03906738 46.11523438 -42.71118164 46.49291992 C-44.43029078 47.47612603 -44.43029078 47.47612603 -45.26171875 49.54614258 C-41.20847191 59.06811486 -41.20847191 59.06811486 -33.83203125 65.61645508 C-31.52550811 65.77678551 -31.52550811 65.77678551 -29.27734375 65.59301758 C-27.26171875 65.54614258 -27.26171875 65.54614258 -24.26171875 67.48364258 C-22.26171875 69.54614258 -22.26171875 69.54614258 -21.26171875 71.54614258 C-17.96171875 71.54614258 -14.66171875 71.54614258 -11.26171875 71.54614258 C-9.75365975 68.62263925 -9.14201253 67.1050572 -9.84155273 63.83886719 C-11.10427026 60.70943182 -12.37654515 57.58832831 -13.69921875 54.48364258 C-14.12654297 53.3950293 -14.55386719 52.30641602 -14.99414062 51.18481445 C-17.70596082 44.46981478 -17.70596082 44.46981478 -22.984375 39.80004883 C-28.71338798 37.60813802 -31.28421363 40.0661614 -36.32421875 42.92114258 Z M-16.26171875 39.54614258 C-13.51064003 48.44669137 -9.85873512 56.96257748 -6.26171875 65.54614258 C-5.60171875 65.54614258 -4.94171875 65.54614258 -4.26171875 65.54614258 C-2.43305331 61.02826325 -2.17731792 58.27807347 -3.26171875 53.54614258 C-3.32746094 52.58450195 -3.39320313 51.62286133 -3.4609375 50.63208008 C-4.53014952 46.51170207 -6.27652807 45.51556208 -9.76171875 43.17114258 C-10.76203125 42.4827832 -11.76234375 41.79442383 -12.79296875 41.08520508 C-14.91828576 39.4579704 -14.91828576 39.4579704 -16.26171875 39.54614258 Z M-116.42578125 45.46020508 C-119.21949093 48.6343348 -119.55237038 51.43192203 -120.26171875 55.54614258 C-121.25171875 56.04114258 -121.25171875 56.04114258 -122.26171875 56.54614258 C-121.60171875 59.51614258 -120.94171875 62.48614258 -120.26171875 65.54614258 C-119.60171875 65.54614258 -118.94171875 65.54614258 -118.26171875 65.54614258 C-114.96171875 57.29614258 -111.66171875 49.04614258 -108.26171875 40.54614258 C-111.76423071 40.54614258 -113.90009083 43.22629117 -116.42578125 45.46020508 Z M-149.26171875 43.54614258 C-152.26514061 52.362639 -153.95708782 60.23966781 -154.26171875 69.54614258 C-149.52113974 66.44482921 -144.94341281 63.16067831 -140.38671875 59.79614258 C-139.69835937 59.28954102 -139.01 58.78293945 -138.30078125 58.26098633 C-136.62021267 57.02390112 -134.94084132 55.78518977 -133.26171875 54.54614258 C-133.59171875 52.56614258 -133.92171875 50.58614258 -134.26171875 48.54614258 C-139.21171875 46.89614258 -144.16171875 45.24614258 -149.26171875 43.54614258 Z M16.61328125 46.67114258 C15.74445313 46.8799707 14.875625 47.08879883 13.98046875 47.30395508 C11.4105749 48.42498622 11.4105749 48.42498622 10.43359375 51.66333008 C10.20414063 52.6146582 9.9746875 53.56598633 9.73828125 54.54614258 C11.05892578 55.5593457 11.05892578 55.5593457 12.40625 56.59301758 C13.57944721 57.49403304 14.75262317 58.39507617 15.92578125 59.29614258 C16.50392578 59.73958008 17.08207031 60.18301758 17.67773438 60.63989258 C18.24814453 61.07817383 18.81855469 61.51645508 19.40625 61.96801758 C19.97005371 62.40049805 20.53385742 62.83297852 21.11474609 63.27856445 C22.61266896 64.44807054 24.07763282 65.6594669 25.5390625 66.87426758 C27.54321499 68.74787285 27.54321499 68.74787285 29.73828125 68.54614258 C29.33207061 60.51998064 28.13980349 53.21893063 25.73828125 45.54614258 C22.31767465 45.54614258 19.87502 45.82406416 16.61328125 46.67114258 Z M-138.88671875 62.29614258 C-139.88832031 63.1237207 -139.88832031 63.1237207 -140.91015625 63.96801758 C-143.81887833 66.38807435 -146.61368718 68.84087256 -149.26171875 71.54614258 C-145.65782211 71.66215262 -142.05440408 71.73332665 -138.44921875 71.79614258 C-137.42505859 71.8296582 -136.40089844 71.86317383 -135.34570312 71.89770508 C-133.87133789 71.91704102 -133.87133789 71.91704102 -132.3671875 71.93676758 C-131.46121826 71.95771484 -130.55524902 71.97866211 -129.62182617 72.00024414 C-127.10942539 71.75306637 -127.10942539 71.75306637 -125.44946289 69.65112305 C-123.43509479 66.08115763 -124.49871311 63.48833839 -125.26171875 59.54614258 C-126.09660395 57.36135365 -126.09660395 57.36135365 -128.34765625 56.56176758 C-132.98771929 56.53688788 -135.48027568 59.36873056 -138.88671875 62.29614258 Z M1.73828125 57.54614258 C1.29124819 58.93254917 0.88181368 60.33111128 0.48828125 61.73364258 C0.25625 62.51094727 0.02421875 63.28825195 -0.21484375 64.08911133 C-0.43931499 66.68067337 -0.43931499 66.68067337 0.98828125 69.32739258 C5.31069428 72.814794 9.61669647 72.08018637 14.98828125 71.85864258 C16.53515625 71.82480469 16.53515625 71.82480469 18.11328125 71.7902832 C20.6564219 71.73141421 23.19661238 71.64924323 25.73828125 71.54614258 C22.51542244 68.18997817 19.05635909 65.19723149 15.42578125 62.29614258 C14.88244141 61.83723633 14.33910156 61.37833008 13.77929688 60.90551758 C9.6818899 57.65468229 6.9016187 57.04878688 1.73828125 57.54614258 Z M-149.26171875 75.54614258 C-145.63409288 79.28185414 -141.8786552 82.71638326 -137.82421875 85.98364258 C-137.27701172 86.45479492 -136.72980469 86.92594727 -136.16601562 87.41137695 C-134.33775278 88.94578198 -134.33775278 88.94578198 -131.26171875 90.54614258 C-127.90013674 89.99057048 -127.90013674 89.99057048 -125.26171875 88.54614258 C-125.01111685 87.1331102 -124.78709954 85.71534784 -124.57421875 84.29614258 C-124.38279297 83.1127832 -124.38279297 83.1127832 -124.1875 81.90551758 C-124.28502667 78.80519596 -125.12215366 77.75940636 -127.26171875 75.54614258 C-129.67080598 74.99630659 -129.67080598 74.99630659 -132.3671875 75.15551758 C-133.35009766 75.1684082 -134.33300781 75.18129883 -135.34570312 75.19458008 C-136.36986328 75.2280957 -137.39402344 75.26161133 -138.44921875 75.29614258 C-139.48498047 75.31418945 -140.52074219 75.33223633 -141.58789062 75.35083008 C-144.14676159 75.39799821 -146.70377717 75.463802 -149.26171875 75.54614258 Z M-114.14770508 77.70385742 C-116.32524136 83.25960527 -112.68829136 88.550344 -110.44921875 93.73364258 C-109.97806641 94.9344043 -109.50691406 96.13516602 -109.02148438 97.37231445 C-106.61498094 103.28001386 -106.61498094 103.28001386 -102.49047852 107.99951172 C-99.11314312 109.27626163 -96.93138105 108.79354035 -93.5793457 107.55517578 C-90.54034895 106.06392375 -87.70216318 104.39004655 -84.82421875 102.60864258 C-83.81939453 102.03823242 -82.81457031 101.46782227 -81.77929688 100.88012695 C-75.97592432 97.578198 -75.97592432 97.578198 -73.2265625 91.79223633 C-73.23816406 90.72102539 -73.24976563 89.64981445 -73.26171875 88.54614258 C-72.60171875 87.55614258 -71.94171875 86.56614258 -71.26171875 85.54614258 C-71.67328438 83.22107167 -71.67328438 83.22107167 -72.63671875 80.85864258 C-72.93320313 80.05040039 -73.2296875 79.2421582 -73.53515625 78.40942383 C-73.77492187 77.79454102 -74.0146875 77.1796582 -74.26171875 76.54614258 C-77.16881085 76.94990537 -78.88595266 77.22047864 -81.13671875 79.17114258 C-83.26171875 80.54614258 -83.26171875 80.54614258 -86.82421875 80.48364258 C-88.52578125 80.01958008 -88.52578125 80.01958008 -90.26171875 79.54614258 C-90.81666016 78.54454102 -90.81666016 78.54454102 -91.3828125 77.52270508 C-93.65145759 75.13614704 -94.40493481 75.19442032 -97.60546875 74.97973633 C-99.32410378 74.95981397 -101.04310533 74.96193647 -102.76171875 74.98364258 C-104.06302734 74.94787109 -104.06302734 74.94787109 -105.390625 74.91137695 C-106.22464844 74.91331055 -107.05867188 74.91524414 -107.91796875 74.91723633 C-109.05975586 74.91614868 -109.05975586 74.91614868 -110.22460938 74.91503906 C-112.48403927 75.41986803 -112.48403927 75.41986803 -114.14770508 77.70385742 Z M-26.26171875 80.54614258 C-30.07421875 80.85864258 -30.07421875 80.85864258 -33.26171875 80.54614258 C-33.26171875 81.53614258 -33.26171875 82.52614258 -33.26171875 83.54614258 C-32.60171875 83.54614258 -31.94171875 83.54614258 -31.26171875 83.54614258 C-30.60171875 85.52614258 -29.94171875 87.50614258 -29.26171875 89.54614258 C-24.31171875 90.53614258 -19.36171875 91.52614258 -14.26171875 92.54614258 C-13.39546875 90.66926758 -12.52921875 88.79239258 -11.63671875 86.85864258 C-11.14945313 85.80290039 -10.6621875 84.7471582 -10.16015625 83.65942383 C-9.12338661 80.06679165 -9.50442484 78.76784808 -11.26171875 75.54614258 C-18.42651805 74.92009215 -21.22919563 75.10557704 -26.26171875 80.54614258 Z M1.01953125 77.76489258 C-0.43447434 80.92114862 -0.49116813 82.07748717 0.48828125 85.35864258 C0.71 86.14883789 0.93171875 86.9390332 1.16015625 87.75317383 C1.3509375 88.34485352 1.54171875 88.9365332 1.73828125 89.54614258 C3.914541 90.47947545 3.914541 90.47947545 6.73828125 90.54614258 C9.14170493 89.08862079 11.10251949 87.70011815 13.23828125 85.92114258 C13.79386719 85.48157227 14.34945312 85.04200195 14.921875 84.58911133 C18.42504661 81.77833129 21.6163594 78.77290508 24.73828125 75.54614258 C21.32206337 75.40074305 17.90664134 75.31204533 14.48828125 75.23364258 C13.52019531 75.19174805 12.55210937 75.14985352 11.5546875 75.10668945 C5.81975052 74.92852755 5.81975052 74.92852755 1.01953125 77.76489258 Z M-154.26171875 77.54614258 C-153.97810733 80.2555368 -153.68510825 82.96336918 -153.38671875 85.67114258 C-153.30808594 86.43168945 -153.22945312 87.19223633 -153.1484375 87.97583008 C-152.6519821 92.40573979 -151.85771796 96.34826229 -150.26171875 100.54614258 C-144.21370804 99.99632342 -138.95570769 98.64184684 -133.26171875 96.54614258 C-133.82473684 93.1318138 -134.75652288 91.75504447 -137.46484375 89.63598633 C-138.11582031 89.12100586 -138.76679688 88.60602539 -139.4375 88.07543945 C-140.12199219 87.55014648 -140.80648437 87.02485352 -141.51171875 86.48364258 C-142.18074219 85.95448242 -142.84976563 85.42532227 -143.5390625 84.88012695 C-146.9890948 82.17907023 -150.42953412 79.69246304 -154.26171875 77.54614258 Z M20.86328125 83.85864258 C19.61614722 84.8550641 18.36875806 85.85116638 17.12109375 86.84692383 C16.53618164 87.32081543 15.95126953 87.79470703 15.34863281 88.28295898 C13.73828125 89.54614258 13.73828125 89.54614258 11.29296875 91.15161133 C10.77992188 91.61180664 10.266875 92.07200195 9.73828125 92.54614258 C9.73828125 93.86614258 9.73828125 95.18614258 9.73828125 96.54614258 C15.01828125 97.53614258 20.29828125 98.52614258 25.73828125 99.54614258 C27.55617434 95.04882763 27.55617434 95.04882763 28.37109375 90.55786133 C28.45488281 89.85209961 28.53867188 89.14633789 28.625 88.41918945 C28.74294922 87.33734375 28.74294922 87.33734375 28.86328125 86.23364258 C28.94964844 85.49307617 29.03601563 84.75250977 29.125 83.98950195 C29.3356283 82.17575823 29.53781111 80.36103715 29.73828125 78.54614258 C26.15499889 78.54614258 23.56159448 81.67965847 20.86328125 83.85864258 Z M-120.26171875 81.54614258 C-121.14711886 84.52720195 -121.91131287 87.45178914 -122.26171875 90.54614258 C-121.07534867 92.73919982 -121.07534867 92.73919982 -119.26171875 94.54614258 C-119.05546875 95.65989258 -118.84921875 96.77364258 -118.63671875 97.92114258 C-116.65837776 103.13676882 -112.98973094 104.89028388 -108.26171875 107.54614258 C-111.01279747 98.64559378 -114.66470238 90.12970767 -118.26171875 81.54614258 C-118.92171875 81.54614258 -119.58171875 81.54614258 -120.26171875 81.54614258 Z M-6.26171875 81.54614258 C-7.58171875 85.17614258 -8.90171875 88.80614258 -10.26171875 92.54614258 C-9.20861598 93.8161758 -9.20861598 93.8161758 -6.82421875 93.73364258 C-4.094372 93.8145424 -4.094372 93.8145424 -2.26171875 91.54614258 C-2.46157536 89.08565023 -2.46157536 89.08565023 -3.13671875 86.42114258 C-3.34039062 85.51106445 -3.5440625 84.60098633 -3.75390625 83.66333008 C-3.92148438 82.9646582 -4.0890625 82.26598633 -4.26171875 81.54614258 C-4.92171875 81.54614258 -5.58171875 81.54614258 -6.26171875 81.54614258 Z M-34.26171875 96.54614258 C-37.01171875 97.23364258 -37.01171875 97.23364258 -39.26171875 97.54614258 C-39.59171875 98.86614258 -39.92171875 100.18614258 -40.26171875 101.54614258 C-38.87305552 102.53545168 -37.47542024 103.51217336 -36.07421875 104.48364258 C-35.29691406 105.02891602 -34.51960938 105.57418945 -33.71875 106.13598633 C-31.13702964 107.61770501 -29.21172143 108.23764557 -26.26171875 108.54614258 C-22.94779925 107.53167743 -20.93554846 106.56207045 -18.9921875 103.63208008 C-16.93047838 99.77607276 -16.93047838 99.77607276 -16.26171875 95.54614258 C-17.84401935 95.20794092 -19.4276125 94.87578319 -21.01171875 94.54614258 C-21.8934375 94.36051758 -22.77515625 94.17489258 -23.68359375 93.98364258 C-28.60835501 93.14792552 -30.44013626 93.65100433 -34.26171875 96.54614258 Z M-12.26171875 96.54614258 C-12.95871427 97.99996155 -13.64405741 99.45937211 -14.32421875 100.92114258 C-14.70707031 101.73325195 -15.08992187 102.54536133 -15.484375 103.38208008 C-15.86916016 104.45329102 -15.86916016 104.45329102 -16.26171875 105.54614258 C-15.93171875 106.20614258 -15.60171875 106.86614258 -15.26171875 107.54614258 C-13.58928473 106.26195217 -11.92390428 104.96857073 -10.26171875 103.67114258 C-9.33359375 102.9518457 -8.40546875 102.23254883 -7.44921875 101.49145508 C-6.72734375 100.84950195 -6.00546875 100.20754883 -5.26171875 99.54614258 C-5.26171875 98.88614258 -5.26171875 98.22614258 -5.26171875 97.54614258 C-7.57171875 97.21614258 -9.88171875 96.88614258 -12.26171875 96.54614258 Z M-85.19921875 105.48364258 C-86.16923828 106.06049805 -87.13925781 106.63735352 -88.13867188 107.23168945 C-90.52366625 108.65328709 -92.89680421 110.09147065 -95.26171875 111.54614258 C-95.26171875 112.86614258 -95.26171875 114.18614258 -95.26171875 115.54614258 C-91.66250106 117.19551426 -88.05173712 118.8158823 -84.42797852 120.41064453 C-82.59302822 121.2252919 -80.76809469 122.06238051 -78.94335938 122.8996582 C-77.78642578 123.40561523 -76.62949219 123.91157227 -75.4375 124.43286133 C-74.37442627 124.90941162 -73.31135254 125.38596191 -72.21606445 125.87695312 C-69.22137312 126.8598435 -69.22137312 126.8598435 -66.4128418 125.32055664 C-64.07638433 123.74626688 -64.07638433 123.74626688 -63.66796875 121.26879883 C-63.92228733 114.05250905 -65.23096962 107.47244763 -67.26171875 100.54614258 C-74.58590384 98.28082597 -78.98315521 101.6554312 -85.19921875 105.48364258 Z M7.11328125 101.79614258 C4.79521726 106.43227057 6.51048904 110.6899495 7.73828125 115.54614258 C8.00769531 116.66375977 8.27710938 117.78137695 8.5546875 118.93286133 C9.25962056 121.81048662 9.98799838 124.68006203 10.73828125 127.54614258 C11.39828125 127.54614258 12.05828125 127.54614258 12.73828125 127.54614258 C18.17607575 120.14273838 22.06275798 112.32960383 24.73828125 103.54614258 C15.90967522 100.46873155 15.90967522 100.46873155 7.11328125 101.79614258 Z M-141.32421875 102.54614258 C-142.31905273 102.83231445 -142.31905273 102.83231445 -143.33398438 103.12426758 C-144.9769015 103.59704948 -146.61935379 104.07144612 -148.26171875 104.54614258 C-146.89419803 113.43502728 -141.68397297 121.5291077 -136.26171875 128.54614258 C-134.10215025 124.80094495 -133.1607801 120.7693659 -132.13671875 116.60864258 C-131.95496094 115.90545898 -131.77320313 115.20227539 -131.5859375 114.4777832 C-130.65998755 110.76354034 -130.03680351 107.37719879 -130.26171875 103.54614258 C-130.92171875 103.54614258 -131.58171875 103.54614258 -132.26171875 103.54614258 C-132.59171875 102.55614258 -132.92171875 101.56614258 -133.26171875 100.54614258 C-135.92494643 100.54614258 -138.75711296 101.80336319 -141.32421875 102.54614258 Z M-11.50390625 108.26098633 C-13.51228129 110.54090769 -13.51228129 110.54090769 -14.03515625 113.96801758 C-13.17470364 117.94869734 -12.89532749 118.2395852 -9.68359375 120.34692383 C-8.14108672 121.21109945 -6.58279236 122.04755986 -5.01171875 122.85864258 C-4.23441406 123.28725586 -3.45710937 123.71586914 -2.65625 124.1574707 C0.76928859 126.0341974 4.24081539 127.80769631 7.73828125 129.54614258 C7.11727652 126.67022748 6.4916196 123.79545631 5.86328125 120.92114258 C5.68925781 120.11290039 5.51523438 119.3046582 5.3359375 118.47192383 C3.9959411 110.0822778 3.9959411 110.0822778 -0.82421875 103.73364258 C-5.63276799 103.47135807 -7.75603897 105.44699357 -11.50390625 108.26098633 Z M-126.26171875 105.54614258 C-127.66935932 108.76718767 -128.34780775 112.11653001 -129.07421875 115.54614258 C-129.29013672 116.47426758 -129.50605469 117.40239258 -129.72851562 118.35864258 C-130.8460295 122.90818378 -130.8460295 122.90818378 -131.26171875 127.54614258 C-126.52697778 125.84649197 -122.30004764 123.40955231 -117.94921875 120.92114258 C-117.20865234 120.5009082 -116.46808594 120.08067383 -115.70507812 119.64770508 C-113.88902864 118.61665763 -112.07515342 117.58178212 -110.26171875 116.54614258 C-109.84791472 114.22858871 -109.84791472 114.22858871 -110.26171875 111.54614258 C-112.40015715 109.19979663 -112.40015715 109.19979663 -115.19921875 107.23364258 C-116.11574219 106.53625977 -117.03226563 105.83887695 -117.9765625 105.12036133 C-121.3078634 102.82546516 -122.76247823 103.37023218 -126.26171875 105.54614258 Z M-43.26171875 105.54614258 C-44.67375309 107.16031462 -46.04184883 108.81309858 -47.38671875 110.48364258 C-52.3477406 116.1843954 -52.3477406 116.1843954 -56.82421875 116.67114258 C-57.95859375 116.62989258 -59.09296875 116.58864258 -60.26171875 116.54614258 C-60.67897553 119.92014836 -60.67897553 119.92014836 -60.26171875 123.54614258 C-58.1915699 125.57658214 -58.1915699 125.57658214 -55.26171875 126.54614258 C-52.09927745 125.95239851 -52.09927745 125.95239851 -48.8671875 124.43286133 C-47.66513672 123.9269043 -46.46308594 123.42094727 -45.22460938 122.8996582 C-43.96594157 122.34478278 -42.7074805 121.78943819 -41.44921875 121.23364258 C-40.17206559 120.68804844 -38.89407722 120.14440498 -37.61523438 119.6027832 C-34.48863817 118.26955539 -31.37199328 116.91691687 -28.26171875 115.54614258 C-30.04481337 111.53521396 -31.84575475 110.33656592 -35.76171875 108.29614258 C-36.74140625 107.77536133 -37.72109375 107.25458008 -38.73046875 106.71801758 C-41.09931473 105.40610139 -41.09931473 105.40610139 -43.26171875 105.54614258 Z M-109.26171875 119.54614258 C-111.14690882 120.33460413 -111.14690882 120.33460413 -113.17578125 121.60083008 C-114.31660156 122.2756543 -114.31660156 122.2756543 -115.48046875 122.96411133 C-116.27453125 123.44493164 -117.06859375 123.92575195 -117.88671875 124.42114258 C-119.08941406 125.13077148 -119.08941406 125.13077148 -120.31640625 125.85473633 C-123.32838446 127.63886482 -123.32838446 127.63886482 -126.26171875 129.54614258 C-126.26171875 129.87614258 -126.26171875 130.20614258 -126.26171875 130.54614258 C-115.86502234 130.65942377 -105.62675131 130.46601868 -95.26171875 129.54614258 C-96.07901915 125.72406131 -97.08572051 123.96993071 -100.26171875 121.54614258 C-103.82941427 120.81007759 -103.82941427 120.81007759 -107.26171875 120.54614258 C-107.92171875 120.21614258 -108.58171875 119.88614258 -109.26171875 119.54614258 Z M-95.26171875 119.54614258 C-94.04163931 122.23669538 -94.04163931 122.23669538 -92.26171875 124.54614258 C-89.92874442 124.58707195 -87.5946665 124.58855981 -85.26171875 124.54614258 C-87.35954662 122.44831471 -88.64163945 121.89520297 -91.38671875 120.92114258 C-92.11117187 120.66075195 -92.835625 120.40036133 -93.58203125 120.13208008 C-94.13632813 119.9387207 -94.690625 119.74536133 -95.26171875 119.54614258 Z M-35.05078125 121.51489258 C-35.99179688 121.92094727 -36.9328125 122.32700195 -37.90234375 122.74536133 C-38.8871875 123.17461914 -39.87203125 123.60387695 -40.88671875 124.04614258 C-41.87929687 124.47540039 -42.871875 124.9046582 -43.89453125 125.34692383 C-46.3516767 126.41011176 -48.80731392 127.47664658 -51.26171875 128.54614258 C-51.26171875 128.87614258 -51.26171875 129.20614258 -51.26171875 129.54614258 C-49.34575907 129.62748049 -47.42879943 129.68548625 -45.51171875 129.73364258 C-44.444375 129.76844727 -43.37703125 129.80325195 -42.27734375 129.83911133 C-38.91677237 129.51263095 -37.73959718 128.7456077 -35.26171875 126.54614258 C-34.58109375 126.25739258 -33.90046875 125.96864258 -33.19921875 125.67114258 C-30.57594822 124.14795324 -29.65231214 122.18827001 -28.26171875 119.54614258 C-30.90054348 119.54614258 -32.62752422 120.46384133 -35.05078125 121.51489258 Z M-27.38671875 123.29614258 C-28.56675789 125.60299665 -28.56675789 125.60299665 -27.31640625 128.18676758 C-26.79433594 129.3546582 -26.79433594 129.3546582 -26.26171875 130.54614258 C-16.58325449 131.18831556 -6.96790536 131.71445795 2.73828125 131.54614258 C-0.74918694 128.7684355 -4.52305739 126.56132787 -8.38671875 124.35864258 C-9.01964844 123.99061523 -9.65257812 123.62258789 -10.3046875 123.2434082 C-15.71779859 120.14609729 -22.20951937 119.03256662 -27.38671875 123.29614258 Z M-85.26171875 124.54614258 C-83.80214135 127.20783299 -83.80214135 127.20783299 -81.26171875 129.54614258 C-78.4603331 130.00056582 -76.12371 129.78464185 -73.26171875 129.54614258 C-76.54842278 126.25943855 -80.62040206 124.54614258 -85.26171875 124.54614258 Z M-130.26171875 134.54614258 C-124.59184461 141.4917384 -118.20878155 148.21138105 -110.26171875 152.54614258 C-107.83772114 152.28181974 -106.59927134 151.85072517 -104.78198242 150.2109375 C-103.32397274 148.39494024 -101.87340032 146.57637425 -100.44921875 144.73364258 C-99.67674805 143.78908203 -99.67674805 143.78908203 -98.88867188 142.82543945 C-98.16647461 141.90408203 -98.16647461 141.90408203 -97.4296875 140.96411133 C-96.98906982 140.4048999 -96.54845215 139.84568848 -96.09448242 139.26953125 C-95.04720895 137.52424991 -95.04720895 137.52424991 -95.6262207 135.33251953 C-95.83593506 134.74301514 -96.04564941 134.15351074 -96.26171875 133.54614258 C-100.05336866 133.51671133 -103.84498854 133.49920067 -107.63671875 133.48364258 C-108.69761719 133.47526367 -109.75851563 133.46688477 -110.8515625 133.45825195 C-117.38844079 133.43820018 -123.77346699 133.74033478 -130.26171875 134.54614258 Z M-81.26171875 133.54614258 C-82.12622427 135.78992211 -82.12622427 135.78992211 -82.26171875 138.54614258 C-80.68857953 141.18046783 -80.68857953 141.18046783 -78.32421875 143.67114258 C-74.17453531 148.44425263 -70.43564041 153.35893229 -66.79296875 158.52661133 C-66.28765625 159.19305664 -65.78234375 159.85950195 -65.26171875 160.54614258 C-64.93171875 160.54614258 -64.60171875 160.54614258 -64.26171875 160.54614258 C-64.11604468 156.98407536 -64.02752679 153.42277707 -63.94921875 149.85864258 C-63.90732422 148.85124023 -63.86542969 147.84383789 -63.82226562 146.8059082 C-63.74388569 142.05608418 -63.70113028 139.38702528 -66.38671875 135.35864258 C-69.78258373 133.21777118 -71.59842202 133.01519221 -75.57421875 133.23364258 C-76.64285156 133.27875977 -77.71148437 133.32387695 -78.8125 133.37036133 C-79.62074219 133.42836914 -80.42898437 133.48637695 -81.26171875 133.54614258 Z M-58.19921875 135.35864258 C-61.27112759 140.10613805 -60.80387993 144.3361744 -60.57421875 149.85864258 C-60.55166016 150.88538086 -60.52910156 151.91211914 -60.50585938 152.9699707 C-60.4470945 155.49686048 -60.36499724 158.02074513 -60.26171875 160.54614258 C-55.97684297 156.51471601 -52.5446129 152.09879776 -49.07421875 147.35864258 C-48.01964198 145.92661149 -46.96371219 144.49557554 -45.90625 143.06567383 C-45.44581299 142.43765869 -44.98537598 141.80964355 -44.51098633 141.16259766 C-43.26171875 139.54614258 -43.26171875 139.54614258 -41.26171875 137.54614258 C-41.26171875 136.22614258 -41.26171875 134.90614258 -41.26171875 133.54614258 C-43.48919201 133.41050483 -45.71906198 133.31386404 -47.94921875 133.23364258 C-49.19058594 133.17563477 -50.43195313 133.11762695 -51.7109375 133.05786133 C-55.32325456 133.31083252 -55.32325456 133.31083252 -58.19921875 135.35864258 Z M-25.26171875 134.54614258 C-26.73883996 136.64728447 -26.73883996 136.64728447 -27.26171875 139.54614258 C-25.72692722 142.11315665 -24.30236776 144.11538257 -22.38671875 146.35864258 C-21.90074219 146.95612305 -21.41476563 147.55360352 -20.9140625 148.16918945 C-19.71270009 149.64144731 -18.48924271 151.09562551 -17.26171875 152.54614258 C-8.863066 151.16931426 -0.61684648 142.8516684 4.73828125 136.54614258 C4.73828125 136.21614258 4.73828125 135.88614258 4.73828125 135.54614258 C-1.99356288 134.66927673 -8.54025555 134.42227061 -15.32421875 134.48364258 C-16.76571289 134.49041016 -16.76571289 134.49041016 -18.23632812 134.49731445 C-20.57819297 134.50896552 -22.91992056 134.52532232 -25.26171875 134.54614258 Z M-97.57421875 145.29614258 C-98.00283203 145.8349707 -98.43144531 146.37379883 -98.87304688 146.92895508 C-101.00980944 149.66241109 -102.86455055 152.36584812 -104.26171875 155.54614258 C-92.19908339 161.66523411 -79.79047956 165.04227812 -66.26171875 165.54614258 C-68.17295771 162.48292397 -70.20470285 159.51327703 -72.26171875 156.54614258 C-72.73931641 155.85488281 -73.21691406 155.16362305 -73.70898438 154.45141602 C-75.34646576 152.10915784 -77.01886719 149.79529705 -78.69921875 147.48364258 C-79.23635498 146.70899658 -79.77349121 145.93435059 -80.3269043 145.13623047 C-83.03250756 141.47882953 -84.30481845 139.77492114 -88.83984375 138.69067383 C-93.17157858 139.77360754 -95.02228211 141.83997643 -97.57421875 145.29614258 Z M-39.26171875 139.54614258 C-40.04675781 140.59672852 -40.83179687 141.64731445 -41.640625 142.72973633 C-42.70163319 144.14784705 -43.76284432 145.56580595 -44.82421875 146.98364258 C-45.6426123 148.07721069 -45.6426123 148.07721069 -46.47753906 149.19287109 C-49.97575568 153.85802393 -53.51792263 158.48190316 -57.15234375 163.04223633 C-58.36065654 164.36879784 -58.36065654 164.36879784 -58.26171875 165.54614258 C-44.73295794 165.04227812 -32.32435411 161.66523411 -20.26171875 155.54614258 C-21.79426157 152.2346179 -23.65641401 149.35534294 -25.82421875 146.42114258 C-26.44425781 145.55231445 -27.06429687 144.68348633 -27.703125 143.78833008 C-31.22588881 140.70120577 -34.71379496 140.21378392 -39.26171875 139.54614258 Z " fill="#FFFFFF" transform="translate(158.26171875,22.453857421875)"/>
</svg>
