<?xml version="1.0" encoding="UTF-8"?>
<svg version="1.1" xmlns="http://www.w3.org/2000/svg" width="512" height="512">
<path d="M0 0 C1.49703579 1.30765174 2.98547329 2.62512664 4.47363281 3.94287109 C5.39015625 4.74853516 6.30667969 5.55419922 7.25097656 6.38427734 C29.98714653 26.59040735 48.83426334 51.39206522 61.91113281 78.88037109 C62.38631348 79.87891113 62.86149414 80.87745117 63.35107422 81.90625 C67.64252532 91.0672676 71.27933816 100.3492247 74.47363281 109.94287109 C74.8168457 110.94084717 74.8168457 110.94084717 75.16699219 111.95898438 C82.96286 134.86077492 85.70374977 159.12590443 85.72363281 183.19287109 C85.72463989 184.03846588 85.72564697 184.88406067 85.72668457 185.75527954 C85.71599283 199.04495086 84.9994028 211.86765661 82.47363281 224.94287109 C82.33441406 225.7246875 82.19519531 226.50650391 82.05175781 227.31201172 C75.66627659 263.11209393 60.93427075 296.65262096 39.47363281 325.94287109 C39.04501953 326.52987793 38.61640625 327.11688477 38.17480469 327.72167969 C17.27215177 356.03599847 -10.93427474 381.14682487 -42.52636719 396.94287109 C-43.19087891 397.27641602 -43.85539062 397.60996094 -44.54003906 397.95361328 C-104.06468456 427.61123129 -170.4471538 432.1176539 -233.52246094 411.32177734 C-246.58298494 406.82067745 -259.05092827 400.83863315 -271.52636719 394.94287109 C-271.52636719 394.28287109 -271.52636719 393.62287109 -271.52636719 392.94287109 C-272.84314453 392.55421875 -272.84314453 392.55421875 -274.18652344 392.15771484 C-279.89413781 390.08161184 -284.59229496 386.42213198 -289.52636719 382.94287109 C-290.1112793 382.53359375 -290.69619141 382.12431641 -291.29882812 381.70263672 C-310.75636209 368.01844751 -329.09675477 351.9401306 -343.52636719 332.94287109 C-343.95369141 332.38664062 -344.38101563 331.83041016 -344.82128906 331.25732422 C-351.75346469 322.20124798 -357.88364568 312.84936683 -363.52636719 302.94287109 C-364.05746094 302.02248047 -364.58855469 301.10208984 -365.13574219 300.15380859 C-372.18438553 287.61025513 -378.00908166 274.59739327 -382.52636719 260.94287109 C-382.82978027 260.07484863 -383.13319336 259.20682617 -383.44580078 258.3125 C-401.56687259 205.76052925 -398.91721281 144.06688293 -377.52636719 92.94287109 C-377.18879395 92.12915039 -376.8512207 91.31542969 -376.50341797 90.47705078 C-352.10956014 32.35603299 -303.87915011 -14.94131166 -245.65136719 -38.93212891 C-238.05466658 -41.97346224 -230.35654437 -44.6791039 -222.52636719 -47.05712891 C-221.86072754 -47.2657959 -221.19508789 -47.47446289 -220.50927734 -47.68945312 C-145.68441585 -70.79996096 -58.89805843 -50.77106758 0 0 Z M-257.52636719 -24.05712891 C-255.83698888 -19.20016627 -253.21708867 -15.03113413 -250.52636719 -10.68212891 C-249.79921509 -9.50142822 -249.79921509 -9.50142822 -249.05737305 -8.296875 C-245.80451662 -3.04603906 -242.49066567 2.16226224 -239.08886719 7.31787109 C-238.68861328 7.92937012 -238.28835937 8.54086914 -237.87597656 9.17089844 C-234.66767884 13.979168 -234.66767884 13.979168 -230.52636719 17.94287109 C-228.15581523 18.13615233 -228.15581523 18.13615233 -225.71386719 17.56787109 C-221.14202937 16.71019723 -217.93696371 17.49979769 -213.52636719 18.94287109 C-203.14307574 5.40091627 -192.87254718 -8.2120696 -182.7734375 -21.96728516 C-178.44451966 -27.84914631 -174.02387783 -33.64853552 -169.51464844 -39.39306641 C-167.66609986 -41.86990359 -166.06121171 -44.37724165 -164.52636719 -47.05712891 C-197.13411135 -47.7750488 -228.27540096 -37.53652153 -257.52636719 -24.05712891 Z M-143.52636719 -47.05712891 C-140.7741593 -41.96164967 -137.71262984 -37.57353631 -134.02636719 -33.11962891 C-129.76786771 -27.8863553 -125.61696572 -22.59486539 -121.58886719 -17.18212891 C-113.03977229 -5.70243984 -104.35394541 5.67567125 -95.52636719 16.94287109 C-94.57761719 16.61287109 -93.62886719 16.28287109 -92.65136719 15.94287109 C-89.45316058 15.00927876 -86.59584402 14.83651885 -83.26855469 14.88037109 C-81.93219971 14.89390625 -81.93219971 14.89390625 -80.56884766 14.90771484 C-79.8948291 14.91931641 -79.22081055 14.93091797 -78.52636719 14.94287109 C-78.13481445 14.1519104 -78.13481445 14.1519104 -77.73535156 13.3449707 C-72.71285737 3.21312219 -67.63875444 -6.8701485 -62.21777344 -16.79541016 C-60.46963212 -20.16653717 -58.97950068 -23.55094443 -57.52636719 -27.05712891 C-84.36057741 -39.22312132 -113.89256202 -47.44198352 -143.52636719 -47.05712891 Z M-150.52636719 -41.05712891 C-150.52636719 -20.92712891 -150.52636719 -0.79712891 -150.52636719 19.94287109 C-147.55636719 21.59287109 -144.58636719 23.24287109 -141.52636719 24.94287109 C-139.09895781 27.97713282 -137.74736588 30.27987501 -136.52636719 33.94287109 C-125.96636719 33.61287109 -115.40636719 33.28287109 -104.52636719 32.94287109 C-100.48540549 22.95723034 -100.48540549 22.95723034 -103.43652344 18.14990234 C-104.45376912 16.9881501 -105.50729542 15.85748704 -106.58886719 14.75537109 C-107.73356675 13.46485625 -108.87541419 12.17180688 -110.01464844 10.87646484 C-110.60455566 10.22532715 -111.19446289 9.57418945 -111.80224609 8.90332031 C-114.4878324 5.84961626 -116.87448151 2.59613721 -119.27636719 -0.68212891 C-120.26464119 -2.01252961 -121.25427076 -3.34192421 -122.24511719 -4.67041016 C-123.02435547 -5.71575928 -123.02435547 -5.71575928 -123.81933594 -6.78222656 C-127.79285074 -12.07759425 -131.83034472 -17.32475986 -135.85180664 -22.58374023 C-140.07730429 -28.12125516 -144.2257346 -33.6968915 -148.24121094 -39.38916016 C-148.6653125 -39.93958984 -149.08941406 -40.49001953 -149.52636719 -41.05712891 C-149.85636719 -41.05712891 -150.18636719 -41.05712891 -150.52636719 -41.05712891 Z M-160.52636719 -38.05712891 C-162.42072546 -35.81117774 -164.26519572 -33.54709683 -166.08886719 -31.24462891 C-166.63607422 -30.5568335 -167.18328125 -29.86903809 -167.74707031 -29.16040039 C-171.42295722 -24.51520939 -174.96828812 -19.79578892 -178.41699219 -14.97900391 C-180.9938137 -11.40962893 -183.63126271 -7.88855123 -186.27636719 -4.36962891 C-186.78031006 -3.69834961 -187.28425293 -3.02707031 -187.8034668 -2.33544922 C-190.48232457 1.23072471 -193.16766157 4.79190243 -195.85839844 8.34912109 C-196.39948242 9.06624268 -196.94056641 9.78336426 -197.49804688 10.5222168 C-198.53177608 11.89211423 -199.56747526 13.26052812 -200.60546875 14.62719727 C-201.52688371 15.84938254 -202.43769056 17.07966995 -203.33544922 18.31933594 C-204.36005935 19.71614967 -205.45120054 21.06371922 -206.55371094 22.39990234 C-207.91953128 25.97078202 -206.77681594 27.97032775 -205.28808594 31.36865234 C-205.03671875 31.88814453 -204.78535156 32.40763672 -204.52636719 32.94287109 C-200.2236201 33.30989932 -195.92210828 33.61491528 -191.61132812 33.86450195 C-190.14760099 33.95780405 -188.6848259 34.06762664 -187.22363281 34.19458008 C-182.57108127 34.59232886 -178.14890545 34.81152252 -173.52636719 33.94287109 C-171.25066449 31.86503202 -170.21840953 30.14167429 -169.06201172 27.30004883 C-167.52636719 24.94287109 -167.52636719 24.94287109 -159.52636719 20.94287109 C-159.52636719 1.47287109 -159.52636719 -17.99712891 -159.52636719 -38.05712891 C-159.85636719 -38.05712891 -160.18636719 -38.05712891 -160.52636719 -38.05712891 Z M-50.52636719 -22.05712891 C-51.120625 -20.92919922 -51.71488281 -19.80126953 -52.32714844 -18.63916016 C-52.72248779 -17.88900635 -53.11782715 -17.13885254 -53.52514648 -16.3659668 C-54.40975824 -14.68502362 -55.29270208 -13.00320174 -56.17407227 -11.32055664 C-58.64093163 -6.61495422 -61.13426943 -1.92654315 -63.67480469 2.73974609 C-64.18229248 3.68180908 -64.68978027 4.62387207 -65.21264648 5.59448242 C-66.20188742 7.4302652 -67.20054912 9.26100716 -68.20922852 11.08618164 C-68.88248169 12.34362183 -68.88248169 12.34362183 -69.56933594 13.62646484 C-69.97176514 14.36437256 -70.37419434 15.10228027 -70.78881836 15.86254883 C-71.9252928 19.06807637 -70.9494183 21.04240086 -69.55371094 24.01318359 C-69.1940625 24.69123047 -68.83441406 25.36927734 -68.46386719 26.06787109 C-66.52636719 29.72223052 -66.52636719 29.72223052 -66.52636719 31.94287109 C-53.66492632 32.00440909 -40.82109114 31.82768847 -27.96386719 31.50537109 C-27.05469543 31.48330597 -26.14552368 31.46124084 -25.20880127 31.43850708 C-10.6411921 31.0841702 3.91669787 30.61231918 18.47363281 29.94287109 C17.81363281 29.61287109 17.15363281 29.28287109 16.47363281 28.94287109 C16.21453125 28.37955078 15.95542969 27.81623047 15.68847656 27.23583984 C14.0047071 24.05779266 11.57707004 21.75042862 9.03613281 19.25537109 C8.50044678 18.72572754 7.96476074 18.19608398 7.4128418 17.65039062 C2.3706058 12.73066514 -2.97038714 8.27270382 -8.52636719 3.94287109 C-9.533125 3.14236328 -10.53988281 2.34185547 -11.57714844 1.51708984 C-29.61713679 -14.06266853 -29.61713679 -14.06266853 -50.52636719 -22.05712891 Z M-307.52636719 9.94287109 C-308.84894531 11.09916016 -308.84894531 11.09916016 -310.19824219 12.27880859 C-316.19798012 17.58913565 -322.0597898 23.08083917 -327.52636719 28.94287109 C-327.52636719 29.27287109 -327.52636719 29.60287109 -327.52636719 29.94287109 C-319.10162427 30.20693036 -310.67679326 30.4679027 -302.25184059 30.72517395 C-298.33776881 30.84478921 -294.42373264 30.96537944 -290.50976562 31.08837891 C-266.52325713 31.87002833 -266.52325713 31.87002833 -242.52636719 31.94287109 C-239.25939753 26.7599775 -239.25939753 26.7599775 -238.96972656 20.89941406 C-240.09203825 18.75519092 -241.36297771 16.8453272 -242.77636719 14.88037109 C-243.27056152 14.1373877 -243.76475586 13.3944043 -244.27392578 12.62890625 C-245.37781964 10.97659389 -246.49710181 9.33449257 -247.62890625 7.70117188 C-249.73261464 4.64305332 -251.76865689 1.54572047 -253.79980469 -1.56103516 C-256.62357982 -5.86397571 -259.45233785 -10.16303285 -262.31542969 -14.43994141 C-262.91049316 -15.33084473 -263.50555664 -16.22174805 -264.11865234 -17.13964844 C-264.81547119 -18.08880127 -264.81547119 -18.08880127 -265.52636719 -19.05712891 C-278.59747036 -19.05712891 -298.22117747 1.70752939 -307.52636719 9.94287109 Z M-322.52636719 38.94287109 C-317.87200071 43.03871359 -312.60864006 45.83334571 -307.21386719 48.81787109 C-298.45468664 53.71226961 -289.74940724 58.68835939 -281.08886719 63.75537109 C-280.03465576 64.37202637 -278.98044434 64.98868164 -277.89428711 65.62402344 C-275.43755902 67.06235811 -272.98152754 68.50186251 -270.52636719 69.94287109 C-270.03587891 69.57758301 -269.54539062 69.21229492 -269.04003906 68.8359375 C-264.05008379 65.37942837 -261.21513156 64.52477314 -255.02636719 65.31787109 C-249.43342542 65.59913914 -249.43342542 65.59913914 -244.88574219 62.68896484 C-242.84595037 59.85214326 -241.14606428 57.03615857 -239.52636719 53.94287109 C-238.53274216 52.27239599 -237.53484156 50.60442375 -236.52636719 48.94287109 C-237.18636719 48.94287109 -237.84636719 48.94287109 -238.52636719 48.94287109 C-238.81511719 48.17974609 -239.10386719 47.41662109 -239.40136719 46.63037109 C-240.48905732 43.79257802 -240.48905732 43.79257802 -242.52636719 40.94287109 C-244.72608348 40.3676662 -244.72608348 40.3676662 -247.39355469 40.29052734 C-249.01729004 40.19408936 -249.01729004 40.19408936 -250.67382812 40.09570312 C-258.66518842 39.77868211 -266.65564875 39.55353503 -274.65136719 39.38037109 C-276.03518585 39.34860275 -276.03518585 39.34860275 -277.44696045 39.31619263 C-292.47564512 38.97195836 -307.49357227 38.80419217 -322.52636719 38.94287109 Z M-33.08886719 39.38037109 C-33.99288269 39.40001923 -34.89689819 39.41966736 -35.82830811 39.43991089 C-41.72915972 39.56984586 -47.62779941 39.73322151 -53.52636719 39.94287109 C-54.61582642 39.97926193 -54.61582642 39.97926193 -55.72729492 40.01638794 C-57.69359354 40.08900627 -59.65890887 40.18697971 -61.62402344 40.28662109 C-62.70562744 40.33882813 -63.78723145 40.39103516 -64.90161133 40.44482422 C-67.54268409 40.73381462 -67.54268409 40.73381462 -69.26245117 42.33154297 C-70.57561028 44.12370169 -70.57561028 44.12370169 -71.52636719 46.94287109 C-69.79243191 50.91035011 -67.20765146 54.21801583 -64.58886719 57.63037109 C-63.92467773 58.52079102 -63.92467773 58.52079102 -63.24707031 59.42919922 C-60.52897039 63.02326824 -60.52897039 63.02326824 -56.52636719 64.94287109 C-53.52327781 64.93431528 -50.53441622 64.81288822 -47.53417969 64.68505859 C-44.52636719 64.94287109 -44.52636719 64.94287109 -41.95605469 66.57568359 C-41.15425781 67.02685547 -40.35246094 67.47802734 -39.52636719 67.94287109 C-35.82885905 66.77322732 -32.53974823 64.92955512 -29.16699219 63.03662109 C-28.14114014 62.46210205 -27.11528809 61.88758301 -26.05834961 61.2956543 C-24.97529541 60.68423584 -23.89224121 60.07281738 -22.77636719 59.44287109 C-21.66559814 58.81791748 -20.5548291 58.19296387 -19.41040039 57.54907227 C-12.81836541 53.8300123 -6.24474794 50.08089372 0.28613281 46.25537109 C0.96579102 45.85833984 1.64544922 45.46130859 2.34570312 45.05224609 C5.5268807 43.1726826 8.57738813 41.24089899 11.47363281 38.94287109 C-3.38758049 38.79589206 -18.23220998 39.03924706 -33.08886719 39.38037109 Z M-207.82617188 44.83886719 C-208.38723633 45.86318848 -208.94830078 46.88750977 -209.52636719 47.94287109 C-212.95306739 51.18921865 -215.92368346 52.88071331 -220.52636719 53.94287109 C-221.98514956 53.78018161 -223.44345834 53.61321096 -224.90136719 53.44287109 C-228.29177066 53.32833044 -229.23623475 53.67490155 -231.77636719 56.02099609 C-233.82242055 58.5936073 -235.69779217 61.21241971 -237.52636719 63.94287109 C-238.38101563 65.03341797 -238.38101563 65.03341797 -239.25292969 66.14599609 C-240.71910524 67.84777227 -240.71910524 67.84777227 -240.52636719 69.94287109 C-234.53476726 68.03513726 -228.73762769 65.86646218 -222.96386719 63.38037109 C-221.30264261 62.67279079 -219.64117182 61.96578834 -217.97949219 61.25927734 C-217.10228516 60.88561035 -216.22507813 60.51194336 -215.32128906 60.12695312 C-210.29627106 57.99808019 -205.25385528 55.91099169 -200.21386719 53.81787109 C-191.62751038 50.24708452 -183.05971838 46.63865348 -174.52636719 42.94287109 C-174.52636719 42.61287109 -174.52636719 42.28287109 -174.52636719 41.94287109 C-178.86785774 41.79429428 -183.20799451 41.68555674 -187.55126953 41.61328125 C-189.02776874 41.58314861 -190.50408951 41.54223231 -191.97998047 41.49023438 C-194.10526498 41.41724481 -196.22818112 41.38338618 -198.35449219 41.35693359 C-199.63227539 41.3255127 -200.91005859 41.2940918 -202.2265625 41.26171875 C-205.78076047 41.62770981 -205.78076047 41.62770981 -207.82617188 44.83886719 Z M-135.52636719 41.94287109 C-133.22101359 43.47977349 -131.24772739 44.5980512 -128.75292969 45.71240234 C-128.0173584 46.04119385 -127.28178711 46.36998535 -126.52392578 46.70874023 C-125.74098145 47.05412842 -124.95803711 47.3995166 -124.15136719 47.75537109 C-123.34135254 48.11429443 -122.53133789 48.47321777 -121.69677734 48.84301758 C-116.12446889 51.29172348 -110.50100284 53.5329633 -104.79980469 55.66552734 C-100.99115471 57.15171892 -97.26223601 58.78405859 -93.52636719 60.44287109 C-84.40228269 64.48442654 -75.21584429 68.46416765 -65.52636719 70.94287109 C-68.81591431 64.20013629 -72.83079388 56.93834159 -78.52636719 51.94287109 C-81.95597882 51.02802432 -84.30119531 51.19205582 -87.79589844 51.65771484 C-92.24327433 52.12217613 -94.04142629 50.64547832 -97.52636719 47.94287109 C-98.25557373 46.91597168 -98.98478027 45.88907227 -99.73608398 44.83105469 C-101.96250876 42.11530978 -102.40321702 41.96619214 -106.12329102 41.26171875 C-107.49369408 41.26265929 -108.86434943 41.29602182 -110.23339844 41.35693359 C-110.95879318 41.36542328 -111.68418793 41.37391296 -112.43156433 41.38265991 C-114.73554676 41.41609708 -117.0359537 41.49133995 -119.33886719 41.56787109 C-120.90587371 41.59798404 -122.47293543 41.62535754 -124.04003906 41.64990234 C-127.87018075 41.7158541 -131.69766909 41.81929315 -135.52636719 41.94287109 Z M16.47363281 45.31787109 C4.26473203 52.70883225 -8.07798208 59.86318422 -20.48266602 66.91992188 C-22.13412791 67.85978848 -23.78159822 68.80672044 -25.42407227 69.76220703 C-27.52636719 70.94287109 -27.52636719 70.94287109 -30.55371094 72.29833984 C-33.09050239 74.41316995 -33.46641464 76.36011694 -33.78100586 79.59155273 C-34.00120734 86.62915267 -34.00120734 86.62915267 -31.11132812 92.88183594 C-27.35932159 96.65751119 -23.05386358 99.64587496 -18.61767578 102.56201172 C-16.7012759 103.82738152 -14.8533721 105.14610911 -13.01464844 106.52099609 C-10.54343783 108.36875095 -8.04816041 110.16559025 -5.52636719 111.94287109 C2.45709675 109.22197132 2.45709675 109.22197132 8.00732422 103.2578125 C9.00421422 99.9360759 9.68994476 96.67189748 10.28613281 93.25537109 C10.81362458 90.745739 11.34364307 88.23663689 11.87597656 85.72802734 C12.13233887 84.44428223 12.38870117 83.16053711 12.65283203 81.83789062 C13.97600115 75.55893757 15.67354868 69.38541158 17.34863281 63.19287109 C19.16428568 56.44377265 20.81725729 49.91054972 21.47363281 42.94287109 C19.60604326 42.94287109 18.01978174 44.37242192 16.47363281 45.31787109 Z M-340.52636719 44.94287109 C-359.97764129 70.43848948 -359.97764129 70.43848948 -369.52636719 99.94287109 C-362.19855942 103.17485135 -354.77027404 105.9859064 -347.21386719 108.63037109 C-346.36663086 108.92758057 -345.51939453 109.22479004 -344.64648438 109.53100586 C-343.02423442 110.09349855 -341.39890456 110.64720682 -339.77026367 111.19091797 C-338.34030113 111.67011334 -336.91681232 112.1694222 -335.50317383 112.69482422 C-333.48073599 113.44178322 -333.48073599 113.44178322 -330.52636719 113.94287109 C-328.23465933 112.93623244 -328.23465933 112.93623244 -326.58886719 111.06787109 C-325.56803385 110.02620443 -324.54720052 108.98453776 -323.52636719 107.94287109 C-326.51117692 95.92812048 -329.56899183 83.93292393 -332.65136719 71.94287109 C-333.31740837 69.35088099 -333.98329589 66.75885164 -334.64889526 64.16674805 C-335.05822568 62.57276425 -335.46781276 60.97884633 -335.87771606 59.38500977 C-337.11309954 54.57563658 -338.32654356 49.76124288 -339.52636719 44.94287109 C-339.85636719 44.94287109 -340.18636719 44.94287109 -340.52636719 44.94287109 Z M-330.52636719 44.94287109 C-329.8800993 50.02458626 -328.88874195 54.93503867 -327.63574219 59.90380859 C-327.4492511 60.65264313 -327.26276001 61.40147766 -327.07061768 62.17300415 C-326.67560351 63.75509315 -326.27882342 65.33674216 -325.88037109 66.91796875 C-325.28709163 69.27525941 -324.7012276 71.63429941 -324.11621094 73.99365234 C-323.150159 77.86957319 -322.15463844 81.73696794 -321.13891602 85.60015869 C-320.72285522 87.19139637 -320.31341327 88.78437641 -319.90991211 90.37884521 C-319.30757079 92.74461845 -318.67830857 95.10166476 -318.04199219 97.45849609 C-317.86383972 98.17742035 -317.68568726 98.8963446 -317.50213623 99.63705444 C-316.56746285 102.98736051 -315.98596124 104.64182891 -313.02539062 106.58105469 C-310.55598269 107.38919706 -310.55598269 107.38919706 -308.02636719 107.59130859 C-304.97464275 108.02045734 -303.06629982 109.24655894 -300.52636719 110.94287109 C-299.73875 110.33701172 -298.95113281 109.73115234 -298.13964844 109.10693359 C-297.61902832 108.70772705 -297.0984082 108.30852051 -296.56201172 107.8972168 C-295.40046173 107.00112163 -294.24396044 106.09844859 -293.09228516 105.18969727 C-290.05737266 102.80981663 -287.0275953 100.58887076 -283.73339844 98.57958984 C-278.85014478 95.49364483 -275.15330051 93.07716034 -273.44433594 87.25927734 C-273.32601219 82.83747499 -273.71916452 79.98756277 -275.52636719 75.94287109 C-279.19560341 72.69680979 -283.16507484 70.78132876 -287.60107422 68.83886719 C-290.63658685 67.42619519 -293.39717588 65.62014776 -296.21386719 63.81787109 C-301.0249893 60.82843599 -305.90248552 58.05262666 -310.89746094 55.38427734 C-313.57526723 53.91605963 -316.17397085 52.35292058 -318.77636719 50.75537109 C-322.59615739 48.4305467 -326.36487517 46.57128101 -330.52636719 44.94287109 Z M29.47363281 45.94287109 C29.33376953 46.50756104 29.19390625 47.07225098 29.04980469 47.65405273 C28.35924943 50.43820055 27.66656375 53.22181359 26.97363281 56.00537109 C26.71243652 57.05708496 26.45124023 58.10879883 26.18212891 59.19238281 C24.59585494 65.54944707 22.96823176 71.89371083 21.29394531 78.22802734 C20.92599676 79.62700558 20.55815782 81.02601264 20.19042969 82.42504883 C19.64830836 84.48730521 19.10376549 86.54874741 18.55102539 88.60818481 C18.03172675 90.54352952 17.52204516 92.48144677 17.01269531 94.41943359 C16.71572754 95.53398926 16.41875977 96.64854492 16.11279297 97.796875 C15.46790743 100.97105186 15.22283761 103.71482845 15.47363281 106.94287109 C17.25787041 108.91853155 17.25787041 108.91853155 19.72363281 110.25537109 C20.51253906 110.74650391 21.30144531 111.23763672 22.11425781 111.74365234 C27.24029451 114.34910477 30.4163571 113.66215854 35.79394531 111.92333984 C36.49381561 111.70470779 37.19368591 111.48607574 37.9147644 111.26081848 C39.39052321 110.7973447 40.86471581 110.32885808 42.33740234 109.85571289 C44.59387473 109.13189736 46.85535349 108.42588583 49.11816406 107.72216797 C50.55208782 107.26943582 51.98569324 106.81569393 53.41894531 106.36083984 C54.09603546 106.14928757 54.77312561 105.93773529 55.47073364 105.71977234 C58.38729766 104.77507966 60.27393698 104.14256693 62.47363281 101.94287109 C54.89195655 82.31297212 45.24908961 62.06546454 31.47363281 45.94287109 C30.81363281 45.94287109 30.15363281 45.94287109 29.47363281 45.94287109 Z M-177.70605469 52.92724609 C-178.76646973 53.36222412 -179.82688477 53.79720215 -180.91943359 54.24536133 C-182.06847168 54.72303955 -183.21750977 55.20071777 -184.40136719 55.69287109 C-185.58778809 56.18150635 -186.77420898 56.6701416 -187.99658203 57.17358398 C-190.52927948 58.21680965 -193.06056361 59.26336869 -195.59082031 60.3125 C-198.88339481 61.67750638 -202.17851998 63.03621505 -205.47470093 64.39248657 C-208.70095928 65.72007724 -211.92621391 67.05009856 -215.15136719 68.38037109 C-216.95323486 69.12335449 -216.95323486 69.12335449 -218.79150391 69.88134766 C-225.07668962 72.48266447 -231.33096832 75.13384616 -237.52636719 77.94287109 C-237.98987257 81.44233676 -238.24301436 84.4544856 -237.52636719 87.94287109 C-235.08701822 90.80233016 -231.81149384 92.19739027 -228.52636719 93.94287109 C-227.10687477 94.81955616 -225.69324801 95.705778 -224.28417969 96.59912109 C-222.76134831 97.54801119 -221.23790564 98.49592093 -219.71386719 99.44287109 C-218.97273682 99.91337891 -218.23160645 100.38388672 -217.46801758 100.86865234 C-216.75895264 101.29533203 -216.0498877 101.72201172 -215.31933594 102.16162109 C-214.68535889 102.55285156 -214.05138184 102.94408203 -213.39819336 103.34716797 C-211.47015766 104.18040696 -211.47015766 104.18040696 -209.4284668 103.09155273 C-208.48692749 102.52295532 -208.48692749 102.52295532 -207.52636719 101.94287109 C-200.99314001 100.18921538 -194.2610331 99.4006656 -187.52636719 98.94287109 C-186.09164062 98.80945313 -186.09164062 98.80945313 -184.62792969 98.67333984 C-177.44693164 98.25942173 -177.44693164 98.25942173 -174.72167969 100.28271484 C-173.33886719 101.94287109 -173.33886719 101.94287109 -171.52636719 104.94287109 C-169.35133054 103.93303265 -167.49047202 102.91508129 -165.58886719 101.44287109 C-163.52636719 99.94287109 -163.52636719 99.94287109 -158.52636719 97.94287109 C-158.52636719 84.74287109 -158.52636719 71.54287109 -158.52636719 57.94287109 C-161.16636719 56.62287109 -163.80636719 55.30287109 -166.52636719 53.94287109 C-167.51636719 52.95287109 -168.50636719 51.96287109 -169.52636719 50.94287109 C-172.84754869 50.94287109 -174.64949513 51.66483462 -177.70605469 52.92724609 Z M-143.52636719 53.88037109 C-145.97820738 55.84462943 -147.50642746 56.93622452 -150.52636719 57.94287109 C-150.52636719 71.14287109 -150.52636719 84.34287109 -150.52636719 97.94287109 C-146.56636719 99.92287109 -146.56636719 99.92287109 -142.52636719 101.94287109 C-139.12286032 105.42036725 -137.21902408 108.43674397 -135.52636719 112.94287109 C-134.41777344 112.85908203 -133.30917969 112.77529297 -132.16699219 112.68896484 C-130.70347391 112.58576804 -129.23993088 112.48292184 -127.77636719 112.38037109 C-127.04675781 112.32429688 -126.31714844 112.26822266 -125.56542969 112.21044922 C-119.91667019 111.82530653 -119.91667019 111.82530653 -117.51464844 112.54882812 C-114.92398509 113.06225281 -114.05803063 112.48024205 -111.82324219 111.12646484 C-110.74042969 110.48451172 -110.74042969 110.48451172 -109.63574219 109.82958984 C-108.85714844 109.35134766 -108.07855469 108.87310547 -107.27636719 108.38037109 C-105.58396372 107.36814244 -103.89123892 106.35645092 -102.19824219 105.34521484 C-101.29138672 104.79849121 -100.38453125 104.25176758 -99.45019531 103.68847656 C-96.33151587 101.82653952 -93.19058624 100.00763886 -90.04199219 98.19677734 C-88.41825684 97.26103882 -88.41825684 97.26103882 -86.76171875 96.30639648 C-84.62945495 95.07823699 -82.49601734 93.85211281 -80.36132812 92.62817383 C-79.38454102 92.06171143 -78.40775391 91.49524902 -77.40136719 90.91162109 C-76.53253906 90.41082031 -75.66371094 89.91001953 -74.76855469 89.39404297 C-71.8105914 87.51901813 -71.8105914 87.51901813 -69.52636719 84.94287109 C-69.27588083 81.81738092 -69.27588083 81.81738092 -69.52636719 78.94287109 C-77.97979348 74.96210707 -86.48109193 71.23924296 -95.15136719 67.75537109 C-97.49783867 66.80774488 -99.84418902 65.85981866 -102.19042969 64.91162109 C-103.38829102 64.42822266 -104.58615234 63.94482422 -105.8203125 63.44677734 C-109.61147073 61.90833632 -113.39409471 60.35048635 -117.17480469 58.78662109 C-118.41871875 58.27368965 -119.66269574 57.76091079 -120.90673828 57.24829102 C-123.28365545 56.26792892 -125.65903668 55.28383294 -128.03271484 54.2956543 C-129.10312012 53.85568115 -130.17352539 53.41570801 -131.27636719 52.96240234 C-132.21996094 52.57157471 -133.16355469 52.18074707 -134.13574219 51.77807617 C-138.47811171 50.2609963 -140.1157132 51.13505302 -143.52636719 53.88037109 Z M-67.52636719 93.94287109 C-85.86829035 104.38657094 -85.86829035 104.38657094 -103.91308594 115.32958984 C-107.0749483 117.28153178 -110.29257542 119.11264862 -113.52636719 120.94287109 C-108.91288462 129.13858718 -104.17856329 137.25370874 -99.33886719 145.31787109 C-98.84032227 146.14899414 -98.34177734 146.98011719 -97.828125 147.83642578 C-94.77842413 152.90440045 -91.67939521 157.93853181 -88.52636719 162.94287109 C-86.62951172 162.78238281 -86.62951172 162.78238281 -84.69433594 162.61865234 C-83.03424074 162.49672445 -81.37408076 162.37567642 -79.71386719 162.25537109 C-78.88048828 162.18253906 -78.04710937 162.10970703 -77.18847656 162.03466797 C-76.38603516 161.97988281 -75.58359375 161.92509766 -74.75683594 161.86865234 C-74.01844482 161.81104736 -73.28005371 161.75344238 -72.51928711 161.6940918 C-69.93299482 162.01694269 -69.21174378 163.02404198 -67.52636719 164.94287109 C-65.42854661 165.93583872 -65.42854661 165.93583872 -63.15136719 166.75537109 C-58.48597189 168.74290535 -56.3543164 170.74379498 -53.52636719 174.94287109 C-52.86636719 176.59287109 -52.20636719 178.24287109 -51.52636719 179.94287109 C-43.60636719 179.94287109 -35.68636719 179.94287109 -27.52636719 179.94287109 C-25.87636719 176.97287109 -24.22636719 174.00287109 -22.52636719 170.94287109 C-21.53636719 169.45787109 -21.53636719 169.45787109 -20.52636719 167.94287109 C-21.05279326 165.70122713 -21.05279326 165.70122713 -22.23730469 163.32177734 C-22.65375244 162.39671387 -23.0702002 161.47165039 -23.49926758 160.51855469 C-23.96196045 159.5242041 -24.42465332 158.52985352 -24.90136719 157.50537109 C-25.8478674 155.40623155 -26.79183809 153.30594979 -27.73339844 151.20458984 C-28.2085791 150.14933105 -28.68375977 149.09407227 -29.17333984 148.00683594 C-31.09511614 143.65492461 -32.85386988 139.24684442 -34.58886719 134.81787109 C-37.43494098 127.61155976 -40.37214068 120.44926407 -43.40136719 113.31787109 C-43.78301025 112.41020996 -44.16465332 111.50254883 -44.55786133 110.56738281 C-44.91614014 109.72965332 -45.27441895 108.89192383 -45.64355469 108.02880859 C-46.11704346 106.91578369 -46.11704346 106.91578369 -46.60009766 105.78027344 C-47.49607245 103.76442912 -47.49607245 103.76442912 -49.52636719 101.94287109 C-51.88518336 101.46935409 -54.23963615 101.18228996 -56.62792969 100.89599609 C-60.91027665 99.48778496 -64.05690918 96.76228051 -67.52636719 93.94287109 Z M-244.52636719 97.81787109 C-249.09996714 101.0575044 -254.1151131 101.42152001 -259.56469727 102.25439453 C-261.97100497 102.84858513 -261.97100497 102.84858513 -263.31542969 106.35302734 C-263.9426428 107.89771006 -264.55335926 109.4491489 -265.15136719 111.00537109 C-265.85145199 112.74773386 -266.55199447 114.48991277 -267.25292969 116.23193359 C-267.62063477 117.16038086 -267.98833984 118.08882812 -268.3671875 119.04541016 C-269.94930671 123.00004175 -271.601318 126.92394815 -273.25317383 130.84985352 C-274.94707736 134.88176618 -276.61907305 138.92260677 -278.29052734 142.96386719 C-279.11138774 144.94255912 -279.93655493 146.91947011 -280.76611328 148.89453125 C-281.92583801 151.65642716 -283.07139364 154.42380338 -284.21386719 157.19287109 C-284.74077148 158.43411743 -284.74077148 158.43411743 -285.27832031 159.70043945 C-285.59091797 160.46622314 -285.90351563 161.23200684 -286.22558594 162.02099609 C-286.50233154 162.68518555 -286.77907715 163.349375 -287.06420898 164.03369141 C-287.63281262 166.38259814 -287.35674253 167.6881293 -286.52636719 169.94287109 C-285.19826504 171.61370928 -283.86464023 173.28016823 -282.52636719 174.94287109 C-281.86636719 176.59287109 -281.20636719 178.24287109 -280.52636719 179.94287109 C-264.68636719 179.94287109 -248.84636719 179.94287109 -232.52636719 179.94287109 C-233.84636719 178.62287109 -235.16636719 177.30287109 -236.52636719 175.94287109 C-237.33178711 173.76391602 -237.33178711 173.76391602 -237.75683594 171.42333984 C-237.91990234 170.56546875 -238.08296875 169.70759766 -238.25097656 168.82373047 C-238.48010742 167.49051758 -238.48010742 167.49051758 -238.71386719 166.13037109 C-238.87822266 165.25316406 -239.04257813 164.37595703 -239.21191406 163.47216797 C-240.10384862 158.64416591 -240.85857976 153.80730429 -241.52636719 148.94287109 C-241.73261719 147.68474609 -241.93886719 146.42662109 -242.15136719 145.13037109 C-242.08133841 139.92823354 -238.55663587 137.11940941 -235.10058594 133.58740234 C-232.52555491 130.94203663 -230.2130726 128.19457163 -227.90136719 125.31787109 C-224.63211773 121.25433215 -221.24218958 117.37368925 -217.64355469 113.59912109 C-217.27488281 113.05255859 -216.90621094 112.50599609 -216.52636719 111.94287109 C-217.79325668 108.14220263 -218.84373781 107.97293699 -222.33886719 106.19287109 C-227.70796688 103.39587937 -232.90395199 100.38052496 -238.09277344 97.26318359 C-241.31431457 95.51538118 -241.81600672 95.27690816 -244.52636719 97.81787109 Z M-276.40136719 102.38037109 C-279.87533734 105.14267519 -283.31771625 107.85689354 -287.05371094 110.25927734 C-292.93458756 113.79206865 -292.93458756 113.79206865 -296.16699219 119.44677734 C-296.13049915 122.00478153 -296.13049915 122.00478153 -295.76464844 124.52099609 C-295.2628462 129.62128118 -297.69256844 133.7442854 -300.52636719 137.81787109 C-302.52636719 139.94287109 -302.52636719 139.94287109 -305.52636719 141.94287109 C-304.29685045 149.42122586 -302.63807482 156.66451879 -300.52636719 163.94287109 C-298.87636719 164.27287109 -297.22636719 164.60287109 -295.52636719 164.94287109 C-295.18605469 164.08048828 -294.84574219 163.21810547 -294.49511719 162.32958984 C-291.64321438 155.14673888 -288.72692196 147.99718257 -285.71386719 140.88037109 C-282.69823277 133.74937745 -279.71810144 126.60469125 -276.77636719 119.44287109 C-276.4118042 118.55978271 -276.04724121 117.67669434 -275.67163086 116.7668457 C-273.12476362 110.54913344 -270.78078497 104.27223245 -268.52636719 97.94287109 C-271.80344242 97.94287109 -273.92805009 100.41290273 -276.40136719 102.38037109 Z M-38.52636719 97.94287109 C-39.18636719 98.60287109 -39.84636719 99.26287109 -40.52636719 99.94287109 C-40.27580566 100.54421875 -40.02524414 101.14556641 -39.76708984 101.76513672 C-39.41179199 102.61785156 -39.05649414 103.47056641 -38.69042969 104.34912109 C-38.29057861 105.30874756 -37.89072754 106.26837402 -37.47875977 107.25708008 C-36.58271759 109.40761426 -35.68672262 111.55816812 -34.79077148 113.70874023 C-32.48887605 119.23385081 -30.18632336 124.75868482 -27.88183594 130.28271484 C-23.0679206 141.82437934 -18.27354663 153.37358609 -13.52636719 164.94287109 C-11.05136719 164.44787109 -11.05136719 164.44787109 -8.52636719 163.94287109 C-7.46119279 160.3660994 -6.42840129 156.78076314 -5.40136719 153.19287109 C-5.0984375 152.17708984 -4.79550781 151.16130859 -4.48339844 150.11474609 C-4.20625 149.13505859 -3.92910156 148.15537109 -3.64355469 147.14599609 C-3.38171387 146.24526367 -3.11987305 145.34453125 -2.85009766 144.41650391 C-2.46901501 141.50464163 -2.97453972 140.38365159 -4.52636719 137.94287109 C-7.28838692 133.26307162 -8.65901341 129.95580051 -8.65136719 124.44287109 C-8.86784833 121.02152779 -9.09897694 119.44271591 -11.34667969 116.81396484 C-13.99022721 114.71017702 -16.72419355 112.83019627 -19.52636719 110.94287109 C-21.84156835 109.20209811 -24.11910497 107.41399595 -26.40136719 105.63037109 C-28.43872398 104.06213461 -30.48222967 102.50228765 -32.52636719 100.94287109 C-33.27144531 100.35119141 -34.01652344 99.75951172 -34.78417969 99.14990234 C-36.44712033 97.75303861 -36.44712033 97.75303861 -38.52636719 97.94287109 Z M-373.52636719 107.94287109 C-380.15339206 127.04965416 -385.77065291 147.58287026 -385.58886719 167.94287109 C-385.58435547 168.62220703 -385.57984375 169.30154297 -385.57519531 170.00146484 C-385.56359549 171.64863983 -385.54566917 173.29576836 -385.52636719 174.94287109 C-380.43091143 172.19067588 -376.04268102 169.12924369 -371.58886719 165.44287109 C-365.62796537 160.5905562 -359.56259472 155.91471643 -353.39697266 151.32617188 C-347.91682184 147.24606943 -342.49974098 143.09035541 -337.10058594 138.90380859 C-335.28735331 137.52256007 -333.42294184 136.2072542 -331.52636719 134.94287109 C-331.67074219 134.25580078 -331.81511719 133.56873047 -331.96386719 132.86083984 C-332.14949219 131.95978516 -332.33511719 131.05873047 -332.52636719 130.13037109 C-332.71199219 129.23705078 -332.89761719 128.34373047 -333.08886719 127.42333984 C-333.52636719 124.94287109 -333.52636719 124.94287109 -333.52636719 121.94287109 C-337.62986801 120.35780842 -341.73429011 118.77514444 -345.83886719 117.19287109 C-347.56073242 116.52771484 -347.56073242 116.52771484 -349.31738281 115.84912109 C-352.71744133 114.53918353 -356.12061339 113.23792556 -359.52636719 111.94287109 C-360.58388184 111.54003906 -361.64139648 111.13720703 -362.73095703 110.72216797 C-363.70887207 110.35671875 -364.68678711 109.99126953 -365.69433594 109.61474609 C-366.98827271 109.12893066 -366.98827271 109.12893066 -368.30834961 108.63330078 C-370.61660693 107.79426329 -370.61660693 107.79426329 -373.52636719 107.94287109 Z M64.47363281 110.94287109 C63.55066406 111.23419922 62.62769531 111.52552734 61.67675781 111.82568359 C50.63864161 115.29804317 39.56252984 118.63665282 28.47363281 121.94287109 C28.13728906 123.87985076 27.80466116 125.81747595 27.47363281 127.75537109 C27.28800781 128.83431641 27.10238281 129.91326172 26.91113281 131.02490234 C26.39949496 133.94558007 26.39949496 133.94558007 26.47363281 136.94287109 C28.72231736 138.84536851 30.95424655 140.55300559 33.34863281 142.25537109 C34.82248479 143.33055683 36.29509453 144.40744702 37.76660156 145.48583984 C38.92554932 146.33154541 38.92554932 146.33154541 40.10791016 147.19433594 C44.01409733 150.08144766 47.83640426 153.07416031 51.66113281 156.06787109 C53.16621578 157.24251091 54.67142217 158.4169926 56.17675781 159.59130859 C56.89798828 160.15430664 57.61921875 160.71730469 58.36230469 161.29736328 C61.53778382 163.77223948 64.72214026 166.23544139 67.91113281 168.69287109 C68.92046875 169.47146484 69.92980469 170.25005859 70.96972656 171.05224609 C72.76273327 172.40609203 74.60424486 173.69661246 76.47363281 174.94287109 C76.71582512 166.71661263 76.03093302 158.83014613 74.84863281 150.69287109 C74.67477051 149.48518066 74.5009082 148.27749023 74.32177734 147.03320312 C72.36693981 127.72774856 72.36693981 127.72774856 64.47363281 110.94287109 Z M-331.96386719 144.75537109 C-332.48537354 145.16408447 -333.00687988 145.57279785 -333.54418945 145.99389648 C-334.6514899 146.86228007 -335.75484151 147.73571902 -336.85449219 148.61376953 C-338.99939242 150.3189151 -341.17416641 151.98301819 -343.35107422 153.64697266 C-346.08324315 155.73642428 -348.8038848 157.84082386 -351.52636719 159.94287109 C-353.71315108 161.63130187 -355.90062387 163.31883217 -358.08886719 165.00537109 C-358.61818848 165.41384277 -359.14750977 165.82231445 -359.69287109 166.24316406 C-362.44856639 168.36441837 -365.21782756 170.46455929 -368.01074219 172.53662109 C-368.56947021 172.95161865 -369.12819824 173.36661621 -369.70385742 173.79418945 C-371.253118 174.94184986 -372.80566454 176.08507057 -374.35839844 177.22802734 C-375.07382812 177.79392578 -375.78925781 178.35982422 -376.52636719 178.94287109 C-376.52636719 179.27287109 -376.52636719 179.60287109 -376.52636719 179.94287109 C-357.05636719 179.94287109 -337.58636719 179.94287109 -317.52636719 179.94287109 C-316.53636719 177.30287109 -315.54636719 174.66287109 -314.52636719 171.94287109 C-312.67687704 169.7828826 -310.87224355 168.61104984 -308.52636719 166.94287109 C-310.00602848 159.23122458 -311.72932084 151.58630821 -313.52636719 143.94287109 C-314.12964844 143.81009766 -314.73292969 143.67732422 -315.35449219 143.54052734 C-316.15371094 143.36392578 -316.95292969 143.18732422 -317.77636719 143.00537109 C-318.56527344 142.83134766 -319.35417969 142.65732422 -320.16699219 142.47802734 C-322.52636719 141.94287109 -322.52636719 141.94287109 -324.48339844 141.13818359 C-327.82172425 140.81903199 -329.4089115 142.72041996 -331.96386719 144.75537109 Z M14.72363281 142.94287109 C11.14476628 144.0440608 8.1965324 144.01344739 4.47363281 143.94287109 C3.8253372 146.65063604 3.17992679 149.35903554 2.53613281 152.06787109 C2.35373047 152.82841797 2.17132813 153.58896484 1.98339844 154.37255859 C0.99373108 158.54715543 0.11790302 162.69746949 -0.52636719 166.94287109 C0.86582031 167.80912109 0.86582031 167.80912109 2.28613281 168.69287109 C7.08553765 172.08068627 8.26716331 174.42669735 10.47363281 179.94287109 C29.61363281 179.94287109 48.75363281 179.94287109 68.47363281 179.94287109 C65.39112331 176.86036159 62.74056434 174.23490565 59.36425781 171.63818359 C58.60886719 171.05423828 57.85347656 170.47029297 57.07519531 169.86865234 C55.91117187 168.97726563 55.91117187 168.97726563 54.72363281 168.06787109 C53.18717448 166.88297526 51.65071615 165.69807943 50.11425781 164.51318359 C49.34742676 163.92384033 48.5805957 163.33449707 47.79052734 162.72729492 C45.4942631 160.95876011 43.20548919 159.18098152 40.91894531 157.39990234 C36.658331 154.08464665 32.3926931 150.77723156 28.09863281 147.50537109 C27.40125 146.96460938 26.70386719 146.42384766 25.98535156 145.86669922 C25.31375 145.356875 24.64214844 144.84705078 23.95019531 144.32177734 C23.35287598 143.86359619 22.75555664 143.40541504 22.14013672 142.93334961 C19.40094926 141.30532683 17.61814854 141.89031992 14.72363281 142.94287109 Z M-376.52636719 187.94287109 C-372.8869218 191.58231648 -369.58201529 194.56328721 -365.52636719 197.63037109 C-364.36876113 198.51050844 -363.21121059 199.39071881 -362.05371094 200.27099609 C-361.17368408 200.93711914 -361.17368408 200.93711914 -360.27587891 201.61669922 C-357.53752241 203.69243917 -354.81286941 205.78585116 -352.08886719 207.88037109 C-351.56019043 208.28553955 -351.03151367 208.69070801 -350.48681641 209.1081543 C-347.58391472 211.3380271 -344.70284255 213.59185633 -341.84277344 215.87646484 C-341.226521 216.36703369 -340.61026855 216.85760254 -339.9753418 217.36303711 C-338.79965769 218.30078327 -337.62704249 219.24239642 -336.45825195 220.1887207 C-332.66654524 223.20957666 -328.86338014 225.75609801 -324.52636719 227.94287109 C-321.90755965 227.34544986 -321.90755965 227.34544986 -319.52636719 225.94287109 C-317.53248055 225.57473093 -315.53246089 225.23731832 -313.52636719 224.94287109 C-312.65702909 221.52988101 -311.80857495 218.11203302 -310.96386719 214.69287109 C-310.71701172 213.72478516 -310.47015625 212.75669922 -310.21582031 211.75927734 C-309.87260742 210.35742188 -309.87260742 210.35742188 -309.52246094 208.92724609 C-309.20039673 207.63898926 -309.20039673 207.63898926 -308.87182617 206.32470703 C-308.50438462 203.79130793 -308.60958348 202.32049185 -309.52636719 199.94287109 C-310.28949219 199.17974609 -311.05261719 198.41662109 -311.83886719 197.63037109 C-314.52636719 194.94287109 -314.52636719 194.94287109 -318.52636719 187.94287109 C-337.66636719 187.94287109 -356.80636719 187.94287109 -376.52636719 187.94287109 Z M-51.52636719 187.94287109 C-52.84636719 190.58287109 -54.16636719 193.22287109 -55.52636719 195.94287109 C-59.10905962 199.62508276 -63.4531158 202.04603983 -68.52636719 202.94287109 C-71.97629837 202.64197484 -75.19685956 201.87150927 -78.52636719 200.94287109 C-79.85916548 200.60740486 -81.19231702 200.27332389 -82.52636719 199.94287109 C-83.51636719 201.92287109 -84.50636719 203.90287109 -85.52636719 205.94287109 C-84.99527344 206.28318359 -84.46417969 206.62349609 -83.91699219 206.97412109 C-76.85651403 211.81853676 -74.12636329 216.62990364 -72.52636719 224.94287109 C-67.93777721 225.80423397 -63.34794109 226.65849281 -58.75683594 227.50634766 C-57.19690775 227.79543883 -55.63733022 228.08642911 -54.078125 228.37939453 C-51.83000947 228.80145453 -49.58069922 229.2165484 -47.33105469 229.63037109 C-46.29475418 229.82723511 -46.29475418 229.82723511 -45.23751831 230.02807617 C-41.28202784 230.74774991 -37.54472456 231.07408276 -33.52636719 230.94287109 C-31.83437019 226.86830489 -30.14373152 222.79317861 -28.4543457 218.7175293 C-27.87952313 217.33130697 -27.30433059 215.94523799 -26.72875977 214.55932617 C-25.90120536 212.56648378 -25.07498586 210.57309249 -24.24902344 208.57958984 C-23.75152588 207.38035889 -23.25402832 206.18112793 -22.74145508 204.94555664 C-21.9414117 202.96851554 -21.20081221 200.96620617 -20.52636719 198.94287109 C-21.81433998 197.24090704 -23.1562338 195.57941931 -24.52636719 193.94287109 C-25.51636719 191.96287109 -26.50636719 189.98287109 -27.52636719 187.94287109 C-35.44636719 187.94287109 -43.36636719 187.94287109 -51.52636719 187.94287109 Z M10.47363281 187.94287109 C9.15363281 190.58287109 7.83363281 193.22287109 6.47363281 195.94287109 C4.19173039 198.06178049 2.24016743 199.55960379 -0.52636719 200.94287109 C0.90429979 209.11273249 3.11500698 216.99682097 5.47363281 224.94287109 C9.87941961 226.39944873 13.82200677 227.14060228 18.47363281 226.94287109 C22.69148477 224.80393452 25.98764457 221.79325625 29.48291016 218.66162109 C33.42206229 215.26063618 37.63038447 212.19688323 41.78613281 209.06787109 C43.5886531 207.69474658 45.39073854 206.32105105 47.19238281 204.94677734 C50.57585613 202.37516449 53.97038064 199.81971208 57.37988281 197.28271484 C58.12713623 196.72632324 58.87438965 196.16993164 59.64428711 195.59667969 C61.04460744 194.55629579 62.44703271 193.51873755 63.85180664 192.484375 C65.41002409 191.32721601 66.94485195 190.13865019 68.47363281 188.94287109 C68.47363281 188.61287109 68.47363281 188.28287109 68.47363281 187.94287109 C49.33363281 187.94287109 30.19363281 187.94287109 10.47363281 187.94287109 Z M-283.60180664 192.86669922 C-284.24868809 194.2228789 -284.89091655 195.58129795 -285.52636719 196.94287109 C-286.18636719 197.60287109 -286.84636719 198.26287109 -287.52636719 198.94287109 C-287.16685379 203.00565615 -286.07918254 206.44743097 -284.48730469 210.18115234 C-284.07536865 211.15713379 -283.66343262 212.13311523 -283.23901367 213.13867188 C-282.79759033 214.16718262 -282.35616699 215.19569336 -281.90136719 216.25537109 C-280.98312237 218.42582724 -280.06515465 220.59640063 -279.14746094 222.76708984 C-278.69741699 223.82589355 -278.24737305 224.88469727 -277.78369141 225.97558594 C-276.42985355 229.17064327 -275.09600856 232.3730729 -273.78027344 235.58398438 C-273.23688414 236.90443336 -272.6861093 238.22186762 -272.12792969 239.53613281 C-270.42507332 243.57845486 -268.93988033 247.64362824 -267.55371094 251.80615234 C-264.50632693 262.35650485 -264.50632693 262.35650485 -257.20214844 269.67724609 C-253.75865042 270.22652566 -253.75865042 270.22652566 -250.44433594 269.98583984 C-247.52636719 269.94287109 -247.52636719 269.94287109 -245.45214844 271.55615234 C-244.81664062 272.01376953 -244.18113281 272.47138672 -243.52636719 272.94287109 C-240.97378669 272.35377718 -240.97378669 272.35377718 -238.52636719 270.94287109 C-237.81480469 270.58451172 -237.10324219 270.22615234 -236.37011719 269.85693359 C-228.26134033 265.39710632 -220.231933 260.79984491 -212.20605469 256.19287109 C-208.32524024 253.96677217 -204.43386812 251.76073202 -200.53417969 249.56787109 C-199.5697998 249.02340332 -198.60541992 248.47893555 -197.61181641 247.91796875 C-195.74863586 246.86654071 -193.88313622 245.8192097 -192.01513672 244.77636719 C-191.17837402 244.30279785 -190.34161133 243.82922852 -189.47949219 243.34130859 C-188.73860352 242.9254248 -187.99771484 242.50954102 -187.234375 242.08105469 C-185.36922369 241.04217642 -185.36922369 241.04217642 -184.52636719 238.94287109 C-184.71898812 237.58302482 -184.95458847 236.22909615 -185.21386719 234.88037109 C-185.88892108 229.44487219 -184.46562692 225.506939 -181.52636719 220.94287109 C-178.77636719 218.38037109 -178.77636719 218.38037109 -176.52636719 216.94287109 C-178.63643876 207.7306074 -181.44324169 198.86321838 -184.52636719 189.94287109 C-187.97608685 189.45200189 -191.09446912 189.2606263 -194.52636719 189.94287109 C-196.43410547 191.763894 -197.6381192 193.6719415 -199.04589844 195.89599609 C-201.95494651 199.91800451 -205.96086313 201.51154292 -210.75683594 202.31787109 C-216.42796393 202.63022238 -220.88495636 201.19501609 -225.52636719 197.94287109 C-228.19034311 195.13868591 -229.8472244 192.38876411 -231.52636719 188.94287109 C-238.41265464 188.7399187 -245.29817096 188.59989016 -252.18676758 188.50341797 C-254.52950863 188.46320202 -256.8720491 188.40861922 -259.21411133 188.33935547 C-262.58302232 188.24222342 -265.94927971 188.19692559 -269.31933594 188.16162109 C-270.3653447 188.12033081 -271.41135345 188.07904053 -272.48905945 188.03649902 C-277.83289866 188.03320627 -280.65585932 188.1231577 -283.60180664 192.86669922 Z M-385.52636719 192.94287109 C-386.35751773 213.53693463 -382.15745701 234.47966967 -375.52636719 253.94287109 C-369.73165138 252.70938583 -363.94946182 251.43088903 -358.17407227 250.10986328 C-356.20874548 249.66703666 -354.24058914 249.23657715 -352.26977539 248.81884766 C-349.43416238 248.21555616 -346.61175715 247.5682618 -343.78808594 246.91162109 C-342.90674484 246.73417358 -342.02540375 246.55672607 -341.11735535 246.37390137 C-336.48693952 245.3111735 -336.48693952 245.3111735 -333.27220154 242.05209351 C-332.09602473 239.07763123 -331.33149542 236.90197908 -331.97558594 233.73193359 C-334.15749812 231.21476538 -336.66559925 229.27452874 -339.33886719 227.31787109 C-340.52261721 226.43005858 -341.70620654 225.54203179 -342.88964844 224.65380859 C-343.49502441 224.20360352 -344.10040039 223.75339844 -344.72412109 223.28955078 C-347.51490558 221.2042125 -350.26952099 219.07274083 -353.02636719 216.94287109 C-354.10822294 216.11061166 -355.19025481 215.27858112 -356.27246094 214.44677734 C-358.45368028 212.76906761 -360.63319434 211.08917529 -362.81152344 209.40771484 C-368.28168791 205.18727006 -373.76358598 200.9825486 -379.27636719 196.81787109 C-380.26121094 196.07279297 -381.24605469 195.32771484 -382.26074219 194.56005859 C-384.19809 192.84604232 -384.19809 192.84604232 -385.52636719 192.94287109 Z M70.09863281 197.44287109 C65.31561336 201.483292 60.41007128 205.2467142 55.31347656 208.88818359 C50.51669878 212.35875459 45.85460471 216.00427803 41.17480469 219.62988281 C39.40967335 220.99223591 37.63790864 222.34553797 35.86425781 223.69677734 C35.27563965 224.14617676 34.68702148 224.59557617 34.08056641 225.05859375 C32.95452571 225.91796566 31.82730901 226.7757996 30.69873047 227.63183594 C28.11898195 229.60516016 25.73883172 231.61915385 23.47363281 233.94287109 C23.89326197 237.72408372 24.88098212 240.13244745 27.47363281 242.94287109 C33.40472772 245.5600381 40.23982895 246.0794602 46.59863281 247.00537109 C48.39480599 247.29793328 50.19039287 247.59411961 51.98535156 247.89404297 C59.69314444 249.3360233 59.69314444 249.3360233 67.47363281 249.94287109 C70.92131116 239.26072014 73.19074858 228.62017506 74.78613281 217.50537109 C74.95725586 216.33393555 75.12837891 215.1625 75.3046875 213.95556641 C76.26550255 206.90626018 76.69231815 200.05509414 76.47363281 192.94287109 C74.26474428 192.94287109 71.61630549 196.14758233 70.09863281 197.44287109 Z M-300.52636719 204.94287109 C-301.92983057 208.25699392 -302.67066992 211.76478089 -303.52636719 215.25537109 C-303.79320312 216.20605469 -304.06003906 217.15673828 -304.33496094 218.13623047 C-304.99630298 220.8096216 -305.50678864 223.18776573 -305.52636719 225.94287109 C-303.4446427 228.99405542 -303.4446427 228.99405542 -300.52636719 230.94287109 C-296.90928475 235.6769937 -295.81204812 240.03879855 -295.52636719 245.94287109 C-295.82432877 247.61622335 -296.15067545 249.28523886 -296.52636719 250.94287109 C-295.77915405 251.52403687 -295.77915405 251.52403687 -295.0168457 252.11694336 C-286.52001953 258.72558594 -278.02319336 265.33422852 -269.52636719 271.94287109 C-268.86636719 271.61287109 -268.20636719 271.28287109 -267.52636719 270.94287109 C-267.99945313 269.82654297 -268.47253906 268.71021484 -268.95996094 267.56005859 C-274.24635941 255.06025355 -279.40772513 242.51215523 -284.52636719 229.94287109 C-285.27274365 228.11162207 -286.01912248 226.28037402 -286.76557922 224.44915771 C-289.68747424 217.2810601 -292.60750637 210.11220482 -295.52636719 202.94287109 C-297.8499423 202.75797103 -297.8499423 202.75797103 -300.52636719 204.94287109 Z M-13.52636719 202.94287109 C-19.46636719 217.29787109 -19.46636719 217.29787109 -25.52636719 231.94287109 C-21.81270289 233.79970324 -19.31047809 234.45398465 -15.27636719 235.06787109 C-14.19871094 235.23544922 -13.12105469 235.40302734 -12.01074219 235.57568359 C-10.78097656 235.75744141 -10.78097656 235.75744141 -9.52636719 235.94287109 C-8.92824219 234.99412109 -8.33011719 234.04537109 -7.71386719 233.06787109 C-5.52636719 229.94287109 -5.52636719 229.94287109 -2.52636719 227.94287109 C-3.12371489 225.27451587 -3.72903836 222.60837747 -4.33886719 219.94287109 C-4.50451172 219.19908203 -4.67015625 218.45529297 -4.84082031 217.68896484 C-6.01820516 212.57955892 -7.59301437 207.81780084 -9.52636719 202.94287109 C-10.84636719 202.94287109 -12.16636719 202.94287109 -13.52636719 202.94287109 Z M-77.15136719 235.63037109 C-77.70630859 236.45988281 -77.70630859 236.45988281 -78.27246094 237.30615234 C-80.64146577 240.39840476 -83.85374356 241.84298037 -87.52636719 242.94287109 C-90.89234878 243.2405756 -94.15899395 243.19128387 -97.52636719 242.94287109 C-97.85636719 244.15974609 -98.18636719 245.37662109 -98.52636719 246.63037109 C-98.71199219 247.31486328 -98.89761719 247.99935547 -99.08886719 248.70458984 C-99.56972513 251.16469344 -99.55534409 253.44180261 -99.52636719 255.94287109 C-98.94258301 256.27496582 -98.35879883 256.60706055 -97.75732422 256.94921875 C-95.05465803 258.48757741 -92.35301011 260.02771616 -89.65136719 261.56787109 C-88.73355469 262.08994141 -87.81574219 262.61201172 -86.87011719 263.14990234 C-85.95488281 263.67197266 -85.03964844 264.19404297 -84.09667969 264.73193359 C-83.17532227 265.25432617 -82.25396484 265.77671875 -81.3046875 266.31494141 C-79.42390762 267.41696603 -77.56893419 268.56404477 -75.74023438 269.75048828 C-74.86270508 270.31670898 -73.98517578 270.88292969 -73.08105469 271.46630859 C-71.90905518 272.25013916 -71.90905518 272.25013916 -70.71337891 273.04980469 C-68.55361303 274.21059619 -68.55361303 274.21059619 -66.40576172 273.22265625 C-64.8705818 272.17726613 -63.37873421 271.06848406 -61.90136719 269.94287109 C-58.48037329 267.91561545 -57.45215119 267.8253191 -53.69824219 267.60693359 C-50.09849795 266.93571692 -48.88448759 266.42877644 -46.68310547 263.44189453 C-45.06491164 260.11723243 -43.69960463 256.77983762 -42.40136719 253.31787109 C-41.92183594 252.13451172 -41.44230469 250.95115234 -40.94824219 249.73193359 C-39.77179811 246.81435229 -38.63360911 243.88725795 -37.52636719 240.94287109 C-39.9894094 238.47982888 -41.44815579 238.36008992 -44.83886719 237.68896484 C-45.91523438 237.47433594 -46.99160156 237.25970703 -48.10058594 237.03857422 C-49.79634766 236.71276367 -49.79634766 236.71276367 -51.52636719 236.38037109 C-53.17572266 236.04875977 -53.17572266 236.04875977 -54.85839844 235.71044922 C-59.94353375 234.71212194 -65.03509911 233.79188315 -70.17480469 233.12255859 C-70.9551709 233.02056152 -71.73553711 232.91856445 -72.53955078 232.81347656 C-74.91930297 232.74617372 -74.91930297 232.74617372 -77.15136719 235.63037109 Z M-29.52636719 240.94287109 C-31.17360444 245.04647568 -32.81891671 249.15084936 -34.46386719 253.25537109 C-34.93244141 254.42261719 -35.40101563 255.58986328 -35.88378906 256.79248047 C-36.33173828 257.91074219 -36.7796875 259.02900391 -37.24121094 260.18115234 C-37.65491943 261.21280518 -38.06862793 262.24445801 -38.49487305 263.30737305 C-39.22264483 265.16685149 -39.89491554 267.04851615 -40.52636719 268.94287109 C-35.76470125 268.94287109 -34.01932788 267.36823112 -30.52636719 264.50537109 C-29.37779119 263.58334681 -28.22802186 262.66280737 -27.07714844 261.74365234 C-26.49271973 261.27523926 -25.90829102 260.80682617 -25.30615234 260.32421875 C-23.57631145 258.98163442 -21.81194692 257.72480008 -20.00683594 256.48583984 C-19.45318359 256.09904053 -18.89953125 255.71224121 -18.32910156 255.3137207 C-16.79170538 254.24688487 -15.24328155 253.19599286 -13.69433594 252.14599609 C-11.19363602 250.06565809 -11.19363602 250.06565809 -11.20214844 246.67724609 C-11.30914062 245.77490234 -11.41613281 244.87255859 -11.52636719 243.94287109 C-13.96318306 243.43932243 -16.40072158 242.93990353 -18.83886719 242.44287109 C-19.52916016 242.29978516 -20.21945312 242.15669922 -20.93066406 242.00927734 C-23.85161491 241.41662065 -26.53744841 240.94287109 -29.52636719 240.94287109 Z M-180.52636719 246.94287109 C-181.67685547 247.60029297 -181.67685547 247.60029297 -182.85058594 248.27099609 C-199.39355469 257.72412109 -199.39355469 257.72412109 -201.96020508 259.19067383 C-203.72253215 260.19778802 -205.48473787 261.20511459 -207.24682617 262.21264648 C-211.99733093 264.92850675 -216.75021655 267.64007612 -221.50683594 270.34521484 C-222.47290771 270.89532227 -223.43897949 271.44542969 -224.43432617 272.01220703 C-226.30158444 273.07536207 -228.16956454 274.13725052 -230.03833008 275.19775391 C-230.87485107 275.67438477 -231.71137207 276.15101563 -232.57324219 276.64208984 C-233.31413086 277.06321045 -234.05501953 277.48433105 -234.81835938 277.91821289 C-236.49375352 278.82939182 -236.49375352 278.82939182 -237.52636719 279.94287109 C-237.5984223 281.62896075 -237.61022786 283.31787769 -237.58886719 285.00537109 C-237.57984375 285.92447266 -237.57082031 286.84357422 -237.56152344 287.79052734 C-237.54992187 288.50080078 -237.53832031 289.21107422 -237.52636719 289.94287109 C-225.2475974 295.12659702 -212.96216908 300.29423554 -200.64746094 305.39208984 C-196.4996735 307.11141785 -192.37030352 308.86802262 -188.24902344 310.64990234 C-186.25815821 311.49760601 -184.26727356 312.34526406 -182.27636719 313.19287109 C-181.35364014 313.60013428 -180.43091309 314.00739746 -179.48022461 314.42700195 C-178.62404541 314.78802002 -177.76786621 315.14903809 -176.88574219 315.52099609 C-176.13776367 315.84487305 -175.38978516 316.16875 -174.61914062 316.50244141 C-171.87909804 317.07909059 -170.84374847 316.43613441 -168.52636719 314.94287109 C-167.28886719 313.95287109 -167.28886719 313.95287109 -166.02636719 312.94287109 C-163.87246995 311.2197533 -161.99182641 310.11291954 -159.52636719 308.94287109 C-158.34363156 288.76878056 -161.40813057 271.32294181 -166.52636719 251.94287109 C-167.11804688 251.83330078 -167.70972656 251.72373047 -168.31933594 251.61083984 C-172.93982482 250.68372707 -176.61404509 249.71935774 -180.52636719 246.94287109 Z M25.47363281 250.94287109 C23.92302298 252.81633517 22.58586465 254.80183841 21.20410156 256.80224609 C19.47363281 258.94287109 19.47363281 258.94287109 14.47363281 262.94287109 C19.42363281 282.74287109 24.37363281 302.54287109 29.47363281 322.94287109 C33.275712 319.14079191 36.26223322 315.67796059 39.16113281 311.25537109 C39.58974609 310.60165527 40.01835937 309.94793945 40.45996094 309.27441406 C56.86946396 285.04703353 56.86946396 285.04703353 64.47363281 257.94287109 C56.70536751 256.137867 48.8879305 254.70943132 41.03613281 253.31787109 C39.11897461 252.97369141 39.11897461 252.97369141 37.16308594 252.62255859 C31.353865 251.43888427 31.353865 251.43888427 25.47363281 250.94287109 Z M-341.58886719 253.11474609 C-342.545271 253.36530762 -343.5016748 253.61586914 -344.48706055 253.87402344 C-345.49003174 254.14424316 -346.49300293 254.41446289 -347.52636719 254.69287109 C-348.55060791 254.96437988 -349.57484863 255.23588867 -350.63012695 255.515625 C-357.98647466 257.48282417 -365.28609725 259.58040298 -372.52636719 261.94287109 C-368.62500097 273.05585367 -364.07362164 283.55337282 -358.52636719 293.94287109 C-358.1610791 294.62945801 -357.79579102 295.31604492 -357.41943359 296.0234375 C-349.42536447 311.02169173 -349.42536447 311.02169173 -338.52636719 323.94287109 C-336.18954294 316.09959398 -334.06406942 308.25719998 -332.24926758 300.27416992 C-331.13864265 295.43098471 -329.93434542 290.61886533 -328.68261719 285.81005859 C-328.3588208 284.55531738 -328.03502441 283.30057617 -327.70141602 282.0078125 C-327.05090286 279.49485363 -326.39208581 276.98402746 -325.72436523 274.47558594 C-325.42570557 273.31494629 -325.1270459 272.15430664 -324.81933594 270.95849609 C-324.54629639 269.91983398 -324.27325684 268.88117188 -323.99194336 267.81103516 C-323.50101747 264.78670516 -323.58122265 262.84723132 -324.52636719 259.94287109 C-326.1557196 258.56418829 -327.82386326 257.23013016 -329.52636719 255.94287109 C-330.83886719 253.69287109 -330.83886719 253.69287109 -331.52636719 251.94287109 C-335.10999364 251.82266895 -338.12668613 252.1995919 -341.58886719 253.11474609 Z M-304.15136719 259.88037109 C-307.7714485 262.09264301 -310.34055277 262.60800594 -314.52636719 262.94287109 C-314.99716998 264.58960598 -315.46785104 266.23637576 -315.93798828 267.88330078 C-316.31766372 269.21232236 -316.69813893 270.54111583 -317.07958984 271.86962891 C-320.59458041 284.14604758 -323.64800528 296.50305411 -326.52636719 308.94287109 C-326.85317689 310.34912416 -327.17999874 311.75537441 -327.50683594 313.16162109 C-328.18429828 316.08774953 -328.85813979 319.01462256 -329.52636719 321.94287109 C-324.23873978 320.44637277 -319.93594382 318.01338766 -315.27636719 315.19287109 C-314.14593994 314.51853027 -314.14593994 314.51853027 -312.99267578 313.83056641 C-309.84841532 311.95252823 -306.71493741 310.05691356 -303.58105469 308.16162109 C-299.44149567 305.65925101 -295.28255715 303.24287347 -291.02636719 300.94287109 C-290.12144531 300.43755859 -289.21652344 299.93224609 -288.28417969 299.41162109 C-285.52636719 297.94287109 -285.52636719 297.94287109 -282.64355469 296.72412109 C-278.37379774 294.72913494 -276.11093731 293.25190846 -274.15527344 288.87255859 C-273.33603288 284.66064389 -273.30872913 282.07492802 -274.52636719 277.94287109 C-277.97788021 273.43828775 -282.8300614 270.36148082 -287.52148438 267.27392578 C-289.37607881 266.04264852 -291.16237211 264.75801903 -292.94042969 263.41943359 C-298.32513295 258.2851117 -298.32513295 258.2851117 -304.15136719 259.88037109 Z M-7.52636719 256.94287109 C-11.53421812 259.93251125 -15.53312291 262.93376972 -19.52636719 265.94287109 C-20.12964844 266.39678223 -20.73292969 266.85069336 -21.35449219 267.31835938 C-23.14435948 268.66793079 -24.92968161 270.0233004 -26.71386719 271.38037109 C-27.560177 272.01724854 -27.560177 272.01724854 -28.42358398 272.66699219 C-31.43620822 274.89854738 -31.43620822 274.89854738 -33.52636719 277.94287109 C-33.19636719 278.60287109 -32.86636719 279.26287109 -32.52636719 279.94287109 C-32.43003822 281.75328903 -32.39655186 283.56739862 -32.40136719 285.38037109 C-32.39878906 286.34845703 -32.39621094 287.31654297 -32.39355469 288.31396484 C-32.52636719 290.94287109 -32.52636719 290.94287109 -33.52636719 293.94287109 C-20.88292375 301.34503853 -8.23207084 308.73058913 4.51928711 315.94580078 C9.05509857 318.52150188 13.49817422 321.18173335 17.86230469 324.0402832 C19.45663253 325.10577243 19.45663253 325.10577243 21.47363281 324.94287109 C19.53397397 314.68490162 17.20297808 304.60144196 14.53613281 294.50537109 C14.00281888 292.46684714 13.47098989 290.4279392 12.93917847 288.38902283 C12.59310488 287.0627701 12.24653673 285.73664631 11.89944458 284.41065979 C10.03094645 277.26946748 8.239303 270.11009812 6.47363281 262.94287109 C5.27738281 262.69537109 4.08113281 262.44787109 2.84863281 262.19287109 C-1.32085817 261.16904591 -4.10874249 259.50608962 -7.52636719 256.94287109 Z M-108.44433594 263.84912109 C-109.19328125 264.70505859 -109.94222656 265.56099609 -110.71386719 266.44287109 C-111.52082031 267.36068359 -112.32777344 268.27849609 -113.15917969 269.22412109 C-114.3309375 270.56990234 -114.3309375 270.56990234 -115.52636719 271.94287109 C-116.14253906 272.63380859 -116.75871094 273.32474609 -117.39355469 274.03662109 C-119.88009207 276.83254331 -122.27868969 279.60459189 -124.49121094 282.62646484 C-129.65939557 289.61988167 -129.65939557 289.61988167 -133.71386719 291.13037109 C-139.33165361 290.85408652 -144.92808642 290.49007147 -150.52636719 289.94287109 C-150.74302268 293.00914815 -150.90096037 296.06014347 -151.02636719 299.13037109 C-151.09339844 299.9946875 -151.16042969 300.85900391 -151.22949219 301.74951172 C-151.30966042 304.36500046 -151.27298641 306.43033998 -150.52636719 308.94287109 C-148.65213705 310.72135717 -146.87173621 311.77701802 -144.55175781 312.90112305 C-142.52636719 313.94287109 -142.52636719 313.94287109 -140.89941406 315.57836914 C-140.44630859 316.02865479 -139.99320313 316.47894043 -139.52636719 316.94287109 C-134.70099866 316.72998719 -129.957703 314.2476255 -125.52636719 312.44287109 C-124.64698486 312.08829834 -123.76760254 311.73372559 -122.86157227 311.3684082 C-115.74170006 308.47992586 -108.68602351 305.45080152 -101.640625 302.38598633 C-93.75668282 298.98142308 -85.76492184 295.87572992 -77.72436523 292.86108398 C-76.79793213 292.50780029 -75.87149902 292.1545166 -74.91699219 291.79052734 C-74.09231445 291.48123291 -73.26763672 291.17193848 -72.41796875 290.85327148 C-70.34702922 290.09419349 -70.34702922 290.09419349 -69.52636719 287.94287109 C-69.99169371 284.31417803 -70.29135463 281.98480791 -73.14111328 279.58056641 C-75.28769166 278.29483072 -77.46611993 277.16721206 -79.71386719 276.06787109 C-81.34412763 275.22151613 -82.97301211 274.37250609 -84.60058594 273.52099609 C-85.42220215 273.09753906 -86.24381836 272.67408203 -87.09033203 272.23779297 C-91.48763723 269.90031985 -95.70177088 267.26302744 -99.92944336 264.63476562 C-104.32921365 261.49727591 -104.32921365 261.49727591 -108.44433594 263.84912109 Z M-240.52636719 297.94287109 C-238.27228079 304.28684621 -234.77166351 309.67679796 -229.52636719 313.94287109 C-226.22754293 314.36657329 -223.6510568 313.9771218 -220.38964844 313.38037109 C-216.1266716 312.72900219 -213.09952415 313.5793352 -209.52636719 315.94287109 C-206.69132235 318.62902955 -204.27731993 321.44096562 -202.52636719 324.94287109 C-193.61636719 324.94287109 -184.70636719 324.94287109 -175.52636719 324.94287109 C-179.06847191 322.58146795 -182.79926047 321.06241857 -186.71386719 319.44287109 C-187.54321777 319.09683838 -188.37256836 318.75080566 -189.22705078 318.39428711 C-191.03344407 317.6410401 -192.84043707 316.88923008 -194.64794922 316.13867188 C-197.60766 314.90909907 -200.56527014 313.67458512 -203.52246094 312.43896484 C-208.5729206 310.32946792 -213.62620436 308.2268453 -218.68066406 306.12695312 C-221.37563058 305.0055918 -224.06840686 303.87912563 -226.76074219 302.75146484 C-228.30755184 302.10677679 -229.85442257 301.46223523 -231.40136719 300.81787109 C-232.10277832 300.52259521 -232.80418945 300.22731934 -233.52685547 299.9230957 C-236.91210763 298.43795256 -236.91210763 298.43795256 -240.52636719 297.94287109 Z M-75.96777344 300.07568359 C-77.09352783 300.54586914 -78.21928223 301.01605469 -79.37915039 301.50048828 C-80.61573387 302.02292268 -81.85230583 302.54538434 -83.08886719 303.06787109 C-84.36229424 303.60135682 -85.63598097 304.13422306 -86.90991211 304.66650391 C-88.93781833 305.51388353 -90.96554831 306.36166189 -92.99250793 307.21130371 C-100.66014012 310.42439204 -108.34873226 313.58626479 -116.03805542 316.74700928 C-119.04492906 317.98313255 -122.05123921 319.22062295 -125.05755615 320.45809937 C-127.88036727 321.61999601 -130.70336148 322.78144733 -133.52636719 323.94287109 C-133.52636719 324.27287109 -133.52636719 324.60287109 -133.52636719 324.94287109 C-125.55578703 325.90276892 -117.54693168 326.1624848 -109.52636719 326.31787109 C-108.5111499 326.35589844 -107.49593262 326.39392578 -106.44995117 326.43310547 C-100.65169657 326.65888482 -100.65169657 326.65888482 -96.03808594 323.55224609 C-95.53921875 322.69115234 -95.04035156 321.83005859 -94.52636719 320.94287109 C-90.67232539 318.37350989 -87.70108025 316.9805075 -83.21386719 316.00537109 C-76.2469972 313.90691628 -72.30201767 306.75617422 -68.52636719 300.94287109 C-68.19636719 299.95287109 -67.86636719 298.96287109 -67.52636719 297.94287109 C-70.94258188 297.94287109 -72.82566059 298.7533123 -75.96777344 300.07568359 Z M-271.52636719 298.94287109 C-272.67685547 299.60029297 -272.67685547 299.60029297 -273.85058594 300.27099609 C-274.96046875 300.90521484 -276.07035156 301.53943359 -277.21386719 302.19287109 C-277.82601074 302.542771 -278.4381543 302.8926709 -279.06884766 303.25317383 C-282.94825037 305.47045068 -286.82863998 307.68598487 -290.70996094 309.89990234 C-295.18297568 312.45181977 -299.65370436 315.00769849 -304.12255859 317.56689453 C-305.62684173 318.42796905 -307.13164162 319.28814214 -308.63720703 320.14697266 C-310.37317222 321.13780611 -312.10617861 322.13381885 -313.83886719 323.13037109 C-314.763125 323.66017578 -315.68738281 324.18998047 -316.63964844 324.73583984 C-317.26226562 325.13416016 -317.88488281 325.53248047 -318.52636719 325.94287109 C-318.52636719 326.27287109 -318.52636719 326.60287109 -318.52636719 326.94287109 C-292.12636719 326.61287109 -265.72636719 326.28287109 -238.52636719 325.94287109 C-237.53636719 323.63287109 -236.54636719 321.32287109 -235.52636719 318.94287109 C-241.46636719 311.51787109 -241.46636719 311.51787109 -247.52636719 303.94287109 C-248.51636719 304.27287109 -249.50636719 304.60287109 -250.52636719 304.94287109 C-257.75275931 305.65500344 -263.46006109 305.10870535 -269.52636719 300.94287109 C-270.18636719 300.28287109 -270.84636719 299.62287109 -271.52636719 298.94287109 Z M-43.52636719 302.94287109 C-45.46241622 302.80443429 -47.39857392 302.65904362 -49.32910156 302.45776367 C-56.12126356 301.76353984 -56.12126356 301.76353984 -62.28369141 304.16162109 C-66.4211613 308.32904434 -69.66990489 313.37348421 -71.52636719 318.94287109 C-70.57761719 319.70599609 -69.62886719 320.46912109 -68.65136719 321.25537109 C-66.36026823 323.09821156 -65.21411774 324.41124526 -63.52636719 326.94287109 C-61.06292246 327.51397522 -61.06292246 327.51397522 -58.17724609 327.59692383 C-57.09469543 327.66136688 -56.01214478 327.72580994 -54.89678955 327.79220581 C-53.22843048 327.86678513 -53.22843048 327.86678513 -51.52636719 327.94287109 C-50.01487091 328.01974655 -50.01487091 328.01974655 -48.47283936 328.09817505 C-45.35314542 328.24489911 -42.23339631 328.36505286 -39.11230469 328.47802734 C-37.40876328 328.54249306 -37.40876328 328.54249306 -35.67080688 328.60826111 C-33.28937607 328.69775742 -30.90789487 328.78592227 -28.52636719 328.87280273 C-24.90383116 329.00528098 -21.28150697 329.14270524 -17.65917969 329.28076172 C-15.3310656 329.3676433 -13.00294093 329.45424148 -10.67480469 329.54052734 C-9.06972549 329.6014431 -9.06972549 329.6014431 -7.43222046 329.66358948 C-1.12690248 329.8908017 5.16431199 329.9935666 11.47363281 329.94287109 C9.04884816 327.42038907 6.78905337 325.89184634 3.67675781 324.26318359 C-0.74715197 321.90560955 -5.12966638 319.48880085 -9.47949219 316.99755859 C-10.07499878 316.65694397 -10.67050537 316.31632935 -11.28405762 315.96539307 C-13.11534838 314.91712554 -14.94587871 313.8675388 -16.77636719 312.81787109 C-18.01589167 312.10813289 -19.25547476 311.39849702 -20.49511719 310.68896484 C-21.09706909 310.34424133 -21.699021 309.99951782 -22.31921387 309.64434814 C-24.04974694 308.65389159 -25.78120628 307.66505396 -27.51269531 306.67626953 C-29.2950993 305.65106957 -31.07221682 304.61642256 -32.83691406 303.56103516 C-37.23978948 300.93455596 -39.0066505 299.92972664 -43.52636719 302.94287109 Z M-200.52636719 332.94287109 C-206.28562379 341.74975358 -206.28562379 341.74975358 -204.52636719 346.94287109 C-202.80764819 349.26562206 -201.06226213 351.47830641 -199.21386719 353.69287109 C-194.90426367 358.96281577 -190.70717924 364.28756592 -186.65136719 369.75537109 C-181.66678135 376.46115141 -176.57135108 383.0735352 -171.42138672 389.65307617 C-170.8707959 390.357146 -170.32020508 391.06121582 -169.75292969 391.78662109 C-169.21958008 392.46853516 -168.68623047 393.15044922 -168.13671875 393.85302734 C-165.94474876 396.69767002 -163.81942901 399.59008933 -161.70361328 402.49169922 C-161.31512207 402.97058594 -160.92663086 403.44947266 -160.52636719 403.94287109 C-160.19636719 403.94287109 -159.86636719 403.94287109 -159.52636719 403.94287109 C-159.19636719 385.13287109 -158.86636719 366.32287109 -158.52636719 346.94287109 C-161.16636719 345.62287109 -163.80636719 344.30287109 -166.52636719 342.94287109 C-169.6419202 339.69185926 -171.50864229 336.97832089 -173.52636719 332.94287109 C-182.43636719 332.94287109 -191.34636719 332.94287109 -200.52636719 332.94287109 Z M-136.52636719 332.94287109 C-136.97367187 333.87744141 -137.42097656 334.81201172 -137.88183594 335.77490234 C-141.00372329 341.78879935 -144.44490294 343.90213897 -150.52636719 346.94287109 C-150.52636719 366.08287109 -150.52636719 385.22287109 -150.52636719 404.94287109 C-146.29071312 400.7293872 -146.29071312 400.7293872 -142.58105469 396.22802734 C-142.06720215 395.54909424 -141.55334961 394.87016113 -141.02392578 394.1706543 C-140.48848145 393.45611084 -139.95303711 392.74156738 -139.40136719 392.00537109 C-138.24587115 390.47875846 -137.08960962 388.95272495 -135.93261719 387.42724609 C-135.35898437 386.66992188 -134.78535156 385.91259766 -134.19433594 385.13232422 C-131.79438375 381.98203569 -129.35382302 378.86486978 -126.90136719 375.75537109 C-126.45656006 375.19092285 -126.01175293 374.62647461 -125.5534668 374.04492188 C-124.66052131 372.91263519 -123.7672129 371.78063461 -122.87353516 370.64892578 C-116.85087628 363.02182534 -110.84353369 355.38292355 -104.90136719 347.69287109 C-104.47525146 347.1436499 -104.04913574 346.59442871 -103.61010742 346.02856445 C-100.32508803 342.14759845 -100.32508803 342.14759845 -99.83886719 337.38037109 C-100.06574219 336.57599609 -100.29261719 335.77162109 -100.52636719 334.94287109 C-103.58129498 333.4154072 -106.80269858 333.70295277 -110.15917969 333.62646484 C-110.91101532 333.60568375 -111.66285095 333.58490265 -112.43746948 333.56349182 C-114.84200804 333.49804404 -117.24665686 333.43913371 -119.65136719 333.38037109 C-121.2802849 333.33718132 -122.9091914 333.29356688 -124.53808594 333.24951172 C-128.53406633 333.14236758 -132.53015777 333.04108677 -136.52636719 332.94287109 Z M-282.95043945 334.31518555 C-286.84874313 334.38053665 -290.74710998 334.44007821 -294.64550781 334.49951172 C-297.16439398 334.54147331 -299.68327444 334.58377908 -302.20214844 334.62646484 C-303.9198217 334.65153358 -303.9198217 334.65153358 -305.67219543 334.67710876 C-313.32044639 334.81551983 -320.906221 335.27679545 -328.52636719 335.94287109 C-320.84371748 347.02656387 -311.03156592 355.62238183 -300.52636719 363.94287109 C-299.79675781 364.56291016 -299.06714844 365.18294922 -298.31542969 365.82177734 C-292.53580987 370.67868593 -286.33733128 374.8176501 -280.02636719 378.94287109 C-279.12861572 379.53165039 -278.23086426 380.12042969 -277.3059082 380.72705078 C-276.46084717 381.27264648 -275.61578613 381.81824219 -274.74511719 382.38037109 C-273.98134766 382.87408203 -273.21757812 383.36779297 -272.43066406 383.87646484 C-270.59929188 385.10573888 -270.59929188 385.10573888 -268.52636719 384.94287109 C-266.96372014 383.10194444 -265.52039717 381.25750585 -264.08886719 379.31787109 C-263.18471351 378.11675198 -262.27973737 376.91625163 -261.37402344 375.71630859 C-260.67043701 374.77996582 -260.67043701 374.77996582 -259.95263672 373.82470703 C-257.68444492 370.83202945 -255.35491205 367.88866054 -253.02636719 364.94287109 C-251.19163315 362.61063747 -249.35910301 360.27667509 -247.52636719 357.94287109 C-246.8123877 357.03529053 -246.8123877 357.03529053 -246.08398438 356.109375 C-244.68534293 354.32812215 -243.29262197 352.54239646 -241.90136719 350.75537109 C-241.47533203 350.21460938 -241.04929687 349.67384766 -240.61035156 349.11669922 C-238.74849251 346.71499306 -237.49694482 344.85460399 -236.52636719 341.94287109 C-237.05297437 339.85393074 -237.05297437 339.85393074 -237.96386719 337.75537109 C-238.25132812 337.03994141 -238.53878906 336.32451172 -238.83496094 335.58740234 C-239.17720703 334.77335937 -239.17720703 334.77335937 -239.52636719 333.94287109 C-254.00409177 333.86626938 -268.47497374 334.06887646 -282.95043945 334.31518555 Z M-61.52636719 335.94287109 C-61.81398926 336.59481445 -62.10161133 337.24675781 -62.39794922 337.91845703 C-64.03685669 341.63331397 -65.68354651 345.32363769 -67.52636719 348.94287109 C-65.94398622 350.96445622 -64.36064681 352.98527429 -62.77636719 355.00537109 C-62.28773193 355.62863281 -61.79909668 356.25189453 -61.2956543 356.89404297 C-58.63719648 360.27837829 -55.96465203 363.65015525 -53.26464844 367.00146484 C-52.73387695 367.66073975 -52.20310547 368.32001465 -51.65625 368.99926758 C-50.63563771 370.26485862 -49.61295409 371.52878297 -48.58789062 372.79077148 C-45.68486177 376.39185312 -43.03343949 380.05483461 -40.52636719 383.94287109 C-21.86194316 381.1912775 3.54861608 355.92601254 15.47363281 341.94287109 C15.80363281 340.95287109 16.13363281 339.96287109 16.47363281 338.94287109 C8.87710957 338.06864843 1.30891944 337.6672947 -6.33105469 337.40771484 C-8.13160812 337.34324913 -8.13160812 337.34324913 -9.96853638 337.27748108 C-12.4947577 337.18775796 -15.02103517 337.09960345 -17.54736328 337.01293945 C-21.38296702 336.88100401 -25.2183356 336.74338044 -29.05371094 336.60498047 C-31.52114694 336.51805321 -33.98859453 336.4314539 -36.45605469 336.34521484 C-37.58768036 336.30460434 -38.71930603 336.26399384 -39.88522339 336.22215271 C-47.10190818 335.97796259 -54.30572992 335.89570632 -61.52636719 335.94287109 Z M-230.52636719 348.94287109 C-241.13261668 362.07168803 -251.41623509 375.42894953 -261.52636719 388.94287109 C-252.92983688 394.6738913 -243.15110836 398.31572849 -233.52636719 401.94287109 C-231.851875 402.57708984 -231.851875 402.57708984 -230.14355469 403.22412109 C-208.61982319 410.87264527 -185.43340055 415.68327744 -162.52636719 414.94287109 C-162.8927832 414.45455811 -163.25919922 413.96624512 -163.63671875 413.46313477 C-166.22218628 410.0168072 -168.80635182 406.5695313 -171.38574219 403.11865234 C-176.83918509 395.82715916 -182.3263457 388.56598974 -187.89355469 381.36083984 C-190.41148884 378.0995433 -192.90474659 374.81979314 -195.39599609 371.53808594 C-197.06393907 369.35056454 -198.74754283 367.17580245 -200.43261719 365.00146484 C-202.34903834 362.52025899 -204.18169225 360.0157704 -205.93261719 357.41552734 C-209.67491841 351.88687838 -209.67491841 351.88687838 -215.53417969 349.31396484 C-218.67693649 349.2578614 -218.67693649 349.2578614 -221.63183594 349.65380859 C-224.79651577 349.9698495 -227.42274758 349.57738888 -230.52636719 348.94287109 Z M-95.52636719 348.94287109 C-101.13660536 355.09184075 -106.20115313 361.62101548 -111.23242188 368.24169922 C-113.30094399 370.96122036 -115.38152302 373.67142614 -117.46386719 376.38037109 C-117.87572266 376.91654053 -118.28757812 377.45270996 -118.71191406 378.00512695 C-121.72688827 381.92284053 -124.77741299 385.81142393 -127.83886719 389.69287109 C-132.16638549 395.18621466 -136.45341105 400.70984913 -140.71386719 406.25537109 C-141.29112549 407.00334961 -141.86838379 407.75132812 -142.46313477 408.52197266 C-142.99318115 409.21387695 -143.52322754 409.90578125 -144.06933594 410.61865234 C-144.54395264 411.23651611 -145.01856934 411.85437988 -145.50756836 412.4909668 C-146.62209969 413.78368576 -146.62209969 413.78368576 -146.52636719 414.94287109 C-111.75033027 415.62616012 -78.62434348 404.58691813 -47.52636719 389.94287109 C-47.52636719 385.58273749 -50.16710769 383.337784 -52.83886719 380.13037109 C-53.94118462 378.78333227 -55.04272903 377.43566055 -56.14355469 376.08740234 C-56.70655273 375.4011377 -57.26955078 374.71487305 -57.84960938 374.0078125 C-60.8944742 370.25803575 -63.84121582 366.4304701 -66.78344727 362.59985352 C-71.35340588 355.9619979 -71.35340588 355.9619979 -78.10449219 352.59521484 C-78.98621094 352.68931641 -79.86792969 352.78341797 -80.77636719 352.88037109 C-86.58049577 353.18750951 -90.4969415 351.72457814 -95.52636719 348.94287109 Z " fill="#16263D" transform="translate(412.5263671875,72.05712890625)"/>
<path d="M0 0 C3.35067466 -0.31610138 5.45094297 -0.18397479 8.37109375 1.5625 C12.91303451 5.51808365 14.06233047 9.15011636 14.89453125 14.984375 C15.96585354 20.66990121 19.80406155 24.12486363 24.33984375 27.34765625 C28.27232697 29.31389786 33.04366681 28.67625902 37.33984375 28.34765625 C42.64662247 26.57873001 45.11558439 23.73623149 48.33984375 19.34765625 C48.56929688 18.63996094 48.79875 17.93226563 49.03515625 17.203125 C50.33984375 15.34765625 50.33984375 15.34765625 53.59765625 14.73828125 C54.87382812 14.691875 56.15 14.64546875 57.46484375 14.59765625 C58.74617188 14.5409375 60.0275 14.48421875 61.34765625 14.42578125 C62.33507812 14.4 63.3225 14.37421875 64.33984375 14.34765625 C65.15262379 15.70228966 65.96538394 17.056935 66.77807617 18.41162109 C67.54488048 19.68946175 68.31198295 20.96712352 69.0793457 22.24462891 C71.74878083 26.69013429 74.41014087 31.1403614 77.06640625 35.59375 C78.38671429 37.80338808 79.7070268 40.01302349 81.02734375 42.22265625 C81.97105835 43.80808228 81.97105835 43.80808228 82.93383789 45.42553711 C84.71898023 48.41017107 86.52680319 51.37991189 88.33984375 54.34765625 C88.86868164 55.24572998 89.39751953 56.14380371 89.94238281 57.0690918 C92.66371969 61.73132703 92.66371969 61.73132703 97.11328125 64.4453125 C97.97179687 64.43371094 98.8303125 64.42210937 99.71484375 64.41015625 C100.58882812 64.42175781 101.4628125 64.43335938 102.36328125 64.4453125 C103.01554688 64.41308594 103.6678125 64.38085938 104.33984375 64.34765625 C103.70046875 65.27578125 103.06109375 66.20390625 102.40234375 67.16015625 C100.00610117 70.86344023 99.1999292 73.3423952 99.21484375 77.66015625 C99.21226562 78.39878906 99.2096875 79.13742187 99.20703125 79.8984375 C99.26887482 82.44964603 99.26887482 82.44964603 100.05859375 85.2578125 C100.53281982 90.4677128 97.63564568 93.51823456 94.73828125 97.640625 C91.84153111 100.91008403 89.38288989 102.1710148 85.3203125 103.5625 C81.68130491 105.00518348 80.16435162 107.93937273 78.26953125 111.17578125 C76.46350414 115.3949034 76.69066427 119.86582101 77.33984375 124.34765625 C78.44265108 126.54748998 78.44265108 126.54748998 79.90234375 128.47265625 C82.5717875 132.17055425 82.69984176 134.52966944 82.02734375 138.9765625 C80.19000424 145.31329592 77.69942905 149.57490094 73.08984375 154.28515625 C72.09828562 155.3313941 71.1073996 156.37826935 70.1171875 157.42578125 C69.63878418 157.92658203 69.16038086 158.42738281 68.66748047 158.94335938 C66.94548852 160.76478227 65.29312365 162.64049124 63.65234375 164.53515625 C63.09933594 165.14746094 62.54632813 165.75976562 61.9765625 166.390625 C60.25374494 168.36895763 60.25374494 168.36895763 58.734375 170.8359375 C54.43277624 176.94173884 54.43277624 176.94173884 50.32324219 177.73876953 C45.2995723 178.12628511 40.34854518 177.80868445 35.33984375 177.34765625 C32.95091527 170.64990126 31.16221538 163.90411699 29.58984375 156.97265625 C29.23986328 155.49732422 29.23986328 155.49732422 28.8828125 153.9921875 C28.55990234 152.57873047 28.55990234 152.57873047 28.23046875 151.13671875 C27.9370459 149.86368896 27.9370459 149.86368896 27.63769531 148.56494141 C27.33984375 146.34765625 27.33984375 146.34765625 28.33984375 143.34765625 C29.8984375 141.953125 29.8984375 141.953125 31.77734375 140.53515625 C35.13293135 137.73654118 36.5452133 135.76226987 37.33984375 131.34765625 C37.80615075 125.47218808 37.3140767 121.60213447 34.33984375 116.34765625 C30.65555709 112.30392699 28.68108541 111.26763318 23.27734375 110.78515625 C19.96094549 110.22911343 18.75480459 109.9228495 16.76171875 107.16015625 C15.37457451 103.9293393 14.32807665 100.72323314 13.33984375 97.34765625 C12.88342102 95.84616905 12.42635996 94.34487579 11.96875 92.84375 C11.0674074 89.85030895 10.19922333 86.84998587 9.35546875 83.83984375 C8.50684736 80.53195826 8.50684736 80.53195826 7.33984375 78.34765625 C4.79043002 78.03524254 2.33622862 77.83462204 -0.22265625 77.72265625 C-0.93357422 77.68398437 -1.64449219 77.6453125 -2.37695312 77.60546875 C-4.1375805 77.51093842 -5.89883353 77.42819808 -7.66015625 77.34765625 C-7.85351562 76.744375 -8.046875 76.14109375 -8.24609375 75.51953125 C-8.50648438 74.7203125 -8.766875 73.92109375 -9.03515625 73.09765625 C-9.29039062 72.30875 -9.545625 71.51984375 -9.80859375 70.70703125 C-11.30355876 66.24655196 -11.30355876 66.24655196 -14.59765625 63.16015625 C-16.26531399 62.50320017 -17.9597427 61.91446077 -19.66015625 61.34765625 C-19.66015625 60.68765625 -19.66015625 60.02765625 -19.66015625 59.34765625 C-26.74911682 59.47762053 -32.17261561 59.83951156 -37.94140625 64.19140625 C-39.84082146 65.46919466 -41.44481873 65.84697625 -43.66015625 66.34765625 C-44.33381009 62.61971683 -44.99784603 58.8901263 -45.66015625 55.16015625 C-45.8509375 54.10505859 -46.04171875 53.04996094 -46.23828125 51.96289062 C-46.41875 50.94130859 -46.59921875 49.91972656 -46.78515625 48.8671875 C-46.95273438 47.92979736 -47.1203125 46.99240723 -47.29296875 46.02661133 C-48.23591615 39.14698249 -48.23591615 39.14698249 -45.45703125 35.2890625 C-44.45351548 34.15195801 -43.43699165 33.02624746 -42.41015625 31.91015625 C-41.30693389 30.66958891 -40.20407995 29.42869385 -39.1015625 28.1875 C-38.53195801 27.55440918 -37.96235352 26.92131836 -37.37548828 26.26904297 C-35.17236798 23.80127229 -33.0232063 21.29039645 -30.88037109 18.77026367 C-29.86227206 17.57621092 -28.83787492 16.38749838 -27.80712891 15.2043457 C-25.69594253 12.77873469 -23.69434544 10.3963299 -21.84375 7.76171875 C-19.30598352 4.23810314 -17.69402951 2.64376558 -13.44140625 1.42578125 C-8.96637665 0.7181911 -4.48261418 0.58583357 0 0 Z " fill="#FDFDFD" transform="translate(225.66015625,177.65234375)"/>
<path d="M0 0 C5.90446287 3.14158738 10.66522734 7.69819394 13.1875 13.9375 C14.8617523 20.2481433 13.47621837 24.0027333 10.47265625 29.625 C7.39317608 34.59137651 3.93810783 37.00472399 -1.75 38.5625 C-6.84292129 39.42414227 -10.23963936 38.14409146 -14.7734375 35.84765625 C-17.48526518 34.81525869 -18.34715441 34.8645017 -21 36 C-22.92138923 37.28749982 -24.79166961 38.6524319 -26.625 40.0625 C-27.14626465 40.46009521 -27.6675293 40.85769043 -28.20458984 41.26733398 C-32.55920291 44.60569435 -36.81721582 48.06186362 -41.0390625 51.56640625 C-43 53 -43 53 -45 53 C-44.89300781 53.6290625 -44.78601563 54.258125 -44.67578125 54.90625 C-43.69027601 61.94254548 -44.25174093 66.76466924 -48.140625 72.7578125 C-50.74750619 76.17315684 -52.942787 77.77156606 -57 79 C-60.6640625 79.265625 -60.6640625 79.265625 -64.625 79.25 C-66.59339844 79.25773437 -66.59339844 79.25773437 -68.6015625 79.265625 C-72 79 -72 79 -75 77 C-75 76.34 -75 75.68 -75 75 C-75.639375 74.7525 -76.27875 74.505 -76.9375 74.25 C-79 73 -79 73 -79.75 70.875 C-79.8325 70.25625 -79.915 69.6375 -80 69 C-80.66 69 -81.32 69 -82 69 C-84.85613848 62.06366369 -83.32407748 57.80705591 -80.65234375 50.953125 C-78.35208788 46.8420294 -75.58479434 44.75466397 -71.375 42.75 C-62.91279017 40.86950893 -57.28678509 41.43108642 -50 46 C-48.80117187 45.07380859 -48.80117187 45.07380859 -47.578125 44.12890625 C-47.0524292 43.72430176 -46.5267334 43.31969727 -45.98510742 42.90283203 C-44.81757527 42.00093932 -43.65372387 41.09426371 -42.4934082 40.18310547 C-39.55848906 37.89354248 -36.62766745 35.71969827 -33.46484375 33.75390625 C-30.26778991 31.67715495 -27.56536952 29.82463559 -25 27 C-24.30083419 23.70454163 -24.41131834 21.06785195 -24.75390625 17.7265625 C-25.23359724 12.41189087 -22.22520126 9.16534409 -19.0625 5.25 C-13.94323329 -0.81121178 -7.57740941 -1.26290157 0 0 Z " fill="#81BDD5" transform="translate(162,136)"/>
<path d="M0 0 C4.62295798 2.83702653 6.77960815 7.09189795 8.453125 12.09375 C9.61181226 17.07147046 8.89984982 20.47184572 6.48046875 24.8125 C3.45746878 29.36020083 0.96843896 32.79902321 -4.05859375 35.19140625 C-11.32091622 36.41279685 -17.85453439 35.10771872 -24.05859375 31.19140625 C-28.72421666 27.12394012 -29.25158429 22.05883971 -30.05859375 16.19140625 C-30.24421875 15.18078125 -30.42984375 14.17015625 -30.62109375 13.12890625 C-29.55534938 7.5633523 -25.28944648 3.05186931 -21.01171875 -0.515625 C-14.44718647 -4.86134537 -6.64166568 -3.31505748 0 0 Z " fill="#EDB406" transform="translate(109.05859375,299.80859375)"/>
<path d="M0 0 C4.03694373 3.69616277 6.78178488 7.09186386 7.203125 12.70703125 C7.31969494 20.42978961 6.8567631 24.93420545 1.4375 30.75 C-3.1694278 34.27361557 -8.72784743 35.25736031 -14.43359375 34.80859375 C-19.95618521 33.77485403 -24.78544581 31.98033461 -28.25390625 27.3125 C-31.29896698 22.04995602 -31.92998038 16.97844529 -31 11 C-29.60656733 6.44394485 -27.80705793 3.66670003 -24.125 0.625 C-16.0521882 -3.57286213 -8.10999367 -4.71167649 0 0 Z " fill="#ED5648" transform="translate(416,240)"/>
<path d="M0 0 C3.76879343 3.14066119 7.36312967 6.53112842 9.125 11.1875 C9.16625 12.074375 9.2075 12.96125 9.25 13.875 C9.31058594 14.64070313 9.37117188 15.40640625 9.43359375 16.1953125 C9.6394873 20.37557551 9.52268617 23.25849214 7.8125 27.125 C3.94143026 31.27931875 -0.6760832 34.3380416 -5.75 36.875 C-13.95588235 37.13970588 -13.95588235 37.13970588 -17.75 35.875 C-17.75 35.215 -17.75 34.555 -17.75 33.875 C-18.306875 33.6275 -18.86375 33.38 -19.4375 33.125 C-23.6685348 30.83795416 -27.0762757 28.47967007 -28.75 23.875 C-28.90234375 20.37890625 -28.90234375 20.37890625 -28.6875 16.4375 C-28.63464844 15.13941406 -28.58179688 13.84132813 -28.52734375 12.50390625 C-27.58971835 8.12675047 -26.138691 6.70561281 -22.75 3.875 C-22.20214844 3.36453125 -21.65429688 2.8540625 -21.08984375 2.328125 C-14.74335974 -3.11676936 -7.67528671 -3.13989002 0 0 Z " fill="#EDB306" transform="translate(201.75,386.125)"/>
<path d="M0 0 C5.77693759 3.17013592 10.55939071 6.39121015 12.66015625 12.9296875 C13.52327125 18.98141338 12.2611616 25.10546719 9.25 30.375 C6.2583334 32.95115735 3.07153347 35.3125 -1 35.3125 C-1 35.9725 -1 36.6325 -1 37.3125 C-8.04730383 37.77127566 -13.40264652 37.92126617 -19 33.3125 C-19.87011719 32.68794922 -19.87011719 32.68794922 -20.7578125 32.05078125 C-24.51302817 28.72348551 -25.41085373 25.49610947 -25.76391602 20.50976562 C-25.8913687 14.9095333 -25.69371692 10.07138204 -22 5.5625 C-15.45690879 -0.41220147 -8.51838427 -3.95265937 0 0 Z " fill="#ED5648" transform="translate(334,87.6875)"/>
<path d="M0 0 C5.71824363 3.83270209 9.39627065 9.36834672 10.875 16.08984375 C10.67898563 22.26429631 9.38772307 26.01591042 5.875 31.08984375 C0.89935429 35.70141783 -3.04478631 36.27107688 -9.625 36.27734375 C-10.64013672 36.29571289 -10.64013672 36.29571289 -11.67578125 36.31445312 C-15.38857044 36.32543771 -16.95483076 36.20328991 -20.125 34.08984375 C-20.125 33.42984375 -20.125 32.76984375 -20.125 32.08984375 C-20.764375 31.84234375 -21.40375 31.59484375 -22.0625 31.33984375 C-24.125 30.08984375 -24.125 30.08984375 -24.875 27.96484375 C-24.99875 27.03671875 -24.99875 27.03671875 -25.125 26.08984375 C-25.785 26.08984375 -26.445 26.08984375 -27.125 26.08984375 C-29.98113848 19.15350744 -28.44907748 14.89689966 -25.77734375 8.04296875 C-23.47708788 3.93187315 -20.70979434 1.84450772 -16.5 -0.16015625 C-11.07644848 -1.36538992 -5.24843431 -2.24795073 0 0 Z " fill="#81BDD5" transform="translate(107.125,178.91015625)"/>
<path d="M0 0 C3.07469523 1.70251719 5.40613254 3.81226508 7 7 C7.54790634 11.57187419 7.64229075 14.95904603 5.1875 18.9375 C1.11018584 22.78182478 -1.38044994 23.43829943 -6.77734375 23.32421875 C-10.07747984 22.84282807 -11.74990361 21.38646587 -14 19 C-16.68121076 14.97818385 -16.81344335 11.72763609 -16 7 C-12.26262691 0.28940074 -7.25088901 -1.11926475 0 0 Z " fill="#EBB207" transform="translate(325,285)"/>
<path d="M0 0 C3.07469523 1.70251719 5.40613254 3.81226508 7 7 C7.40282133 12.23667727 6.83087029 15.55148954 4 20 C2.09550515 22.19749406 0.78298134 22.88101034 -2.08203125 23.31640625 C-6.15911462 23.52600755 -8.40263263 23.36858838 -11.9375 21.1875 C-15.73786778 17.1568069 -16.49053678 14.64309495 -16.39453125 9.29296875 C-15.72761415 5.41692581 -13.8124343 3.67850886 -11 1 C-7.51556578 -0.74221711 -3.80112955 -0.58675154 0 0 Z " fill="#81BDD5" transform="translate(204,244)"/>
<path d="M0 0 C3.35211493 2.18616191 4.72686604 3.18059812 6 7 C6.45683103 10.41177604 6.56444572 13.59704357 6 17 C3.02932673 20.55031684 0.92686361 21.73518183 -3.5 23 C-7.65542661 23 -9.58419615 22.35310932 -13 20 C-15.55669154 16.97233896 -16.8474933 14.91504018 -17.5 11 C-16.8474933 7.08495982 -15.55669154 5.02766104 -13 2 C-8.41295213 -1.15996631 -5.35312233 -1.45994245 0 0 Z " fill="#81BDD5" transform="translate(425,305)"/>
<path d="M0 0 C3.39488422 2.05107588 4.80323081 3.70484621 7 7 C7.47594047 11.20414081 7.27531214 13.46976921 5.3125 17.25 C2.18596768 20.96803843 -0.09874344 22.71683413 -4.9375 23.4375 C-8.86292527 22.87672496 -10.94797605 21.49711051 -14 19 C-16.5674189 14.83449383 -16.7139236 10.76798972 -16 6 C-11.88626617 -0.58197413 -7.32457585 -0.85357262 0 0 Z " fill="#EC5648" transform="translate(161,348)"/>
<path d="M0 0 C3.0625 2.4375 3.0625 2.4375 5 5 C5.33 5.33 5.66 5.66 6 6 C6.45654104 10.2493435 6.46440066 13.93187848 4.75 17.875 C1.61943028 21.67640609 0.16364266 22.84985256 -4.875 23.5 C-9.68074746 23.32068106 -11.73367617 21.42186306 -15 18 C-17.31205572 14.7421033 -17.47249357 11.93744642 -17 8 C-12.78927441 0.44973343 -8.35745236 -1.35958555 0 0 Z " fill="#ECB307" transform="translate(263,100)"/>
<path d="M0 0 C3.64363431 2.08326244 6.7625233 4.91632689 8 9 C8.52055293 12.99090581 8.16996586 14.69523363 6.1875 18.25 C3.91719941 21.10409217 2.36829679 22.77968103 -1.3046875 23.37109375 C-8.28881062 23.55153462 -8.28881062 23.55153462 -12.0625 20.625 C-15.38925255 16.11778686 -15.69641694 12.51409576 -15 7 C-11.30155392 0.79189408 -7.11114289 -0.85824138 0 0 Z " fill="#EF5748" transform="translate(117,244)"/>
<path d="M0 0 C3.57623788 1.9137306 5.69762236 4.09286708 7 8 C7.56722689 15.03361345 7.56722689 15.03361345 5.3125 18.875 C1.9815542 21.93586911 -0.52901096 22.84677198 -5 23.3125 C-9.52613463 22.84102764 -11.92956169 21.2919083 -14.8125 17.8125 C-16.36235209 14.14179769 -16.83367381 10.88037262 -16 7 C-12.12021407 0.33251603 -7.33643858 -1.12016092 0 0 Z " fill="#EEB506" transform="translate(366,346)"/>
<path d="M0 0 C4.18587144 1.7289469 6.17315321 3.86555726 8 8 C8.59047513 11.96461874 8.19372634 13.6471413 6.25 17.1875 C3.12118208 21.0985224 1.68403869 22.78169869 -3.375 23.4375 C-7.66155888 22.92015669 -9.70862423 21.75557041 -13 19 C-15.5623078 14.82859788 -15.71452839 10.77202891 -15 6 C-11.02368406 -0.36210551 -7.05304147 -0.67230031 0 0 Z " fill="#81BDD5" transform="translate(426,186)"/>
<path d="M0 0 C5.46341463 2.92682927 5.46341463 2.92682927 7 6 C7.43281664 10.23660902 7.44858706 13.91394711 5.8125 17.875 C3.6014525 20.46726259 2.19989543 21.74786701 -1 23 C-4.92311508 23.30671627 -8.51151076 23.20764222 -11.65625 20.65625 C-14.17316675 17.67106966 -15.87268538 15.12036864 -16.3125 11.25 C-15.91993628 7.16733731 -14.53100884 5.18183968 -12 2 C-7.96499935 -0.69000043 -4.74124093 -0.678474 0 0 Z " fill="#ED5748" transform="translate(366,144)"/>
<path d="M0 0 C3.12578143 1.6720747 5.39281175 3.7856235 7 7 C7.68128376 13.81283762 7.68128376 13.81283762 5.953125 16.82421875 C3.50874273 19.79342427 1.66363744 21.79388563 -2.20703125 22.2734375 C-9.30864514 22.55026203 -9.30864514 22.55026203 -13.0625 19.5625 C-13.701875 18.716875 -14.34125 17.87125 -15 17 C-15.33 16.67 -15.66 16.34 -16 16 C-16.55419529 11.09400888 -16.74119722 7.21062213 -14.125 2.9375 C-9.94102375 -0.87730187 -5.45190171 -0.76810866 0 0 Z " fill="#EDB407" transform="translate(336,396)"/>
<path d="M0 0 C3.76110572 0.02155361 5.955079 0.3286021 8.875 2.75 C12.17342467 6.30214965 12.70748317 8.38230949 12.671875 13.26953125 C12.03668186 16.99093453 9.97270984 18.77812849 7.3125 21.375 C3.60053409 23.23098295 -0.64632614 22.96592637 -4.6875 22.375 C-7.75 19.9375 -7.75 19.9375 -9.6875 17.375 C-10.0175 17.045 -10.3475 16.715 -10.6875 16.375 C-11.12586682 12.99331307 -11.17435233 9.75155645 -10.6875 6.375 C-8.25 3.3125 -8.25 3.3125 -5.6875 1.375 C-4.05531064 -0.25718936 -2.24806873 0.08736889 0 0 Z " fill="#EDB407" transform="translate(341.6875,244.625)"/>
<path d="M0 0 C3.6578218 2.03993908 5.66946174 3.50419262 8 7 C8.61414419 11.25912987 8.43727155 14.97241187 6.75 18.9375 C4.43633869 21.66431511 2.35897841 22.7909264 -1.18359375 23.3359375 C-5.18287366 23.40524911 -7.42740621 23.34111971 -10.9375 21.25 C-13.78206465 18.14683856 -14.82909642 16.31026074 -15.375 12.125 C-14.77890258 7.15752153 -12.50345952 4.18694172 -8.625 1.125 C-5.39835874 -0.25784626 -3.48313618 -0.49759088 0 0 Z " fill="#EEB406" transform="translate(261,177)"/>
<path d="M0 0 C2.68928952 2.18895659 4.45748782 3.75928483 5.0234375 7.2734375 C5.09213693 11.29922399 5.04178083 13.59281432 2.9375 17.125 C-0.35144194 20.13986344 -2.18732913 21.01766289 -6.625 21.6875 C-10.9045823 21.10721765 -12.83904331 20.03757829 -15.91796875 17.09765625 C-18.40890341 13.68570373 -18.83081196 10.32659125 -18.3125 6.1875 C-16.72054049 2.94461951 -15.36645191 0.98704972 -12.5 -1.1875 C-7.71191029 -2.55552563 -4.38237247 -2.39790192 0 0 Z " fill="#EFB506" transform="translate(195.3125,97.8125)"/>
<path d="M0 0 C3.25442401 1.2882095 4.49223523 2.21527264 6.375 5.125 C7.27910644 9.28388964 7.25879342 12.91262371 6 17 C2.99703842 20.43195609 0.84814931 21.7425261 -3.5 23.0625 C-8.69092418 22.96980493 -11.19676866 20.68301592 -14.875 17.25 C-16.60166342 13.79667317 -16.81800409 10.70507736 -16 7 C-12.55150893 -0.18097552 -7.49846702 -1.36449567 0 0 Z " fill="#EE5748" transform="translate(262,389)"/>
<path d="M0 0 C3.01113945 1.27537931 3.80962762 2.31679384 6 5 C7.4450278 9.44121537 7.3339196 12.93931422 5.9375 17.375 C3.5372046 20.62701312 1.84070788 21.74438396 -2 23 C-8.08432021 23 -10.8194017 21.08106025 -15 17 C-16.61429923 13.77140153 -16.59570657 10.49006347 -16 7 C-12.13742602 0.26932072 -7.32980456 -1.04535803 0 0 Z " fill="#EE5748" transform="translate(250,294)"/>
<path d="M0 0 C2.12038635 2.61514317 4.13091744 5.19637616 6 8 C5.11699219 8.61746094 4.23398438 9.23492187 3.32421875 9.87109375 C-3.66137304 14.79071729 -10.39229547 19.82654849 -16.890625 25.3828125 C-19 27 -19 27 -21 27 C-21.33 28.32 -21.66 29.64 -22 31 C-23.62319476 27.33016838 -25.1069425 23.91904847 -26 20 C-17.33333333 13.33333333 -8.66666667 6.66666667 0 0 Z " fill="#16273D" transform="translate(138,162)"/>
<path d="M0 0 C0 0.66 0 1.32 0 2 C-0.70125 2.391875 -1.4025 2.78375 -2.125 3.1875 C-5.39432266 5.24859472 -7.30400321 7.56156609 -9.66796875 10.57421875 C-10.10753906 11.04472656 -10.54710938 11.51523437 -11 12 C-11.66 12 -12.32 12 -13 12 C-11.65263662 9.06559801 -10.11433035 6.74926573 -8 4.3125 C-7.484375 3.71050781 -6.96875 3.10851562 -6.4375 2.48828125 C-4.22270887 0.19525022 -3.24065789 0 0 0 Z " fill="#D9A608" transform="translate(93,298)"/>
<path d="M0 0 C0.99 0.33 1.98 0.66 3 1 C2.030625 1.845625 1.06125 2.69125 0.0625 3.5625 C-3.20125576 6.78017921 -3.81523971 9.38099287 -4 14 C-4.33 14 -4.66 14 -5 14 C-5.602537 7.01057082 -5.602537 7.01057082 -3.88671875 4.1328125 C-2.66254412 2.69138998 -1.33721771 1.33721771 0 0 Z " fill="#D7A50C" transform="translate(355,347)"/>
<path d="M0 0 C0 0.33 0 0.66 0 1 C-1.5159375 1.3403125 -1.5159375 1.3403125 -3.0625 1.6875 C-7.43018335 2.90866861 -10.43955933 5.23884193 -14 8 C-13.39873894 4.67208994 -13.10521442 4.09018379 -10.375 1.75 C-6.57789269 -0.21887045 -4.21526759 -0.33722141 0 0 Z " fill="#C44E47" transform="translate(117,244)"/>
<path d="M0 0 C0.66 0.33 1.32 0.66 2 1 C1.21654285 2.17219543 0.42297164 3.33763668 -0.375 4.5 C-0.81585938 5.1496875 -1.25671875 5.799375 -1.7109375 6.46875 C-2.13632812 6.9740625 -2.56171875 7.479375 -3 8 C-3.66 8 -4.32 8 -5 8 C-3.8141763 4.62496331 -2.72426311 2.35277269 0 0 Z " fill="#364459" transform="translate(309,281)"/>
<path d="M0 0 C1.32 0.33 2.64 0.66 4 1 C1.36 2.98 -1.28 4.96 -4 7 C-2.92598892 4.08482708 -2.22189824 2.22189824 0 0 Z " fill="#DFAB0A" transform="translate(251,101)"/>
</svg>
