<svg width="80" height="80" viewBox="0 0 80 80" fill="none" xmlns="http://www.w3.org/2000/svg">
<g clip-path="url(#clip0_219_291)">
<path fill-rule="evenodd" clip-rule="evenodd" d="M40 0C62.0914 0 80 17.9086 80 40C80 62.0914 62.0914 80 40 80C17.9086 80 0 62.0914 0 40C0 17.9086 17.9086 0 40 0ZM65.3906 55.5064V25.7778L50.5255 40.642L65.3906 55.5064ZM17.785 56.112H62.2159L48.6366 42.5327L43.4611 47.7073C43.2102 47.9576 42.8702 48.0981 42.5158 48.098H37.4845C37.309 48.0981 37.1352 48.0637 36.9729 47.9967C36.8107 47.9297 36.6633 47.8314 36.5391 47.7073L31.3638 42.5327L17.7844 56.112H17.785ZM14.6094 25.7769V55.5072L29.4745 40.642L14.6094 25.7769ZM63.5009 23.888H16.5L38.0381 45.4261H41.9627L63.5009 23.888Z" fill="white"/>
</g>
<defs>
<clipPath id="clip0_219_291">
<rect width="80" height="80" fill="white"/>
</clipPath>
</defs>
</svg>
