<svg width="80" height="80" viewBox="0 0 80 80" fill="none" xmlns="http://www.w3.org/2000/svg">
<g clip-path="url(#clip0_219_298)">
<path d="M80 40C80 59.9656 65.3719 76.5141 46.25 79.5141V51.5625H55.5703L57.3438 40H46.25V32.4969C46.25 29.3328 47.8 26.25 52.7687 26.25H57.8125V16.4063C57.8125 16.4063 53.2344 15.625 48.8578 15.625C39.7219 15.625 33.75 21.1625 33.75 31.1875V40H23.5938V51.5625H33.75V79.5141C14.6281 76.5141 0 59.9656 0 40C0 17.9094 17.9094 0 40 0C62.0906 0 80 17.9094 80 40Z" fill="#1877F2"/>
<path d="M55.5703 51.5625L57.3438 40H46.25V32.4967C46.25 29.3334 47.7997 26.25 52.7686 26.25H57.8125V16.4062C57.8125 16.4062 53.235 15.625 48.8586 15.625C39.7217 15.625 33.75 21.1625 33.75 31.1875V40H23.5938V51.5625H33.75V79.5139C35.7866 79.8334 37.8737 80 40 80C42.1262 80 44.2134 79.8334 46.25 79.5139V51.5625H55.5703Z" fill="white"/>
</g>
<defs>
<clipPath id="clip0_219_298">
<rect width="80" height="80" fill="white"/>
</clipPath>
</defs>
</svg>
