<svg width="80" height="80" viewBox="0 0 80 80" fill="none" xmlns="http://www.w3.org/2000/svg">
<path d="M59.5782 3.66724H20.4219C11.1686 3.66724 3.66724 11.1686 3.66724 20.4219V59.5782C3.66724 68.8315 11.1686 76.3329 20.4219 76.3329H59.5782C68.8315 76.3329 76.3329 68.8315 76.3329 59.5782V20.4219C76.3329 11.1686 68.8315 3.66724 59.5782 3.66724Z" fill="url(#paint0_linear_219_293)"/>
<path d="M51.7187 18.0031C54.4773 18.0143 57.1197 19.115 59.0703 21.0656C61.0209 23.0162 62.1217 25.6587 62.1328 28.4172V51.5828C62.1217 54.3414 61.0209 56.9838 59.0703 58.9344C57.1197 60.885 54.4773 61.9858 51.7187 61.9969H28.2812C25.5227 61.9858 22.8803 60.885 20.9296 58.9344C18.979 56.9838 17.8783 54.3414 17.8672 51.5828V28.4172C17.8783 25.6587 18.979 23.0162 20.9296 21.0656C22.8803 19.115 25.5227 18.0143 28.2812 18.0031H51.7187ZM51.7187 13.1594H28.2812C19.889 13.1594 13.0219 20.0344 13.0219 28.4188V51.5828C13.0219 59.975 19.8969 66.8422 28.2812 66.8422H51.7187C60.1109 66.8422 66.9781 59.9672 66.9781 51.5828V28.4172C66.9781 20.025 60.1109 13.1578 51.7187 13.1578V13.1594Z" fill="white"/>
<path d="M40 30.9578C41.7884 30.9578 43.5366 31.4881 45.0236 32.4816C46.5106 33.4752 47.6695 34.8874 48.3539 36.5397C49.0383 38.1919 49.2174 40.01 48.8685 41.764C48.5196 43.518 47.6584 45.1292 46.3938 46.3937C45.1292 47.6583 43.5181 48.5195 41.7641 48.8684C40.0101 49.2173 38.192 49.0382 36.5397 48.3538C34.8875 47.6695 33.4753 46.5105 32.4817 45.0235C31.4881 43.5365 30.9578 41.7883 30.9578 40C30.9607 37.6027 31.9143 35.3045 33.6094 33.6094C35.3045 31.9142 37.6028 30.9607 40 30.9578ZM40 26.114C37.2536 26.114 34.5689 26.9284 32.2854 28.4542C30.0019 29.98 28.2221 32.1487 27.1711 34.686C26.1201 37.2234 25.8451 40.0154 26.3809 42.709C26.9167 45.4026 28.2392 47.8768 30.1812 49.8188C32.1232 51.7608 34.5974 53.0833 37.291 53.6191C39.9846 54.1549 42.7766 53.8799 45.3139 52.8289C47.8513 51.7779 50.0199 49.9981 51.5458 47.7146C53.0716 45.431 53.886 42.7463 53.886 40C53.886 36.3172 52.423 32.7852 49.8189 30.1811C47.2147 27.577 43.6828 26.114 40 26.114Z" fill="white"/>
<path d="M54.189 28.7969C56.0073 28.7969 57.4812 27.3229 57.4812 25.5047C57.4812 23.6865 56.0073 22.2125 54.189 22.2125C52.3708 22.2125 50.8969 23.6865 50.8969 25.5047C50.8969 27.3229 52.3708 28.7969 54.189 28.7969Z" fill="white"/>
<defs>
<linearGradient id="paint0_linear_219_293" x1="51.2922" y1="79.3829" x2="28.7079" y2="0.617233" gradientUnits="userSpaceOnUse">
<stop stop-color="#FFDB73"/>
<stop offset="0.08" stop-color="#FDAD4E"/>
<stop offset="0.15" stop-color="#FB832E"/>
<stop offset="0.19" stop-color="#FA7321"/>
<stop offset="0.23" stop-color="#F6692F"/>
<stop offset="0.37" stop-color="#E84A5A"/>
<stop offset="0.48" stop-color="#E03675"/>
<stop offset="0.55" stop-color="#DD2F7F"/>
<stop offset="0.68" stop-color="#B43D97"/>
<stop offset="0.97" stop-color="#4D60D4"/>
<stop offset="1" stop-color="#4264DB"/>
</linearGradient>
</defs>
</svg>
