<svg width="80" height="80" viewBox="0 0 80 80" fill="none" xmlns="http://www.w3.org/2000/svg">
<g clip-path="url(#clip0_219_302)">
<path d="M40 80C17.912 80 0 62.088 0 40C0 17.912 17.912 0 40 0C62.088 0 80 17.912 80 40C80 62.088 62.088 80 40 80Z" fill="#25D366"/>
<path fill-rule="evenodd" clip-rule="evenodd" d="M58.712 21.3759C53.752 16.4079 47.144 13.6719 40.112 13.6639C25.624 13.6639 13.824 25.4559 13.824 39.9519C13.824 44.5839 15.032 49.1119 17.336 53.0959L13.608 66.7199L27.544 63.0639C31.384 65.1599 35.704 66.2639 40.104 66.2639H40.112C54.6 66.2639 66.392 54.4719 66.4 39.9759C66.408 32.9519 63.68 26.3439 58.712 21.3759ZM40.12 61.8239H40.112C36.192 61.8239 32.344 60.7679 28.992 58.7759L28.192 58.3039L19.92 60.4719L22.128 52.4079L21.608 51.5839C19.424 48.1039 18.264 44.0879 18.264 39.9519C18.272 27.9039 28.072 18.1039 40.128 18.1039C45.968 18.1039 51.448 20.3839 55.576 24.5119C59.704 28.6399 61.976 34.1359 61.968 39.9679C61.968 52.0239 52.16 61.8239 40.12 61.8239ZM52.104 45.4559C51.448 45.1279 48.216 43.5359 47.616 43.3199C47.016 43.1039 46.576 42.9919 46.136 43.6479C45.696 44.3039 44.44 45.7839 44.056 46.2239C43.672 46.6639 43.288 46.7199 42.632 46.3919C41.976 46.0639 39.856 45.3679 37.352 43.1279C35.4 41.3839 34.08 39.2319 33.696 38.5759C33.312 37.9199 33.656 37.5599 33.984 37.2319C34.28 36.9359 34.64 36.4639 34.968 36.0799C35.296 35.6959 35.408 35.4239 35.624 34.9839C35.84 34.5439 35.736 34.1599 35.568 33.8319C35.4 33.5039 34.088 30.2719 33.544 28.9519C33.008 27.6719 32.472 27.8479 32.064 27.8239C31.68 27.8079 31.24 27.7999 30.808 27.7999C30.368 27.7999 29.656 27.9679 29.056 28.6239C28.456 29.2799 26.76 30.8719 26.76 34.1039C26.76 37.3359 29.112 40.4639 29.44 40.8959C29.768 41.3359 34.072 47.9679 40.664 50.8159C42.232 51.4959 43.456 51.8959 44.408 52.1999C45.984 52.7039 47.416 52.6319 48.544 52.4639C49.808 52.2719 52.432 50.8719 52.976 49.3439C53.52 47.8079 53.52 46.4959 53.36 46.2239C53.2 45.9519 52.76 45.7919 52.104 45.4559Z" fill="white"/>
</g>
<defs>
<clipPath id="clip0_219_302">
<rect width="80" height="80" fill="white"/>
</clipPath>
</defs>
</svg>
