<svg width="80" height="80" viewBox="0 0 80 80" fill="none" xmlns="http://www.w3.org/2000/svg">
<g clip-path="url(#clip0_219_309)">
<path d="M40 0C17.9094 0 0 17.9094 0 40C0 62.0906 17.9094 80 40 80C62.0906 80 80 62.0906 80 40C80 17.9094 62.0906 0 40 0Z" fill="black"/>
<path d="M44.376 36.3801L61.4995 16.4755H57.4418L42.5734 33.7585L30.6982 16.4755H17.0014L34.9592 42.6104L17.0014 63.4835H21.0594L36.7608 45.2321L49.3019 63.4835H62.9987L44.375 36.3801H44.376ZM22.5215 19.5303H28.7542L57.4436 60.5677H51.2109L22.5215 19.5303Z" fill="white"/>
</g>
<defs>
<clipPath id="clip0_219_309">
<rect width="80" height="80" fill="white"/>
</clipPath>
</defs>
</svg>
